<?xml version="1.0" encoding="utf-8"?>
<!-- Generator: Adobe Illustrator 23.0.5, SVG Export Plug-In . SVG Version: 6.00 Build 0)  -->
<svg version="1.1" xmlns="http://www.w3.org/2000/svg" xmlns:xlink="http://www.w3.org/1999/xlink" x="0px" y="0px"
	 viewBox="0 0 191.46 162.49" style="enable-background:new 0 0 191.46 162.49;" xml:space="preserve">
<style type="text/css">
	.st0{fill:#A6D8F0;}
	.st1{fill:#8DD1F1;}
	.st2{fill:#FFFFFF;}
	.st3{fill:#05405C;}
	.st4{font-family:'ComicSansMS-Bold';}
	.st5{font-size:6.8205px;}
	.st6{fill:#FDCF5F;}
	.st7{fill:#FCE5EB;}
	.st8{fill:#544B9A;}
	.st9{fill:#EA537F;}
	.st10{fill:none;stroke:#FFFFFF;stroke-width:0.785;stroke-linecap:round;stroke-linejoin:round;stroke-miterlimit:10;}
	.st11{fill:none;stroke:#FFFFFF;stroke-width:0.6838;stroke-linecap:round;stroke-linejoin:round;stroke-miterlimit:10;}
	.st12{fill:#E6F1F9;}
	.st13{fill:#24576C;}
	.st14{fill:#0975A8;}
	.st15{fill:#F5ADB6;}
	.st16{fill:#F296A1;}
	.st17{fill:#0972A4;}
	.st18{fill:#1485BB;}
	.st19{fill:#4CA1C9;}
	.st20{fill:#CCE9FB;}
	.st21{fill:#0B5E87;}
	.st22{fill:#E83D4E;}
	.st23{fill:#6DC7F0;}
	.st24{fill:#F39123;}
	.st25{fill:#EF7D8B;}
	.st26{fill:#DE642D;}
	.st27{fill:#3E1E41;}
	.st28{fill:none;stroke:#0975A8;stroke-width:0.5;stroke-linecap:round;stroke-miterlimit:10;stroke-dasharray:0.9972,4.986;}
	.st29{fill:none;stroke:#0975A8;stroke-width:0.5;stroke-linecap:round;stroke-miterlimit:10;stroke-dasharray:0.9972,4.9861;}
	.st30{fill:#EB5E6E;}
	.st31{fill:#61A6B2;}
	.st32{opacity:0.33;fill:#05405C;}
	.st33{fill:#F49C67;}
	.st34{fill:#F0F1F0;}
	.st35{clip-path:url(#SVGID_2_);fill:#F49C67;}
	.st36{clip-path:url(#SVGID_2_);fill:#F18452;}
	.st37{opacity:0.72;clip-path:url(#SVGID_2_);fill:#E5E5E4;}
	.st38{fill:none;stroke:#282859;stroke-width:0.9765;stroke-linecap:round;stroke-linejoin:round;stroke-miterlimit:10;}
	.st39{fill:#282859;}
	.st40{fill:#7E381D;}
	.st41{fill:#F9C2B0;}
	.st42{fill:#F7B5A7;}
	.st43{fill:#3C1318;}
	.st44{clip-path:url(#XMLID_14_);fill:#3C1318;}
	.st45{clip-path:url(#XMLID_14_);fill:#FFFFFF;}
	.st46{fill:none;stroke:#020203;stroke-width:0.6285;stroke-linecap:round;stroke-linejoin:round;stroke-miterlimit:10;}
	.st47{clip-path:url(#XMLID_15_);fill:#3C1318;}
	.st48{clip-path:url(#XMLID_15_);fill:#FFFFFF;}
	.st49{fill:none;stroke:#020203;stroke-width:0.5629;stroke-linecap:round;stroke-linejoin:round;stroke-miterlimit:10;}
	.st50{fill:none;stroke:#AF5B40;stroke-width:0.7828;stroke-linecap:round;stroke-linejoin:round;stroke-miterlimit:10;}
	.st51{fill:none;stroke:#AF5B40;stroke-width:0.7881;stroke-linecap:round;stroke-linejoin:round;stroke-miterlimit:10;}
	.st52{fill:#574B99;}
	.st53{fill:#F8BB9F;}
	.st54{fill:#99D0C2;}
	.st55{fill:#F5AA90;}
	.st56{fill:none;stroke:#AF5B40;stroke-width:0.8379;stroke-linecap:round;stroke-linejoin:round;stroke-miterlimit:10;}
	.st57{clip-path:url(#XMLID_16_);fill:#3C1318;}
	.st58{clip-path:url(#XMLID_16_);fill:#FFFFFF;}
	.st59{fill:none;stroke:#020203;stroke-width:0.6682;stroke-linecap:round;stroke-linejoin:round;stroke-miterlimit:10;}
	.st60{clip-path:url(#XMLID_17_);fill:#3C1318;}
	.st61{clip-path:url(#XMLID_17_);fill:#FFFFFF;}
	.st62{fill:none;stroke:#020203;stroke-width:0.5985;stroke-linecap:round;stroke-linejoin:round;stroke-miterlimit:10;}
	.st63{fill:none;stroke:#AF5B40;stroke-width:0.8323;stroke-linecap:round;stroke-linejoin:round;stroke-miterlimit:10;}
	.st64{clip-path:url(#XMLID_18_);fill:#EA537F;}
	.st65{fill:none;stroke:#EA537F;stroke-width:1.3851;stroke-linecap:round;stroke-linejoin:round;stroke-miterlimit:10;}
	.st66{fill:none;stroke:#282859;stroke-width:0.8529;stroke-linecap:round;stroke-linejoin:round;stroke-miterlimit:10;}
</style>
<g id="Capa_14">
</g>
<g id="Capa_13">
	<g id="Capa_12">
		<g>
			<path class="st0" d="M191.46,0v162.49h-43.4c0,0-3.53-30.83-21.06-33.12c-17.54-2.29-40.33-4.08-46.09-18.87
				c-5.76-14.79-18.98-44.27-20.56-46.89c0,0-0.56,0.03,1.32,0.61c3.75,1.15,8.47-2.77,11.48-8.04c4.51-7.91,5.26-20.66,17.28-23.97
				c12.02-3.32,33.95-19.97,38.46-32.21H191.46z"/>
			<path class="st1" d="M191.78,126.62l-0.32,35.87h-39.34c0,0-2.91-24.33-4.49-26.8c-1.54-2.43-5.71-7.88-9.95-10.16
				c-2.73-1.47-6.13-2.65-10.37-3.2c-17.54-2.29-48.61-5.78-54.37-20.57c-0.37-0.95-0.72-1.93-1.05-2.93
				c-1.37-4.14-2.42-8.69-3.42-13.38c-2.54-11.8-1.38-18.19-7.64-27.91c0,0-1.09-1.29,0.79-0.72c3.75,1.15,8.82-2.41,11.83-7.68
				c4.51-7.91,5.26-20.66,17.28-23.97c12.02-3.32,29.28-12.93,33.79-25.17h16.03c1.18-4.32-3.31,28.51-12.88,37.16
				c-11.72,10.61-18.71,7.51-16.36,23.96c2.35,16.44,10.37,29.35,21.57,31.47c11.21,2.12,24.5,7.96,26.84,19.89
				C161.51,121.53,185.09,125.55,191.78,126.62z"/>
		</g>
		<path class="st2" d="M173.79,41.4c0.04-0.35,0.06-0.71,0.06-1.07c0-5.29-4.21-9.58-9.41-9.58c-1.22,0-2.39,0.24-3.46,0.67
			c-2-3.26-5.55-5.43-9.61-5.43c-3.38,0-6.41,1.51-8.49,3.9c-2.59-3.74-6.86-6.18-11.7-6.18c-7.9,0-14.31,6.52-14.31,14.57
			c0,1.03,0.11,2.03,0.3,2.99c-5.18,1.3-9.03,6.06-9.03,11.74c0,6.68,5.32,12.09,11.88,12.09c1.63,0,3.19-0.34,4.6-0.94
			c0.88,6.66,6.49,11.8,13.27,11.8c4.28,0,8.08-2.04,10.53-5.22c1.61,1.08,3.53,1.71,5.6,1.71c5.17,0,9.44-3.93,10.09-9.01
			c1.65,0.89,3.53,1.39,5.53,1.39c6.56,0,11.88-5.42,11.88-12.09C181.53,47.54,178.31,43.11,173.79,41.4z"/>
		<text transform="matrix(0.9823 0 0 1 134.3437 43.973)"><tspan x="0" y="0" class="st3 st4 st5">FELIZ</tspan><tspan x="-4.46" y="8.18" class="st3 st4 st5">DÍA DEL</tspan><tspan x="0.17" y="16.37" class="st3 st4 st5">NIÑO</tspan></text>
		<g>
			<polygon class="st6" points="167.43,37.88 166.51,34.63 165.59,37.88 163.47,38.81 165.59,39.75 166.51,43 167.43,39.75 
				169.56,38.81 			"/>
			<polygon class="st6" points="161.43,40.98 160.88,39.05 160.34,40.98 159.08,41.53 160.34,42.09 160.88,44.02 161.43,42.09 
				162.69,41.53 			"/>
		</g>
		<g>
			<polygon class="st6" points="117.75,54.33 118.67,51.07 119.59,54.33 121.71,55.26 119.59,56.2 118.67,59.45 117.75,56.2 
				115.63,55.26 			"/>
			<polygon class="st6" points="123.75,57.43 124.3,55.5 124.84,57.43 126.11,57.98 124.84,58.54 124.3,60.47 123.75,58.54 
				122.49,57.98 			"/>
		</g>
		<g>
			<ellipse class="st2" cx="84.14" cy="77.81" rx="1.04" ry="1.06"/>
			<ellipse class="st2" cx="173.48" cy="61.93" rx="1.04" ry="1.06"/>
			<ellipse class="st2" cx="103.45" cy="51.72" rx="1.04" ry="1.06"/>
			<path class="st2" d="M108.2,105c0,0.3-0.24,0.55-0.54,0.55c-0.3,0-0.54-0.24-0.54-0.55c0-0.3,0.24-0.55,0.54-0.55
				C107.96,104.46,108.2,104.7,108.2,105z"/>
			<ellipse class="st2" cx="162.11" cy="49.84" rx="1.04" ry="1.06"/>
			<ellipse class="st2" cx="159.9" cy="125.09" rx="1.04" ry="1.06"/>
			<ellipse class="st2" cx="174.39" cy="95.12" rx="0.59" ry="0.6"/>
		</g>
		<g>
			<polygon class="st2" points="178.84,73.62 179.62,72.02 180.4,73.62 182.14,73.88 180.88,75.13 181.18,76.9 179.62,76.07 
				178.06,76.9 178.36,75.13 177.1,73.88 			"/>
			<polygon class="st2" points="110.86,36.12 111.64,34.51 112.41,36.12 114.16,36.38 112.9,37.63 113.19,39.4 111.63,38.56 
				110.08,39.4 110.37,37.63 109.11,36.38 			"/>
			<polygon class="st2" points="168.73,34.5 169.51,32.89 170.29,34.5 172.03,34.76 170.77,36.01 171.07,37.78 169.51,36.94 
				167.95,37.78 168.25,36.01 166.99,34.76 			"/>
			<polygon class="st2" points="103.94,115.23 104.72,113.62 105.5,115.23 107.24,115.49 105.98,116.74 106.28,118.5 104.72,117.67 
				103.16,118.5 103.46,116.74 102.2,115.48 			"/>
		</g>
		<g>
			<g>
				<path class="st7" d="M69.93,130.73c-0.44-0.08-0.85,0.03-1.17,0.26c-0.26-1.48-1.53-2.6-3.06-2.6c-1.33,0-2.47,0.85-2.91,2.05
					c-0.46-0.31-1.02-0.46-1.63-0.37c-0.9,0.13-1.65,0.79-1.92,1.68c-0.06,0.2-0.09,0.4-0.1,0.6c-0.01,0.29,0.22,0.54,0.51,0.54
					h3.23h0.93h4.42h0.3h2.11c0.3,0,0.56-0.24,0.57-0.55c0-0.1,0-0.2-0.02-0.3C71.09,131.39,70.58,130.85,69.93,130.73z"/>
				<path class="st7" d="M26.38,69.55c-0.61-0.11-1.18,0.05-1.62,0.37c-0.36-2.05-2.12-3.6-4.24-3.6c-1.85,0-3.42,1.18-4.03,2.84
					c-0.63-0.42-1.41-0.63-2.25-0.51c-1.25,0.17-2.29,1.1-2.66,2.32c-0.08,0.28-0.13,0.56-0.14,0.83c-0.02,0.41,0.31,0.75,0.71,0.75
					h4.46h1.29h6.12h0.41h2.92c0.42,0,0.77-0.33,0.79-0.76c0.01-0.13,0-0.27-0.02-0.41C27.98,70.46,27.27,69.71,26.38,69.55z"/>
				<path class="st7" d="M80.15,56.96c-0.35-0.06-0.68,0.03-0.94,0.21c-0.21-1.18-1.23-2.08-2.45-2.08c-1.07,0-1.98,0.68-2.33,1.64
					c-0.36-0.24-0.82-0.36-1.3-0.3c-0.72,0.1-1.32,0.63-1.53,1.34c-0.05,0.16-0.07,0.32-0.08,0.48c-0.01,0.24,0.18,0.43,0.41,0.43
					h2.58h0.74h3.54h0.24h1.68c0.24,0,0.45-0.19,0.46-0.44c0-0.08,0-0.16-0.01-0.24C81.08,57.48,80.67,57.05,80.15,56.96z"/>
			</g>
			<g>
				<path class="st8" d="M39.72,127.42c0,0-0.6-1.45-1.52-0.77c-0.93,0.67,0.53,2.93,1.52,3.5c0,0,2.25-1.92,1.79-3.07
					C41.04,125.94,39.92,126.58,39.72,127.42z"/>
				<path class="st8" d="M62.02,63.76c0,0-0.6-1.45-1.52-0.77c-0.93,0.67,0.53,2.93,1.52,3.5c0,0,2.25-1.92,1.79-3.07
					C63.34,62.28,62.22,62.92,62.02,63.76z"/>
				<path class="st9" d="M82.07,132.15c0,0-0.6-1.45-1.52-0.77c-0.93,0.67,0.53,2.93,1.52,3.5c0,0,2.25-1.92,1.79-3.07
					C83.4,130.67,82.27,131.31,82.07,132.15z"/>
				<path class="st9" d="M2.06,131.52c0,0-0.6-1.45-1.52-0.77c-0.93,0.67,0.53,2.93,1.52,3.5c0,0,2.25-1.92,1.79-3.07
					C3.39,130.04,2.26,130.68,2.06,131.52z"/>
			</g>
			<g>
				<g>
					<path class="st10" d="M80.43,72.31c0,0,1.03,7.08,2.61,9.72c3.21,5.38,7.2,10.97-0.62,16.59c-5.85,4.2-1.66,15.64-1.66,15.64"
						/>
					<g id="XMLID_8_">
						<g id="XMLID_12_">
							<path id="XMLID_59_" class="st9" d="M82.16,76.96l-0.7,0.26l-0.73,0.17c0,0-0.49,1.04-0.1,1.25c0.31,0.17,0.81,0.1,1.23-0.03
								c0.43-0.13,0.88-0.34,1.05-0.65C83.13,77.56,82.16,76.96,82.16,76.96z"/>
							<g id="XMLID_13_">
								
									<ellipse id="XMLID_23_" transform="matrix(0.9691 -0.2468 0.2468 0.9691 -14.9325 21.8095)" class="st9" cx="79.52" cy="70.46" rx="6.37" ry="7.31"/>
								<path id="XMLID_21_" class="st2" d="M78.09,68.34c0.15,1.08-0.52,2.08-1.51,2.22c-0.99,0.15-1.91-0.61-2.07-1.69
									c-0.15-1.08,0.52-2.08,1.51-2.22C77.01,66.49,77.93,67.25,78.09,68.34z"/>
							</g>
						</g>
					</g>
				</g>
				<g>
					<path class="st11" d="M6.54,61.21c0,0-1.49,5.67-3.14,7.63c-3.35,3.99-6.82,6.58-0.12,12.21c5.01,4.21-2.2,8.11-2.2,8.11"/>
					<g id="XMLID_11_">
						<g id="XMLID_64_">
							<path id="XMLID_70_" class="st8" d="M5.36,66.79L4.85,66.6l-0.48-0.25c0,0-0.74,0.35-0.62,0.65c0.1,0.24,0.41,0.43,0.7,0.56
								c0.29,0.13,0.65,0.22,0.88,0.13C5.63,67.57,5.36,66.79,5.36,66.79z"/>
							<g id="XMLID_66_">
								
									<ellipse id="XMLID_68_" transform="matrix(0.3474 -0.9377 0.9377 0.3474 -53.6295 46.795)" class="st8" cx="6.81" cy="61.93" rx="5.27" ry="4.6"/>
								<path id="XMLID_67_" class="st2" d="M6.96,60.07c-0.4,0.68-1.23,0.92-1.84,0.54c-0.62-0.38-0.79-1.23-0.39-1.91
									c0.4-0.68,1.23-0.92,1.84-0.54C7.19,58.54,7.36,59.4,6.96,60.07z"/>
							</g>
						</g>
					</g>
				</g>
			</g>
		</g>
		<g>
			<path class="st12" d="M45.88,62.24c0,0,0,0.01,0,0.01c0,0.58-0.48,1.05-1.06,1.05H19.87c-0.47,0-0.88-0.31-1.02-0.77
				c-0.17-0.58-0.26-1.21-0.26-1.86c0-3.11,2.07-5.64,4.63-5.64c0.61,0,1.2,0.15,1.73,0.41c1.01-2.46,3.1-4.16,5.52-4.16
				c2.4,0,4.48,1.67,5.5,4.11c0.5-0.23,1.04-0.36,1.61-0.36c1.86,0,3.46,1.34,4.2,3.26c0.25-0.07,0.5-0.11,0.76-0.11
				C44.38,58.18,45.88,59.99,45.88,62.24z"/>
			<path class="st12" d="M30.95,97.07C30.95,97.07,30.95,97.07,30.95,97.07c0,0.36-0.34,0.64-0.74,0.64H12.76
				c-0.33,0-0.62-0.19-0.71-0.47c-0.12-0.35-0.18-0.73-0.18-1.13c0-1.89,1.45-3.42,3.24-3.42c0.43,0,0.84,0.09,1.21,0.25
				c0.71-1.49,2.17-2.52,3.86-2.52c1.68,0,3.13,1.01,3.85,2.49c0.35-0.14,0.73-0.22,1.12-0.22c1.3,0,2.42,0.81,2.94,1.98
				c0.17-0.04,0.35-0.07,0.53-0.07C29.91,94.6,30.95,95.7,30.95,97.07z"/>
			<path class="st12" d="M34.61,115.34C34.61,115.35,34.61,115.35,34.61,115.34c0,0.53,0.43,0.95,0.95,0.95h22.36
				c0.42,0,0.79-0.28,0.91-0.69c0.15-0.52,0.23-1.08,0.23-1.67c0-2.79-1.86-5.05-4.15-5.05c-0.55,0-1.07,0.13-1.55,0.37
				c-0.91-2.21-2.78-3.73-4.94-3.73c-2.15,0-4.01,1.5-4.93,3.68c-0.45-0.2-0.93-0.32-1.44-0.32c-1.67,0-3.1,1.2-3.76,2.93
				c-0.22-0.07-0.45-0.1-0.68-0.1C35.95,111.7,34.61,113.33,34.61,115.34z"/>
		</g>
		<g>
			<path class="st12" d="M76.14,33.95c0,0,0,0.01,0,0.01c0,0.58-0.48,1.05-1.06,1.05H50.13c-0.47,0-0.88-0.31-1.02-0.77
				c-0.17-0.58-0.26-1.21-0.26-1.86c0-3.11,2.07-5.64,4.63-5.64c0.61,0,1.2,0.15,1.73,0.41c1.01-2.46,3.1-4.16,5.52-4.16
				c2.4,0,4.48,1.67,5.5,4.11c0.5-0.23,1.04-0.36,1.61-0.36c1.86,0,3.46,1.34,4.2,3.26c0.25-0.07,0.5-0.11,0.76-0.11
				C74.65,29.89,76.14,31.71,76.14,33.95z"/>
			<path class="st12" d="M61.21,68.78C61.21,68.78,61.21,68.79,61.21,68.78c0,0.36-0.34,0.64-0.74,0.64H43.02
				c-0.33,0-0.62-0.19-0.71-0.47c-0.12-0.35-0.18-0.73-0.18-1.13c0-1.89,1.45-3.42,3.24-3.42c0.43,0,0.84,0.09,1.21,0.25
				c0.71-1.49,2.17-2.52,3.86-2.52c1.68,0,3.13,1.01,3.85,2.49c0.35-0.14,0.73-0.22,1.12-0.22c1.3,0,2.42,0.81,2.94,1.98
				c0.17-0.04,0.35-0.07,0.53-0.07C60.17,66.32,61.21,67.42,61.21,68.78z"/>
			<path class="st12" d="M64.87,87.06C64.87,87.06,64.87,87.06,64.87,87.06c0,0.53,0.43,0.95,0.95,0.95h22.36
				c0.42,0,0.79-0.28,0.91-0.69c0.15-0.52,0.23-1.08,0.23-1.67c0-2.79-1.86-5.05-4.15-5.05c-0.55,0-1.07,0.13-1.55,0.37
				c-0.91-2.21-2.78-3.73-4.94-3.73c-2.15,0-4.01,1.5-4.93,3.68c-0.45-0.2-0.93-0.32-1.44-0.32c-1.67,0-3.1,1.2-3.76,2.93
				c-0.22-0.07-0.45-0.1-0.68-0.1C66.21,83.42,64.87,85.05,64.87,87.06z"/>
		</g>
		<ellipse class="st12" cx="33.69" cy="123.12" rx="23.72" ry="3.67"/>
		<g>
			<g>
				<g>
					<g>
						<path class="st13" d="M7.99,114.54l8.05,4.62c0,0,0.64-0.75,0.39-1.69c-0.26-0.94-2.25-2.81-2.25-2.81s-2.38-0.72-4.03-1.03
							c-0.77-0.15-1.37-0.21-1.5-0.07C8.23,114,7.99,114.54,7.99,114.54z"/>
						<path class="st14" d="M8.03,114.51l1.8,1.04c0.35-0.7,0.48-1.46,0.52-2.02c-0.83-0.16-1.48-0.22-1.62-0.07
							C8.3,113.93,8.03,114.51,8.03,114.51z"/>
						<path class="st14" d="M7.79,115.06l7.92,4.55c0.15,0.09,0.34,0.03,0.42-0.12c0.08-0.15,0.03-0.34-0.12-0.43l-7.92-4.55
							c-0.15-0.09-0.34-0.03-0.42,0.12C7.59,114.79,7.64,114.98,7.79,115.06z"/>
						<path class="st2" d="M14.88,117.56c-0.11,0.2-0.04,0.45,0.16,0.57c0.2,0.11,0.45,0.04,0.56-0.16c0.11-0.2,0.04-0.45-0.16-0.57
							C15.24,117.29,14.99,117.36,14.88,117.56z"/>
					</g>
					<g>
						<path class="st15" d="M14.59,116.19c1.07,1.06,1.83,1.28,1.83,1.28l5.21-4.26l5.71-4.66l-3.85-5.81L21,105.87l-2.63,3.31
							l-0.69,0.86l-3.4,4.28C14.29,114.33,13.52,115.13,14.59,116.19z"/>
						<path class="st16" d="M18.38,109.18c0.09,0.08,0.2,0.15,0.31,0.22c1.01,0.58,2.28,0.22,2.85-0.81
							c0.52-0.93,0.27-2.09-0.53-2.72L18.38,109.18z"/>
					</g>
				</g>
				<g>
					<g>
						<path class="st13" d="M52.47,123.02h-9.24c0,0-0.19-0.98,0.48-1.66c0.68-0.69,3.32-1.32,3.32-1.32s2.42,0.57,4,1.12
							c0.74,0.26,1.29,0.51,1.34,0.69C52.52,122.43,52.47,123.02,52.47,123.02z"/>
						<path class="st14" d="M52.47,123.02h-1.92c0.03-0.73,0.26-1.4,0.48-1.87c0.74,0.26,1.29,0.51,1.34,0.69
							C52.52,122.43,52.47,123.02,52.47,123.02z"/>
						<path class="st14" d="M52.39,123.58H43.3c-0.17,0-0.31-0.14-0.31-0.32c0-0.17,0.14-0.32,0.31-0.32h9.09
							c0.17,0,0.31,0.14,0.31,0.32C52.7,123.44,52.56,123.58,52.39,123.58z"/>
						<path class="st2" d="M45.02,122.21c0,0.23-0.18,0.42-0.41,0.42c-0.23,0-0.41-0.19-0.41-0.42c0-0.23,0.18-0.42,0.41-0.42
							C44.83,121.79,45.02,121.98,45.02,122.21z"/>
					</g>
					<g>
						<path class="st15" d="M45.93,121.16c-1.44,0.39-2.21,0.2-2.21,0.2l-2.48-6.31l-2.72-6.92l6.16-3.13l0.65,3.97l0.69,4.2
							l0.18,1.1l0.89,5.43C47.08,119.68,47.37,120.76,45.93,121.16z"/>
						<path class="st16" d="M46.01,113.16c-0.12,0.03-0.25,0.04-0.37,0.04c-1.15,0-2.09-0.95-2.09-2.13c0-1.07,0.77-1.95,1.78-2.11
							L46.01,113.16z"/>
					</g>
				</g>
				<g>
					<path class="st17" d="M46.07,107.1c0,0-1.73,1.03-3.9,1.32c-2.17,0.29-4.76-0.15-4.76-0.15l-0.61-1.38l-0.31-0.71l-2.11-4.82
						l-5.66,6.25l-0.47,0.52l-0.79,0.87c0,0-2.17-0.59-3.93-2.21c-1.77-1.62-2.17-3.23-2.17-3.23l0.74-0.98l0.41-0.55l5.72-7.67
						l14.82-0.29l2.58,11.08l0.15,0.64L46.07,107.1z"/>
					<path class="st18" d="M28.72,107.61l-0.47,0.52c-1.62-0.49-3.16-1.57-4.51-3.16c-0.79-0.94-1.34-1.84-1.64-2.39l0.41-0.55
						C23.03,103.05,25.18,106.73,28.72,107.61z"/>
					<path class="st18" d="M45.77,105.78c-1.62,0.92-3.6,1.4-5.83,1.4c-0.15,0-0.31,0-0.46-0.01c-1.03-0.03-1.95-0.15-2.66-0.28
						l-0.31-0.71c1.89,0.39,5.9,0.88,9.12-1.04L45.77,105.78z"/>
				</g>
			</g>
			<g>
				<g>
					<path class="st19" d="M59.43,63.45c0.02,1.46-1.13,2.65-2.56,2.67c-1.43,0.02-2.6-1.15-2.62-2.6
						c-0.01-1.25,0.83-2.31,1.98-2.59c0.19-0.05,0.38-0.07,0.58-0.08c0.76-0.01,1.44,0.31,1.92,0.84
						C59.16,62.14,59.42,62.76,59.43,63.45z"/>
					<path class="st20" d="M64.72,63.01c0,0-1.29-3.66-0.09-3.95C65.82,58.78,65.29,61.36,64.72,63.01z"/>
					<path class="st20" d="M64.72,63.01c0,0,1.76,3.45,0.62,3.9C64.19,67.36,64.38,64.73,64.72,63.01z"/>
					<path class="st3" d="M65.01,62.9c0.06,0.18-0.03,0.37-0.2,0.43c-0.17,0.06-0.36-0.03-0.43-0.21c-0.06-0.18,0.03-0.37,0.2-0.43
						C64.76,62.63,64.95,62.72,65.01,62.9z"/>
					<path class="st3" d="M62.55,62.07c-0.93-0.04-1.95,0.1-3.27,0.4c0.09,0.97-0.79,1.99-1.93,2.4c-1.19,0.43-2.43,0.06-2.92-0.84
						c-1.53,0.68-2.83,1.44-3.75,2.17c-0.01-0.02-0.03-0.03-0.04-0.05c0,0-1.08-0.98-1.88-0.76c-0.19,0.05-0.36,0.1-0.51,0.15
						c-0.37,0.12-0.56,0.54-0.4,0.91c0.19,0.44,0.47,1.03,0.78,1.54c0.35,0.58,0.94,0.98,1.6,1.08c1.33,0.21,4.02,0.35,7.52-0.96
						c2.5-0.93,4.6-2.09,5.81-3.17c0.84-0.75,1.25-1.46,1.06-2C64.43,62.4,63.67,62.11,62.55,62.07z"/>
					<path class="st21" d="M64.62,62.94c0.19,0.54-0.22,1.25-1.06,2l-1.01-2.87C63.67,62.11,64.43,62.4,64.62,62.94z"/>
					<path class="st22" d="M55.76,66.72c0.57-0.44,1.48-0.94,2.79-1.05c0.58-0.05,1.05,0.48,0.94,1.07
						c-0.23,1.27-0.88,3.29-2.74,3.9c-1.55,0.51-1.78-1.18-1.77-2.29C54.98,67.71,55.26,67.11,55.76,66.72z"/>
					<path class="st22" d="M49.13,68.31c0,0,1.2-1.18,2-0.9c0.81,0.28,0.09,2.13-1.04,2.54C48.97,70.36,49,68.64,49.13,68.31z"/>
					<path class="st21" d="M57.48,65.11c-2.34,0.85-3.47-1.04-3.48-1.05c-0.06-0.1-0.02-0.22,0.07-0.28
						c0.09-0.06,0.21-0.02,0.27,0.07l0,0c0.04,0.07,0.97,1.62,3,0.88c0.01,0,0.02-0.01,0.03-0.01c2.13-0.79,1.73-2.41,1.71-2.48
						c-0.03-0.11,0.03-0.22,0.14-0.25c0.1-0.03,0.21,0.03,0.24,0.14c0.01,0.02,0.52,2.04-1.95,2.96
						C57.5,65.1,57.49,65.1,57.48,65.11z"/>
					<path class="st23" d="M58.73,61.67c-1.89,0.63-2.38-0.27-2.51-0.76c0.19-0.05,0.38-0.07,0.58-0.08
						C57.57,60.83,58.26,61.15,58.73,61.67z"/>
				</g>
				<path class="st15" d="M53.27,71.13c-0.27,0.84-2.59,7.61-6.86,9.93c-0.41-1.58-0.55-4.32-1.14-4.95c0,0,2.38-1.06,4.23-3.06
					c1.98-2.13,2.68-3.98,2.68-3.98s-0.34-1.78,0.11-1.81c0.08-0.01,0.14,0.05,0.19,0.15c0.21,0.42,0.36,1.76,0.36,1.76l0.99-0.07
					C53.85,69.1,53.57,70.2,53.27,71.13z"/>
				<path class="st15" d="M26.54,77.81c0,0-4.32-1.57-9.83-5.03c0,0,0.06-2.28-0.35-2.33c-0.41-0.05-0.45,0.93-0.45,0.93
					s-0.45-1.85-0.95-1.76c-0.5,0.09,0.27,1.9,0.27,1.9s-0.86-1.57-1.27-1.48c-0.41,0.09,0.73,1.9,0.73,1.9s-0.95-0.74-1.27-0.56
					c-0.32,0.19,1.14,1.25,1.14,1.25s-1.18-0.42-1.27-0.19c-0.09,0.23,2.45,1.48,2.45,1.48s0.97,1.93,4.2,5.21
					c1.85,1.89,4.97,3.33,4.97,3.33L26.54,77.81z"/>
				<g>
					<path class="st24" d="M42.82,83.97c0.66-0.13,1.32-0.33,1.97-0.54c0.82-0.26,1.93-0.54,2.53-1.22
						c0.08-0.09-0.23-0.98-0.27-1.12c-0.13-0.51-0.26-1.01-0.41-1.51c-0.32-1.06-0.65-2.16-1.14-3.15
						c-0.02-0.03-0.04-0.07-0.05-0.09c-0.06-0.1-0.12-0.18-0.17-0.24l-6.33,3.18l-0.03,0.01c0,0-4.14,2.27-8.32-0.28l-4.18-1.9
						c0,0-1.52,3.62-3.63,5.84c-0.42,0.44,0.06,0.83,0.43,1.03c1.27,0.67,3.79,1.03,5.18,1.36c0,0-0.12,3.51-0.14,4.11
						c-0.05,1.26-0.51,5.44-0.51,5.44s4.01,1.84,7.7,1.76c3.71-0.07,7.77-1.08,7.79-1.08C43.42,95.58,43.04,87.06,42.82,83.97z"/>
					<path class="st2" d="M31.45,79.32c0,0-0.97,2.94,0.62,3.62c1.59,0.69,2.65-1.22,2.65-1.22s0.63,2.35,2.17,1.91
						c1.54-0.44,0.96-4.02,0.96-4.02L31.45,79.32z"/>
				</g>
			</g>
			<g>
				<g>
					<path class="st15" d="M44.32,69.25c0,0.93-0.03,1.83-0.13,2.67c-0.02,0.16-0.04,0.31-0.06,0.46c-0.36,2.38-1.39,4.28-4.18,5.2
						c-0.37,0.12-0.78,0.23-1.22,0.31c-0.26,0.05-0.53,0.1-0.81,0.13c-0.46,0.06-0.96,0.11-1.49,0.13c0,0-0.01,0-0.01,0
						c-0.32,0.01-0.66,0.02-1.01,0.02c-0.61,0-1.18-0.02-1.71-0.07c-0.76-0.06-1.44-0.17-2.05-0.31c-0.01,0-0.02,0-0.02,0
						c-0.26-0.07-0.51-0.13-0.75-0.21c-0.01,0-0.01,0-0.02,0c-2.79-0.92-3.82-2.81-4.18-5.2c-0.15-0.98-0.19-2.03-0.19-3.14
						c0-0.24,0.01-0.48,0.03-0.71c0.01-0.1,0.02-0.2,0.03-0.29c0.08-0.71,0.25-1.4,0.48-2.06c0.38-1.04,0.94-1.99,1.66-2.81
						c1.63-1.88,4.03-3.06,6.71-3.06c3.09,0,5.8,1.57,7.4,3.96c0.4,0.59,0.72,1.23,0.97,1.9c0.24,0.64,0.4,1.31,0.48,2.01
						c0.01,0.06,0.01,0.12,0.02,0.17c0.01,0.14,0.02,0.28,0.03,0.42C44.31,68.94,44.32,69.09,44.32,69.25z"/>
					<path class="st22" d="M44.25,68.19c-0.02,0-0.04,0-0.05,0C34.35,69,31.42,63.6,31.42,63.6c-0.25,0.48,0.51,1.95,0.51,1.95
						c-1.55-0.26-1.8-1.69-1.8-1.69s0.11,0.66-0.94,2.24c-1.05,1.58-2.59,2.26-2.59,2.26l-0.04-0.11c0.08-0.71,0.25-1.4,0.48-2.06
						c0.38-1.04,0.94-1.99,1.66-2.81c1.63-1.88,4.03-3.06,6.71-3.06c3.09,0,5.8,1.57,7.4,3.96c0.4,0.59,0.72,1.23,0.97,1.9
						C44.01,66.82,44.17,67.49,44.25,68.19z"/>
					<path class="st15" d="M47.35,69.95c-0.25,1.14-1.99,1.96-3.16,1.98c0.1-0.84,0.12-1.74,0.12-2.67c0-0.3-0.02-0.6-0.04-0.9
						c0.47-0.23,1.02-0.37,1.51-0.43C47.05,67.75,47.65,68.56,47.35,69.95z"/>
					<path class="st25" d="M46.14,70.01c-0.14,0.64-1.12,1.1-1.78,1.11c0.06-0.48,0.07-0.98,0.07-1.5c0-0.17-0.01-0.34-0.02-0.5
						c0.27-0.13,0.57-0.21,0.85-0.24C45.97,68.77,46.31,69.22,46.14,70.01z"/>
					<path class="st15" d="M23.52,69.95c0.25,1.14,1.99,1.96,3.16,1.98c-0.1-0.84-0.12-1.74-0.12-2.67c0-0.3,0.02-0.6,0.04-0.9
						c-0.47-0.23-1.02-0.37-1.51-0.43C23.81,67.75,23.22,68.56,23.52,69.95z"/>
					<path class="st25" d="M24.81,70c0.14,0.63,1.1,1.08,1.74,1.09c-0.05-0.47-0.07-0.96-0.07-1.47c0-0.17,0.01-0.33,0.02-0.49
						c-0.26-0.13-0.56-0.2-0.83-0.24C24.98,68.78,24.65,69.23,24.81,70z"/>
					<path class="st16" d="M32.36,74.76c0,1.18-0.6,2.22-1.5,2.83c-1.93-0.63-3.02-1.74-3.62-3.15c-0.06-0.13-0.11-0.26-0.16-0.4
						c-0.18-0.52-0.31-1.07-0.4-1.65c0.6-0.62,1.44-1.01,2.36-1.01C30.87,71.38,32.36,72.89,32.36,74.76z"/>
					<path class="st16" d="M44.13,72.39c-0.36,2.38-1.39,4.28-4.18,5.2c-0.91-0.6-1.5-1.64-1.5-2.83c0-1.87,1.49-3.38,3.32-3.38
						C42.69,71.38,43.53,71.77,44.13,72.39z"/>
					<g>
						<g>
							<path class="st26" d="M30.68,69.26c0,0,1.76-1.14,1.89-1.03s0.26,0.24,0.13,0.35c-0.13,0.11-1.7,1-1.81,0.98
								C30.79,69.53,30.71,69.5,30.68,69.26z"/>
							<path class="st26" d="M40.03,69.14c0,0-1.74-1.15-1.87-1.04c-0.13,0.11-0.26,0.24-0.13,0.35c0.13,0.11,1.69,1.02,1.79,0.99
								C39.92,69.41,40,69.38,40.03,69.14z"/>
						</g>
						<path class="st25" d="M35.34,70.13c0.44-0.02,0.92,2.51,0.73,2.72c-0.19,0.2-1.05,0.24-1.29,0.06
							C34.54,72.73,34.9,70.15,35.34,70.13z"/>
						<path class="st2" d="M33.77,73.62c0,0,0.95,0.31,1.7,0.31c0.75,0,1.57-0.31,1.57-0.31s-0.36,1.24-1.57,1.24
							C34.27,74.86,33.77,73.62,33.77,73.62z"/>
						<g>
							<path class="st27" d="M31.96,70c-0.63,0-1.14,0.52-1.14,1.16c0,0.1,0.08,0.17,0.17,0.17c0.09,0,0.17-0.08,0.17-0.17
								c0-0.45,0.36-0.81,0.79-0.81c0.44,0,0.79,0.36,0.79,0.81c0,0.1,0.08,0.17,0.17,0.17c0.09,0,0.17-0.08,0.17-0.17
								C33.09,70.52,32.58,70,31.96,70z"/>
							<path class="st27" d="M38.73,70c-0.63,0-1.14,0.52-1.14,1.16c0,0.1,0.08,0.17,0.17,0.17c0.09,0,0.17-0.08,0.17-0.17
								c0-0.45,0.36-0.81,0.79-0.81c0.44,0,0.79,0.36,0.79,0.81c0,0.1,0.08,0.17,0.17,0.17c0.09,0,0.17-0.08,0.17-0.17
								C39.86,70.52,39.35,70,38.73,70z"/>
						</g>
					</g>
				</g>
				<g>
					<path class="st3" d="M26.54,78.8l-0.78-0.27c0.75-2.23,0.73-3.52,0.4-5.56l0.69-0.2C27.2,74.91,27.35,76.41,26.54,78.8z"/>
					<path class="st3" d="M44.34,78.81c-0.84-2.37-0.4-5.4-0.31-5.98l0.76,0.09c-0.25,1.51-0.27,3.92,0.32,5.61L44.34,78.81z"/>
					<g>
						<rect x="26.55" y="69.25" class="st3" width="3.96" height="0.86"/>
						<rect x="40.31" y="69.25" class="st3" width="3.96" height="0.86"/>
						<path class="st3" d="M41.12,70.79c-0.12-1.11-1-2.01-2.09-2.13c-0.48-0.05-0.93,0.04-1.32,0.24
							c-0.63,0.32-1.32,0.53-2.03,0.53h-0.56c-0.71,0-1.4-0.21-2.03-0.53c-0.39-0.2-0.84-0.29-1.32-0.24
							c-1.09,0.12-1.97,1.02-2.09,2.13c-0.16,1.46,0.96,2.69,2.36,2.69c0.99,0,1.83-0.61,2.18-1.48c0.2-0.48,0.67-0.8,1.18-0.8
							c0.26,0,0.5,0.08,0.71,0.22c0.21,0.14,0.37,0.34,0.47,0.58c0.36,0.87,1.2,1.48,2.18,1.48C40.16,73.48,41.27,72.25,41.12,70.79
							z M32.03,72.65c-0.85,0-1.54-0.7-1.54-1.57c0-0.87,0.69-1.57,1.54-1.57c0.85,0,1.54,0.7,1.54,1.57
							C33.57,71.95,32.88,72.65,32.03,72.65z M38.73,72.65c-0.85,0-1.54-0.7-1.54-1.57c0-0.87,0.69-1.57,1.54-1.57
							c0.85,0,1.54,0.7,1.54,1.57C40.28,71.95,39.59,72.65,38.73,72.65z"/>
						<g>
							<ellipse class="st28" cx="32.02" cy="71.08" rx="1.89" ry="1.92"/>
						</g>
						<g>
							<ellipse class="st29" cx="38.74" cy="71.08" rx="1.89" ry="1.92"/>
						</g>
					</g>
					<path class="st17" d="M45.66,68.61c0.03,0.81-0.01,1.58-0.12,2.38c-0.1,0.72-0.46,1.72-1.01,2.25
						c-0.18,0.17-0.58,0.35-0.52-0.17c0.36-2.81,0.22-5.66-1.21-8.14c-1.6-2.78-4.32-4.61-7.4-4.61c-2.68,0-5.08,1.38-6.71,3.57
						c-0.72,0.95-1.28,2.06-1.66,3.27c-0.61,1.96-0.42,3.78-0.16,5.79c0.07,0.5-0.51,0.2-0.69,0.03c-0.53-0.49-0.95-1.65-1.04-2.33
						c-0.28-2-0.05-3.64,0.65-5.55c0.44-1.2,1.08-2.29,1.91-3.23c1.87-2.15,4.63-3.51,7.7-3.51c3.54,0,6.67,1.8,8.5,4.55
						c0.46,0.67,0.83,1.41,1.11,2.18C45.43,66.21,45.62,67.41,45.66,68.61z"/>
					<path class="st14" d="M45.05,79.5l-0.11,0.03c-0.23,0.07-0.46-0.06-0.53-0.29l-0.15-0.5c-0.07-0.23,0.06-0.47,0.29-0.54
						l0.11-0.03c0.23-0.07,0.46,0.06,0.53,0.29l0.15,0.5C45.4,79.19,45.28,79.43,45.05,79.5z"/>
					<path class="st14" d="M25.85,79.5l0.11,0.03c0.23,0.07,0.46-0.06,0.53-0.29l0.15-0.5c0.07-0.23-0.06-0.47-0.29-0.54l-0.11-0.03
						c-0.23-0.07-0.46,0.06-0.53,0.29l-0.15,0.5C25.49,79.19,25.62,79.43,25.85,79.5z"/>
				</g>
			</g>
			<g>
				<path class="st15" d="M37.98,78.03c0,0,0.01,0,0.01,0l-0.01-0.14c-0.05,0.01-0.11,0.02-0.17,0.02c-0.43,0.07-0.9,0.12-1.39,0.14
					c0,0-0.01,0-0.01,0.01c-0.75,0.11-1.74,0.15-2.83-0.06c-0.79-0.08-1.5-0.22-2.13-0.42l-0.16,1.93l-0.04,0
					c0,0,0.66,2.03,3.54,1.99c2.35-0.03,2.95-1.19,3.09-1.62c0.02-0.01,0.04-0.03,0.05-0.04C37.87,78.99,38.01,78.23,37.98,78.03z"
					/>
				<path class="st30" d="M37.98,78.03c0,0-2.34,1.76-6.74,1.34l0.18-1.59c0.01,0,0.02,0,0.02,0.01c0.63,0.15,1.34,0.26,2.13,0.33
					c0.55,0.04,1.14,0.07,1.78,0.07c0.37,0,0.72-0.01,1.05-0.02c0.01,0,0.01,0,0.01,0C36.98,78.14,37.5,78.1,37.98,78.03z"/>
			</g>
		</g>
		<g>
			<g>
				<polygon class="st6" points="17.03,60.4 17.81,57.61 18.6,60.4 20.42,61.2 18.6,62 17.81,64.79 17.03,62 15.21,61.2 				"/>
				<polygon class="st6" points="19.51,66.46 19.97,64.8 20.44,66.46 21.52,66.93 20.44,67.41 19.97,69.06 19.51,67.41 18.43,66.93 
									"/>
			</g>
			<g>
				<polygon class="st6" points="51.93,59.86 51.3,57.65 50.68,59.86 49.24,60.49 50.68,61.13 51.3,63.33 51.93,61.13 53.37,60.49 
									"/>
				<polygon class="st6" points="46.81,63.4 46.44,62.09 46.07,63.4 45.21,63.77 46.07,64.15 46.44,65.46 46.81,64.15 47.66,63.77 
									"/>
			</g>
		</g>
		<g>
			<ellipse class="st31" cx="23.38" cy="23.71" rx="15.23" ry="15.5"/>
			<g>
				<rect x="11.03" y="27.62" class="st2" width="24.71" height="0.33"/>
				<path class="st2" d="M24.1,24.25h-1.48v-1.06h-1.07V22.1h-1.59l-0.34,0.9v0.97h-0.32V23.2h-1.08v-0.33h1.11l0.41-1.1h2.43
					c0.11,0,0.17-0.02,0.2-0.03c-0.01-0.01-0.02-0.02-0.05-0.04c-0.99-0.33-1.8-0.88-2.36-1.6c-0.52-0.68-0.82-1.48-0.84-2.32
					c-0.03-0.85,0.21-1.68,0.69-2.41c0.5-0.76,1.25-1.36,2.17-1.74c0.09-0.05,0.12-0.13,0.1-0.17c-0.02-0.05-0.13-0.07-0.29-0.01
					l-0.01,0l-2.06,0.7l-1.51,1.48l-1.66,8.34l-0.31-0.06l1.68-8.44l1.64-1.6l2.12-0.72c0.36-0.14,0.61-0.01,0.69,0.18
					c0.08,0.18,0.03,0.44-0.24,0.6l-0.02,0.01c-0.86,0.35-1.56,0.91-2.03,1.62c-0.44,0.67-0.66,1.43-0.63,2.21
					c0.03,0.78,0.29,1.51,0.78,2.13c0.52,0.68,1.29,1.19,2.23,1.5l0.02,0.01l0.01,0.01c0.18,0.11,0.26,0.26,0.22,0.41
					c-0.05,0.18-0.24,0.28-0.53,0.27h-0.3v0.76h1.07v1.06h0.84v-1.07h1v-0.72h-0.52c-0.28,0.01-0.48-0.1-0.53-0.28
					c-0.04-0.15,0.04-0.31,0.23-0.41l0.01-0.01L24,21.43c0.95-0.31,1.72-0.82,2.25-1.5c0.49-0.62,0.76-1.36,0.78-2.14
					c0.03-0.78-0.2-1.55-0.64-2.21c-0.47-0.71-1.19-1.27-2.06-1.62l-0.02-0.01c-0.27-0.15-0.33-0.41-0.25-0.6
					c0.09-0.19,0.34-0.32,0.7-0.18l2.15,0.72l1.65,1.6l1.7,8.44l-0.31,0.07l-1.68-8.34l-1.53-1.48l-2.09-0.7
					c-0.16-0.06-0.27-0.04-0.3,0.01c-0.02,0.04,0.01,0.11,0.1,0.17c0.93,0.37,1.68,0.97,2.19,1.73c0.48,0.72,0.72,1.56,0.7,2.41
					c-0.03,0.85-0.32,1.65-0.85,2.33c-0.57,0.72-1.39,1.28-2.39,1.6c-0.02,0.01-0.04,0.03-0.05,0.04c0.03,0.02,0.09,0.03,0.2,0.03
					h2.46l0.42,1.1h1.12v0.33h-1.1V24h-0.32v-0.97l-0.34-0.9h-1.39v1.05h-1V24.25z"/>
				<path class="st2" d="M23.21,14.08c-1.92,0-3.49,1.59-3.49,3.55c0,1.96,1.56,3.55,3.49,3.55c1.92,0,3.49-1.59,3.49-3.55
					C26.7,15.67,25.13,14.08,23.21,14.08z M23.21,20.85c-1.75,0-3.16-1.45-3.16-3.22c0-1.78,1.42-3.22,3.16-3.22
					c1.75,0,3.17,1.45,3.17,3.22C26.38,19.4,24.96,20.85,23.21,20.85z"/>
				<g>
					<path class="st2" d="M35.37,28.89l-0.13-0.29l-0.13,0.29H35.37z M35.39,28.93H35.1l-0.05,0.11c-0.01,0.03-0.02,0.05-0.02,0.06
						c0,0.01,0.01,0.02,0.02,0.03c0.01,0.01,0.03,0.01,0.07,0.02v0.02h-0.24v-0.02c0.03-0.01,0.05-0.01,0.06-0.02
						c0.02-0.02,0.04-0.05,0.06-0.1l0.27-0.6h0.02l0.26,0.6c0.02,0.05,0.04,0.08,0.06,0.09c0.02,0.01,0.04,0.02,0.07,0.02v0.02h-0.3
						v-0.02c0.03,0,0.05-0.01,0.06-0.01c0.01-0.01,0.02-0.02,0.02-0.03c0-0.02-0.01-0.04-0.02-0.07L35.39,28.93z M34.84,29.15v0.02
						h-0.32v-0.02h0.03c0.03,0,0.05-0.01,0.07-0.03c0.01-0.01,0.01-0.04,0.01-0.08v-0.47c0-0.04,0-0.06-0.01-0.07
						c0-0.01-0.01-0.02-0.02-0.02c-0.02-0.01-0.03-0.01-0.05-0.01h-0.03v-0.02h0.32v0.02h-0.03c-0.03,0-0.05,0.01-0.07,0.03
						c-0.01,0.01-0.01,0.04-0.01,0.08v0.47c0,0.04,0,0.06,0.01,0.07c0,0.01,0.01,0.02,0.02,0.02c0.02,0.01,0.03,0.01,0.05,0.01
						H34.84z M34.44,28.97l0.02,0l-0.06,0.2h-0.59v-0.02h0.03c0.03,0,0.05-0.01,0.07-0.03c0.01-0.01,0.01-0.04,0.01-0.08v-0.47
						c0-0.05-0.01-0.07-0.02-0.08c-0.01-0.02-0.04-0.02-0.06-0.02h-0.03v-0.02h0.34v0.02c-0.04,0-0.07,0-0.08,0.01
						c-0.02,0.01-0.03,0.02-0.03,0.03c-0.01,0.01-0.01,0.04-0.01,0.08v0.46c0,0.03,0,0.05,0.01,0.06c0,0.01,0.01,0.01,0.02,0.02
						c0.01,0,0.04,0.01,0.09,0.01h0.06c0.06,0,0.1,0,0.12-0.01c0.02-0.01,0.04-0.02,0.06-0.04C34.41,29.05,34.42,29.02,34.44,28.97z
						 M33.76,29.15v0.02h-0.32v-0.02h0.03c0.03,0,0.05-0.01,0.07-0.03c0.01-0.01,0.01-0.04,0.01-0.08v-0.47c0-0.04,0-0.06-0.01-0.07
						c0-0.01-0.01-0.02-0.02-0.02c-0.02-0.01-0.03-0.01-0.05-0.01h-0.03v-0.02h0.32v0.02h-0.03c-0.03,0-0.05,0.01-0.07,0.03
						c-0.01,0.01-0.01,0.04-0.01,0.08v0.47c0,0.04,0,0.06,0.01,0.07c0,0.01,0.01,0.02,0.02,0.02c0.02,0.01,0.03,0.01,0.05,0.01
						H33.76z M32.86,29.17l-0.29-0.61v0.48c0,0.04,0,0.07,0.02,0.08c0.01,0.01,0.04,0.02,0.07,0.02h0.03v0.02h-0.26v-0.02h0.03
						c0.03,0,0.05-0.01,0.07-0.03c0.01-0.01,0.01-0.04,0.01-0.08v-0.47c0-0.03,0-0.06-0.01-0.07c-0.01-0.01-0.01-0.02-0.03-0.03
						c-0.01-0.01-0.04-0.01-0.07-0.01v-0.02h0.21l0.27,0.57l0.27-0.57h0.21v0.02h-0.03c-0.03,0-0.06,0.01-0.07,0.03
						c-0.01,0.01-0.01,0.04-0.01,0.08v0.47c0,0.04,0.01,0.07,0.02,0.08c0.01,0.01,0.04,0.02,0.07,0.02h0.03v0.02h-0.32v-0.02h0.03
						c0.03,0,0.05-0.01,0.07-0.03c0.01-0.01,0.01-0.04,0.01-0.08v-0.48l-0.29,0.61H32.86z M32.08,28.89l-0.13-0.29l-0.13,0.29H32.08
						z M32.09,28.93H31.8l-0.05,0.11c-0.01,0.03-0.02,0.05-0.02,0.06c0,0.01,0.01,0.02,0.02,0.03c0.01,0.01,0.03,0.01,0.07,0.02
						v0.02h-0.24v-0.02c0.03-0.01,0.05-0.01,0.06-0.02c0.02-0.02,0.04-0.05,0.06-0.1l0.27-0.6h0.02l0.26,0.6
						c0.02,0.05,0.04,0.08,0.06,0.09c0.02,0.01,0.04,0.02,0.07,0.02v0.02h-0.3v-0.02c0.03,0,0.05-0.01,0.06-0.01
						c0.01-0.01,0.02-0.02,0.02-0.03c0-0.02-0.01-0.04-0.02-0.07L32.09,28.93z M31.25,28.49v0.28h0.14c0.03,0,0.05-0.01,0.07-0.02
						c0.01-0.01,0.02-0.04,0.03-0.08h0.02v0.25h-0.02c0-0.03,0-0.05-0.01-0.06c-0.01-0.01-0.02-0.02-0.03-0.03
						c-0.01-0.01-0.03-0.01-0.06-0.01h-0.14v0.23c0,0.04,0,0.06,0.01,0.07c0,0.01,0.01,0.02,0.02,0.02
						c0.02,0.01,0.03,0.01,0.05,0.01h0.03v0.02h-0.32v-0.02h0.03c0.03,0,0.05-0.01,0.07-0.03c0.01-0.01,0.01-0.04,0.01-0.08v-0.47
						c0-0.04,0-0.06-0.01-0.07c0-0.01-0.01-0.02-0.02-0.02c-0.02-0.01-0.03-0.01-0.05-0.01h-0.03v-0.02h0.56l0.01,0.16h-0.02
						c-0.01-0.03-0.02-0.06-0.03-0.07c-0.01-0.02-0.03-0.03-0.05-0.03c-0.02-0.01-0.05-0.01-0.09-0.01H31.25z M30.48,28.89
						l-0.13-0.29l-0.13,0.29H30.48z M30.49,28.93H30.2l-0.05,0.11c-0.01,0.03-0.02,0.05-0.02,0.06c0,0.01,0.01,0.02,0.02,0.03
						c0.01,0.01,0.03,0.01,0.07,0.02v0.02h-0.24v-0.02c0.03-0.01,0.05-0.01,0.06-0.02c0.02-0.02,0.04-0.05,0.06-0.1l0.27-0.6h0.02
						l0.26,0.6c0.02,0.05,0.04,0.08,0.06,0.09c0.02,0.01,0.04,0.02,0.07,0.02v0.02h-0.3v-0.02c0.03,0,0.05-0.01,0.06-0.01
						c0.01-0.01,0.02-0.02,0.02-0.03c0-0.02-0.01-0.04-0.02-0.07L30.49,28.93z M29.93,28.97l0.02,0l-0.06,0.2h-0.59v-0.02h0.03
						c0.03,0,0.05-0.01,0.07-0.03c0.01-0.01,0.01-0.04,0.01-0.08v-0.47c0-0.05-0.01-0.07-0.02-0.08c-0.01-0.02-0.04-0.02-0.06-0.02
						h-0.03v-0.02h0.34v0.02c-0.04,0-0.07,0-0.08,0.01c-0.02,0.01-0.03,0.02-0.03,0.03c-0.01,0.01-0.01,0.04-0.01,0.08v0.46
						c0,0.03,0,0.05,0.01,0.06c0,0.01,0.01,0.01,0.02,0.02c0.01,0,0.04,0.01,0.09,0.01h0.06c0.06,0,0.1,0,0.12-0.01
						c0.02-0.01,0.04-0.02,0.06-0.04C29.89,29.05,29.91,29.02,29.93,28.97z M28.73,28.89L28.6,28.6l-0.13,0.29H28.73z M28.75,28.93
						h-0.29l-0.05,0.11c-0.01,0.03-0.02,0.05-0.02,0.06c0,0.01,0.01,0.02,0.02,0.03c0.01,0.01,0.03,0.01,0.07,0.02v0.02h-0.24v-0.02
						c0.03-0.01,0.05-0.01,0.06-0.02c0.02-0.02,0.04-0.05,0.06-0.1l0.27-0.6h0.02l0.26,0.6c0.02,0.05,0.04,0.08,0.06,0.09
						c0.02,0.01,0.04,0.02,0.07,0.02v0.02h-0.3v-0.02c0.03,0,0.05-0.01,0.06-0.01c0.01-0.01,0.02-0.02,0.02-0.03
						c0-0.02-0.01-0.04-0.02-0.07L28.75,28.93z M27.7,28.8c0.01,0,0.01,0,0.02,0c0.01,0,0.01,0,0.01,0c0.07,0,0.13-0.01,0.16-0.04
						c0.04-0.03,0.05-0.07,0.05-0.11c0-0.05-0.01-0.08-0.04-0.11c-0.03-0.03-0.07-0.04-0.12-0.04c-0.02,0-0.05,0-0.09,0.01V28.8z
						 M28.23,29.17h-0.2l-0.26-0.34c-0.02,0-0.03,0-0.05,0c0,0-0.01,0-0.02,0c-0.01,0-0.01,0-0.02,0v0.21
						c0,0.05,0.01,0.07,0.02,0.09c0.01,0.02,0.04,0.02,0.06,0.02h0.03v0.02h-0.32v-0.02h0.03c0.03,0,0.05-0.01,0.07-0.03
						c0.01-0.01,0.01-0.04,0.01-0.08v-0.47c0-0.05-0.01-0.07-0.02-0.08c-0.01-0.02-0.04-0.02-0.06-0.02h-0.03v-0.02h0.28
						c0.08,0,0.14,0.01,0.18,0.02c0.04,0.01,0.07,0.03,0.1,0.06c0.03,0.03,0.04,0.07,0.04,0.11c0,0.04-0.02,0.08-0.05,0.12
						c-0.03,0.03-0.08,0.06-0.14,0.07l0.16,0.21c0.04,0.05,0.07,0.08,0.09,0.1c0.03,0.02,0.06,0.03,0.1,0.03V29.17z M27.14,28.89
						l-0.13-0.29l-0.13,0.29H27.14z M27.16,28.93h-0.29l-0.05,0.11c-0.01,0.03-0.02,0.05-0.02,0.06c0,0.01,0.01,0.02,0.02,0.03
						c0.01,0.01,0.03,0.01,0.07,0.02v0.02h-0.24v-0.02c0.03-0.01,0.05-0.01,0.06-0.02c0.02-0.02,0.04-0.05,0.06-0.1l0.27-0.6h0.02
						l0.26,0.6c0.02,0.05,0.04,0.08,0.06,0.09c0.02,0.01,0.04,0.02,0.07,0.02v0.02h-0.3v-0.02c0.03,0,0.05-0.01,0.06-0.01
						c0.01-0.01,0.02-0.02,0.02-0.03c0-0.02-0.01-0.04-0.02-0.07L27.16,28.93z M26.34,28.8c0.02,0,0.04,0.01,0.05,0.01
						c0.02,0,0.03,0,0.04,0c0.04,0,0.07-0.01,0.1-0.04c0.03-0.03,0.04-0.07,0.04-0.11c0-0.03-0.01-0.06-0.02-0.09
						c-0.01-0.03-0.03-0.05-0.06-0.06c-0.02-0.01-0.05-0.02-0.08-0.02c-0.02,0-0.04,0-0.07,0.01V28.8z M26.34,28.83v0.21
						c0,0.05,0.01,0.07,0.02,0.09c0.01,0.02,0.04,0.02,0.06,0.02h0.03v0.02h-0.32v-0.02h0.03c0.03,0,0.05-0.01,0.07-0.03
						c0.01-0.01,0.01-0.04,0.01-0.08v-0.47c0-0.05,0-0.07-0.02-0.08c-0.01-0.02-0.04-0.02-0.06-0.02h-0.03v-0.02h0.28
						c0.07,0,0.12,0.01,0.16,0.02c0.04,0.01,0.07,0.04,0.1,0.07c0.03,0.03,0.04,0.07,0.04,0.11c0,0.06-0.02,0.11-0.06,0.14
						c-0.04,0.04-0.1,0.06-0.17,0.06c-0.02,0-0.04,0-0.06,0C26.39,28.84,26.37,28.84,26.34,28.83z M25.57,28.89l-0.13-0.29
						l-0.13,0.29H25.57z M25.58,28.93h-0.29l-0.05,0.11c-0.01,0.03-0.02,0.05-0.02,0.06c0,0.01,0.01,0.02,0.02,0.03
						c0.01,0.01,0.03,0.01,0.07,0.02v0.02h-0.24v-0.02c0.03-0.01,0.05-0.01,0.06-0.02c0.02-0.02,0.04-0.05,0.06-0.1l0.27-0.6h0.02
						l0.26,0.6c0.02,0.05,0.04,0.08,0.06,0.09c0.02,0.01,0.04,0.02,0.07,0.02v0.02h-0.3v-0.02c0.03,0,0.05-0.01,0.06-0.01
						c0.01-0.01,0.02-0.02,0.02-0.03c0-0.02-0.01-0.04-0.02-0.07L25.58,28.93z M24.22,28.45h0.21l0.46,0.54v-0.42
						c0-0.04-0.01-0.07-0.02-0.08c-0.01-0.02-0.04-0.02-0.07-0.02h-0.03v-0.02h0.26v0.02h-0.03c-0.03,0-0.05,0.01-0.07,0.03
						c-0.01,0.01-0.01,0.04-0.01,0.08v0.61h-0.02l-0.5-0.58v0.45c0,0.04,0,0.07,0.02,0.08c0.01,0.01,0.04,0.02,0.07,0.02h0.03v0.02
						h-0.26v-0.02h0.03c0.03,0,0.06-0.01,0.07-0.03c0.01-0.01,0.01-0.04,0.01-0.08v-0.5c-0.02-0.02-0.04-0.04-0.05-0.05
						c-0.01-0.01-0.03-0.02-0.05-0.02c-0.01,0-0.03,0-0.05,0V28.45z M24.21,29.15v0.02h-0.32v-0.02h0.03c0.03,0,0.05-0.01,0.07-0.03
						c0.01-0.01,0.01-0.04,0.01-0.08v-0.47c0-0.04,0-0.06-0.01-0.07c0-0.01-0.01-0.02-0.02-0.02c-0.02-0.01-0.03-0.01-0.05-0.01
						h-0.03v-0.02h0.32v0.02h-0.03c-0.03,0-0.05,0.01-0.07,0.03c-0.01,0.01-0.01,0.04-0.01,0.08v0.47c0,0.04,0,0.06,0.01,0.07
						c0,0.01,0.01,0.02,0.02,0.02c0.02,0.01,0.03,0.01,0.05,0.01H24.21z M23.78,28.43l0.02,0.25h-0.02
						c-0.02-0.07-0.06-0.13-0.1-0.16c-0.04-0.03-0.09-0.05-0.15-0.05c-0.05,0-0.1,0.01-0.14,0.04c-0.04,0.02-0.07,0.06-0.1,0.12
						c-0.02,0.05-0.03,0.12-0.03,0.2c0,0.07,0.01,0.12,0.03,0.17c0.02,0.05,0.05,0.08,0.1,0.11c0.04,0.03,0.09,0.04,0.15,0.04
						c0.05,0,0.09-0.01,0.13-0.03c0.04-0.02,0.08-0.06,0.12-0.12L23.81,29c-0.04,0.06-0.08,0.11-0.13,0.14
						c-0.05,0.03-0.11,0.04-0.18,0.04c-0.13,0-0.22-0.04-0.29-0.13c-0.05-0.07-0.08-0.14-0.08-0.23c0-0.07,0.02-0.14,0.05-0.2
						c0.03-0.06,0.08-0.11,0.14-0.14c0.06-0.03,0.12-0.05,0.19-0.05c0.05,0,0.11,0.01,0.16,0.04c0.02,0.01,0.03,0.01,0.03,0.01
						c0.01,0,0.02,0,0.03-0.01c0.01-0.01,0.02-0.02,0.02-0.04H23.78z M23.06,29.15v0.02h-0.32v-0.02h0.03
						c0.03,0,0.05-0.01,0.07-0.03c0.01-0.01,0.01-0.04,0.01-0.08v-0.47c0-0.04,0-0.06-0.01-0.07c0-0.01-0.01-0.02-0.02-0.02
						c-0.02-0.01-0.03-0.01-0.05-0.01h-0.03v-0.02h0.32v0.02h-0.03c-0.03,0-0.05,0.01-0.07,0.03c-0.01,0.01-0.01,0.04-0.01,0.08
						v0.47c0,0.04,0,0.06,0.01,0.07c0,0.01,0.01,0.02,0.02,0.02c0.02,0.01,0.03,0.01,0.05,0.01H23.06z M22.12,29.12
						c0.05,0.01,0.09,0.01,0.12,0.01c0.09,0,0.16-0.03,0.21-0.09c0.06-0.06,0.09-0.14,0.09-0.24c0-0.1-0.03-0.18-0.09-0.24
						c-0.06-0.06-0.13-0.09-0.22-0.09c-0.03,0-0.07,0.01-0.11,0.02V29.12z M21.91,29.17v-0.02h0.03c0.03,0,0.05-0.01,0.07-0.03
						c0.01-0.01,0.01-0.04,0.01-0.08v-0.47c0-0.05-0.01-0.07-0.02-0.08c-0.01-0.02-0.04-0.02-0.06-0.02h-0.03v-0.02h0.31
						c0.11,0,0.2,0.01,0.26,0.04c0.06,0.02,0.11,0.07,0.14,0.12c0.04,0.06,0.05,0.12,0.05,0.2c0,0.1-0.03,0.19-0.1,0.25
						c-0.07,0.08-0.18,0.11-0.33,0.11H21.91z M21.43,28.49v0.29h0.17c0.04,0,0.07-0.01,0.09-0.02c0.02-0.02,0.03-0.05,0.03-0.09
						h0.02v0.25h-0.02c-0.01-0.04-0.01-0.06-0.02-0.07c-0.01-0.01-0.02-0.02-0.03-0.03c-0.02-0.01-0.04-0.01-0.07-0.01h-0.17v0.24
						c0,0.03,0,0.05,0,0.06c0,0.01,0.01,0.01,0.02,0.02c0.01,0,0.02,0.01,0.04,0.01h0.13c0.04,0,0.07,0,0.09-0.01
						c0.02-0.01,0.04-0.02,0.06-0.03c0.02-0.02,0.05-0.06,0.07-0.1h0.02l-0.07,0.18h-0.58v-0.02h0.03c0.02,0,0.03,0,0.05-0.01
						c0.01-0.01,0.02-0.01,0.02-0.03c0-0.01,0.01-0.03,0.01-0.07v-0.47c0-0.05,0-0.07-0.01-0.08c-0.01-0.01-0.04-0.02-0.07-0.02
						h-0.03v-0.02h0.58l0.01,0.16h-0.02c-0.01-0.04-0.02-0.06-0.03-0.08c-0.01-0.01-0.02-0.03-0.04-0.03
						c-0.01-0.01-0.04-0.01-0.08-0.01H21.43z M20.64,29.17l-0.29-0.61v0.48c0,0.04,0,0.07,0.02,0.08c0.01,0.01,0.04,0.02,0.07,0.02
						h0.03v0.02h-0.26v-0.02h0.03c0.03,0,0.05-0.01,0.07-0.03c0.01-0.01,0.01-0.04,0.01-0.08v-0.47c0-0.03,0-0.06-0.01-0.07
						c-0.01-0.01-0.01-0.02-0.03-0.03c-0.01-0.01-0.04-0.01-0.07-0.01v-0.02h0.21l0.27,0.57l0.27-0.57h0.21v0.02h-0.03
						c-0.03,0-0.06,0.01-0.07,0.03c-0.01,0.01-0.01,0.04-0.01,0.08v0.47c0,0.04,0.01,0.07,0.02,0.08c0.01,0.01,0.04,0.02,0.07,0.02
						h0.03v0.02h-0.32v-0.02h0.03c0.03,0,0.06-0.01,0.07-0.03c0.01-0.01,0.01-0.04,0.01-0.08v-0.48l-0.29,0.61H20.64z M19.05,28.45
						h0.21l0.46,0.54v-0.42c0-0.04-0.01-0.07-0.02-0.08c-0.01-0.02-0.04-0.02-0.07-0.02h-0.03v-0.02h0.26v0.02h-0.03
						c-0.03,0-0.05,0.01-0.07,0.03c-0.01,0.01-0.01,0.04-0.01,0.08v0.61h-0.02l-0.5-0.58v0.45c0,0.04,0,0.07,0.02,0.08
						c0.01,0.01,0.04,0.02,0.07,0.02h0.03v0.02h-0.26v-0.02h0.03c0.03,0,0.06-0.01,0.07-0.03c0.01-0.01,0.01-0.04,0.01-0.08v-0.5
						c-0.02-0.02-0.04-0.04-0.05-0.05c-0.01-0.01-0.03-0.02-0.05-0.02c-0.01,0-0.03,0-0.05,0V28.45z M18.6,28.49v0.29h0.17
						c0.04,0,0.07-0.01,0.09-0.02c0.02-0.02,0.03-0.05,0.03-0.09h0.02v0.25h-0.02c-0.01-0.04-0.01-0.06-0.02-0.07
						c-0.01-0.01-0.02-0.02-0.03-0.03c-0.02-0.01-0.04-0.01-0.07-0.01H18.6v0.24c0,0.03,0,0.05,0,0.06c0,0.01,0.01,0.01,0.02,0.02
						c0.01,0,0.02,0.01,0.04,0.01h0.13c0.04,0,0.07,0,0.09-0.01c0.02-0.01,0.04-0.02,0.06-0.03c0.02-0.02,0.05-0.06,0.07-0.1h0.02
						l-0.07,0.18h-0.58v-0.02h0.03c0.02,0,0.03,0,0.05-0.01c0.01-0.01,0.02-0.01,0.02-0.03c0-0.01,0.01-0.03,0.01-0.07v-0.47
						c0-0.05,0-0.07-0.01-0.08c-0.01-0.01-0.04-0.02-0.07-0.02h-0.03v-0.02h0.58l0.01,0.16h-0.02c-0.01-0.04-0.02-0.06-0.03-0.08
						c-0.01-0.01-0.02-0.03-0.04-0.03c-0.01-0.01-0.04-0.01-0.08-0.01H18.6z M17.82,28.89L17.7,28.6l-0.13,0.29H17.82z M17.84,28.93
						h-0.29l-0.05,0.11c-0.01,0.03-0.02,0.05-0.02,0.06c0,0.01,0.01,0.02,0.02,0.03c0.01,0.01,0.03,0.01,0.07,0.02v0.02h-0.24v-0.02
						c0.03-0.01,0.05-0.01,0.06-0.02c0.02-0.02,0.04-0.05,0.06-0.1l0.27-0.6h0.02l0.26,0.6c0.02,0.05,0.04,0.08,0.06,0.09
						c0.02,0.01,0.04,0.02,0.07,0.02v0.02h-0.3v-0.02c0.03,0,0.05-0.01,0.06-0.01c0.01-0.01,0.02-0.02,0.02-0.03
						c0-0.02-0.01-0.04-0.02-0.07L17.84,28.93z M17.29,29.15v0.02h-0.32v-0.02h0.03c0.03,0,0.05-0.01,0.07-0.03
						c0.01-0.01,0.01-0.04,0.01-0.08v-0.47c0-0.04,0-0.06-0.01-0.07c0-0.01-0.01-0.02-0.02-0.02c-0.02-0.01-0.03-0.01-0.05-0.01
						h-0.03v-0.02h0.32v0.02h-0.03c-0.03,0-0.05,0.01-0.07,0.03c-0.01,0.01-0.01,0.04-0.01,0.08v0.47c0,0.04,0,0.06,0.01,0.07
						c0,0.01,0.01,0.02,0.02,0.02c0.02,0.01,0.03,0.01,0.05,0.01H17.29z M16.86,28.43l0.02,0.25h-0.02
						c-0.02-0.07-0.06-0.13-0.1-0.16c-0.04-0.03-0.09-0.05-0.15-0.05c-0.05,0-0.1,0.01-0.14,0.04c-0.04,0.02-0.07,0.06-0.1,0.12
						c-0.02,0.05-0.03,0.12-0.03,0.2c0,0.07,0.01,0.12,0.03,0.17c0.02,0.05,0.05,0.08,0.1,0.11c0.04,0.03,0.09,0.04,0.15,0.04
						c0.05,0,0.09-0.01,0.13-0.03c0.04-0.02,0.08-0.06,0.12-0.12L16.9,29c-0.04,0.06-0.08,0.11-0.13,0.14
						c-0.05,0.03-0.11,0.04-0.18,0.04c-0.13,0-0.22-0.04-0.29-0.13c-0.05-0.07-0.08-0.14-0.08-0.23c0-0.07,0.02-0.14,0.05-0.2
						c0.03-0.06,0.08-0.11,0.14-0.14c0.06-0.03,0.12-0.05,0.19-0.05c0.05,0,0.11,0.01,0.16,0.04c0.02,0.01,0.03,0.01,0.03,0.01
						c0.01,0,0.02,0,0.03-0.01c0.01-0.01,0.02-0.02,0.02-0.04H16.86z M15.33,28.45h0.21L16,28.99v-0.42c0-0.04-0.01-0.07-0.02-0.08
						c-0.01-0.02-0.04-0.02-0.07-0.02h-0.03v-0.02h0.26v0.02h-0.03c-0.03,0-0.05,0.01-0.07,0.03c-0.01,0.01-0.01,0.04-0.01,0.08
						v0.61h-0.02l-0.5-0.58v0.45c0,0.04,0,0.07,0.02,0.08c0.01,0.01,0.04,0.02,0.07,0.02h0.03v0.02h-0.26v-0.02h0.03
						c0.03,0,0.06-0.01,0.07-0.03c0.01-0.01,0.01-0.04,0.01-0.08v-0.5c-0.02-0.02-0.04-0.04-0.05-0.05
						c-0.01-0.01-0.03-0.02-0.05-0.02c-0.01,0-0.03,0-0.05,0V28.45z M14.89,28.49v0.29h0.17c0.04,0,0.07-0.01,0.09-0.02
						c0.02-0.02,0.03-0.05,0.03-0.09h0.02v0.25h-0.02c-0.01-0.04-0.01-0.06-0.02-0.07c-0.01-0.01-0.02-0.02-0.03-0.03
						c-0.02-0.01-0.04-0.01-0.07-0.01h-0.17v0.24c0,0.03,0,0.05,0,0.06c0,0.01,0.01,0.01,0.02,0.02c0.01,0,0.02,0.01,0.04,0.01h0.13
						c0.04,0,0.07,0,0.09-0.01c0.02-0.01,0.04-0.02,0.06-0.03c0.02-0.02,0.05-0.06,0.07-0.1h0.02l-0.07,0.18h-0.58v-0.02h0.03
						c0.02,0,0.03,0,0.05-0.01c0.01-0.01,0.02-0.01,0.02-0.03c0-0.01,0.01-0.03,0.01-0.07v-0.47c0-0.05,0-0.07-0.01-0.08
						c-0.01-0.01-0.04-0.02-0.07-0.02h-0.03v-0.02h0.58l0.01,0.16h-0.02c-0.01-0.04-0.02-0.06-0.03-0.08
						c-0.01-0.01-0.02-0.03-0.04-0.03c-0.01-0.01-0.04-0.01-0.08-0.01H14.89z M14.61,28.97l0.02,0l-0.06,0.2h-0.59v-0.02h0.03
						c0.03,0,0.05-0.01,0.07-0.03c0.01-0.01,0.01-0.04,0.01-0.08v-0.47c0-0.05-0.01-0.07-0.02-0.08c-0.01-0.02-0.04-0.02-0.06-0.02
						h-0.03v-0.02h0.34v0.02c-0.04,0-0.07,0-0.08,0.01c-0.02,0.01-0.03,0.02-0.03,0.03c-0.01,0.01-0.01,0.04-0.01,0.08v0.46
						c0,0.03,0,0.05,0.01,0.06c0,0.01,0.01,0.01,0.02,0.02c0.01,0,0.04,0.01,0.09,0.01h0.06c0.06,0,0.1,0,0.12-0.01
						c0.02-0.01,0.04-0.02,0.06-0.04C14.57,29.05,14.59,29.02,14.61,28.97z M13.49,28.49v0.29h0.17c0.04,0,0.07-0.01,0.09-0.02
						c0.02-0.02,0.03-0.05,0.03-0.09h0.02v0.25h-0.02c-0.01-0.04-0.01-0.06-0.02-0.07c-0.01-0.01-0.02-0.02-0.03-0.03
						c-0.02-0.01-0.04-0.01-0.07-0.01h-0.17v0.24c0,0.03,0,0.05,0,0.06c0,0.01,0.01,0.01,0.02,0.02c0.01,0,0.02,0.01,0.04,0.01h0.13
						c0.04,0,0.07,0,0.09-0.01c0.02-0.01,0.04-0.02,0.06-0.03c0.02-0.02,0.05-0.06,0.07-0.1h0.02l-0.07,0.18h-0.58v-0.02h0.03
						c0.02,0,0.03,0,0.05-0.01c0.01-0.01,0.02-0.01,0.02-0.03c0-0.01,0.01-0.03,0.01-0.07v-0.47c0-0.05,0-0.07-0.01-0.08
						c-0.01-0.01-0.04-0.02-0.07-0.02h-0.03v-0.02h0.58l0.01,0.16h-0.02c-0.01-0.04-0.02-0.06-0.03-0.08
						c-0.01-0.01-0.02-0.03-0.04-0.03c-0.01-0.01-0.04-0.01-0.08-0.01H13.49z M13.18,28.43l0.02,0.25h-0.02
						c-0.02-0.07-0.06-0.13-0.1-0.16c-0.04-0.03-0.09-0.05-0.15-0.05c-0.05,0-0.1,0.01-0.14,0.04c-0.04,0.02-0.07,0.06-0.1,0.12
						c-0.02,0.05-0.03,0.12-0.03,0.2c0,0.07,0.01,0.12,0.03,0.17c0.02,0.05,0.05,0.08,0.1,0.11c0.04,0.03,0.09,0.04,0.15,0.04
						c0.05,0,0.09-0.01,0.13-0.03c0.04-0.02,0.08-0.06,0.12-0.12L13.22,29c-0.04,0.06-0.08,0.11-0.13,0.14
						c-0.05,0.03-0.11,0.04-0.18,0.04c-0.13,0-0.22-0.04-0.29-0.13c-0.05-0.07-0.08-0.14-0.08-0.23c0-0.07,0.02-0.14,0.05-0.2
						c0.03-0.06,0.08-0.11,0.14-0.14c0.06-0.03,0.12-0.05,0.19-0.05c0.05,0,0.11,0.01,0.16,0.04c0.02,0.01,0.03,0.01,0.03,0.01
						c0.01,0,0.02,0,0.03-0.01c0.01-0.01,0.02-0.02,0.02-0.04H13.18z M12.13,28.77L12.3,29c0.05,0.06,0.08,0.1,0.1,0.12
						c0.02,0.02,0.05,0.03,0.08,0.03v0.02h-0.32v-0.02c0.02,0,0.04,0,0.05-0.01c0.01,0,0.01-0.01,0.02-0.01
						c0-0.01,0.01-0.01,0.01-0.02c0-0.01,0-0.02,0-0.02c0-0.01-0.01-0.02-0.03-0.05l-0.13-0.19l-0.16,0.19
						c-0.02,0.02-0.03,0.03-0.03,0.04c0,0.01-0.01,0.01-0.01,0.02c0,0.01,0.01,0.02,0.02,0.03c0.01,0.01,0.03,0.01,0.06,0.01v0.02
						h-0.27v-0.02c0.02,0,0.04-0.01,0.05-0.01c0.02-0.01,0.04-0.02,0.07-0.04c0.02-0.02,0.04-0.04,0.07-0.07l0.18-0.22l-0.15-0.21
						c-0.04-0.06-0.08-0.09-0.1-0.11c-0.03-0.02-0.06-0.03-0.1-0.03v-0.02h0.35v0.02c-0.03,0-0.05,0.01-0.06,0.01
						c-0.01,0.01-0.02,0.02-0.02,0.03c0,0.01,0.01,0.03,0.03,0.06l0.12,0.17l0.13-0.16c0.02-0.02,0.03-0.03,0.03-0.04
						c0-0.01,0.01-0.01,0.01-0.02c0-0.01,0-0.01-0.01-0.02c-0.01-0.01-0.01-0.01-0.02-0.02c-0.01,0-0.03,0-0.05-0.01v-0.02h0.27
						v0.02c-0.02,0-0.04,0-0.05,0.01c-0.02,0.01-0.04,0.02-0.06,0.03c-0.02,0.01-0.04,0.04-0.07,0.08L12.13,28.77z M11.21,28.49
						v0.29h0.17c0.04,0,0.07-0.01,0.09-0.02c0.02-0.02,0.03-0.05,0.03-0.09h0.02v0.25h-0.02c-0.01-0.04-0.01-0.06-0.02-0.07
						c-0.01-0.01-0.02-0.02-0.03-0.03c-0.02-0.01-0.04-0.01-0.07-0.01h-0.17v0.24c0,0.03,0,0.05,0,0.06c0,0.01,0.01,0.01,0.02,0.02
						c0.01,0,0.02,0.01,0.04,0.01h0.13c0.04,0,0.07,0,0.09-0.01c0.02-0.01,0.04-0.02,0.06-0.03c0.02-0.02,0.05-0.06,0.07-0.1h0.02
						l-0.07,0.18h-0.58v-0.02h0.03c0.02,0,0.03,0,0.05-0.01c0.01-0.01,0.02-0.01,0.02-0.03c0-0.01,0.01-0.03,0.01-0.07v-0.47
						c0-0.05,0-0.07-0.01-0.08c-0.01-0.01-0.04-0.02-0.07-0.02h-0.03v-0.02h0.58l0.01,0.16h-0.02c-0.01-0.04-0.02-0.06-0.03-0.08
						c-0.01-0.01-0.02-0.03-0.04-0.03c-0.01-0.01-0.04-0.01-0.08-0.01H11.21z"/>
				</g>
				<g>
					<g>
						<path class="st2" d="M35.55,27.05c-0.05-0.03-0.11-0.09-0.19-0.19l-0.32-0.42c0.13-0.03,0.23-0.07,0.29-0.14
							c0.06-0.07,0.09-0.14,0.09-0.23c0-0.08-0.03-0.16-0.08-0.22c-0.05-0.06-0.12-0.1-0.2-0.12c-0.08-0.02-0.2-0.03-0.36-0.03
							h-0.56v0.04h0.06c0.06,0,0.1,0.02,0.13,0.05c0.02,0.02,0.03,0.08,0.03,0.17v0.94c0,0.08-0.01,0.14-0.02,0.16
							c-0.03,0.04-0.07,0.06-0.14,0.06h-0.06v0.04h0.66v-0.04h-0.06c-0.06,0-0.1-0.02-0.13-0.05c-0.02-0.02-0.03-0.08-0.03-0.17
							v-0.42c0.01,0,0.02,0,0.04,0c0.01,0,0.02,0,0.03,0c0.02,0,0.06,0,0.09,0l0.52,0.68h0.41v-0.04
							C35.68,27.1,35.61,27.08,35.55,27.05z M34.73,26.41c-0.01,0-0.02,0-0.03,0c-0.01,0-0.02,0-0.04,0v-0.6
							c0.08-0.01,0.13-0.02,0.18-0.02c0.1,0,0.18,0.03,0.24,0.09c0.06,0.06,0.09,0.13,0.09,0.22c0,0.09-0.04,0.17-0.11,0.23
							C34.98,26.38,34.87,26.41,34.73,26.41z"/>
						<path class="st2" d="M33.25,25.78v0.57h0.34c0.09,0,0.15-0.01,0.18-0.04c0.04-0.03,0.06-0.09,0.07-0.17h0.04v0.51h-0.04
							c-0.01-0.07-0.02-0.12-0.03-0.14c-0.01-0.02-0.04-0.04-0.07-0.06c-0.03-0.01-0.08-0.02-0.14-0.02h-0.34v0.48
							c0,0.06,0,0.1,0.01,0.12c0.01,0.01,0.02,0.02,0.03,0.03c0.02,0.01,0.04,0.01,0.09,0.01h0.26c0.09,0,0.15-0.01,0.19-0.02
							c0.04-0.01,0.08-0.03,0.11-0.07c0.05-0.04,0.1-0.11,0.14-0.2h0.05L34,27.15h-1.19v-0.04h0.06c0.04,0,0.07-0.01,0.1-0.02
							c0.02-0.01,0.04-0.03,0.05-0.05c0.01-0.02,0.01-0.07,0.01-0.14v-0.94c0-0.09-0.01-0.15-0.03-0.17
							c-0.03-0.03-0.07-0.04-0.14-0.04h-0.06V25.7H34l0.02,0.32h-0.04c-0.02-0.08-0.03-0.13-0.05-0.16
							c-0.02-0.03-0.05-0.05-0.09-0.07c-0.03-0.01-0.08-0.02-0.16-0.02H33.25z"/>
						<path class="st2" d="M32.08,25.74V25.7h0.66v0.04h-0.06c-0.06,0-0.11,0.02-0.14,0.05c-0.02,0.02-0.03,0.08-0.03,0.16v0.71
							c0,0.11-0.01,0.2-0.04,0.27c-0.03,0.07-0.07,0.13-0.13,0.18c-0.06,0.05-0.14,0.08-0.23,0.08c-0.07,0-0.13-0.02-0.17-0.05
							c-0.04-0.03-0.06-0.07-0.06-0.11c0-0.04,0.01-0.06,0.03-0.08c0.03-0.02,0.05-0.03,0.09-0.03c0.02,0,0.05,0.01,0.07,0.02
							c0.02,0.01,0.04,0.06,0.07,0.12c0.02,0.04,0.04,0.06,0.07,0.06c0.02,0,0.04-0.01,0.06-0.04c0.02-0.02,0.03-0.07,0.03-0.13
							v-0.99c0-0.07-0.01-0.12-0.01-0.15c-0.01-0.02-0.02-0.03-0.05-0.05c-0.03-0.02-0.07-0.03-0.1-0.03H32.08z"/>
						<path class="st2" d="M31.28,25.74V25.7h0.55v0.04h-0.06c-0.06,0-0.11,0.02-0.14,0.07c-0.02,0.02-0.02,0.07-0.02,0.15v0.59
							c0,0.15-0.02,0.26-0.05,0.34c-0.03,0.08-0.09,0.15-0.18,0.21c-0.09,0.06-0.21,0.09-0.37,0.09c-0.17,0-0.3-0.03-0.38-0.08
							c-0.09-0.06-0.15-0.13-0.19-0.22c-0.02-0.06-0.04-0.18-0.04-0.36v-0.57c0-0.09-0.01-0.15-0.04-0.18
							c-0.03-0.03-0.07-0.04-0.13-0.04h-0.06V25.7h0.67v0.04h-0.06c-0.06,0-0.11,0.02-0.14,0.06c-0.02,0.03-0.03,0.08-0.03,0.16
							v0.63c0,0.06,0.01,0.12,0.02,0.19c0.01,0.07,0.03,0.13,0.06,0.17c0.03,0.04,0.07,0.07,0.12,0.1c0.05,0.03,0.12,0.04,0.2,0.04
							c0.1,0,0.19-0.02,0.27-0.06c0.08-0.04,0.13-0.09,0.16-0.16c0.03-0.06,0.04-0.17,0.04-0.33v-0.59c0-0.09-0.01-0.15-0.03-0.17
							c-0.03-0.03-0.07-0.05-0.13-0.05H31.28z"/>
						<path class="st2" d="M29.05,27.15l-0.6-1.22v0.97c0,0.09,0.01,0.14,0.03,0.17c0.03,0.03,0.07,0.05,0.13,0.05h0.05v0.04h-0.54
							v-0.04h0.05c0.07,0,0.11-0.02,0.14-0.06c0.02-0.02,0.02-0.08,0.02-0.16v-0.95c0-0.06-0.01-0.11-0.02-0.14
							c-0.01-0.02-0.03-0.04-0.06-0.05c-0.03-0.01-0.07-0.02-0.14-0.02V25.7h0.44l0.56,1.14l0.55-1.14h0.44v0.04h-0.05
							c-0.07,0-0.11,0.02-0.14,0.06c-0.02,0.02-0.03,0.08-0.03,0.16v0.95c0,0.09,0.01,0.14,0.03,0.17c0.03,0.03,0.07,0.05,0.13,0.05
							h0.05v0.04h-0.66v-0.04h0.05c0.07,0,0.11-0.02,0.14-0.06c0.02-0.02,0.02-0.08,0.02-0.16v-0.97l-0.6,1.22H29.05z"/>
						<path class="st2" d="M27.46,27.06c-0.04-0.03-0.07-0.09-0.12-0.19l-0.54-1.21h-0.04l-0.54,1.19c-0.05,0.1-0.09,0.17-0.13,0.21
							c-0.02,0.02-0.06,0.03-0.13,0.04v0.04h0.49v-0.04c-0.07-0.01-0.12-0.02-0.15-0.03c-0.02-0.02-0.03-0.04-0.03-0.06
							c0-0.03,0.01-0.07,0.04-0.13l0.1-0.23h0.6l0.09,0.21c0.03,0.07,0.05,0.12,0.05,0.15c0,0.02-0.01,0.04-0.03,0.06
							c-0.02,0.02-0.06,0.03-0.12,0.03v0.04h0.61v-0.04C27.55,27.11,27.5,27.09,27.46,27.06z M26.46,26.59L26.73,26l0.26,0.59H26.46
							z"/>
						<path class="st2" d="M25.86,26.75l0.04,0.01l-0.13,0.39h-1.2v-0.04h0.06c0.07,0,0.11-0.02,0.14-0.06
							c0.02-0.02,0.02-0.08,0.02-0.16v-0.94c0-0.09-0.01-0.15-0.03-0.17c-0.03-0.03-0.07-0.05-0.13-0.05h-0.06V25.7h0.7v0.04
							c-0.08,0-0.14,0.01-0.17,0.02c-0.03,0.02-0.06,0.03-0.07,0.06c-0.01,0.02-0.02,0.08-0.02,0.16v0.91c0,0.06,0.01,0.1,0.02,0.12
							c0.01,0.01,0.02,0.03,0.04,0.03c0.02,0.01,0.08,0.01,0.18,0.01h0.11c0.12,0,0.2-0.01,0.25-0.02c0.05-0.02,0.09-0.05,0.13-0.09
							C25.79,26.91,25.83,26.84,25.86,26.75z"/>
						<path class="st2" d="M23.01,25.78v0.57h0.34c0.09,0,0.15-0.01,0.18-0.04c0.04-0.03,0.06-0.09,0.07-0.17h0.04v0.51h-0.04
							c-0.01-0.07-0.02-0.12-0.03-0.14c-0.01-0.02-0.04-0.04-0.07-0.06c-0.03-0.01-0.08-0.02-0.14-0.02h-0.34v0.48
							c0,0.06,0,0.1,0.01,0.12c0.01,0.01,0.02,0.02,0.03,0.03c0.02,0.01,0.04,0.01,0.09,0.01h0.26c0.09,0,0.15-0.01,0.19-0.02
							c0.04-0.01,0.08-0.03,0.11-0.07c0.05-0.04,0.1-0.11,0.14-0.2h0.05l-0.13,0.36h-1.19v-0.04h0.05c0.04,0,0.07-0.01,0.1-0.02
							c0.02-0.01,0.04-0.03,0.05-0.05c0.01-0.02,0.01-0.07,0.01-0.14v-0.94c0-0.09-0.01-0.15-0.03-0.17
							c-0.03-0.03-0.07-0.04-0.14-0.04h-0.05V25.7h1.19l0.02,0.32h-0.04c-0.02-0.08-0.03-0.13-0.05-0.16
							c-0.02-0.03-0.05-0.05-0.09-0.07c-0.03-0.01-0.08-0.02-0.16-0.02H23.01z"/>
						<path class="st2" d="M22.32,26.02c-0.07-0.11-0.17-0.2-0.29-0.25c-0.12-0.05-0.3-0.07-0.53-0.07h-0.63v0.04h0.06
							c0.06,0,0.1,0.02,0.13,0.05c0.02,0.02,0.03,0.08,0.03,0.17v0.94c0,0.08-0.01,0.14-0.03,0.16c-0.03,0.04-0.07,0.06-0.14,0.06
							h-0.06v0.04h0.69c0.3,0,0.52-0.08,0.67-0.23c0.13-0.14,0.2-0.3,0.2-0.51C22.43,26.27,22.39,26.13,22.32,26.02z M22,26.9
							c-0.12,0.12-0.26,0.17-0.44,0.17c-0.07,0-0.15-0.01-0.24-0.03v-1.23c0.09-0.02,0.17-0.03,0.23-0.03
							c0.18,0,0.33,0.06,0.45,0.17c0.12,0.12,0.17,0.27,0.17,0.47C22.17,26.63,22.11,26.78,22,26.9z"/>
						<path class="st2" d="M20.21,27.06c-0.03-0.03-0.07-0.09-0.12-0.19l-0.54-1.21h-0.04l-0.54,1.19c-0.05,0.1-0.09,0.17-0.13,0.21
							c-0.02,0.02-0.06,0.03-0.13,0.04v0.04h0.49v-0.04c-0.07-0.01-0.12-0.02-0.15-0.03c-0.02-0.02-0.03-0.04-0.03-0.06
							c0-0.03,0.01-0.07,0.04-0.13l0.1-0.23h0.6l0.09,0.21c0.03,0.07,0.05,0.12,0.05,0.15c0,0.02-0.01,0.04-0.03,0.06
							c-0.02,0.02-0.06,0.03-0.13,0.03v0.04h0.61v-0.04C20.29,27.11,20.24,27.09,20.21,27.06z M19.2,26.59L19.47,26l0.26,0.59H19.2z
							"/>
						<path class="st2" d="M18.54,25.67l0.04,0.49h-0.04c-0.05-0.15-0.11-0.25-0.2-0.32c-0.09-0.07-0.19-0.1-0.31-0.1
							c-0.1,0-0.2,0.02-0.28,0.07c-0.08,0.05-0.15,0.13-0.2,0.23c-0.05,0.11-0.07,0.24-0.07,0.4c0,0.13,0.02,0.25,0.07,0.34
							c0.04,0.1,0.11,0.17,0.2,0.22c0.09,0.05,0.19,0.08,0.31,0.08c0.1,0,0.19-0.02,0.27-0.06c0.08-0.04,0.16-0.12,0.25-0.24
							l0.04,0.02c-0.08,0.13-0.17,0.22-0.27,0.28c-0.1,0.06-0.23,0.09-0.37,0.09c-0.26,0-0.45-0.09-0.59-0.27
							c-0.1-0.13-0.16-0.29-0.16-0.47c0-0.14,0.03-0.28,0.1-0.4c0.07-0.12,0.16-0.22,0.29-0.28c0.12-0.07,0.25-0.1,0.4-0.1
							c0.11,0,0.22,0.03,0.33,0.08c0.03,0.02,0.05,0.02,0.07,0.02c0.02,0,0.04-0.01,0.05-0.02c0.02-0.02,0.03-0.05,0.04-0.08H18.54z
							"/>
						<path class="st2" d="M17.08,27.11v0.04h-0.66v-0.04h0.05c0.06,0,0.11-0.02,0.14-0.05c0.02-0.02,0.03-0.08,0.03-0.16v-0.94
							c0-0.07,0-0.12-0.01-0.15c-0.01-0.02-0.02-0.03-0.05-0.05c-0.03-0.02-0.07-0.03-0.1-0.03h-0.05V25.7h0.66v0.04h-0.06
							c-0.06,0-0.11,0.02-0.14,0.05c-0.02,0.02-0.03,0.08-0.03,0.16v0.94c0,0.07,0,0.12,0.01,0.15c0.01,0.02,0.02,0.03,0.05,0.05
							c0.03,0.02,0.07,0.03,0.1,0.03H17.08z"/>
						<path class="st2" d="M14.65,25.7h0.42l0.94,1.09v-0.84c0-0.09-0.01-0.14-0.03-0.17c-0.03-0.03-0.07-0.05-0.13-0.05h-0.05V25.7
							h0.54v0.04h-0.05c-0.07,0-0.11,0.02-0.14,0.06c-0.02,0.02-0.03,0.08-0.03,0.16v1.22h-0.04l-1.02-1.17v0.89
							c0,0.09,0.01,0.14,0.03,0.17c0.03,0.03,0.07,0.05,0.13,0.05h0.05v0.04h-0.54v-0.04h0.05c0.07,0,0.11-0.02,0.14-0.06
							c0.02-0.02,0.03-0.08,0.03-0.16v-1.01c-0.04-0.05-0.08-0.08-0.1-0.1c-0.02-0.02-0.06-0.03-0.1-0.04
							c-0.02-0.01-0.06-0.01-0.1-0.01V25.7z"/>
						<path class="st2" d="M14.55,27.11v0.04h-0.66v-0.04h0.05c0.06,0,0.11-0.02,0.14-0.05c0.02-0.02,0.03-0.08,0.03-0.16v-0.94
							c0-0.07,0-0.12-0.01-0.15c-0.01-0.02-0.02-0.03-0.05-0.05c-0.03-0.02-0.07-0.03-0.1-0.03h-0.05V25.7h0.66v0.04h-0.06
							c-0.06,0-0.11,0.02-0.14,0.05c-0.02,0.02-0.03,0.08-0.03,0.16v0.94c0,0.07,0.01,0.12,0.01,0.15c0.01,0.02,0.02,0.03,0.05,0.05
							c0.03,0.02,0.07,0.03,0.1,0.03H14.55z"/>
						<path class="st2" d="M13.81,26.75l0.04,0.01l-0.13,0.39h-1.2v-0.04h0.06c0.07,0,0.11-0.02,0.14-0.06
							c0.02-0.02,0.02-0.08,0.02-0.16v-0.94c0-0.09-0.01-0.15-0.03-0.17c-0.03-0.03-0.07-0.05-0.13-0.05h-0.06V25.7h0.7v0.04
							c-0.08,0-0.14,0.01-0.17,0.02c-0.03,0.02-0.06,0.03-0.07,0.06c-0.01,0.02-0.02,0.08-0.02,0.16v0.91c0,0.06,0.01,0.1,0.02,0.12
							c0.01,0.01,0.02,0.03,0.04,0.03c0.02,0.01,0.08,0.01,0.18,0.01h0.11c0.12,0,0.2-0.01,0.25-0.02c0.05-0.02,0.09-0.05,0.13-0.09
							C13.73,26.91,13.77,26.84,13.81,26.75z"/>
						<path class="st2" d="M12.32,25.67l0.04,0.49h-0.04c-0.05-0.15-0.11-0.25-0.2-0.32c-0.09-0.07-0.19-0.1-0.31-0.1
							c-0.1,0-0.2,0.02-0.28,0.07c-0.08,0.05-0.15,0.13-0.2,0.23c-0.05,0.11-0.07,0.24-0.07,0.4c0,0.13,0.02,0.25,0.07,0.34
							c0.04,0.1,0.11,0.17,0.2,0.22c0.09,0.05,0.19,0.08,0.31,0.08c0.1,0,0.19-0.02,0.27-0.06c0.08-0.04,0.16-0.12,0.25-0.24
							l0.04,0.02c-0.08,0.13-0.17,0.22-0.27,0.28c-0.1,0.06-0.23,0.09-0.37,0.09c-0.26,0-0.45-0.09-0.59-0.27
							c-0.1-0.13-0.16-0.29-0.16-0.47c0-0.14,0.03-0.28,0.1-0.4c0.07-0.12,0.16-0.22,0.29-0.28c0.12-0.07,0.25-0.1,0.4-0.1
							c0.11,0,0.22,0.03,0.33,0.08c0.03,0.02,0.05,0.02,0.07,0.02c0.02,0,0.04-0.01,0.05-0.02c0.02-0.02,0.03-0.05,0.04-0.08H12.32z
							"/>
					</g>
					<g>
						<path class="st2" d="M14.47,25.41c-0.01,0.01-0.03,0.03-0.05,0.04l-0.16,0.12h-0.09l0.15-0.24c0.01-0.01,0.03-0.02,0.04-0.04
							c0.02-0.01,0.04-0.02,0.06-0.02c0.02,0,0.04,0.01,0.05,0.02c0.02,0.01,0.02,0.03,0.02,0.05
							C14.48,25.38,14.48,25.4,14.47,25.41z"/>
					</g>
				</g>
			</g>
		</g>
		<path class="st3" d="M115.2,139.44H73.97c-2.84,0-5.14-2.3-5.14-5.14v-1.44c0-2.84,2.3-5.14,5.14-5.14h41.23
			c2.84,0,5.14,2.3,5.14,5.14v1.44C120.34,137.13,118.04,139.44,115.2,139.44z"/>
		<path class="st32" d="M117.28,140.41H71.26c-3.34,0-6.04-2.71-6.04-6.04v-1.69c0-3.34,2.71-6.04,6.04-6.04h46.03
			c3.34,0,6.04,2.71,6.04,6.04v1.69C123.33,137.7,120.62,140.41,117.28,140.41z"/>
		<g>
			<g>
				<g>
					<path class="st33" d="M128.04,96.33l-16.38-8.81c0,0-2.34-1.47-2.91,0.17c-0.56,1.63-0.09,3.73,2.76,6.9
						c2.85,3.17,8.64,7.69,8.64,7.69L128.04,96.33z"/>
					<polygon class="st34" points="118.29,91.94 118.08,93.11 119.72,94.18 117.62,94.08 116.8,95.06 115.72,93.83 113.57,93.37 
						115,92.71 114.49,91.44 116.46,92.27 					"/>
				</g>
				<g>
					<g>
						<g>
							<defs>
								<path id="SVGID_1_" d="M103.84,111.03c0,0-2.89-10.14,24.34-15.88c15.56-3.28,27.72-6.48,35.03-6.55
									c5.47-0.05,7.9,3.12,7.01,4.61c-2.1,3.48-22.54,17.76-41.13,22.19C110.5,119.84,104.52,113.47,103.84,111.03z"/>
							</defs>
							<use xlink:href="#SVGID_1_"  style="overflow:visible;fill:#544B9A;"/>
							<clipPath id="SVGID_2_">
								<use xlink:href="#SVGID_1_"  style="overflow:visible;"/>
							</clipPath>
							<ellipse class="st35" cx="106.97" cy="112.28" rx="11.43" ry="11.64"/>
							<ellipse class="st36" cx="103.68" cy="111.52" rx="4.2" ry="4.27"/>
							<path class="st37" d="M102.5,107.89c0,0,11.54,10.11,37.63-0.36c26.09-10.47,32.32-18.57,32.32-18.57l-1.53,16.09
								l-50.91,20.52l-17.86-6.62L102.5,107.89z"/>
						</g>
						<g>
							<g>
								<path class="st2" d="M104.16,110.21L102.22,99c0,0-0.68-4.51-3.44-3.98c-2.76,0.54-1.2,4.97-0.18,6.98
									c0.59,1.18,4.77,8.68,4.77,8.68L104.16,110.21z"/>
								<path class="st2" d="M103.81,111.81l3.99,10.63c0,0,1.51,4.3,4.12,3.24c2.61-1.06,0.25-5.11-1.12-6.89
									c-0.8-1.04-6.3-7.61-6.3-7.61L103.81,111.81z"/>
								<g>
									<path class="st8" d="M102.79,110.56c0,0,1.63-1.17,2.23-0.13c0.68,1.19-1.29,1.69-1.83,1.62L102.79,110.56z"/>
									<path class="st8" d="M103.97,111.24c0,0.44-0.34,0.8-0.78,0.81c-0.43,0-0.79-0.35-0.79-0.79c0-0.44,0.34-0.8,0.78-0.81
										C103.61,110.45,103.97,110.8,103.97,111.24z"/>
								</g>
							</g>
						</g>
						<g>
							<path class="st38" d="M115.93,98.71c0,0,12.65,0.75,11.83,16.82"/>
							<path class="st38" d="M155.86,89.42c0,0,7.88,1.79,6.9,10.11"/>
						</g>
					</g>
					<g>
						<path class="st33" d="M167.3,86.93c0.02-0.12-0.04-0.25-0.15-0.3l-4.29-2.11c0,0-1.66-0.87-3.26,0.02
							c-0.37,0.21-0.65,0.58-0.66,1.01c-0.01,0.45,0.23,1.05,1.24,1.63l2.59,1.39c0.13,0.07,0.29,0.08,0.43,0.03l3.92-1.46
							C167.22,87.12,167.29,87.03,167.3,86.93L167.3,86.93z"/>
						<path class="st8" d="M163.05,89.77c0,0-2.55-5.46,0.97-7.43c3.52-1.97,8.66,7.05,6.18,10.88
							C167.74,97.06,163.05,89.77,163.05,89.77z"/>
						<path class="st33" d="M165.33,89.21c-0.02,0.12,0.04,0.25,0.15,0.3l4.29,2.11c0,0,1.66,0.87,3.26-0.02
							c0.37-0.21,0.65-0.58,0.66-1.01c0.01-0.45-0.23-1.05-1.24-1.63l-2.59-1.39c-0.13-0.07-0.29-0.08-0.43-0.03L165.51,89
							C165.42,89.03,165.35,89.11,165.33,89.21L165.33,89.21z"/>
					</g>
				</g>
				<g>
					<path class="st33" d="M144.16,106.65l20.22,10.71c0.31,0.16,0.43,0.56,0.25,0.86c-0.64,1.05-3.06,2.93-12.17,1.19
						c-9.88-1.88-17.16-5.53-19.52-6.83c-0.51-0.28-0.81-0.82-0.8-1.41l0,0c0.02-0.61,0.39-1.16,0.95-1.38
						C134.71,109.12,138.5,107.73,144.16,106.65z"/>
					<polygon class="st34" points="148.76,109.96 148.31,111.88 150.51,113.37 147.53,113.49 146.25,115.18 144.87,113.34 
						141.88,112.88 143.99,111.63 143.43,109.66 146.12,110.73 					"/>
				</g>
			</g>
			<g>
				<g>
					<path class="st39" d="M131.44,95.83c0.34,0.14,17.03-5.03,20.41-3.46c3.39,1.57-18.8,8.32-18.8,8.32L131.44,95.83z"/>
					<g>
						<path class="st40" d="M155.27,79.65c0,0-1.17,7.08,0.12,9.29c0,0-10.35,3.22-16.02-1.8c0,0,2.46-0.89,2.03-4.22L155.27,79.65"
							/>
						<g>
							<g>
								<g>
									<path class="st41" d="M156.8,88.02l0.48-2.2c0.03-0.14,0.17-0.23,0.3-0.2l0.01,0c0.12,0.03,0.2,0.13,0.2,0.25l0.01,0.53
										l0.59-1.18c0.05-0.11,0.17-0.16,0.28-0.14l0.07,0.01c0.15,0.03,0.24,0.2,0.18,0.35l-0.38,0.97l0.94-0.74
										c0.13-0.1,0.31-0.06,0.39,0.08l0.02,0.03c0.05,0.09,0.04,0.2-0.02,0.28l-0.63,0.75l0.78-0.11c0.16-0.02,0.29,0.1,0.29,0.26
										l0,0.03c0,0.11-0.07,0.21-0.18,0.24l-0.83,0.27l0.56,0.19c0.12,0.04,0.2,0.17,0.17,0.3l0,0c-0.03,0.14-0.16,0.23-0.3,0.2
										l-0.58-0.03l-1.63,0.71L156.8,88.02z"/>
									<path class="st41" d="M147.33,90.82c4.72,0.52,10.46-1.98,10.63-2.11l-0.87-1.29c-0.04,0.03-4.82,1.08-9.4,1.2
										L147.33,90.82z"/>
								</g>
								<polygon class="st9" points="147.02,88.56 150.61,88.44 150.93,91.32 148.29,91.66 								"/>
							</g>
							<g>
								<g>
									<path class="st41" d="M138.39,85.01l-0.04-1.91c-0.01-0.12-0.11-0.22-0.23-0.21l-0.01,0c-0.1,0.01-0.17,0.11-0.21,0.21
										l-0.22,0.44l-0.39-1.07c-0.04-0.1-0.13-0.15-0.23-0.14l-0.06,0.01c-0.13,0.01-0.22,0.15-0.19,0.28l0.23,0.87l-0.73-0.72
										c-0.1-0.1-0.26-0.08-0.34,0.03l-0.02,0.02c-0.05,0.07-0.05,0.16-0.01,0.24l0.46,0.7l-0.66-0.17
										c-0.13-0.03-0.26,0.06-0.27,0.2l0,0.02c-0.01,0.09,0.04,0.18,0.13,0.22l0.69,0.31l-0.5,0.11
										c-0.11,0.02-0.18,0.13-0.17,0.24l0,0c0.01,0.12,0.12,0.21,0.23,0.2l0.5,0.03l1.33,0.76L138.39,85.01z"/>
									<path class="st41" d="M144.38,90.54c-3.93-1.13-6.85-4.84-6.94-5l0.95-0.74c0.02,0.03,3.62,2.72,6.98,3.69L144.38,90.54z"
										/>
								</g>
								<path class="st9" d="M145.93,88.52l-2.78-0.86c0,0-0.92,1.26-0.99,2.78l2.51,1.38L145.93,88.52z"/>
							</g>
							<g>
								<path class="st9" d="M145.37,88.5c0,0-1.53,0.92-1.65,1.57c0,0-0.82,1.75-1.8,8.02l7.57-1.6c0,0-0.09-4.79-0.32-6.07
									c-0.2-1.1-0.65-1.57-1.48-1.79L145.37,88.5z"/>
							</g>
						</g>
						<g>
							<path class="st2" d="M146.1,89.33c0,0,0.44,1.25,1.5,0.66c1.06-0.6-0.1-1.65-0.1-1.65L146.1,89.33z"/>
							<path class="st2" d="M146.29,89.3c0,0-0.65,0.84-1.27,0.25c-0.69-0.65,0.47-1.23,0.47-1.23L146.29,89.3z"/>
							<g>
								<path class="st9" d="M151.74,73.73c0,0-0.98-2.87-4.32-3.95c0,0-1.33,2.28-1.72,6.25c0,0,2.34,0.74,5.6-0.94L151.74,73.73z"
									/>
								<path class="st9" d="M152.33,75.61c0,0,1.41,2.9,4.95,4.03c0,0,1.25-2.61,1.66-6.81c0,0-2.69-0.44-6.14,1.33L152.33,75.61z"
									/>
							</g>
							<path class="st42" d="M145.64,86.57l-0.22,2.02c0,0-0.17,0.77,1.09,0.91c1.13,0.13,1.14-0.75,1.14-0.75l0.25-2.2
								L145.64,86.57z"/>
							<polygon class="st43" points="145.47,88.13 147.85,87.08 145.64,86.57 							"/>
							<g>
								<ellipse class="st42" cx="141.2" cy="80.42" rx="1.84" ry="1.88"/>
							</g>
							<path class="st40" d="M140.84,75.58c0,0-1.35,1.05-0.31,4.73l1.81-4.75L140.84,75.58z"/>
							<path class="st41" d="M141.21,76.76c-0.15,0.34-0.25,0.69-0.33,1.05c-0.35,1.65-1.08,6.16,2.2,8.34
								c3.54,2.35,7.59,0.71,9.33-1.63c1.19-1.6,1.89-7.07,0.56-8.81c-1.33-1.74-4.47-2.87-7.36-2.54
								C142.99,73.48,141.98,74.98,141.21,76.76z"/>
							<g>
								<g>
									<g>
										<defs>
											<path id="XMLID_72_" d="M146.14,82.85c0,0-0.35-2.65,1.69-2.81c1.82-0.14,1.62,2.13,1.53,2.73
												C149.35,82.77,148.19,83.38,146.14,82.85z"/>
										</defs>
										<use xlink:href="#XMLID_72_"  style="overflow:visible;fill:#FFFFFF;"/>
										<clipPath id="XMLID_14_">
											<use xlink:href="#XMLID_72_"  style="overflow:visible;"/>
										</clipPath>
										<path class="st44" d="M148.72,82.02c-0.08,0.71-0.71,1.22-1.42,1.14c-0.71-0.08-1.22-0.72-1.14-1.43
											c0.08-0.71,0.71-1.22,1.42-1.14C148.29,80.67,148.8,81.31,148.72,82.02z"/>
										<path class="st45" d="M148.78,81.13c-0.03,0.31-0.31,0.53-0.62,0.5c-0.31-0.03-0.53-0.31-0.5-0.63
											c0.03-0.31,0.31-0.53,0.62-0.5C148.59,80.54,148.81,80.82,148.78,81.13z"/>
									</g>
									<path class="st46" d="M146.87,80.39c0,0,0.91-0.69,1.85-0.11c1.13,0.69,0.63,2.49,0.63,2.49"/>
								</g>
								<g>
									<g>
										<defs>
											<path id="XMLID_71_" d="M143.75,82.59c0,0,0.8-2.35-0.87-2.9c-1.49-0.49-1.77,1.62-1.81,2.18
												C141.07,81.87,141.93,82.66,143.75,82.59z"/>
										</defs>
										<use xlink:href="#XMLID_71_"  style="overflow:visible;fill:#FFFFFF;"/>
										<clipPath id="XMLID_15_">
											<use xlink:href="#XMLID_71_"  style="overflow:visible;"/>
										</clipPath>
										<path class="st47" d="M141.44,81.28c-0.07,0.66,0.36,1.26,0.97,1.32c0.61,0.07,1.16-0.41,1.23-1.08s-0.36-1.26-0.97-1.32
											C142.07,80.13,141.52,80.61,141.44,81.28z"/>
										<path class="st48" d="M142.96,80.66c-0.03,0.29,0.16,0.55,0.42,0.58c0.27,0.03,0.51-0.18,0.54-0.47
											c0.03-0.29-0.16-0.55-0.42-0.58C143.23,80.16,142.99,80.37,142.96,80.66z"/>
									</g>
									<path class="st49" d="M143.6,80.2c0,0-0.62-0.81-1.53-0.47c-1.08,0.4-1.01,2.15-1.01,2.15"/>
								</g>
								<path class="st50" d="M144.4,82.83l-0.12,0.43c-0.04,0.15,0.03,0.31,0.17,0.38l0.17,0.09"/>
								<path class="st43" d="M146.93,78.29c0,0-0.29,0.43,1.27,0.65c1.56,0.22,2.02,0.08,1.93-0.24c-0.09-0.31-0.92-0.49-1.71-0.57
									C147.52,78.04,147.1,77.97,146.93,78.29z"/>
								<path class="st43" d="M143.85,78.11c0,0,0.16,0.48-1.22,0.39c-1.38-0.09-1.23-0.47-1.18-0.57c0.05-0.1,0.37-0.3,1.16-0.27
									C143.41,77.7,143.78,77.76,143.85,78.11z"/>
								<path class="st2" d="M144.06,84.14c0,0,2.46,0.33,2.6,0.31c0,0-0.17,1.05-1.37,0.88C143.92,85.14,144.06,84.14,144.06,84.14
									z"/>
							</g>
							<path class="st40" d="M151.93,74.66c0,0-4.79,3.19-11.78,2.81c0,0-0.06-8.87,12.72-3.78L151.93,74.66z"/>
							<path class="st40" d="M150.87,74.02c0,0-1.7,4.6,1.84,7.4l2.35-0.9c0,0,1.68-5.06-2.19-6.82L150.87,74.02z"/>
							<g>
								<path class="st41" d="M155.79,82.22c-0.11,1.03-1.02,1.77-2.03,1.66c-1.01-0.11-1.74-1.04-1.63-2.07
									c0.11-1.03,1.02-1.77,2.03-1.66C155.17,80.26,155.9,81.19,155.79,82.22z"/>
								<path class="st51" d="M154.54,81.33c0,0-1.16-0.21-1.33,1.27"/>
							</g>
						</g>
					</g>
					<polygon class="st52" points="141.01,98.09 149.77,94.63 149.88,98.21 142.35,100.6 141.58,99.59 					"/>
				</g>
				<g>
					<g>
						<g>
							<g>
								<path class="st53" d="M121.3,90.9l-0.16-1.96c-0.02-0.13-0.12-0.22-0.25-0.2l-0.01,0c-0.1,0.02-0.17,0.12-0.2,0.22
									l-0.2,0.46l-0.47-1.07c-0.04-0.1-0.14-0.15-0.24-0.13l-0.06,0.01c-0.14,0.02-0.22,0.17-0.18,0.3l0.29,0.88l-0.8-0.7
									c-0.11-0.1-0.27-0.07-0.35,0.05l-0.02,0.03c-0.04,0.08-0.04,0.17,0.01,0.25l0.52,0.69l-0.69-0.13
									c-0.14-0.03-0.26,0.08-0.27,0.22l0,0.03c0,0.1,0.06,0.19,0.15,0.22l0.72,0.28l-0.5,0.15c-0.11,0.03-0.18,0.14-0.16,0.26l0,0
									c0.02,0.12,0.13,0.21,0.25,0.19l0.52,0l1.41,0.7L121.3,90.9z"/>
								<path class="st54" d="M127.41,96.19c-4.1-0.9-7.06-4.45-7.16-4.61l1.14-1c0.02,0.03,3.77,2.66,7.28,3.44L127.41,96.19z"/>
							</g>
							<g>
								<path class="st53" d="M140.36,92.79l0.35-2.29c0.02-0.15,0.16-0.25,0.3-0.22l0.01,0c0.12,0.02,0.21,0.12,0.22,0.24
									l0.04,0.54l0.53-1.25c0.05-0.11,0.16-0.18,0.28-0.16l0.07,0.01c0.16,0.03,0.26,0.19,0.21,0.35l-0.32,1.02l0.91-0.82
									c0.12-0.11,0.32-0.09,0.4,0.06l0.02,0.03c0.05,0.09,0.05,0.2,0,0.29l-0.59,0.81l0.8-0.16c0.16-0.03,0.31,0.09,0.31,0.25
									l0,0.03c0,0.11-0.06,0.22-0.17,0.26l-0.84,0.33l0.59,0.16c0.13,0.04,0.21,0.16,0.19,0.3l0,0c-0.02,0.14-0.15,0.24-0.29,0.22
									l-0.6,0l-1.63,0.83L140.36,92.79z"/>
								<path class="st54" d="M131.19,96.64c4.87,0.23,10.18-3.01,10.34-3.16l-1.14-1.32c-0.04,0.03-4.17,1.32-8.86,1.74
									L131.19,96.64z"/>
							</g>
							<g>
								<path class="st54" d="M128.66,94.02c0,0-1.51,1.04-1.59,1.71c0,0-1.2,4.58-1.24,5.78l7.55,0.43c0,0-0.39-4.91-0.71-6.2
									c-0.27-1.12-0.77-1.57-1.63-1.74L128.66,94.02z"/>
								<path class="st2" d="M128.2,93.91c0,0-0.23,1.51,1.59,1.57c1.92,0.06,1.74-1.56,1.74-1.56l-1.09,0.13L128.2,93.91z"/>
							</g>
						</g>
						<g>
							<path class="st55" d="M128.73,91.86l-0.07,2.16c0,0-0.12,0.83,1.23,0.87c1.21,0.04,1.15-0.89,1.15-0.89l0.09-2.35
								L128.73,91.86z"/>
							<polygon class="st43" points="128.67,93.62 131.11,92.22 128.73,91.86 							"/>
							<g>
								<ellipse class="st55" cx="123.51" cy="85.72" rx="1.96" ry="1.99"/>
							</g>
							<path class="st43" d="M122.74,80.63c0,0-1.34,1.23,0.06,5.04l1.53-5.19L122.74,80.63z"/>
							<path class="st43" d="M132.56,76.78c0,0,4.98,0.95,5.88,4.5c0.61,2.4,0.28,7.56-4.07,9.25L132.56,76.78z"/>
							<path class="st53" d="M123.23,81.84c-0.13,0.37-0.21,0.75-0.26,1.14c-0.24,1.78-0.64,6.62,3.02,8.66
								c3.94,2.19,8.11,0.1,9.75-2.52c1.13-1.8,1.43-7.65-0.13-9.39s-4.97-2.66-8.01-2.06C124.84,78.22,123.9,79.89,123.23,81.84z"
								/>
							<path class="st43" d="M135.21,85.93c0,0-3.07-1.46-1.34-5.57l1.65,0.22c1.28,0.04,2.14,1.34,1.7,2.57l0.35,1.21L135.21,85.93
								z"/>
							<g>
								<ellipse class="st53" cx="137.17" cy="86.32" rx="1.96" ry="1.99"/>
								<path class="st56" d="M137.73,85.55c0,0-1.25-0.12-1.3,1.46"/>
							</g>
							<path class="st43" d="M137.82,79.9c0,0-2.07-3.9-8.05-5.28c-5.47-1.26-3.95,2.1-3.95,2.1s-4.57-1.41-6.16,1.44
								s3.7,4.5,7.39,4.09c3.69-0.41,4.75-1.05,4.75-1.05s1.67,1.91,5.33,0.82L137.82,79.9z"/>
							<g>
								<g>
									<g>
										<defs>
											<path id="XMLID_7_" d="M128.95,87.88c0,0-0.59-2.78,1.56-3.12c1.91-0.31,1.89,2.12,1.85,2.76
												C132.36,87.52,131.17,88.26,128.95,87.88z"/>
										</defs>
										<use xlink:href="#XMLID_7_"  style="overflow:visible;fill:#FFFFFF;"/>
										<clipPath id="XMLID_16_">
											<use xlink:href="#XMLID_7_"  style="overflow:visible;"/>
										</clipPath>
										<path class="st57" d="M131.62,86.77c-0.02,0.76-0.65,1.35-1.41,1.33c-0.75-0.02-1.35-0.66-1.32-1.42
											c0.02-0.76,0.65-1.35,1.41-1.33C131.05,85.38,131.64,86.02,131.62,86.77z"/>
										<path class="st58" d="M131.61,85.83c-0.01,0.33-0.29,0.59-0.62,0.58c-0.33-0.01-0.59-0.29-0.58-0.62s0.29-0.59,0.62-0.58
											C131.36,85.22,131.62,85.49,131.61,85.83z"/>
									</g>
									<path class="st59" d="M129.53,85.21c0,0,0.9-0.81,1.96-0.28c1.26,0.64,0.87,2.59,0.87,2.59"/>
								</g>
								<g>
									<g>
										<defs>
											<path id="XMLID_6_" d="M126.4,87.8c0,0,0.66-2.56-1.16-3c-1.62-0.4-1.74,1.87-1.73,2.47
												C123.5,87.27,124.47,88.03,126.4,87.8z"/>
										</defs>
										<use xlink:href="#XMLID_6_"  style="overflow:visible;fill:#FFFFFF;"/>
										<clipPath id="XMLID_17_">
											<use xlink:href="#XMLID_6_"  style="overflow:visible;"/>
										</clipPath>
										<path class="st60" d="M123.85,86.61c-0.02,0.71,0.49,1.3,1.13,1.32c0.65,0.02,1.19-0.54,1.21-1.25
											c0.02-0.71-0.49-1.3-1.13-1.32C124.41,85.34,123.87,85.9,123.85,86.61z"/>
										<path class="st61" d="M125.4,85.83c-0.01,0.31,0.21,0.57,0.5,0.58c0.28,0.01,0.52-0.24,0.53-0.55
											c0.01-0.31-0.21-0.57-0.5-0.58C125.65,85.27,125.41,85.52,125.4,85.83z"/>
									</g>
									<path class="st62" d="M126.05,85.28c0,0-0.73-0.81-1.66-0.37c-1.11,0.52-0.89,2.36-0.89,2.36"/>
								</g>
								<path class="st63" d="M127.11,88l-0.09,0.46c-0.03,0.16,0.06,0.32,0.21,0.38l0.19,0.08"/>
								<path class="st43" d="M129.42,82.98c0,0-0.27,0.48,1.4,0.58c1.67,0.1,2.08-0.07,2.02-0.42c-0.05-0.28-0.9-0.39-1.86-0.46
									C130.02,82.61,129.57,82.62,129.42,82.98z"/>
								<path class="st43" d="M126.14,83.04c0,0,0.21,0.49-1.26,0.52c-1.47,0.03-1.34-0.39-1.3-0.5c0.04-0.11,0.37-0.35,1.21-0.38
									C125.63,82.65,126.03,82.68,126.14,83.04z"/>
								<g>
									<defs>
										<path id="XMLID_3_" d="M126.82,89.52l2.57,0.08c0,0,0.07,1.01-1.32,0.97C126.81,90.53,126.82,89.52,126.82,89.52z"/>
									</defs>
									<use xlink:href="#XMLID_3_"  style="overflow:visible;fill:#3C1318;"/>
									<clipPath id="XMLID_18_">
										<use xlink:href="#XMLID_3_"  style="overflow:visible;"/>
									</clipPath>
									<path class="st64" d="M126.99,90.61c0,0,0.9-1.06,2.4-0.24l0,0C129.39,90.37,129.05,91.16,126.99,90.61z"/>
								</g>
								<g>
									<path class="st65" d="M126.84,86.86c-0.06,1.81-1.54,3.23-3.32,3.17c-1.78-0.06-3.17-1.57-3.12-3.38
										c0.06-1.81,1.54-3.23,3.32-3.17C125.5,83.54,126.89,85.06,126.84,86.86z"/>
									<path class="st65" d="M134.62,86.97c-0.06,1.89-1.61,3.37-3.47,3.32c-1.86-0.06-3.31-1.64-3.26-3.53
										c0.06-1.89,1.61-3.37,3.47-3.32C133.22,83.5,134.68,85.08,134.62,86.97z"/>
									<path class="st65" d="M126.84,86.86c0,0,0.62-0.32,1.06,0.03"/>
								</g>
							</g>
						</g>
					</g>
					<g>
						<path class="st8" d="M135.05,99.94c-1.88,0.95-3.45,1.05-4.99,0.82c-0.34-0.12-1.16-0.51-1.75-1.42
							c-1.88-2.89-4.23-1.63-4.23-1.63l0.5,1.66l-1.91,1.29l2.01,2.14l3.27,1.06l6.47-0.24l2.16-1.92L135.05,99.94z"/>
						<path class="st66" d="M123.23,97.26c0,0,3.46-0.56,5.15,2.18c1.92,3.1,7.22,0.34,7.22,0.34"/>
					</g>
				</g>
			</g>
		</g>
		<text transform="matrix(0.9823 0 0 1 72.9335 136.4838)" class="st2 st4 st5">25 DE ABRIL</text>
	</g>
	<g id="Capa_1">
	</g>
	<g id="Capa_5">
	</g>
	<g id="Capa_2">
	</g>
	<g id="Capa_6">
	</g>
	<g id="Capa_9">
	</g>
	<g id="Capa_10">
	</g>
	<g id="Capa_7">
	</g>
	<g id="Capa_8">
	</g>
	<g id="Capa_11">
	</g>
</g>
</svg>
