<?xml version="1.0" encoding="utf-8"?>
<!-- Generator: Adobe Illustrator 23.0.5, SVG Export Plug-In . SVG Version: 6.00 Build 0)  -->
<svg version="1.1" xmlns="http://www.w3.org/2000/svg" xmlns:xlink="http://www.w3.org/1999/xlink" x="0px" y="0px"
	 viewBox="0 0 1923 1078.6" style="enable-background:new 0 0 1923 1078.6;" xml:space="preserve">
<style type="text/css">
	.st0{fill:#FFFFFF;}
	.st1{fill:#A5D8F0;}
	.st2{fill:#8BD0F0;}
	.st3{fill:#03405C;}
	.st4{font-family:'ComicSansMS-Bold';}
	.st5{font-size:56.6487px;}
	.st6{fill:#FCCE5E;}
	.st7{fill:#FFE6EB;}
	.st8{fill:#544A9B;}
	.st9{fill:#FF507E;}
	.st10{fill:none;stroke:#FFFFFF;stroke-width:0.785;stroke-linecap:round;stroke-linejoin:round;stroke-miterlimit:10;}
	.st11{fill:none;stroke:#FFFFFF;stroke-width:0.6838;stroke-linecap:round;stroke-linejoin:round;stroke-miterlimit:10;}
	.st12{fill:#E6F1F8;}
	.st13{fill:#22566B;}
	.st14{fill:#0674A7;}
	.st15{fill:#FCAEB5;}
	.st16{fill:#FC97A0;}
	.st17{fill:#0671A3;}
	.st18{fill:#1184BA;}
	.st19{fill:#49A1C9;}
	.st20{fill:#C9EEFF;}
	.st21{fill:#045E87;}
	.st22{fill:#FB364A;}
	.st23{fill:#6CC7F0;}
	.st24{fill:#FF930F;}
	.st25{fill:#FC7E8A;}
	.st26{fill:#DE642D;}
	.st27{fill:#3D1E41;}
	.st28{fill:none;stroke:#0674A7;stroke-width:0.5;stroke-linecap:round;stroke-miterlimit:10;stroke-dasharray:0.9843,4.9214;}
	.st29{fill:#FC5D6C;}
	.st30{fill:#5EA5B1;}
	.st31{opacity:0.33;fill:#03405C;}
	.st32{fill:#FF9E64;}
	.st33{fill:#EFF1F0;}
	.st34{clip-path:url(#SVGID_2_);fill:#FF9E64;}
	.st35{clip-path:url(#SVGID_2_);fill:#FF864D;}
	.st36{opacity:0.72;clip-path:url(#SVGID_2_);fill:#E5E5E5;}
	.st37{fill:none;stroke:#1B1860;stroke-width:0.9765;stroke-linecap:round;stroke-linejoin:round;stroke-miterlimit:10;}
	.st38{fill:#1B1860;}
	.st39{fill:#7D371D;}
	.st40{fill:#FFC4B0;}
	.st41{fill:#FFB7A6;}
	.st42{fill:#3C1318;}
	.st43{clip-path:url(#XMLID_14_);fill:#3C1318;}
	.st44{clip-path:url(#XMLID_14_);fill:#FFFFFF;}
	.st45{fill:none;stroke:#010000;stroke-width:0.6285;stroke-linecap:round;stroke-linejoin:round;stroke-miterlimit:10;}
	.st46{clip-path:url(#XMLID_15_);fill:#3C1318;}
	.st47{clip-path:url(#XMLID_15_);fill:#FFFFFF;}
	.st48{fill:none;stroke:#010000;stroke-width:0.5629;stroke-linecap:round;stroke-linejoin:round;stroke-miterlimit:10;}
	.st49{fill:none;stroke:#AF5A3F;stroke-width:0.7828;stroke-linecap:round;stroke-linejoin:round;stroke-miterlimit:10;}
	.st50{fill:none;stroke:#AF5A3F;stroke-width:0.7881;stroke-linecap:round;stroke-linejoin:round;stroke-miterlimit:10;}
	.st51{fill:#57499F;}
	.st52{fill:#FFBC9E;}
	.st53{fill:#8DE8CD;}
	.st54{fill:#FFAB8E;}
	.st55{fill:none;stroke:#AF5A3F;stroke-width:0.8379;stroke-linecap:round;stroke-linejoin:round;stroke-miterlimit:10;}
	.st56{clip-path:url(#XMLID_16_);fill:#3C1318;}
	.st57{clip-path:url(#XMLID_16_);fill:#FFFFFF;}
	.st58{fill:none;stroke:#010000;stroke-width:0.6682;stroke-linecap:round;stroke-linejoin:round;stroke-miterlimit:10;}
	.st59{clip-path:url(#XMLID_17_);fill:#3C1318;}
	.st60{clip-path:url(#XMLID_17_);fill:#FFFFFF;}
	.st61{fill:none;stroke:#010000;stroke-width:0.5985;stroke-linecap:round;stroke-linejoin:round;stroke-miterlimit:10;}
	.st62{fill:none;stroke:#AF5A3F;stroke-width:0.8323;stroke-linecap:round;stroke-linejoin:round;stroke-miterlimit:10;}
	.st63{clip-path:url(#XMLID_18_);fill:#FF507E;}
	.st64{fill:none;stroke:#FF507E;stroke-width:1.3851;stroke-linecap:round;stroke-linejoin:round;stroke-miterlimit:10;}
	.st65{fill:none;stroke:#1B1860;stroke-width:0.8529;stroke-linecap:round;stroke-linejoin:round;stroke-miterlimit:10;}
</style>
<g id="Capa_2">
	<rect class="st0" width="1923" height="1079"/>
</g>
<g id="Capa_3">
	<g>
		<path class="st1" d="M1923,3.6v1065.7h-433.2c0,0-32.3-107.7-206.2-126.8c-173.9-19.1-400-33.9-457.1-156.7
			C769.3,663,638.2,418.2,622.5,396.4c0,0-5.5,0.2,13.1,5c37.2,9.6,84-23,113.8-66.8c44.7-65.7,52.2-171.6,171.4-199.1
			c119.3-27.5,298.1-30.3,342.9-132H1923z"/>
		<path class="st2" d="M1923,978.3v91.1h-433.2c0,0-4.7-15.8-20.3-36.3c-15.3-20.2-41.1-44.9-83.1-63.9c-27-12.2-60.8-22-102.8-26.6
			c-173.9-19.1-482.1-48-539.2-170.9c-3.7-7.9-7.1-16-10.4-24.3c-13.6-34.4-24-72.2-34-111.1c-25.2-98-13.7-151.1-75.8-231.8
			c0,0-10.8-10.7,7.9-6c37.2,9.6,87.5-20,117.3-63.8c44.7-65.7,52.2-171.6,171.4-199.1c119.3-27.5,298.2-30.3,342.9-132h139.2
			c-3.2,39.2-20.7,159.7-115.6,231.6c-116.3,88.1-185.5,62.4-162.3,199c23.3,136.6,102.9,243.8,214,261.4
			c111.1,17.6,242.9,66.1,266.2,165.2C1622.8,936,1856.7,969.4,1923,978.3z"/>
	</g>
	<path class="st0" d="M1666.6,189c0.3-2.9,0.5-5.9,0.5-8.9c0-43.9-35.6-79.6-79.6-79.6c-10.3,0-20.2,2-29.3,5.6
		C1541.3,79,1511.3,61,1477,61c-28.6,0-54.2,12.5-71.7,32.4c-21.9-31-58-51.3-98.9-51.3c-66.8,0-121,54.2-121,121
		c0,8.5,0.9,16.8,2.6,24.8c-43.8,10.8-76.3,50.4-76.3,97.5c0,55.5,45,100.5,100.5,100.5c13.8,0,26.9-2.8,38.9-7.8
		c7.5,55.3,54.8,98,112.2,98c36.2,0,68.3-17,89.1-43.3c13.6,9,29.9,14.2,47.4,14.2c43.7,0,79.8-32.6,85.3-74.9
		c14,7.4,29.9,11.5,46.7,11.5c55.5,0,100.5-45,100.5-100.5C1732,240,1704.8,203.2,1666.6,189z"/>
	<text transform="matrix(1 0 0 1 1333.0879 210.3428)"><tspan x="0" y="0" class="st3 st4 st5">FELIZ</tspan><tspan x="-37.1" y="68" class="st3 st4 st5">DÍA DEL</tspan><tspan x="1.5" y="136" class="st3 st4 st5">NIÑO</tspan></text>
	<g>
		<polygon class="st6" points="1612.9,159.7 1605.1,132.7 1597.3,159.7 1579.4,167.5 1597.3,175.3 1605.1,202.3 1612.9,175.3 
			1630.8,167.5 		"/>
		<polygon class="st6" points="1562.1,185.5 1557.5,169.4 1552.9,185.5 1542.2,190.1 1552.9,194.7 1557.5,210.7 1562.1,194.7 
			1572.8,190.1 		"/>
	</g>
	<g>
		<polygon class="st6" points="1192.8,296.3 1200.5,269.3 1208.3,296.3 1226.3,304.1 1208.3,311.9 1200.5,338.9 1192.8,311.9 
			1174.8,304.1 		"/>
		<polygon class="st6" points="1243.5,322.1 1248.2,306.1 1252.8,322.1 1263.4,326.7 1252.8,331.3 1248.2,347.3 1243.5,331.3 
			1232.9,326.7 		"/>
	</g>
	<g>
		<circle class="st0" cx="908.6" cy="491.4" r="8.8"/>
		<circle class="st0" cx="1664" cy="359.5" r="8.8"/>
		<circle class="st0" cx="1071.9" cy="274.7" r="8.8"/>
		<path class="st0" d="M1112,717.2c0,2.5-2,4.5-4.5,4.5c-2.5,0-4.5-2-4.5-4.5c0-2.5,2-4.5,4.5-4.5C1110,712.7,1112,714.7,1112,717.2
			z"/>
		
			<ellipse transform="matrix(0.3827 -0.9239 0.9239 0.3827 728.5374 1608.4576)" class="st0" cx="1567.9" cy="259.1" rx="8.8" ry="8.8"/>
		<circle class="st0" cx="1549.1" cy="884.1" r="8.8"/>
		<circle class="st0" cx="1671.7" cy="635.1" r="5"/>
	</g>
	<g>
		<polygon class="st0" points="1709.3,456.6 1715.9,443.3 1722.5,456.6 1737.2,458.8 1726.6,469.1 1729.1,483.8 1715.9,476.9 
			1702.7,483.8 1705.2,469.1 1694.6,458.7 		"/>
		<polygon class="st0" points="1134.5,145.1 1141.1,131.8 1147.7,145.1 1162.4,147.3 1151.7,157.7 1154.2,172.3 1141.1,165.4 
			1127.9,172.3 1130.4,157.7 1119.7,147.3 		"/>
		<polygon class="st0" points="1623.8,131.7 1630.4,118.3 1637,131.7 1651.7,133.8 1641.1,144.2 1643.6,158.9 1630.4,152 
			1617.2,158.9 1619.7,144.2 1609.1,133.8 		"/>
		<polygon class="st0" points="1076,802.2 1082.6,788.8 1089.2,802.2 1103.9,804.3 1093.3,814.7 1095.8,829.4 1082.6,822.4 
			1069.4,829.4 1072,814.7 1061.3,804.3 		"/>
	</g>
	<g>
		<g>
			<path class="st7" d="M703.5,953.9c-3.7-0.7-7.2,0.3-9.9,2.2c-2.2-12.3-13-21.6-25.9-21.6c-11.3,0-20.9,7.1-24.6,17.1
				c-3.9-2.5-8.6-3.8-13.7-3.1c-7.6,1-14,6.6-16.2,13.9c-0.5,1.7-0.8,3.4-0.9,5c-0.1,2.4,1.9,4.5,4.3,4.5h27.3h7.9H689h2.5h17.8
				c2.6,0,4.7-2,4.8-4.6c0-0.8,0-1.6-0.1-2.5C713.3,959.4,708.9,954.9,703.5,953.9z"/>
			<path class="st7" d="M335.2,445.8c-5.1-0.9-10,0.4-13.7,3c-3.1-17-17.9-29.9-35.8-29.9c-15.6,0-28.9,9.8-34.1,23.6
				c-5.3-3.5-12-5.2-19-4.3c-10.5,1.4-19.4,9.1-22.5,19.3c-0.7,2.3-1.1,4.7-1.2,6.9c-0.1,3.4,2.6,6.2,6,6.2h37.7h10.9h51.8h3.5h24.7
				c3.5,0,6.5-2.8,6.7-6.3c0-1.1,0-2.3-0.2-3.4C348.7,453.3,342.7,447.1,335.2,445.8z"/>
			<path class="st7" d="M789.9,341.2c-3-0.5-5.8,0.2-7.9,1.8c-1.8-9.8-10.4-17.3-20.7-17.3c-9,0-16.7,5.7-19.7,13.6
				c-3.1-2-6.9-3-11-2.5c-6.1,0.8-11.2,5.3-13,11.1c-0.4,1.4-0.6,2.7-0.7,4c-0.1,2,1.5,3.6,3.4,3.6h21.8h6.3h29.9h2h14.2
				c2,0,3.8-1.6,3.9-3.6c0-0.6,0-1.3-0.1-2C797.7,345.5,794.2,341.9,789.9,341.2z"/>
		</g>
		<g>
			<path class="st8" d="M448,926.4c0,0-5-12-12.9-6.4c-7.8,5.6,4.5,24.3,12.9,29.1c0,0,19-15.9,15.1-25.5
				C459.2,914.1,449.7,919.4,448,926.4z"/>
			<path class="st8" d="M636.6,397.7c0,0-5-12-12.9-6.4c-7.8,5.6,4.5,24.3,12.9,29.1c0,0,19-15.9,15.1-25.5
				C647.8,385.4,638.2,390.7,636.6,397.7z"/>
			<path class="st9" d="M806.1,965.7c0,0-5-12-12.9-6.4c-7.8,5.6,4.5,24.3,12.9,29.1c0,0,19-15.9,15.1-25.5
				C817.3,953.4,807.8,958.7,806.1,965.7z"/>
			<path class="st9" d="M129.6,960.5c0,0-5-12-12.9-6.4s4.5,24.3,12.9,29.1c0,0,19-15.9,15.1-25.5
				C140.8,948.2,131.3,953.5,129.6,960.5z"/>
		</g>
		<g>
			<g>
				<path class="st10" d="M792.2,468.7c0,0,8.7,58.8,22,80.8c27.1,44.7,60.9,91.1-5.3,137.8C759.6,722.1,795,817.2,795,817.2"/>
				<g id="XMLID_8_">
					<g id="XMLID_12_">
						<path id="XMLID_59_" class="st9" d="M806.9,507.3l-6,2.1l-6.2,1.4c0,0-4.2,8.6-0.9,10.4c2.6,1.4,6.8,0.8,10.4-0.2
							c3.6-1.1,7.5-2.8,8.9-5.4C815,512.3,806.9,507.3,806.9,507.3z"/>
						<g id="XMLID_13_">
							
								<ellipse id="XMLID_23_" transform="matrix(0.9599 -0.2805 0.2805 0.9599 -95.6692 238.2572)" class="st9" cx="784.5" cy="453.4" rx="53.8" ry="60.8"/>
							<path id="XMLID_21_" class="st0" d="M772.4,435.7c1.3,9-4.4,17.3-12.7,18.5c-8.3,1.2-16.2-5.1-17.5-14.1
								c-1.3-9,4.4-17.3,12.7-18.5C763.3,420.4,771.1,426.7,772.4,435.7z"/>
						</g>
					</g>
				</g>
			</g>
			<g>
				<path class="st11" d="M167.5,376.5c0,0-12.6,47.1-26.6,63.4c-28.3,33.1-57.7,54.7-1,101.4c42.4,35-18.6,67.4-18.6,67.4"/>
				<g id="XMLID_11_">
					<g id="XMLID_64_">
						<path id="XMLID_70_" class="st8" d="M157.5,422.8l-4.3-1.5l-4.1-2c0,0-6.3,2.9-5.2,5.4c0.8,2,3.4,3.6,5.9,4.6
							c2.5,1.1,5.5,1.8,7.5,1C159.7,429.3,157.5,422.8,157.5,422.8z"/>
						<g id="XMLID_66_">
							
								<ellipse id="XMLID_68_" transform="matrix(0.3916 -0.9201 0.9201 0.3916 -248.6764 388.8441)" class="st8" cx="169.7" cy="382.5" rx="43.9" ry="38.8"/>
							<path id="XMLID_67_" class="st0" d="M171,367.1c-3.4,5.6-10.4,7.6-15.6,4.5c-5.2-3.1-6.7-10.2-3.3-15.9
								c3.4-5.6,10.4-7.6,15.6-4.5C172.9,354.3,174.4,361.4,171,367.1z"/>
						</g>
					</g>
				</g>
			</g>
		</g>
	</g>
	<g>
		<path class="st12" d="M500.1,385C500.1,385.1,500.1,385.1,500.1,385c0,4.9-4.1,8.8-8.9,8.8h-211c-4,0-7.5-2.6-8.6-6.4
			c-1.4-4.8-2.2-10-2.2-15.5c0-25.8,17.5-46.8,39.1-46.8c5.2,0,10.1,1.2,14.6,3.4c8.6-20.5,26.2-34.5,46.7-34.5
			c20.3,0,37.9,13.9,46.5,34.1c4.3-1.9,8.8-3,13.6-3c15.7,0,29.3,11.1,35.5,27.1c2.1-0.6,4.2-0.9,6.4-0.9
			C487.4,351.3,500.1,366.4,500.1,385z"/>
		<path class="st12" d="M373.9,674.3C373.9,674.3,373.9,674.4,373.9,674.3c0,3-2.9,5.3-6.2,5.3H220c-2.8,0-5.2-1.6-6-3.9
			c-1-2.9-1.5-6.1-1.5-9.4c0-15.7,12.3-28.4,27.4-28.4c3.6,0,7.1,0.8,10.2,2.1c6-12.4,18.3-21,32.6-21c14.2,0,26.5,8.4,32.5,20.7
			c3-1.1,6.2-1.8,9.5-1.8c11,0,20.5,6.7,24.8,16.5c1.4-0.4,3-0.6,4.5-0.6C365,653.8,373.9,663,373.9,674.3z"/>
		<path class="st12" d="M404.8,826.1C404.8,826.1,404.8,826.2,404.8,826.1c0,4.4,3.7,7.9,8,7.9h189.1c3.5,0,6.7-2.3,7.7-5.7
			c1.3-4.3,2-9,2-13.9c0-23.2-15.7-42-35.1-42c-4.6,0-9.1,1.1-13.1,3.1c-7.7-18.3-23.5-31-41.8-31c-18.2,0-33.9,12.4-41.7,30.6
			c-3.8-1.7-7.9-2.7-12.2-2.7c-14.1,0-26.2,10-31.8,24.3c-1.9-0.5-3.8-0.8-5.8-0.8C416.1,795.9,404.8,809.4,404.8,826.1z"/>
	</g>
	<g>
		<path class="st12" d="M755.9,150.1C755.9,150.1,755.9,150.2,755.9,150.1c0,4.9-4.1,8.8-8.9,8.8H536c-4,0-7.5-2.6-8.6-6.4
			c-1.4-4.8-2.2-10-2.2-15.5c0-25.8,17.5-46.8,39.1-46.8c5.2,0,10.1,1.2,14.6,3.4c8.6-20.5,26.2-34.5,46.7-34.5
			c20.3,0,37.9,13.9,46.5,34.1c4.3-1.9,8.8-3,13.6-3c15.7,0,29.3,11.1,35.5,27.1c2.1-0.6,4.2-0.9,6.4-0.9
			C743.3,116.4,755.9,131.5,755.9,150.1z"/>
		<path class="st12" d="M629.7,439.4C629.7,439.4,629.7,439.4,629.7,439.4c0,3-2.9,5.3-6.2,5.3H475.9c-2.8,0-5.2-1.6-6-3.9
			c-1-2.9-1.5-6.1-1.5-9.4c0-15.7,12.3-28.4,27.4-28.4c3.6,0,7.1,0.8,10.2,2.1c6-12.4,18.3-21,32.6-21c14.2,0,26.5,8.4,32.5,20.7
			c3-1.1,6.2-1.8,9.5-1.8c11,0,20.5,6.7,24.8,16.5c1.4-0.4,3-0.6,4.5-0.6C620.9,418.9,629.7,428.1,629.7,439.4z"/>
		<path class="st12" d="M660.7,591.2C660.7,591.2,660.7,591.2,660.7,591.2c0,4.4,3.7,7.9,8,7.9h189.1c3.5,0,6.7-2.3,7.7-5.7
			c1.3-4.3,2-9,2-13.9c0-23.2-15.7-42-35.1-42c-4.6,0-9.1,1.1-13.1,3.1c-7.7-18.3-23.5-31-41.8-31c-18.2,0-33.9,12.4-41.7,30.6
			c-3.8-1.7-7.9-2.7-12.2-2.7c-14.1,0-26.2,10-31.8,24.3c-1.9-0.5-3.8-0.8-5.8-0.8C672,560.9,660.7,574.5,660.7,591.2z"/>
	</g>
	<ellipse class="st12" cx="397" cy="890.7" rx="200.5" ry="30.5"/>
	<g>
		<g>
			<g>
				<g>
					<path class="st13" d="M179.7,819.4l68,38.4c0,0,5.4-6.3,3.3-14c-2.2-7.8-19.1-23.4-19.1-23.4s-20.1-5.9-34-8.6
						c-6.5-1.2-11.6-1.7-12.7-0.5C181.8,814.9,179.7,819.4,179.7,819.4z"/>
					<path class="st14" d="M180.1,819.2l15.2,8.6c3-5.8,4.1-12.1,4.4-16.8c-7-1.3-12.5-1.8-13.7-0.6
						C182.3,814.3,180.1,819.2,180.1,819.2z"/>
					<path class="st14" d="M178,823.8l67,37.8c1.3,0.7,2.9,0.3,3.6-1c0.7-1.3,0.3-2.9-1-3.6l-67-37.8c-1.3-0.7-2.9-0.3-3.6,1
						C176.3,821.5,176.8,823.1,178,823.8z"/>
					<path class="st0" d="M237.9,844.6c-0.9,1.7-0.4,3.8,1.3,4.7c1.7,0.9,3.8,0.4,4.7-1.3s0.4-3.8-1.3-4.7
						C241,842.3,238.9,842.9,237.9,844.6z"/>
				</g>
				<g>
					<path class="st15" d="M235.5,833.1c9,8.8,15.5,10.6,15.5,10.6l44-35.3l48.3-38.7l-32.5-48.3l-21,26L267.5,775l-5.8,7.2
						L233,817.7C233,817.7,226.5,824.3,235.5,833.1z"/>
					<path class="st16" d="M267.5,775c0.8,0.7,1.7,1.3,2.6,1.8c8.5,4.8,19.3,1.8,24.1-6.7c4.4-7.7,2.3-17.3-4.5-22.6L267.5,775z"/>
				</g>
			</g>
			<g>
				<g>
					<path class="st13" d="M555.8,889.8h-78.1c0,0-1.6-8.1,4.1-13.8c5.7-5.7,28.1-11,28.1-11s20.5,4.7,33.9,9.3
						c6.2,2.1,10.9,4.2,11.3,5.8C556.2,885,555.8,889.8,555.8,889.8z"/>
					<path class="st14" d="M555.8,889.8h-16.2c0.2-6,2.2-11.6,4.1-15.5c6.2,2.1,10.9,4.2,11.3,5.8
						C556.2,885,555.8,889.8,555.8,889.8z"/>
					<path class="st14" d="M555.2,894.5h-76.9c-1.4,0-2.6-1.2-2.6-2.6s1.2-2.6,2.6-2.6h76.9c1.4,0,2.6,1.2,2.6,2.6
						S556.6,894.5,555.2,894.5z"/>
					<path class="st0" d="M492.8,883.1c0,1.9-1.5,3.5-3.5,3.5c-1.9,0-3.5-1.5-3.5-3.5c0-1.9,1.5-3.5,3.5-3.5
						C491.2,879.7,492.8,881.2,492.8,883.1z"/>
				</g>
				<g>
					<path class="st15" d="M500.5,874.4c-12.2,3.2-18.7,1.6-18.7,1.6l-21-52.4l-23-57.4l52.1-26l5.5,33l5.8,34.9l1.5,9.1l7.5,45.1
						C510.3,862.2,512.7,871.1,500.5,874.4z"/>
					<path class="st16" d="M501.2,808c-1,0.2-2.1,0.3-3.2,0.3c-9.8,0-17.7-7.9-17.7-17.7c0-8.9,6.5-16.2,15-17.5L501.2,808z"/>
				</g>
			</g>
			<g>
				<path class="st17" d="M501.7,757.6c0,0-14.6,8.5-32.9,11c-18.3,2.4-40.3-1.2-40.3-1.2l-5.1-11.5l-2.6-5.9l-17.9-40L355,761.9
					l-4,4.3l-6.7,7.2c0,0-18.3-4.9-33.3-18.3c-14.9-13.4-18.3-26.9-18.3-26.9l6.2-8.2l3.5-4.6l48.4-63.7l125.3-2.4l21.8,92l1.3,5.3
					L501.7,757.6z"/>
				<path class="st18" d="M355,761.9l-4,4.3c-13.7-4.1-26.7-13-38.1-26.3c-6.7-7.8-11.3-15.3-13.9-19.9l3.5-4.6
					C306.9,724,325,754.5,355,761.9z"/>
				<path class="st18" d="M499.1,746.7c-13.7,7.7-30.5,11.6-49.3,11.6c-1.3,0-2.6,0-3.9-0.1c-8.7-0.3-16.5-1.3-22.5-2.4l-2.6-5.9
					c15.9,3.2,49.9,7.3,77.1-8.6L499.1,746.7z"/>
			</g>
		</g>
		<g>
			<g>
				<path class="st19" d="M614.7,395.1c0.1,12.1-9.5,22-21.6,22.2c-12.1,0.1-22-9.5-22.2-21.6c-0.1-10.4,7-19.2,16.7-21.5
					c1.6-0.4,3.2-0.6,4.9-0.6c6.4-0.1,12.2,2.6,16.3,6.9C612.4,384.2,614.6,389.4,614.7,395.1z"/>
				<path class="st20" d="M659.4,391.5c0,0-10.9-30.4-0.8-32.8S664.2,377.8,659.4,391.5z"/>
				<path class="st20" d="M659.4,391.5c0,0,14.9,28.7,5.2,32.4C654.9,427.6,656.5,405.7,659.4,391.5z"/>
				<path class="st3" d="M661.8,390.5c0.5,1.5-0.2,3.1-1.7,3.6c-1.5,0.5-3.1-0.2-3.6-1.7c-0.5-1.5,0.2-3.1,1.7-3.6
					C659.7,388.3,661.3,389.1,661.8,390.5z"/>
				<path class="st3" d="M641.1,383.7c-7.9-0.3-16.5,0.8-27.7,3.3c0.8,8.1-6.7,16.5-16.3,19.9c-10,3.6-20.5,0.5-24.7-7
					c-12.9,5.6-23.9,11.9-31.7,18c-0.1-0.1-0.2-0.3-0.4-0.4c0,0-9.1-8.1-15.9-6.3c-1.6,0.4-3.1,0.9-4.3,1.2c-3.2,1-4.7,4.5-3.4,7.5
					c1.6,3.7,4,8.6,6.6,12.8c3,4.8,7.9,8.1,13.6,9c11.2,1.7,34,2.9,63.5-7.9c21.1-7.8,38.9-17.4,49.1-26.4
					c7.1-6.3,10.5-12.1,8.9-16.6C656.9,386.4,650.5,384,641.1,383.7z"/>
				<path class="st21" d="M658.5,390.8c1.6,4.5-1.8,10.3-8.9,16.6l-8.5-23.8C650.5,384,656.9,386.4,658.5,390.8z"/>
				<path class="st22" d="M583.6,422.3c4.8-3.7,12.5-7.8,23.6-8.7c4.9-0.4,8.9,4,8,8.9c-1.9,10.5-7.5,27.3-23.2,32.4
					c-13.1,4.2-15.1-9.8-15-19.1C577,430.5,579.4,425.5,583.6,422.3z"/>
				<path class="st22" d="M527.6,435.5c0,0,10.1-9.8,16.9-7.5c6.8,2.3,0.8,17.7-8.8,21.1C526.2,452.5,526.5,438.2,527.6,435.5z"/>
				<path class="st21" d="M598.2,408.9c-19.8,7.1-29.3-8.6-29.4-8.8c-0.5-0.8-0.2-1.8,0.6-2.3c0.8-0.5,1.8-0.2,2.3,0.6l0,0
					c0.3,0.6,8.2,13.4,25.4,7.3c0.1,0,0.2-0.1,0.2-0.1c18-6.6,14.6-20,14.4-20.6c-0.2-0.9,0.3-1.8,1.2-2c0.9-0.2,1.8,0.3,2,1.2
					c0,0.2,4.4,16.9-16.5,24.6C598.4,408.8,598.3,408.8,598.2,408.9z"/>
				<path class="st23" d="M608.8,380.4c-16,5.3-20.1-2.2-21.2-6.3c1.6-0.4,3.2-0.6,4.9-0.6C598.9,373.3,604.7,376,608.8,380.4z"/>
			</g>
			<path class="st15" d="M562.6,458.9c-2.3,7-21.9,63.2-58,82.4c-3.4-13.1-4.7-35.9-9.6-41.1c0,0,20.1-8.8,35.8-25.4
				c16.7-17.7,22.7-33,22.7-33s-2.9-14.8,0.9-15c0.7,0,1.2,0.4,1.6,1.2c1.8,3.5,3.1,14.6,3.1,14.6l8.4-0.6
				C567.5,442,565.1,451.2,562.6,458.9z"/>
			<path class="st15" d="M336.6,514.4c0,0-36.5-13.1-83.1-41.8c0,0,0.5-19-2.9-19.3c-3.5-0.4-3.8,7.7-3.8,7.7s-3.8-15.4-8.1-14.6
				c-4.2,0.8,2.3,15.8,2.3,15.8s-7.3-13.1-10.8-12.3c-3.5,0.8,6.1,15.8,6.1,15.8s-8.1-6.1-10.8-4.6c-2.7,1.5,9.6,10.4,9.6,10.4
				s-10-3.5-10.8-1.5c-0.8,1.9,20.8,12.3,20.8,12.3s8.2,16,35.5,43.3c15.7,15.7,42,27.7,42,27.7L336.6,514.4z"/>
			<g>
				<path class="st24" d="M474.2,565.5c5.6-1.1,11.2-2.8,16.6-4.5c6.9-2.2,16.4-4.5,21.4-10.1c0.7-0.8-2-8.2-2.3-9.3
					c-1.1-4.2-2.2-8.4-3.5-12.5c-2.7-8.8-5.5-17.9-9.6-26.2c-0.1-0.3-0.3-0.5-0.5-0.8c-0.5-0.8-1-1.5-1.5-2l-53.5,26.4l-0.3,0.1
					c0,0-35,18.8-70.3-2.3l-35.4-15.8c0,0-12.9,30.1-30.7,48.5c-3.5,3.7,0.5,6.9,3.7,8.5c10.7,5.5,32,8.6,43.8,11.3
					c0,0-1,29.2-1.2,34.2c-0.4,10.4-4.3,45.2-4.3,45.2s33.9,15.3,65.1,14.6c31.4-0.6,65.7-9,65.9-9
					C479.3,662,476.1,591.2,474.2,565.5z"/>
				<path class="st0" d="M378.1,526.9c0,0-8.2,24.4,5.3,30.1c13.4,5.7,22.4-10.2,22.4-10.2s5.3,19.5,18.3,15.9
					c13-3.7,8.1-33.4,8.1-33.4L378.1,526.9z"/>
			</g>
		</g>
		<g>
			<g>
				<path class="st15" d="M486.9,443.3c0,7.7-0.2,15.2-1.1,22.2c-0.1,1.3-0.3,2.6-0.5,3.8c-3,19.8-11.7,35.6-35.3,43.2
					c-3.2,1-6.6,1.9-10.3,2.6c-2.2,0.4-4.5,0.8-6.9,1.1c-3.9,0.5-8.1,0.9-12.6,1.1c0,0-0.1,0-0.1,0c-2.7,0.1-5.6,0.2-8.5,0.2
					c-5.2,0-10-0.2-14.4-0.5c-6.4-0.5-12.2-1.4-17.3-2.6c-0.1,0-0.1,0-0.2,0c-2.2-0.5-4.3-1.1-6.3-1.7c-0.1,0-0.1,0-0.2,0
					c-23.6-7.6-32.3-23.4-35.3-43.2c-1.3-8.1-1.6-16.9-1.6-26.1c0-2,0.1-3.9,0.2-5.9c0.1-0.8,0.1-1.6,0.2-2.4
					c0.7-5.9,2.1-11.6,4.1-17.1c3.2-8.6,8-16.5,14.1-23.3c13.8-15.6,34.1-25.4,56.7-25.4c26.1,0,49.1,13,62.6,32.9
					c3.4,4.9,6.1,10.2,8.2,15.8c2,5.3,3.4,10.9,4,16.7c0.1,0.5,0.1,1,0.2,1.4c0.1,1.2,0.2,2.3,0.3,3.5
					C486.8,440.7,486.9,442,486.9,443.3z"/>
				<path class="st22" d="M486.3,434.4c-0.1,0-0.3,0-0.5,0c-83.3,6.7-108-38.1-108-38.1c-2.1,4,4.3,16.2,4.3,16.2
					c-13.1-2.1-15.3-14-15.3-14s0.9,5.5-7.9,18.6c-8.9,13.1-21.9,18.8-21.9,18.8l-0.4-0.9c0.7-5.9,2.1-11.6,4.1-17.1
					c3.2-8.6,8-16.5,14.1-23.3c13.8-15.6,34.1-25.4,56.7-25.4c26.1,0,49.1,13,62.6,32.9c3.4,4.9,6.1,10.2,8.2,15.8
					C484.3,423.1,485.6,428.6,486.3,434.4z"/>
				<path class="st15" d="M512.5,449.1c-2.1,9.5-16.8,16.3-26.7,16.4c0.8-7,1.1-14.5,1.1-22.2c0-2.5-0.1-5-0.4-7.4
					c4-1.9,8.6-3.1,12.8-3.6C510,430.8,515,437.5,512.5,449.1z"/>
				<path class="st25" d="M502.3,449.6c-1.2,5.4-9.5,9.2-15,9.2c0.5-4,0.6-8.2,0.6-12.5c0-1.4-0.1-2.8-0.2-4.2
					c2.2-1.1,4.8-1.7,7.2-2C500.9,439.3,503.7,443.1,502.3,449.6z"/>
				<path class="st15" d="M311,449.1c2.1,9.5,16.8,16.3,26.7,16.4c-0.8-7-1.1-14.5-1.1-22.2c0-2.5,0.1-5,0.4-7.4
					c-4-1.9-8.6-3.1-12.8-3.6C313.5,430.8,308.5,437.5,311,449.1z"/>
				<path class="st25" d="M322,449.5c1.2,5.2,9.3,9,14.7,9.1c-0.5-3.9-0.6-8-0.6-12.2c0-1.4,0.1-2.8,0.2-4.1c-2.2-1-4.7-1.7-7-2
					C323.3,439.4,320.6,443.1,322,449.5z"/>
				<path class="st16" d="M385.8,489c0,9.8-5,18.5-12.7,23.5c-16.3-5.3-25.5-14.4-30.6-26.2c-0.5-1.1-0.9-2.2-1.3-3.3
					c-1.6-4.3-2.6-8.9-3.4-13.7c5.1-5.2,12.1-8.4,20-8.4C373.2,461,385.8,473.5,385.8,489z"/>
				<path class="st16" d="M485.3,469.3c-3,19.8-11.7,35.6-35.3,43.2c-7.7-5-12.7-13.6-12.7-23.5c0-15.5,12.6-28.1,28.1-28.1
					C473.1,461,480.2,464.2,485.3,469.3z"/>
				<g>
					<g>
						<path class="st26" d="M371.6,443.4c0,0,14.8-9.4,16-8.5c1.1,0.9,2.2,2,1.1,2.9c-1.1,0.9-14.4,8.3-15.3,8.1
							C372.5,445.6,371.8,445.4,371.6,443.4z"/>
						<path class="st26" d="M450.6,442.4c0,0-14.7-9.6-15.8-8.7c-1.1,0.9-2.2,2-1.1,2.9c1.1,0.9,14.3,8.5,15.1,8.2
							S450.4,444.4,450.6,442.4z"/>
					</g>
					<path class="st25" d="M410.9,450.6c3.7-0.2,7.8,20.9,6.2,22.6c-1.6,1.7-8.9,2-10.9,0.5C404.2,472.2,407.2,450.8,410.9,450.6z"
						/>
					<path class="st0" d="M397.7,479.6c0,0,8,2.5,14.4,2.5c6.4,0,13.3-2.5,13.3-2.5s-3.1,10.3-13.3,10.3
						C401.9,489.8,397.7,479.6,397.7,479.6z"/>
					<g>
						<path class="st27" d="M382.4,449.5c-5.3,0-9.6,4.3-9.6,9.6c0,0.8,0.6,1.5,1.5,1.5c0.8,0,1.5-0.6,1.5-1.5c0-3.7,3-6.7,6.7-6.7
							s6.7,3,6.7,6.7c0,0.8,0.6,1.5,1.5,1.5c0.8,0,1.5-0.6,1.5-1.5C392,453.9,387.7,449.5,382.4,449.5z"/>
						<path class="st27" d="M439.6,449.5c-5.3,0-9.6,4.3-9.6,9.6c0,0.8,0.6,1.5,1.5,1.5c0.8,0,1.5-0.6,1.5-1.5c0-3.7,3-6.7,6.7-6.7
							c3.7,0,6.7,3,6.7,6.7c0,0.8,0.6,1.5,1.5,1.5c0.8,0,1.5-0.6,1.5-1.5C449.2,453.9,444.9,449.5,439.6,449.5z"/>
					</g>
				</g>
			</g>
			<g>
				<path class="st3" d="M336.6,522.6l-6.6-2.3c6.4-18.5,6.2-29.2,3.4-46.2l5.8-1.6C342.1,490.3,343.4,502.7,336.6,522.6z"/>
				<path class="st3" d="M487.1,522.6c-7.1-19.7-3.4-44.8-2.6-49.7l6.4,0.7c-2.1,12.5-2.3,32.6,2.7,46.6L487.1,522.6z"/>
				<g>
					<rect x="336.6" y="443.3" class="st3" width="33.5" height="7.1"/>
					<rect x="453" y="443.3" class="st3" width="33.5" height="7.1"/>
					<path class="st3" d="M459.8,456.1c-1-9.2-8.5-16.7-17.7-17.7c-4.1-0.5-7.9,0.3-11.2,2c-5.4,2.7-11.2,4.4-17.2,4.4H409
						c-6,0-11.8-1.7-17.2-4.4c-3.3-1.7-7.1-2.4-11.2-2c-9.2,1-16.7,8.5-17.7,17.7c-1.3,12.1,8.1,22.3,19.9,22.3
						c8.3,0,15.5-5.1,18.5-12.3c1.7-4,5.6-6.6,10-6.6c2.2,0,4.3,0.6,6,1.8c1.7,1.2,3.2,2.8,4,4.8c3,7.2,10.1,12.3,18.5,12.3
						C451.7,478.4,461.1,468.2,459.8,456.1z M382.9,471.5c-7.2,0-13-5.8-13-13c0-7.2,5.8-13,13-13c7.2,0,13,5.8,13,13
						C396,465.7,390.1,471.5,382.9,471.5z M439.7,471.5c-7.2,0-13-5.8-13-13c0-7.2,5.8-13,13-13c7.2,0,13,5.8,13,13
						C452.7,465.7,446.9,471.5,439.7,471.5z"/>
					<g>
						
							<ellipse transform="matrix(0.9975 -7.088876e-02 7.088876e-02 0.9975 -31.539 28.299)" class="st28" cx="382.9" cy="458.5" rx="16" ry="16"/>
					</g>
					<g>
						
							<ellipse transform="matrix(0.2298 -0.9732 0.9732 0.2298 -107.5661 781.0821)" class="st28" cx="439.7" cy="458.5" rx="16" ry="16"/>
					</g>
				</g>
				<path class="st17" d="M498.2,438c0.2,6.8-0.1,13.1-1,19.8c-0.8,6-3.9,14.3-8.5,18.7c-1.5,1.4-4.9,2.9-4.4-1.4
					c3.1-23.3,1.9-47-10.3-67.6c-13.5-23.1-36.5-38.3-62.6-38.3c-22.6,0-43,11.5-56.7,29.6c-6.1,7.9-10.8,17.1-14.1,27.2
					c-5.2,16.3-3.6,31.4-1.3,48.1c0.6,4.2-4.3,1.7-5.8,0.3c-4.5-4.1-8-13.7-8.8-19.4c-2.4-16.6-0.4-30.3,5.5-46.1
					c3.7-9.9,9.1-19,16.1-26.8c15.8-17.9,39.1-29.2,65.1-29.2c30,0,56.4,15,71.9,37.8c3.9,5.6,7,11.7,9.4,18.1
					C496.3,418.1,497.9,428,498.2,438z"/>
				<path class="st14" d="M494.3,528l-3.5,1c-1.2,0.4-2.5-0.3-2.9-1.6l-2-6.7c-0.4-1.2,0.3-2.5,1.6-2.9l3.5-1
					c1.2-0.4,2.5,0.3,2.9,1.6l2,6.7C496.2,526.4,495.5,527.7,494.3,528z"/>
				<path class="st14" d="M329.5,528l3.5,1c1.2,0.4,2.5-0.3,2.9-1.6l2-6.7c0.4-1.2-0.3-2.5-1.6-2.9l-3.5-1c-1.2-0.4-2.5,0.3-2.9,1.6
					l-2,6.7C327.5,526.4,328.2,527.7,329.5,528z"/>
			</g>
		</g>
		<g>
			<path class="st15" d="M433.3,516.2C433.3,516.2,433.3,516.2,433.3,516.2V515c-0.5,0.1-0.9,0.1-1.4,0.2c-3.7,0.6-7.6,1-11.8,1.2
				c0,0-0.1,0-0.1,0c-6.4,0.9-14.7,1.3-24-0.5c-6.7-0.7-12.7-1.9-18-3.5l-1.3,16l-0.3,0c0,0,5.6,16.8,29.9,16.6
				c19.9-0.2,24.9-9.9,26.1-13.4c0.2-0.1,0.3-0.2,0.5-0.3C432.4,524.2,433.6,517.9,433.3,516.2z"/>
			<path class="st29" d="M433.3,516.2c0,0-19.8,14.6-57,11.2l1.5-13.2c0.1,0,0.1,0,0.2,0c5.4,1.3,11.3,2.2,18,2.7
				c4.7,0.4,9.7,0.6,15.1,0.6c3.1,0,6.1-0.1,8.9-0.2c0,0,0.1,0,0.1,0C424.8,517.1,429.2,516.7,433.3,516.2z"/>
		</g>
	</g>
	<g>
		<g>
			<polygon class="st6" points="256.1,369.8 262.8,346.6 269.4,369.8 284.8,376.4 269.4,383.1 262.8,406.2 256.1,383.1 240.7,376.4 
							"/>
			<polygon class="st6" points="277.1,420.1 281,406.3 285,420.1 294.1,424 285,428 281,441.7 277.1,428 268,424 			"/>
		</g>
		<g>
			<polygon class="st6" points="551.2,365.3 546,347 540.7,365.3 528.5,370.5 540.7,375.8 546,394.1 551.2,375.8 563.4,370.5 			"/>
			<polygon class="st6" points="507.9,394.7 504.8,383.8 501.7,394.7 494.4,397.8 501.7,400.9 504.8,411.8 507.9,400.9 515.2,397.8 
							"/>
		</g>
	</g>
	<g>
		
			<ellipse transform="matrix(0.7071 -0.7071 0.7071 0.7071 -40.5055 234.6862)" class="st30" cx="263" cy="166.2" rx="119.6" ry="119.6"/>
		<g>
			<rect x="166.1" y="196.4" class="st0" width="194.1" height="2.5"/>
			<path class="st0" d="M268.8,170.4h-11.6v-8.2h-8.4v-8.4h-12.5l-2.6,6.9v7.5h-2.5v-5.9h-8.5v-2.5h8.7l3.2-8.5h19.1
				c0.9,0,1.4-0.1,1.6-0.2c-0.1-0.1-0.2-0.2-0.4-0.3c-7.7-2.5-14.2-6.8-18.6-12.4c-4.1-5.2-6.4-11.4-6.6-17.9
				c-0.2-6.6,1.6-13,5.4-18.6c4-5.9,9.8-10.5,17-13.4c0.7-0.4,1-1,0.8-1.3c-0.2-0.4-1-0.6-2.3-0.1l-0.1,0l-16.2,5.4l-11.9,11.4
				l-13,64.4l-2.5-0.5l13.2-65.1l12.8-12.3l16.7-5.5c2.8-1.1,4.8-0.1,5.4,1.4c0.7,1.4,0.2,3.4-1.9,4.6l-0.1,0.1
				c-6.8,2.7-12.3,7-16,12.5c-3.5,5.1-5.2,11-5,17.1c0.2,6,2.3,11.7,6.1,16.5c4.1,5.2,10.2,9.2,17.5,11.6l0.1,0l0.1,0.1
				c1.4,0.8,2.1,2,1.8,3.2c-0.4,1.4-1.9,2.1-4.1,2.1h-2.3v5.9h8.4v8.2h6.6v-8.3h7.9V154H270c-2.2,0-3.8-0.8-4.1-2.1
				c-0.3-1.2,0.3-2.4,1.8-3.2l0.1-0.1l0.1,0c7.4-2.4,13.5-6.4,17.7-11.6c3.8-4.8,5.9-10.5,6.2-16.5c0.2-6-1.5-11.9-5-17.1
				c-3.7-5.5-9.3-9.8-16.1-12.5l-0.1-0.1c-2.1-1.2-2.6-3.2-1.9-4.6c0.7-1.5,2.6-2.5,5.5-1.4l16.9,5.5l13,12.3l13.3,65.1l-2.5,0.5
				l-13.2-64.4l-12-11.4l-16.4-5.4c-1.3-0.5-2.1-0.3-2.3,0.1c-0.1,0.3,0.1,0.9,0.8,1.3c7.3,2.9,13.2,7.5,17.2,13.4
				c3.8,5.6,5.7,12,5.5,18.6c-0.2,6.5-2.5,12.7-6.7,18c-4.4,5.6-10.9,9.8-18.8,12.4c-0.2,0.1-0.3,0.2-0.4,0.3
				c0.2,0.1,0.7,0.3,1.6,0.3h19.3l3.3,8.5h8.8v2.5h-8.6v5.9h-2.5V161l-2.7-7h-11v8.1h-7.9V170.4z"/>
			<path class="st0" d="M261.7,91.9c-15.1,0-27.4,12.3-27.4,27.4c0,15.1,12.3,27.4,27.4,27.4c15.1,0,27.4-12.3,27.4-27.4
				C289.1,104.2,276.8,91.9,261.7,91.9z M261.7,144.1c-13.7,0-24.9-11.2-24.9-24.9c0-13.7,11.2-24.9,24.9-24.9
				c13.7,0,24.9,11.2,24.9,24.9C286.6,133,275.4,144.1,261.7,144.1z"/>
			<g>
				<path class="st0" d="M357.3,206.2l-1-2.3l-1,2.3H357.3z M357.4,206.5h-2.3l-0.4,0.9c-0.1,0.2-0.1,0.4-0.1,0.5
					c0,0.1,0,0.2,0.1,0.2c0.1,0.1,0.3,0.1,0.6,0.1v0.2h-1.9v-0.2c0.2,0,0.4-0.1,0.5-0.2c0.1-0.1,0.3-0.4,0.5-0.8l2.1-4.6h0.2
					l2.1,4.6c0.2,0.4,0.3,0.6,0.5,0.7c0.1,0.1,0.3,0.2,0.6,0.2v0.2h-2.3v-0.2c0.2,0,0.4,0,0.5-0.1c0.1-0.1,0.1-0.1,0.1-0.2
					c0-0.1-0.1-0.3-0.2-0.6L357.4,206.5z M353.1,208.2v0.2h-2.5v-0.2h0.2c0.2,0,0.4-0.1,0.5-0.2c0.1-0.1,0.1-0.3,0.1-0.6v-3.6
					c0-0.3,0-0.5-0.1-0.6c0-0.1-0.1-0.1-0.2-0.2c-0.1-0.1-0.3-0.1-0.4-0.1h-0.2v-0.2h2.5v0.2h-0.2c-0.2,0-0.4,0.1-0.5,0.2
					c-0.1,0.1-0.1,0.3-0.1,0.6v3.6c0,0.3,0,0.5,0.1,0.6c0,0.1,0.1,0.1,0.2,0.2c0.1,0.1,0.3,0.1,0.4,0.1H353.1z M350,206.8l0.1,0
					l-0.5,1.5H345v-0.2h0.2c0.3,0,0.4-0.1,0.5-0.2c0.1-0.1,0.1-0.3,0.1-0.6v-3.6c0-0.3,0-0.6-0.1-0.7c-0.1-0.1-0.3-0.2-0.5-0.2H345
					v-0.2h2.7v0.2c-0.3,0-0.5,0-0.7,0.1c-0.1,0.1-0.2,0.1-0.3,0.2c0,0.1-0.1,0.3-0.1,0.6v3.5c0,0.2,0,0.4,0.1,0.5
					c0,0.1,0.1,0.1,0.2,0.1c0.1,0,0.3,0,0.7,0h0.4c0.5,0,0.8,0,1-0.1c0.2-0.1,0.4-0.2,0.5-0.3C349.7,207.4,349.8,207.2,350,206.8z
					 M344.6,208.2v0.2H342v-0.2h0.2c0.2,0,0.4-0.1,0.5-0.2c0.1-0.1,0.1-0.3,0.1-0.6v-3.6c0-0.3,0-0.5-0.1-0.6c0-0.1-0.1-0.1-0.2-0.2
					c-0.1-0.1-0.3-0.1-0.4-0.1H342v-0.2h2.5v0.2h-0.2c-0.2,0-0.4,0.1-0.5,0.2c-0.1,0.1-0.1,0.3-0.1,0.6v3.6c0,0.3,0,0.5,0.1,0.6
					c0,0.1,0.1,0.1,0.2,0.2c0.1,0.1,0.3,0.1,0.4,0.1H344.6z M337.5,208.4l-2.3-4.7v3.7c0,0.3,0,0.6,0.1,0.6c0.1,0.1,0.3,0.2,0.5,0.2
					h0.2v0.2H334v-0.2h0.2c0.3,0,0.4-0.1,0.5-0.2c0.1-0.1,0.1-0.3,0.1-0.6v-3.7c0-0.2,0-0.4-0.1-0.5c0-0.1-0.1-0.1-0.2-0.2
					c-0.1-0.1-0.3-0.1-0.5-0.1v-0.2h1.7l2.2,4.4l2.1-4.4h1.7v0.2h-0.2c-0.3,0-0.4,0.1-0.5,0.2c-0.1,0.1-0.1,0.3-0.1,0.6v3.7
					c0,0.3,0,0.6,0.1,0.6c0.1,0.1,0.3,0.2,0.5,0.2h0.2v0.2h-2.5v-0.2h0.2c0.3,0,0.4-0.1,0.5-0.2c0.1-0.1,0.1-0.3,0.1-0.6v-3.7
					l-2.3,4.7H337.5z M331.4,206.2l-1-2.3l-1,2.3H331.4z M331.5,206.5h-2.3l-0.4,0.9c-0.1,0.2-0.1,0.4-0.1,0.5c0,0.1,0,0.2,0.1,0.2
					c0.1,0.1,0.3,0.1,0.6,0.1v0.2h-1.9v-0.2c0.2,0,0.4-0.1,0.5-0.2c0.1-0.1,0.3-0.4,0.5-0.8l2.1-4.6h0.2l2.1,4.6
					c0.2,0.4,0.3,0.6,0.5,0.7c0.1,0.1,0.3,0.2,0.6,0.2v0.2h-2.3v-0.2c0.2,0,0.4,0,0.5-0.1c0.1-0.1,0.1-0.1,0.1-0.2
					c0-0.1-0.1-0.3-0.2-0.6L331.5,206.5z M324.9,203.1v2.2h1.1c0.2,0,0.4-0.1,0.5-0.2c0.1-0.1,0.2-0.3,0.2-0.6h0.2v1.9h-0.2
					c0-0.2,0-0.4-0.1-0.5c-0.1-0.1-0.1-0.2-0.2-0.2c-0.1-0.1-0.3-0.1-0.4-0.1h-1.1v1.8c0,0.3,0,0.5,0.1,0.6c0,0.1,0.1,0.1,0.2,0.2
					c0.1,0.1,0.3,0.1,0.4,0.1h0.2v0.2h-2.6v-0.2h0.2c0.2,0,0.4-0.1,0.5-0.2c0.1-0.1,0.1-0.3,0.1-0.6v-3.6c0-0.3,0-0.5-0.1-0.6
					c0-0.1-0.1-0.1-0.2-0.2c-0.1-0.1-0.3-0.1-0.4-0.1h-0.2v-0.2h4.4l0.1,1.2h-0.2c-0.1-0.3-0.2-0.5-0.3-0.6
					c-0.1-0.1-0.2-0.2-0.4-0.3c-0.1-0.1-0.4-0.1-0.7-0.1H324.9z M318.8,206.2l-1-2.3l-1,2.3H318.8z M318.9,206.5h-2.3l-0.4,0.9
					c-0.1,0.2-0.1,0.4-0.1,0.5c0,0.1,0,0.2,0.1,0.2c0.1,0.1,0.3,0.1,0.6,0.1v0.2h-1.9v-0.2c0.2,0,0.4-0.1,0.5-0.2
					c0.1-0.1,0.3-0.4,0.5-0.8l2.1-4.6h0.2l2.1,4.6c0.2,0.4,0.3,0.6,0.5,0.7c0.1,0.1,0.3,0.2,0.6,0.2v0.2h-2.3v-0.2
					c0.2,0,0.4,0,0.5-0.1c0.1-0.1,0.1-0.1,0.1-0.2c0-0.1-0.1-0.3-0.2-0.6L318.9,206.5z M314.5,206.8l0.1,0l-0.5,1.5h-4.6v-0.2h0.2
					c0.3,0,0.4-0.1,0.5-0.2c0.1-0.1,0.1-0.3,0.1-0.6v-3.6c0-0.3,0-0.6-0.1-0.7c-0.1-0.1-0.3-0.2-0.5-0.2h-0.2v-0.2h2.7v0.2
					c-0.3,0-0.5,0-0.7,0.1c-0.1,0.1-0.2,0.1-0.3,0.2c0,0.1-0.1,0.3-0.1,0.6v3.5c0,0.2,0,0.4,0.1,0.5c0,0.1,0.1,0.1,0.2,0.1
					c0.1,0,0.3,0,0.7,0h0.4c0.5,0,0.8,0,1-0.1c0.2-0.1,0.4-0.2,0.5-0.3C314.2,207.4,314.3,207.2,314.5,206.8z M305.1,206.2l-1-2.3
					l-1,2.3H305.1z M305.2,206.5h-2.3l-0.4,0.9c-0.1,0.2-0.1,0.4-0.1,0.5c0,0.1,0,0.2,0.1,0.2c0.1,0.1,0.3,0.1,0.6,0.1v0.2h-1.9
					v-0.2c0.2,0,0.4-0.1,0.5-0.2c0.1-0.1,0.3-0.4,0.5-0.8l2.1-4.6h0.2l2.1,4.6c0.2,0.4,0.3,0.6,0.5,0.7c0.1,0.1,0.3,0.2,0.6,0.2v0.2
					h-2.3v-0.2c0.2,0,0.4,0,0.5-0.1c0.1-0.1,0.1-0.1,0.1-0.2c0-0.1-0.1-0.3-0.2-0.6L305.2,206.5z M297,205.5c0.1,0,0.1,0,0.1,0
					c0,0,0.1,0,0.1,0c0.6,0,1-0.1,1.3-0.3c0.3-0.2,0.4-0.5,0.4-0.9c0-0.3-0.1-0.6-0.3-0.9c-0.2-0.2-0.5-0.3-0.9-0.3
					c-0.2,0-0.4,0-0.7,0.1V205.5z M301.2,208.4h-1.6l-2-2.6c-0.1,0-0.3,0-0.4,0c0,0-0.1,0-0.1,0c0,0-0.1,0-0.1,0v1.6
					c0,0.4,0,0.6,0.1,0.7c0.1,0.1,0.3,0.2,0.5,0.2h0.2v0.2h-2.5v-0.2h0.2c0.3,0,0.4-0.1,0.5-0.2c0.1-0.1,0.1-0.3,0.1-0.6v-3.6
					c0-0.4,0-0.6-0.1-0.7c-0.1-0.1-0.3-0.2-0.5-0.2h-0.2v-0.2h2.2c0.6,0,1.1,0,1.4,0.1c0.3,0.1,0.6,0.2,0.8,0.5
					c0.2,0.2,0.3,0.5,0.3,0.8c0,0.3-0.1,0.6-0.4,0.9c-0.2,0.3-0.6,0.4-1.1,0.5l1.2,1.6c0.3,0.4,0.5,0.6,0.7,0.7
					c0.2,0.1,0.5,0.2,0.8,0.2V208.4z M292.6,206.2l-1-2.3l-1,2.3H292.6z M292.8,206.5h-2.3l-0.4,0.9c-0.1,0.2-0.1,0.4-0.1,0.5
					c0,0.1,0,0.2,0.1,0.2c0.1,0.1,0.3,0.1,0.6,0.1v0.2h-1.9v-0.2c0.2,0,0.4-0.1,0.5-0.2c0.1-0.1,0.3-0.4,0.5-0.8l2.1-4.6h0.2
					l2.1,4.6c0.2,0.4,0.3,0.6,0.5,0.7c0.1,0.1,0.3,0.2,0.6,0.2v0.2h-2.3v-0.2c0.2,0,0.4,0,0.5-0.1c0.1-0.1,0.1-0.1,0.1-0.2
					c0-0.1-0.1-0.3-0.2-0.6L292.8,206.5z M286.3,205.5c0.2,0,0.3,0,0.4,0.1c0.1,0,0.2,0,0.3,0c0.3,0,0.6-0.1,0.8-0.3
					c0.2-0.2,0.3-0.5,0.3-0.9c0-0.2-0.1-0.5-0.2-0.7c-0.1-0.2-0.3-0.4-0.4-0.5c-0.2-0.1-0.4-0.2-0.7-0.2c-0.1,0-0.3,0-0.6,0.1V205.5
					z M286.3,205.7v1.6c0,0.4,0,0.6,0.1,0.7c0.1,0.1,0.3,0.2,0.5,0.2h0.2v0.2h-2.5v-0.2h0.2c0.3,0,0.4-0.1,0.5-0.2
					c0.1-0.1,0.1-0.3,0.1-0.6v-3.6c0-0.4,0-0.6-0.1-0.7c-0.1-0.1-0.3-0.2-0.5-0.2h-0.2v-0.2h2.2c0.5,0,0.9,0.1,1.3,0.2
					c0.3,0.1,0.6,0.3,0.8,0.5c0.2,0.2,0.3,0.5,0.3,0.9c0,0.5-0.2,0.8-0.5,1.1c-0.3,0.3-0.8,0.4-1.4,0.4c-0.1,0-0.3,0-0.5,0
					C286.7,205.8,286.5,205.8,286.3,205.7z M280.2,206.2l-1-2.3l-1,2.3H280.2z M280.4,206.5h-2.3l-0.4,0.9c-0.1,0.2-0.1,0.4-0.1,0.5
					c0,0.1,0,0.2,0.1,0.2c0.1,0.1,0.3,0.1,0.6,0.1v0.2h-1.9v-0.2c0.2,0,0.4-0.1,0.5-0.2c0.1-0.1,0.3-0.4,0.5-0.8l2.1-4.6h0.2
					l2.1,4.6c0.2,0.4,0.3,0.6,0.5,0.7c0.1,0.1,0.3,0.2,0.6,0.2v0.2h-2.3v-0.2c0.2,0,0.4,0,0.5-0.1c0.1-0.1,0.1-0.1,0.1-0.2
					c0-0.1-0.1-0.3-0.2-0.6L280.4,206.5z M269.7,202.8h1.6l3.6,4.2v-3.2c0-0.3,0-0.6-0.1-0.6c-0.1-0.1-0.3-0.2-0.5-0.2h-0.2v-0.2
					h2.1v0.2h-0.2c-0.3,0-0.4,0.1-0.5,0.2c-0.1,0.1-0.1,0.3-0.1,0.6v4.7h-0.2l-3.9-4.5v3.4c0,0.3,0,0.6,0.1,0.6
					c0.1,0.1,0.3,0.2,0.5,0.2h0.2v0.2H270v-0.2h0.2c0.3,0,0.4-0.1,0.5-0.2c0.1-0.1,0.1-0.3,0.1-0.6v-3.9c-0.2-0.2-0.3-0.3-0.4-0.4
					c-0.1-0.1-0.2-0.1-0.4-0.2c-0.1,0-0.2,0-0.4,0V202.8z M269.6,208.2v0.2H267v-0.2h0.2c0.2,0,0.4-0.1,0.5-0.2
					c0.1-0.1,0.1-0.3,0.1-0.6v-3.6c0-0.3,0-0.5-0.1-0.6c0-0.1-0.1-0.1-0.2-0.2c-0.1-0.1-0.3-0.1-0.4-0.1H267v-0.2h2.5v0.2h-0.2
					c-0.2,0-0.4,0.1-0.5,0.2c-0.1,0.1-0.1,0.3-0.1,0.6v3.6c0,0.3,0,0.5,0.1,0.6c0,0.1,0.1,0.1,0.2,0.2c0.1,0.1,0.3,0.1,0.4,0.1
					H269.6z M266.2,202.6l0.1,1.9h-0.1c-0.2-0.6-0.4-1-0.8-1.2c-0.3-0.3-0.7-0.4-1.2-0.4c-0.4,0-0.8,0.1-1.1,0.3
					c-0.3,0.2-0.6,0.5-0.8,0.9c-0.2,0.4-0.3,0.9-0.3,1.5c0,0.5,0.1,0.9,0.3,1.3c0.2,0.4,0.4,0.7,0.8,0.9c0.3,0.2,0.7,0.3,1.2,0.3
					c0.4,0,0.7-0.1,1-0.2c0.3-0.2,0.6-0.5,1-0.9l0.1,0.1c-0.3,0.5-0.6,0.9-1,1.1c-0.4,0.2-0.9,0.3-1.4,0.3c-1,0-1.7-0.3-2.3-1
					c-0.4-0.5-0.6-1.1-0.6-1.8c0-0.6,0.1-1.1,0.4-1.5c0.3-0.5,0.6-0.8,1.1-1.1c0.5-0.3,1-0.4,1.5-0.4c0.4,0,0.9,0.1,1.3,0.3
					c0.1,0.1,0.2,0.1,0.3,0.1c0.1,0,0.1,0,0.2-0.1c0.1-0.1,0.1-0.2,0.2-0.3H266.2z M260.6,208.2v0.2H258v-0.2h0.2
					c0.2,0,0.4-0.1,0.5-0.2c0.1-0.1,0.1-0.3,0.1-0.6v-3.6c0-0.3,0-0.5-0.1-0.6c0-0.1-0.1-0.1-0.2-0.2c-0.1-0.1-0.3-0.1-0.4-0.1H258
					v-0.2h2.5v0.2h-0.2c-0.2,0-0.4,0.1-0.5,0.2c-0.1,0.1-0.1,0.3-0.1,0.6v3.6c0,0.3,0,0.5,0.1,0.6c0,0.1,0.1,0.1,0.2,0.2
					c0.1,0.1,0.3,0.1,0.4,0.1H260.6z M253.2,207.9c0.4,0.1,0.7,0.1,0.9,0.1c0.7,0,1.2-0.2,1.7-0.7c0.4-0.4,0.7-1.1,0.7-1.8
					c0-0.8-0.2-1.4-0.7-1.8c-0.4-0.4-1-0.7-1.7-0.7c-0.3,0-0.6,0-0.9,0.1V207.9z M251.5,208.4v-0.2h0.2c0.3,0,0.4-0.1,0.5-0.2
					c0.1-0.1,0.1-0.3,0.1-0.6v-3.6c0-0.3,0-0.6-0.1-0.7c-0.1-0.1-0.3-0.2-0.5-0.2h-0.2v-0.2h2.4c0.9,0,1.6,0.1,2,0.3
					c0.5,0.2,0.8,0.5,1.1,0.9c0.3,0.4,0.4,1,0.4,1.5c0,0.8-0.3,1.4-0.8,1.9c-0.6,0.6-1.4,0.9-2.6,0.9H251.5z M247.7,203.1v2.2h1.3
					c0.3,0,0.6,0,0.7-0.1c0.2-0.1,0.2-0.3,0.3-0.7h0.2v1.9H250c0-0.3-0.1-0.4-0.1-0.5c-0.1-0.1-0.1-0.2-0.3-0.2
					c-0.1-0.1-0.3-0.1-0.6-0.1h-1.3v1.8c0,0.2,0,0.4,0,0.5c0,0.1,0.1,0.1,0.1,0.1c0.1,0,0.2,0,0.3,0h1c0.3,0,0.6,0,0.7-0.1
					c0.2,0,0.3-0.1,0.4-0.3c0.2-0.2,0.4-0.4,0.6-0.8h0.2l-0.5,1.4H246v-0.2h0.2c0.1,0,0.3,0,0.4-0.1c0.1,0,0.2-0.1,0.2-0.2
					c0-0.1,0-0.3,0-0.5v-3.6c0-0.4,0-0.6-0.1-0.7c-0.1-0.1-0.3-0.2-0.5-0.2H246v-0.2h4.6l0.1,1.2h-0.2c-0.1-0.3-0.1-0.5-0.2-0.6
					c-0.1-0.1-0.2-0.2-0.3-0.3c-0.1,0-0.3-0.1-0.6-0.1H247.7z M241.5,208.4l-2.3-4.7v3.7c0,0.3,0,0.6,0.1,0.6
					c0.1,0.1,0.3,0.2,0.5,0.2h0.2v0.2H238v-0.2h0.2c0.3,0,0.4-0.1,0.5-0.2c0.1-0.1,0.1-0.3,0.1-0.6v-3.7c0-0.2,0-0.4-0.1-0.5
					c0-0.1-0.1-0.1-0.2-0.2c-0.1-0.1-0.3-0.1-0.5-0.1v-0.2h1.7l2.2,4.4l2.1-4.4h1.7v0.2h-0.2c-0.3,0-0.4,0.1-0.5,0.2
					c-0.1,0.1-0.1,0.3-0.1,0.6v3.7c0,0.3,0,0.6,0.1,0.6c0.1,0.1,0.3,0.2,0.5,0.2h0.2v0.2h-2.5v-0.2h0.2c0.3,0,0.4-0.1,0.5-0.2
					c0.1-0.1,0.1-0.3,0.1-0.6v-3.7l-2.3,4.7H241.5z M229,202.8h1.6l3.6,4.2v-3.2c0-0.3,0-0.6-0.1-0.6c-0.1-0.1-0.3-0.2-0.5-0.2h-0.2
					v-0.2h2.1v0.2h-0.2c-0.3,0-0.4,0.1-0.5,0.2c-0.1,0.1-0.1,0.3-0.1,0.6v4.7h-0.2l-3.9-4.5v3.4c0,0.3,0,0.6,0.1,0.6
					c0.1,0.1,0.3,0.2,0.5,0.2h0.2v0.2h-2.1v-0.2h0.2c0.3,0,0.4-0.1,0.5-0.2c0.1-0.1,0.1-0.3,0.1-0.6v-3.9c-0.2-0.2-0.3-0.3-0.4-0.4
					c-0.1-0.1-0.2-0.1-0.4-0.2c-0.1,0-0.2,0-0.4,0V202.8z M225.5,203.1v2.2h1.3c0.3,0,0.6,0,0.7-0.1c0.2-0.1,0.2-0.3,0.3-0.7h0.2
					v1.9h-0.2c0-0.3-0.1-0.4-0.1-0.5c-0.1-0.1-0.1-0.2-0.3-0.2c-0.1-0.1-0.3-0.1-0.6-0.1h-1.3v1.8c0,0.2,0,0.4,0,0.5
					c0,0.1,0.1,0.1,0.1,0.1c0.1,0,0.2,0,0.3,0h1c0.3,0,0.6,0,0.7-0.1c0.2,0,0.3-0.1,0.4-0.3c0.2-0.2,0.4-0.4,0.6-0.8h0.2l-0.5,1.4
					h-4.6v-0.2h0.2c0.1,0,0.3,0,0.4-0.1c0.1,0,0.2-0.1,0.2-0.2c0-0.1,0-0.3,0-0.5v-3.6c0-0.4,0-0.6-0.1-0.7
					c-0.1-0.1-0.3-0.2-0.5-0.2h-0.2v-0.2h4.6l0.1,1.2h-0.2c-0.1-0.3-0.1-0.5-0.2-0.6c-0.1-0.1-0.2-0.2-0.3-0.3
					c-0.1,0-0.3-0.1-0.6-0.1H225.5z M219.4,206.2l-1-2.3l-1,2.3H219.4z M219.5,206.5h-2.3l-0.4,0.9c-0.1,0.2-0.1,0.4-0.1,0.5
					c0,0.1,0,0.2,0.1,0.2c0.1,0.1,0.3,0.1,0.6,0.1v0.2h-1.9v-0.2c0.2,0,0.4-0.1,0.5-0.2c0.1-0.1,0.3-0.4,0.5-0.8l2.1-4.6h0.2
					l2.1,4.6c0.2,0.4,0.3,0.6,0.5,0.7c0.1,0.1,0.3,0.2,0.6,0.2v0.2h-2.3v-0.2c0.2,0,0.4,0,0.5-0.1c0.1-0.1,0.1-0.1,0.1-0.2
					c0-0.1-0.1-0.3-0.2-0.6L219.5,206.5z M215.2,208.2v0.2h-2.5v-0.2h0.2c0.2,0,0.4-0.1,0.5-0.2c0.1-0.1,0.1-0.3,0.1-0.6v-3.6
					c0-0.3,0-0.5-0.1-0.6c0-0.1-0.1-0.1-0.2-0.2c-0.1-0.1-0.3-0.1-0.4-0.1h-0.2v-0.2h2.5v0.2H215c-0.2,0-0.4,0.1-0.5,0.2
					c-0.1,0.1-0.1,0.3-0.1,0.6v3.6c0,0.3,0,0.5,0.1,0.6c0,0.1,0.1,0.1,0.2,0.2c0.1,0.1,0.3,0.1,0.4,0.1H215.2z M211.9,202.6l0.1,1.9
					h-0.1c-0.2-0.6-0.4-1-0.8-1.2c-0.3-0.3-0.7-0.4-1.2-0.4c-0.4,0-0.8,0.1-1.1,0.3c-0.3,0.2-0.6,0.5-0.8,0.9
					c-0.2,0.4-0.3,0.9-0.3,1.5c0,0.5,0.1,0.9,0.3,1.3c0.2,0.4,0.4,0.7,0.8,0.9c0.3,0.2,0.7,0.3,1.2,0.3c0.4,0,0.7-0.1,1-0.2
					c0.3-0.2,0.6-0.5,1-0.9l0.1,0.1c-0.3,0.5-0.6,0.9-1,1.1c-0.4,0.2-0.9,0.3-1.4,0.3c-1,0-1.7-0.3-2.3-1c-0.4-0.5-0.6-1.1-0.6-1.8
					c0-0.6,0.1-1.1,0.4-1.5c0.3-0.5,0.6-0.8,1.1-1.1c0.5-0.3,1-0.4,1.5-0.4c0.4,0,0.9,0.1,1.3,0.3c0.1,0.1,0.2,0.1,0.3,0.1
					c0.1,0,0.1,0,0.2-0.1c0.1-0.1,0.1-0.2,0.2-0.3H211.9z M199.9,202.8h1.6l3.6,4.2v-3.2c0-0.3,0-0.6-0.1-0.6
					c-0.1-0.1-0.3-0.2-0.5-0.2h-0.2v-0.2h2.1v0.2h-0.2c-0.3,0-0.4,0.1-0.5,0.2c-0.1,0.1-0.1,0.3-0.1,0.6v4.7h-0.2l-3.9-4.5v3.4
					c0,0.3,0,0.6,0.1,0.6c0.1,0.1,0.3,0.2,0.5,0.2h0.2v0.2h-2.1v-0.2h0.2c0.3,0,0.4-0.1,0.5-0.2c0.1-0.1,0.1-0.3,0.1-0.6v-3.9
					c-0.2-0.2-0.3-0.3-0.4-0.4c-0.1-0.1-0.2-0.1-0.4-0.2c-0.1,0-0.2,0-0.4,0V202.8z M196.4,203.1v2.2h1.3c0.3,0,0.6,0,0.7-0.1
					c0.2-0.1,0.2-0.3,0.3-0.7h0.2v1.9h-0.2c0-0.3-0.1-0.4-0.1-0.5c-0.1-0.1-0.1-0.2-0.3-0.2c-0.1-0.1-0.3-0.1-0.6-0.1h-1.3v1.8
					c0,0.2,0,0.4,0,0.5c0,0.1,0.1,0.1,0.1,0.1c0.1,0,0.2,0,0.3,0h1c0.3,0,0.6,0,0.7-0.1c0.2,0,0.3-0.1,0.4-0.3
					c0.2-0.2,0.4-0.4,0.6-0.8h0.2l-0.5,1.4h-4.6v-0.2h0.2c0.1,0,0.3,0,0.4-0.1c0.1,0,0.2-0.1,0.2-0.2c0-0.1,0-0.3,0-0.5v-3.6
					c0-0.4,0-0.6-0.1-0.7c-0.1-0.1-0.3-0.2-0.5-0.2h-0.2v-0.2h4.6l0.1,1.2h-0.2c-0.1-0.3-0.1-0.5-0.2-0.6c-0.1-0.1-0.2-0.2-0.3-0.3
					c-0.1,0-0.3-0.1-0.6-0.1H196.4z M194.2,206.8l0.1,0l-0.5,1.5h-4.6v-0.2h0.2c0.3,0,0.4-0.1,0.5-0.2c0.1-0.1,0.1-0.3,0.1-0.6v-3.6
					c0-0.3,0-0.6-0.1-0.7c-0.1-0.1-0.3-0.2-0.5-0.2h-0.2v-0.2h2.7v0.2c-0.3,0-0.5,0-0.7,0.1c-0.1,0.1-0.2,0.1-0.3,0.2
					c0,0.1-0.1,0.3-0.1,0.6v3.5c0,0.2,0,0.4,0.1,0.5c0,0.1,0.1,0.1,0.2,0.1c0.1,0,0.3,0,0.7,0h0.4c0.5,0,0.8,0,1-0.1
					c0.2-0.1,0.4-0.2,0.5-0.3C193.9,207.4,194,207.2,194.2,206.8z M185.4,203.1v2.2h1.3c0.3,0,0.6,0,0.7-0.1
					c0.2-0.1,0.2-0.3,0.3-0.7h0.2v1.9h-0.2c0-0.3-0.1-0.4-0.1-0.5c-0.1-0.1-0.1-0.2-0.3-0.2c-0.1-0.1-0.3-0.1-0.6-0.1h-1.3v1.8
					c0,0.2,0,0.4,0,0.5c0,0.1,0.1,0.1,0.1,0.1c0.1,0,0.2,0,0.3,0h1c0.3,0,0.6,0,0.7-0.1c0.2,0,0.3-0.1,0.4-0.3
					c0.2-0.2,0.4-0.4,0.6-0.8h0.2l-0.5,1.4h-4.6v-0.2h0.2c0.1,0,0.3,0,0.4-0.1c0.1,0,0.2-0.1,0.2-0.2c0-0.1,0-0.3,0-0.5v-3.6
					c0-0.4,0-0.6-0.1-0.7c-0.1-0.1-0.3-0.2-0.5-0.2h-0.2v-0.2h4.6l0.1,1.2h-0.2c-0.1-0.3-0.1-0.5-0.2-0.6c-0.1-0.1-0.2-0.2-0.3-0.3
					c-0.1,0-0.3-0.1-0.6-0.1H185.4z M183,202.6l0.1,1.9H183c-0.2-0.6-0.4-1-0.8-1.2c-0.3-0.3-0.7-0.4-1.2-0.4
					c-0.4,0-0.8,0.1-1.1,0.3c-0.3,0.2-0.6,0.5-0.8,0.9c-0.2,0.4-0.3,0.9-0.3,1.5c0,0.5,0.1,0.9,0.3,1.3c0.2,0.4,0.4,0.7,0.8,0.9
					c0.3,0.2,0.7,0.3,1.2,0.3c0.4,0,0.7-0.1,1-0.2c0.3-0.2,0.6-0.5,1-0.9l0.1,0.1c-0.3,0.5-0.6,0.9-1,1.1c-0.4,0.2-0.9,0.3-1.4,0.3
					c-1,0-1.7-0.3-2.3-1c-0.4-0.5-0.6-1.1-0.6-1.8c0-0.6,0.1-1.1,0.4-1.5c0.3-0.5,0.6-0.8,1.1-1.1c0.5-0.3,1-0.4,1.5-0.4
					c0.4,0,0.9,0.1,1.3,0.3c0.1,0.1,0.2,0.1,0.3,0.1c0.1,0,0.1,0,0.2-0.1c0.1-0.1,0.1-0.2,0.2-0.3H183z M174.7,205.3l1.3,1.8
					c0.4,0.5,0.6,0.8,0.8,0.9c0.2,0.1,0.4,0.2,0.7,0.2v0.2h-2.5v-0.2c0.2,0,0.3,0,0.4,0c0.1,0,0.1-0.1,0.2-0.1
					c0-0.1,0.1-0.1,0.1-0.2c0-0.1,0-0.1,0-0.2c0,0-0.1-0.2-0.2-0.4l-1-1.4l-1.2,1.5c-0.1,0.2-0.2,0.3-0.2,0.3c0,0.1,0,0.1,0,0.2
					c0,0.1,0,0.2,0.1,0.2c0.1,0.1,0.2,0.1,0.5,0.1v0.2h-2.1v-0.2c0.1,0,0.3,0,0.4-0.1c0.2-0.1,0.4-0.2,0.5-0.3
					c0.2-0.1,0.4-0.3,0.6-0.6l1.4-1.7l-1.2-1.6c-0.3-0.4-0.6-0.7-0.8-0.9c-0.2-0.1-0.5-0.2-0.8-0.2v-0.2h2.7v0.2
					c-0.2,0-0.4,0-0.5,0.1c-0.1,0.1-0.1,0.1-0.1,0.2c0,0.1,0.1,0.3,0.2,0.4l0.9,1.3l1.1-1.3c0.1-0.1,0.2-0.2,0.2-0.3
					c0-0.1,0-0.1,0-0.2c0-0.1,0-0.1-0.1-0.2c0-0.1-0.1-0.1-0.2-0.1c-0.1,0-0.2,0-0.4,0v-0.2h2.1v0.2c-0.2,0-0.3,0-0.4,0.1
					c-0.2,0.1-0.3,0.1-0.4,0.3c-0.1,0.1-0.3,0.3-0.6,0.6L174.7,205.3z M167.5,203.1v2.2h1.3c0.3,0,0.6,0,0.7-0.1
					c0.2-0.1,0.2-0.3,0.3-0.7h0.2v1.9h-0.2c0-0.3-0.1-0.4-0.1-0.5c-0.1-0.1-0.1-0.2-0.3-0.2c-0.1-0.1-0.3-0.1-0.6-0.1h-1.3v1.8
					c0,0.2,0,0.4,0,0.5c0,0.1,0.1,0.1,0.1,0.1c0.1,0,0.2,0,0.3,0h1c0.3,0,0.6,0,0.7-0.1c0.2,0,0.3-0.1,0.4-0.3
					c0.2-0.2,0.4-0.4,0.6-0.8h0.2l-0.5,1.4h-4.6v-0.2h0.2c0.1,0,0.3,0,0.4-0.1c0.1,0,0.2-0.1,0.2-0.2c0-0.1,0-0.3,0-0.5v-3.6
					c0-0.4,0-0.6-0.1-0.7c-0.1-0.1-0.3-0.2-0.5-0.2h-0.2v-0.2h4.6l0.1,1.2h-0.2c-0.1-0.3-0.1-0.5-0.2-0.6c-0.1-0.1-0.2-0.2-0.3-0.3
					c-0.1,0-0.3-0.1-0.6-0.1H167.5z"/>
			</g>
			<g>
				<g>
					<path class="st0" d="M358.7,192c-0.4-0.2-0.9-0.7-1.5-1.5l-2.5-3.2c1-0.2,1.8-0.6,2.3-1.1c0.5-0.5,0.7-1.1,0.7-1.8
						c0-0.6-0.2-1.2-0.6-1.7c-0.4-0.5-0.9-0.8-1.6-1c-0.6-0.2-1.6-0.3-2.8-0.3h-4.4v0.3h0.5c0.5,0,0.8,0.1,1,0.4
						c0.2,0.2,0.3,0.6,0.3,1.3v7.2c0,0.6-0.1,1-0.2,1.2c-0.2,0.3-0.6,0.5-1.1,0.5h-0.5v0.3h5.2v-0.3h-0.5c-0.5,0-0.8-0.1-1-0.4
						c-0.2-0.2-0.2-0.6-0.2-1.3v-3.3c0.1,0,0.2,0,0.3,0c0.1,0,0.2,0,0.2,0c0.2,0,0.4,0,0.7,0l4.1,5.2h3.2v-0.3
						C359.6,192.4,359.1,192.2,358.7,192z M352.2,187c-0.1,0-0.1,0-0.2,0c-0.1,0-0.2,0-0.3,0v-4.7c0.6-0.1,1.1-0.2,1.4-0.2
						c0.8,0,1.4,0.2,1.9,0.7c0.5,0.4,0.7,1,0.7,1.7c0,0.7-0.3,1.3-0.9,1.8C354.2,186.8,353.3,187,352.2,187z"/>
					<path class="st0" d="M340.5,182.2v4.4h2.7c0.7,0,1.2-0.1,1.4-0.3c0.3-0.3,0.5-0.7,0.5-1.3h0.3v3.9h-0.3c-0.1-0.5-0.2-0.9-0.3-1
						c-0.1-0.2-0.3-0.3-0.5-0.5c-0.2-0.1-0.6-0.2-1.1-0.2h-2.7v3.7c0,0.5,0,0.8,0.1,0.9c0,0.1,0.1,0.2,0.2,0.3
						c0.1,0.1,0.3,0.1,0.7,0.1h2.1c0.7,0,1.2,0,1.5-0.1c0.3-0.1,0.6-0.3,0.9-0.5c0.4-0.3,0.7-0.9,1.1-1.5h0.4l-1,2.8h-9.4v-0.3h0.4
						c0.3,0,0.6-0.1,0.8-0.2c0.2-0.1,0.3-0.2,0.4-0.4c0.1-0.2,0.1-0.5,0.1-1.1v-7.3c0-0.7-0.1-1.1-0.2-1.3c-0.2-0.2-0.6-0.3-1.1-0.3
						h-0.4v-0.3h9.4l0.1,2.5h-0.4c-0.1-0.6-0.3-1-0.4-1.2c-0.2-0.2-0.4-0.4-0.7-0.5c-0.2-0.1-0.7-0.1-1.3-0.1H340.5z"/>
					<path class="st0" d="M331.4,181.9v-0.3h5.2v0.3h-0.4c-0.5,0-0.9,0.1-1.1,0.4c-0.1,0.2-0.2,0.6-0.2,1.3v5.5c0,0.8-0.1,1.5-0.3,2
						c-0.2,0.5-0.5,1-1,1.4c-0.5,0.4-1.1,0.6-1.8,0.6c-0.6,0-1-0.1-1.3-0.4c-0.3-0.3-0.5-0.5-0.5-0.9c0-0.3,0.1-0.5,0.2-0.6
						c0.2-0.2,0.4-0.3,0.7-0.3c0.2,0,0.4,0.1,0.5,0.2c0.2,0.1,0.3,0.4,0.6,0.9c0.1,0.3,0.3,0.4,0.5,0.4c0.2,0,0.3-0.1,0.4-0.3
						c0.1-0.2,0.2-0.5,0.2-1v-7.6c0-0.6,0-0.9-0.1-1.1c-0.1-0.1-0.2-0.3-0.4-0.4c-0.3-0.1-0.5-0.2-0.8-0.2H331.4z"/>
					<path class="st0" d="M325.1,181.9v-0.3h4.3v0.3h-0.5c-0.5,0-0.8,0.2-1.1,0.6c-0.1,0.2-0.2,0.6-0.2,1.2v4.5c0,1.1-0.1,2-0.4,2.6
						c-0.2,0.6-0.7,1.2-1.4,1.6c-0.7,0.4-1.7,0.7-2.9,0.7c-1.3,0-2.3-0.2-3-0.6c-0.7-0.4-1.2-1-1.5-1.7c-0.2-0.5-0.3-1.4-0.3-2.8
						v-4.4c0-0.7-0.1-1.1-0.3-1.4c-0.2-0.2-0.5-0.3-1-0.3h-0.5v-0.3h5.2v0.3h-0.5c-0.5,0-0.9,0.1-1.1,0.4c-0.1,0.2-0.2,0.6-0.2,1.2
						v4.9c0,0.4,0,0.9,0.1,1.5c0.1,0.6,0.2,1,0.5,1.3c0.2,0.3,0.6,0.6,1,0.8c0.4,0.2,0.9,0.3,1.6,0.3c0.8,0,1.5-0.2,2.1-0.5
						c0.6-0.3,1.1-0.7,1.3-1.2c0.2-0.5,0.3-1.3,0.3-2.5v-4.5c0-0.7-0.1-1.1-0.3-1.3c-0.2-0.2-0.6-0.4-1-0.4H325.1z"/>
					<path class="st0" d="M307.6,192.8l-4.7-9.4v7.5c0,0.7,0.1,1.1,0.2,1.3c0.2,0.2,0.6,0.3,1,0.3h0.4v0.3h-4.2v-0.3h0.4
						c0.5,0,0.9-0.1,1.1-0.4c0.1-0.2,0.2-0.6,0.2-1.2v-7.3c0-0.5-0.1-0.9-0.2-1.1c-0.1-0.2-0.2-0.3-0.5-0.4
						c-0.2-0.1-0.6-0.2-1.1-0.2v-0.3h3.4l4.4,8.8l4.3-8.8h3.4v0.3h-0.4c-0.5,0-0.9,0.1-1.1,0.4c-0.1,0.2-0.2,0.6-0.2,1.2v7.3
						c0,0.7,0.1,1.1,0.3,1.3c0.2,0.2,0.6,0.3,1,0.3h0.4v0.3h-5.2v-0.3h0.4c0.5,0,0.9-0.1,1.1-0.4c0.1-0.2,0.2-0.6,0.2-1.2v-7.5
						l-4.7,9.4H307.6z"/>
					<path class="st0" d="M295.1,192.1c-0.3-0.2-0.6-0.7-0.9-1.5l-4.2-9.3h-0.3l-4.3,9.2c-0.4,0.8-0.7,1.3-1,1.6
						c-0.2,0.1-0.5,0.2-1,0.3v0.3h3.8v-0.3c-0.6,0-1-0.1-1.1-0.3c-0.2-0.1-0.3-0.3-0.3-0.4c0-0.2,0.1-0.5,0.3-1l0.8-1.8h4.7l0.7,1.6
						c0.2,0.5,0.4,0.9,0.4,1.1c0,0.2-0.1,0.3-0.3,0.5c-0.2,0.1-0.5,0.2-1,0.2v0.3h4.8v-0.3C295.8,192.4,295.4,192.3,295.1,192.1z
						 M287.2,188.4l2.1-4.5l2.1,4.5H287.2z"/>
					<path class="st0" d="M282.6,189.6l0.3,0.1l-1,3h-9.4v-0.3h0.5c0.5,0,0.9-0.2,1.1-0.5c0.1-0.2,0.2-0.6,0.2-1.2v-7.2
						c0-0.7-0.1-1.1-0.3-1.3c-0.2-0.2-0.6-0.4-1-0.4h-0.5v-0.3h5.5v0.3c-0.6,0-1.1,0.1-1.4,0.2c-0.3,0.1-0.4,0.3-0.5,0.4
						c-0.1,0.2-0.1,0.6-0.1,1.3v7c0,0.5,0.1,0.8,0.1,0.9c0.1,0.1,0.2,0.2,0.3,0.3c0.2,0.1,0.6,0.1,1.4,0.1h0.9c0.9,0,1.6-0.1,2-0.2
						c0.4-0.1,0.7-0.4,1-0.7C282,190.9,282.3,190.3,282.6,189.6z"/>
					<path class="st0" d="M260.1,182.2v4.4h2.7c0.7,0,1.2-0.1,1.4-0.3c0.3-0.3,0.5-0.7,0.5-1.3h0.3v3.9h-0.3c-0.1-0.5-0.2-0.9-0.3-1
						c-0.1-0.2-0.3-0.3-0.5-0.5c-0.2-0.1-0.6-0.2-1.1-0.2h-2.7v3.7c0,0.5,0,0.8,0.1,0.9c0,0.1,0.1,0.2,0.3,0.3
						c0.1,0.1,0.3,0.1,0.7,0.1h2.1c0.7,0,1.2,0,1.5-0.1c0.3-0.1,0.6-0.3,0.9-0.5c0.4-0.3,0.7-0.9,1.1-1.5h0.4l-1,2.8h-9.4v-0.3h0.4
						c0.3,0,0.6-0.1,0.8-0.2c0.2-0.1,0.3-0.2,0.4-0.4c0.1-0.2,0.1-0.5,0.1-1.1v-7.3c0-0.7-0.1-1.1-0.2-1.3c-0.2-0.2-0.6-0.3-1.1-0.3
						h-0.4v-0.3h9.4l0.1,2.5h-0.4c-0.1-0.6-0.3-1-0.4-1.2c-0.2-0.2-0.4-0.4-0.7-0.5c-0.2-0.1-0.7-0.1-1.3-0.1H260.1z"/>
					<path class="st0" d="M254.7,184c-0.6-0.9-1.3-1.5-2.3-1.9c-0.9-0.4-2.3-0.6-4.1-0.6h-4.9v0.3h0.5c0.5,0,0.8,0.1,1,0.4
						c0.2,0.2,0.3,0.6,0.3,1.3v7.2c0,0.6-0.1,1-0.2,1.2c-0.2,0.3-0.6,0.5-1.1,0.5h-0.5v0.3h5.4c2.4,0,4.1-0.6,5.3-1.8
						c1-1,1.5-2.3,1.5-3.9C255.6,185.9,255.3,184.9,254.7,184z M252.2,190.8c-0.9,0.9-2.1,1.3-3.4,1.3c-0.5,0-1.1-0.1-1.9-0.2v-9.5
						c0.7-0.2,1.3-0.2,1.8-0.2c1.4,0,2.6,0.4,3.5,1.3c0.9,0.9,1.4,2.1,1.4,3.7C253.6,188.7,253.1,189.9,252.2,190.8z"/>
					<path class="st0" d="M238.1,192.1c-0.3-0.2-0.6-0.7-0.9-1.5l-4.2-9.3h-0.3l-4.3,9.2c-0.4,0.8-0.7,1.3-1,1.6
						c-0.1,0.1-0.5,0.2-1,0.3v0.3h3.8v-0.3c-0.6,0-1-0.1-1.1-0.3c-0.2-0.1-0.3-0.3-0.3-0.4c0-0.2,0.1-0.5,0.3-1l0.8-1.8h4.7l0.7,1.6
						c0.2,0.5,0.4,0.9,0.4,1.1c0,0.2-0.1,0.3-0.3,0.5c-0.2,0.1-0.5,0.2-1,0.2v0.3h4.8v-0.3C238.8,192.4,238.4,192.3,238.1,192.1z
						 M230.2,188.4l2.1-4.5l2.1,4.5H230.2z"/>
					<path class="st0" d="M225.1,181.3l0.3,3.8h-0.3c-0.4-1.1-0.9-2-1.6-2.5c-0.7-0.5-1.5-0.8-2.5-0.8c-0.8,0-1.5,0.2-2.2,0.6
						c-0.7,0.4-1.2,1-1.5,1.8c-0.4,0.8-0.6,1.9-0.6,3.1c0,1,0.2,1.9,0.5,2.6c0.4,0.7,0.9,1.3,1.6,1.7c0.7,0.4,1.5,0.6,2.4,0.6
						c0.8,0,1.5-0.2,2.1-0.5c0.6-0.3,1.3-0.9,2-1.9l0.3,0.2c-0.6,1-1.3,1.7-2.1,2.2c-0.8,0.5-1.8,0.7-2.9,0.7c-2,0-3.6-0.7-4.7-2.1
						c-0.8-1-1.2-2.2-1.2-3.6c0-1.1,0.3-2.1,0.8-3.1c0.5-0.9,1.3-1.7,2.2-2.2c1-0.5,2-0.8,3.1-0.8c0.9,0,1.7,0.2,2.6,0.6
						c0.3,0.1,0.4,0.2,0.5,0.2c0.2,0,0.3-0.1,0.4-0.2c0.2-0.1,0.3-0.4,0.3-0.6H225.1z"/>
					<path class="st0" d="M213.6,192.4v0.3h-5.2v-0.3h0.4c0.5,0,0.9-0.1,1.1-0.4c0.1-0.2,0.2-0.6,0.2-1.3v-7.2c0-0.6,0-0.9-0.1-1.1
						c-0.1-0.1-0.2-0.3-0.4-0.4c-0.3-0.1-0.5-0.2-0.8-0.2h-0.4v-0.3h5.2v0.3h-0.4c-0.5,0-0.9,0.1-1.1,0.4c-0.2,0.2-0.2,0.6-0.2,1.3
						v7.2c0,0.6,0,0.9,0.1,1.1c0.1,0.1,0.2,0.3,0.4,0.4c0.3,0.1,0.5,0.2,0.8,0.2H213.6z"/>
					<path class="st0" d="M194.5,181.6h3.3l7.4,8.4v-6.5c0-0.7-0.1-1.1-0.3-1.3c-0.2-0.2-0.6-0.3-1-0.3h-0.4v-0.3h4.2v0.3h-0.4
						c-0.5,0-0.9,0.1-1.1,0.4c-0.1,0.2-0.2,0.6-0.2,1.2v9.4h-0.3l-8-9v6.9c0,0.7,0.1,1.1,0.2,1.3c0.2,0.2,0.6,0.3,1,0.3h0.4v0.3
						h-4.2v-0.3h0.4c0.5,0,0.9-0.1,1.1-0.4c0.1-0.2,0.2-0.6,0.2-1.2V183c-0.4-0.4-0.6-0.6-0.8-0.8c-0.2-0.1-0.4-0.2-0.8-0.3
						c-0.2,0-0.4-0.1-0.8-0.1V181.6z"/>
					<path class="st0" d="M193.7,192.4v0.3h-5.2v-0.3h0.4c0.5,0,0.9-0.1,1.1-0.4c0.1-0.2,0.2-0.6,0.2-1.3v-7.2c0-0.6,0-0.9-0.1-1.1
						c-0.1-0.1-0.2-0.3-0.4-0.4c-0.3-0.1-0.5-0.2-0.8-0.2h-0.4v-0.3h5.2v0.3h-0.4c-0.5,0-0.9,0.1-1.1,0.4c-0.1,0.2-0.2,0.6-0.2,1.3
						v7.2c0,0.6,0,0.9,0.1,1.1c0.1,0.1,0.2,0.3,0.4,0.4c0.3,0.1,0.5,0.2,0.8,0.2H193.7z"/>
					<path class="st0" d="M187.9,189.6l0.3,0.1l-1,3h-9.4v-0.3h0.5c0.5,0,0.9-0.2,1.1-0.5c0.1-0.2,0.2-0.6,0.2-1.2v-7.2
						c0-0.7-0.1-1.1-0.3-1.3c-0.2-0.2-0.6-0.4-1-0.4h-0.5v-0.3h5.5v0.3c-0.6,0-1.1,0.1-1.4,0.2c-0.3,0.1-0.4,0.3-0.5,0.4
						c-0.1,0.2-0.1,0.6-0.1,1.3v7c0,0.5,0,0.8,0.1,0.9c0.1,0.1,0.2,0.2,0.3,0.3c0.2,0.1,0.6,0.1,1.4,0.1h0.9c0.9,0,1.6-0.1,2-0.2
						c0.4-0.1,0.7-0.4,1-0.7C187.3,190.9,187.6,190.3,187.9,189.6z"/>
					<path class="st0" d="M176.2,181.3l0.3,3.8h-0.3c-0.4-1.1-0.9-2-1.6-2.5c-0.7-0.5-1.5-0.8-2.5-0.8c-0.8,0-1.5,0.2-2.2,0.6
						c-0.7,0.4-1.2,1-1.5,1.8c-0.4,0.8-0.6,1.9-0.6,3.1c0,1,0.2,1.9,0.5,2.6c0.3,0.7,0.9,1.3,1.6,1.7c0.7,0.4,1.5,0.6,2.4,0.6
						c0.8,0,1.5-0.2,2.1-0.5c0.6-0.3,1.3-0.9,2-1.9l0.3,0.2c-0.6,1-1.3,1.7-2.1,2.2c-0.8,0.5-1.8,0.7-2.9,0.7c-2,0-3.6-0.7-4.7-2.1
						c-0.8-1-1.2-2.2-1.2-3.6c0-1.1,0.3-2.1,0.8-3.1c0.5-0.9,1.3-1.7,2.2-2.2c1-0.5,2-0.8,3.1-0.8c0.9,0,1.7,0.2,2.6,0.6
						c0.3,0.1,0.4,0.2,0.5,0.2c0.2,0,0.3-0.1,0.4-0.2c0.2-0.1,0.3-0.4,0.3-0.6H176.2z"/>
				</g>
				<g>
					<path class="st0" d="M193.1,179.3c-0.1,0.1-0.2,0.2-0.4,0.3l-1.3,0.9h-0.7l1.2-1.8c0.1-0.1,0.2-0.2,0.3-0.3
						c0.1-0.1,0.3-0.1,0.4-0.1c0.1,0,0.3,0.1,0.4,0.2c0.1,0.1,0.2,0.2,0.2,0.4C193.2,179.1,193.2,179.2,193.1,179.3z"/>
				</g>
			</g>
		</g>
	</g>
	<path class="st3" d="M1093.6,1026.2H730.2c-19.9,0-36.1-16.2-36.1-36.1V965c0-19.9,16.2-36.1,36.1-36.1h363.4
		c19.9,0,36.1,16.2,36.1,36.1v25.2C1129.7,1010.1,1113.5,1026.2,1093.6,1026.2z"/>
	<path class="st31" d="M1113.4,1034.3H705.1c-23,0-41.6-18.6-41.6-41.6v-31.3c0-23,18.6-41.6,41.6-41.6h408.3
		c23,0,41.6,18.6,41.6,41.6v31.3C1155,1015.7,1136.3,1034.3,1113.4,1034.3z"/>
	<g>
		<g>
			<g>
				<path class="st32" d="M1279.8,645.2L1141.3,572c0,0-19.8-12.2-24.6,1.4c-4.8,13.6-0.8,31,23.4,57.3
					c24.1,26.3,73.1,63.9,73.1,63.9L1279.8,645.2z"/>
				<polygon class="st33" points="1197.3,608.8 1195.5,618.5 1209.4,627.3 1191.7,626.5 1184.8,634.7 1175.6,624.4 1157.5,620.6 
					1169.6,615.1 1165.2,604.6 1181.9,611.5 				"/>
			</g>
			<g>
				<g>
					<g>
						<defs>
							<path id="SVGID_1_" d="M1075.2,767.3c0,0-24.4-84.2,205.8-131.9c131.6-27.2,234.4-53.8,296.2-54.4
								c46.3-0.4,66.8,25.9,59.2,38.3c-17.7,28.9-190.6,147.5-347.7,184.3C1131.5,840.5,1080.9,787.5,1075.2,767.3z"/>
						</defs>
						<use xlink:href="#SVGID_1_"  style="overflow:visible;fill:#544A9B;"/>
						<clipPath id="SVGID_2_">
							<use xlink:href="#SVGID_1_"  style="overflow:visible;"/>
						</clipPath>
						<circle class="st34" cx="1101.6" cy="777.7" r="96.6"/>
						
							<ellipse transform="matrix(0.9755 -0.2199 0.2199 0.9755 -143.332 254.996)" class="st35" cx="1073.8" cy="771.4" rx="35.5" ry="35.5"/>
						<path class="st36" d="M1063.8,741.2c0,0,97.6,84,318.2-3c220.6-87,273.3-154.3,273.3-154.3l-12.9,133.7L1212,888.1l-151-55
							L1063.8,741.2z"/>
					</g>
					<g>
						<g>
							<path class="st0" d="M1077.8,760.5l-16.4-93.1c0,0-5.7-37.5-29.1-33c-23.4,4.4-10.1,41.3-1.5,58c5,9.8,40.4,72.1,40.4,72.1
								L1077.8,760.5z"/>
							<path class="st0" d="M1074.9,773.7l33.7,88.3c0,0,12.7,35.7,34.8,26.9c22.1-8.8,2.1-42.5-9.5-57.2
								c-6.8-8.6-53.3-63.2-53.3-63.2L1074.9,773.7z"/>
							<g>
								<path class="st8" d="M1066.3,763.4c0,0,13.8-9.7,18.8-1.1c5.8,9.9-10.9,14-15.4,13.5L1066.3,763.4z"/>
								<path class="st8" d="M1076.3,769.1c0,3.7-2.9,6.7-6.6,6.7c-3.7,0-6.7-2.9-6.7-6.6c0-3.7,2.9-6.7,6.6-6.7
									C1073.2,762.5,1076.2,765.4,1076.3,769.1z"/>
							</g>
						</g>
					</g>
					<g>
						<path class="st37" d="M1177.4,664.9c0,0,107,6.3,100,139.7"/>
						<path class="st37" d="M1515,587.8c0,0,66.6,14.9,58.4,83.9"/>
					</g>
				</g>
				<g>
					<path class="st32" d="M1611.8,567.2c0.2-1-0.3-2-1.3-2.5l-36.3-17.5c0,0-14-7.2-27.6,0.2c-3.1,1.7-5.5,4.8-5.6,8.4
						c-0.1,3.7,2,8.7,10.5,13.6l21.9,11.6c1.1,0.6,2.5,0.7,3.7,0.2l33.1-12.1C1611.1,568.7,1611.6,568,1611.8,567.2L1611.8,567.2z"
						/>
					<path class="st8" d="M1575.8,590.7c0,0-21.5-45.3,8.2-61.7c29.8-16.4,73.2,58.6,52.3,90.4
						C1615.5,651.2,1575.8,590.7,1575.8,590.7z"/>
					<path class="st32" d="M1595.1,586.1c-0.2,1,0.3,2,1.3,2.5l36.3,17.5c0,0,14,7.2,27.6-0.2c3.1-1.7,5.5-4.8,5.6-8.4
						c0.1-3.7-2-8.7-10.5-13.6l-21.9-11.6c-1.1-0.6-2.5-0.7-3.7-0.2l-33.1,12.1C1595.8,584.6,1595.3,585.3,1595.1,586.1
						L1595.1,586.1z"/>
				</g>
			</g>
			<g>
				<path class="st32" d="M1416.1,730.9l171,89c2.6,1.3,3.6,4.6,2.1,7.1c-5.4,8.7-25.9,24.3-102.9,9.9
					c-83.6-15.6-145.1-46-165.1-56.7c-4.3-2.3-6.9-6.8-6.7-11.7l0,0c0.2-5.1,3.3-9.6,8-11.5C1336.2,751.4,1368.2,739.9,1416.1,730.9
					z"/>
				<polygon class="st33" points="1455,758.4 1451.2,774.3 1469.8,786.8 1444.6,787.7 1433.8,801.8 1422.1,786.4 1396.8,782.7 
					1414.7,772.3 1409.9,755.9 1432.7,764.8 				"/>
			</g>
		</g>
		<g>
			<g>
				<path class="st38" d="M1308.6,641c2.8,1.2,144-41.8,172.6-28.7c28.6,13.1-158.9,69.1-158.9,69.1L1308.6,641z"/>
				<g>
					<path class="st39" d="M1510.1,506.7c0,0-9.9,58.8,1,77.1c0,0-87.5,26.7-135.5-14.9c0,0,20.8-7.4,17.2-35L1510.1,506.7"/>
					<g>
						<g>
							<g>
								<path class="st40" d="M1523,576.2l4-18.3c0.3-1.2,1.4-1.9,2.6-1.6l0.1,0c1,0.2,1.7,1.1,1.7,2.1l0.1,4.4l5-9.8
									c0.4-0.9,1.4-1.3,2.4-1.1l0.6,0.1c1.3,0.3,2,1.7,1.5,2.9l-3.2,8.1l7.9-6.2c1.1-0.9,2.6-0.5,3.3,0.7l0.1,0.3
									c0.4,0.7,0.3,1.6-0.2,2.3l-5.3,6.2l6.6-0.9c1.3-0.2,2.5,0.9,2.4,2.2l0,0.2c0,0.9-0.6,1.7-1.5,2l-7,2.3l4.7,1.6
									c1,0.4,1.7,1.4,1.4,2.5l0,0c-0.3,1.1-1.4,1.9-2.5,1.7l-4.9-0.3l-13.8,5.9L1523,576.2z"/>
								<path class="st40" d="M1442.9,599.5c39.9,4.3,88.4-16.5,89.9-17.6l-7.4-10.7c-0.3,0.2-40.8,9-79.5,10L1442.9,599.5z"/>
							</g>
							<polygon class="st9" points="1440.3,580.7 1470.6,579.6 1473.4,603.6 1451,606.4 							"/>
						</g>
						<g>
							<g>
								<path class="st40" d="M1367.3,551.2l-0.3-15.9c-0.1-1-0.9-1.8-1.9-1.7l-0.1,0c-0.9,0.1-1.5,0.9-1.8,1.7l-1.8,3.6l-3.3-8.9
									c-0.3-0.8-1.1-1.3-1.9-1.2l-0.5,0.1c-1.1,0.1-1.9,1.2-1.6,2.3l1.9,7.2l-6.2-6c-0.8-0.8-2.2-0.7-2.9,0.3l-0.1,0.2
									c-0.4,0.6-0.4,1.4-0.1,2l3.9,5.8l-5.6-1.4c-1.1-0.3-2.2,0.5-2.3,1.6l0,0.2c-0.1,0.8,0.4,1.5,1.1,1.9l5.8,2.6l-4.2,0.9
									c-0.9,0.2-1.6,1.1-1.5,2l0,0c0.1,1,1,1.7,2,1.7l4.2,0.2l11.2,6.3L1367.3,551.2z"/>
								<path class="st40" d="M1417.9,597.1c-33.2-9.4-57.9-40.2-58.7-41.5l8-6.1c0.2,0.3,30.6,22.6,59,30.6L1417.9,597.1z"/>
							</g>
							<path class="st9" d="M1431,580.3l-23.5-7.2c0,0-7.8,10.5-8.4,23.1l21.2,11.4L1431,580.3z"/>
						</g>
						<g>
							<path class="st9" d="M1426.3,580.1c0,0-12.9,7.7-14,13c0,0-6.9,14.5-15.2,66.6l64-13.3c0,0-0.7-39.8-2.7-50.4
								c-1.7-9.1-5.5-13-12.5-14.9L1426.3,580.1z"/>
						</g>
					</g>
					<g>
						<path class="st0" d="M1432.5,587.1c0,0,3.8,10.4,12.7,5.5c9-5-0.9-13.7-0.9-13.7L1432.5,587.1z"/>
						<path class="st0" d="M1434.1,586.8c0,0-5.5,7-10.7,2.1c-5.8-5.4,4-10.2,4-10.2L1434.1,586.8z"/>
						<g>
							<path class="st9" d="M1480.2,457.5c0,0-8.3-23.9-36.6-32.8c0,0-11.3,18.9-14.5,51.9c0,0,19.8,6.1,47.3-7.8L1480.2,457.5z"/>
							<path class="st9" d="M1485.2,473.1c0,0,11.9,24.1,41.8,33.5c0,0,10.5-21.7,14-56.5c0,0-22.7-3.6-51.9,11.1L1485.2,473.1z"/>
						</g>
						<path class="st41" d="M1428.6,564.1l-1.9,16.8c0,0-1.5,6.4,9.2,7.6c9.6,1.1,9.7-6.2,9.7-6.2l2.1-18.3L1428.6,564.1z"/>
						<polygon class="st42" points="1427.1,577.1 1447.3,568.4 1428.6,564.1 						"/>
						<g>
							
								<ellipse transform="matrix(0.5878 -0.809 0.809 0.5878 158.393 1336.8837)" class="st41" cx="1391" cy="513" rx="15.6" ry="15.6"/>
						</g>
						<path class="st39" d="M1388,472.9c0,0-11.4,8.7-2.6,39.3l15.3-39.5L1388,472.9z"/>
						<path class="st40" d="M1391.1,482.7c-1.2,2.8-2.1,5.7-2.8,8.7c-3,13.7-9.2,51.2,18.6,69.3c29.9,19.5,64.2,5.9,78.9-13.5
							c10.1-13.3,16-58.7,4.7-73.2c-11.3-14.5-37.8-23.9-62.3-21.1C1406.2,455.4,1397.7,467.9,1391.1,482.7z"/>
						<g>
							<g>
								<g>
									<defs>
										<path id="XMLID_72_" d="M1432.8,533.3c0,0-2.9-22,14.3-23.3c15.4-1.2,13.7,17.7,12.9,22.7
											C1460,532.6,1450.1,537.6,1432.8,533.3z"/>
									</defs>
									<use xlink:href="#XMLID_72_"  style="overflow:visible;fill:#FFFFFF;"/>
									<clipPath id="XMLID_14_">
										<use xlink:href="#XMLID_72_"  style="overflow:visible;"/>
									</clipPath>
									<path class="st43" d="M1454.7,526.3c-0.7,5.9-6,10.1-12,9.5s-10.3-6-9.6-11.9c0.7-5.9,6-10.1,12-9.5
										C1451,515.1,1455.3,520.4,1454.7,526.3z"/>
									<path class="st44" d="M1455.1,518.9c-0.3,2.6-2.6,4.4-5.2,4.1c-2.6-0.3-4.5-2.6-4.2-5.2c0.3-2.6,2.6-4.4,5.2-4.1
										C1453.5,514,1455.4,516.4,1455.1,518.9z"/>
								</g>
								<path class="st45" d="M1439,512.8c0,0,7.7-5.8,15.7-1c9.6,5.7,5.3,20.7,5.3,20.7"/>
							</g>
							<g>
								<g>
									<defs>
										<path id="XMLID_71_" d="M1412.6,531.1c0,0,6.8-19.5-7.4-24.1c-12.6-4.1-14.9,13.4-15.3,18.1
											C1389.9,525.1,1397.2,531.6,1412.6,531.1z"/>
									</defs>
									<use xlink:href="#XMLID_71_"  style="overflow:visible;fill:#FFFFFF;"/>
									<clipPath id="XMLID_15_">
										<use xlink:href="#XMLID_71_"  style="overflow:visible;"/>
									</clipPath>
									<path class="st46" d="M1393.1,520.2c-0.6,5.5,3.1,10.4,8.2,11c5.1,0.6,9.8-3.4,10.4-8.9c0.6-5.5-3.1-10.4-8.2-11
										C1398.4,510.7,1393.7,514.7,1393.1,520.2z"/>
									<path class="st47" d="M1405.9,515.1c-0.3,2.4,1.3,4.6,3.6,4.8c2.2,0.2,4.3-1.5,4.5-3.9c0.3-2.4-1.3-4.6-3.6-4.8
										C1408.2,510.9,1406.2,512.7,1405.9,515.1z"/>
								</g>
								<path class="st48" d="M1411.4,511.2c0,0-5.3-6.7-12.9-3.9c-9.2,3.4-8.5,17.8-8.5,17.8"/>
							</g>
							<path class="st49" d="M1418.1,533.1l-1,3.5c-0.3,1.2,0.2,2.5,1.4,3.1l1.4,0.7"/>
							<path class="st42" d="M1439.5,495.4c0,0-2.5,3.6,10.7,5.4c13.2,1.8,17.1,0.7,16.3-2c-0.8-2.5-7.8-4.1-14.5-4.7
								C1444.5,493.3,1440.9,492.7,1439.5,495.4z"/>
							<path class="st42" d="M1413.5,493.8c0,0,1.4,4-10.3,3.3c-11.7-0.7-10.4-3.9-10-4.7s3.2-2.5,9.8-2.2
								C1409.7,490.4,1412.9,491,1413.5,493.8z"/>
							<path class="st0" d="M1415.3,544c0,0,20.8,2.7,22,2.6c0,0-1.4,8.7-11.6,7.3C1414,552.3,1415.3,544,1415.3,544z"/>
						</g>
						<path class="st39" d="M1481.8,465.2c0,0-40.5,26.5-99.6,23.4c0,0-0.5-73.7,107.6-31.4L1481.8,465.2z"/>
						<path class="st39" d="M1472.8,459.9c0,0-14.3,38.2,15.5,61.4l19.9-7.5c0,0,14.2-42-18.5-56.7L1472.8,459.9z"/>
						<g>
							<path class="st40" d="M1514.4,528c-0.9,8.5-8.6,14.7-17.2,13.8c-8.5-0.9-14.7-8.6-13.8-17.2s8.6-14.7,17.2-13.8
								C1509.2,511.8,1515.3,519.5,1514.4,528z"/>
							<path class="st50" d="M1503.8,520.6c0,0-9.9-1.7-11.2,10.6"/>
						</g>
					</g>
				</g>
				<polygon class="st51" points="1389.5,659.8 1463.5,631.1 1464.4,660.8 1400.8,680.7 1394.2,672.3 				"/>
			</g>
			<g>
				<g>
					<g>
						<g>
							<path class="st52" d="M1222.8,600.1l-1.3-16.3c-0.2-1-1-1.8-2.1-1.7l-0.1,0c-0.9,0.1-1.4,1-1.7,1.9l-1.7,3.8l-4-8.9
								c-0.4-0.8-1.2-1.2-2.1-1.1l-0.5,0.1c-1.2,0.2-1.9,1.4-1.5,2.5l2.5,7.3l-6.7-5.8c-0.9-0.8-2.3-0.6-2.9,0.5l-0.1,0.2
								c-0.4,0.6-0.4,1.4,0.1,2l4.4,5.7l-5.8-1.1c-1.2-0.2-2.2,0.7-2.3,1.8l0,0.2c0,0.8,0.5,1.5,1.2,1.8l6.1,2.3l-4.3,1.2
								c-0.9,0.3-1.5,1.2-1.4,2.2l0,0c0.2,1,1.1,1.7,2.1,1.6l4.4,0l11.9,5.8L1222.8,600.1z"/>
							<path class="st53" d="M1274.5,644.1c-34.7-7.5-59.7-36.9-60.6-38.3l9.6-8.3c0.2,0.3,31.9,22.1,61.5,28.5L1274.5,644.1z"/>
						</g>
						<g>
							<path class="st52" d="M1384,615.8l3-19c0.2-1.2,1.3-2,2.5-1.9l0.1,0c1,0.2,1.8,1,1.9,2l0.3,4.5l4.5-10.4
								c0.4-0.9,1.4-1.5,2.4-1.3l0.6,0.1c1.4,0.2,2.2,1.6,1.8,2.9l-2.7,8.5l7.7-6.8c1-0.9,2.7-0.7,3.4,0.5l0.2,0.3
								c0.4,0.7,0.4,1.7,0,2.4l-5,6.7l6.7-1.3c1.3-0.3,2.6,0.7,2.7,2.1l0,0.2c0,0.9-0.5,1.8-1.4,2.2l-7.1,2.8l5,1.3
								c1.1,0.3,1.8,1.4,1.6,2.5l0,0c-0.2,1.2-1.3,2-2.5,1.9l-5.1,0l-13.8,6.9L1384,615.8z"/>
							<path class="st53" d="M1306.4,647.8c41.2,1.9,86.1-25,87.5-26.2l-9.6-10.9c-0.3,0.3-35.2,11-74.9,14.5L1306.4,647.8z"/>
						</g>
						<g>
							<path class="st53" d="M1285,626c0,0-12.8,8.7-13.5,14.2c0,0-10.2,38-10.5,48l63.8,3.6c0,0-3.3-40.7-6-51.5
								c-2.3-9.3-6.5-13-13.8-14.5L1285,626z"/>
							<path class="st0" d="M1281.2,625.1c0,0-2,12.5,13.5,13c16.3,0.5,14.7-13,14.7-13l-9.2,1.1L1281.2,625.1z"/>
						</g>
					</g>
					<g>
						<path class="st54" d="M1285.6,608.1l-0.6,18c0,0-1,6.9,10.4,7.3c10.2,0.3,9.7-7.4,9.7-7.4l0.7-19.5L1285.6,608.1z"/>
						<polygon class="st42" points="1285.1,622.7 1305.8,611 1285.6,608.1 						"/>
						<g>
							
								<ellipse transform="matrix(0.3604 -0.9328 0.9328 0.3604 274.4393 1514.3663)" class="st54" cx="1241.5" cy="557.1" rx="16.6" ry="16.6"/>
						</g>
						<path class="st42" d="M1235,514.8c0,0-11.3,10.2,0.5,41.9l12.9-43.1L1235,514.8z"/>
						<path class="st42" d="M1318,482.8c0,0,42.1,7.9,49.7,37.4c5.1,19.9,2.4,62.8-34.4,76.8L1318,482.8z"/>
						<path class="st52" d="M1239.1,524.9c-1.1,3.1-1.8,6.3-2.2,9.5c-2,14.7-5.4,55,25.5,71.9c33.3,18.2,68.5,0.8,82.5-20.9
							c9.5-14.9,12.1-63.6-1.1-78c-13.2-14.4-42.1-22.1-67.8-17.1C1252.7,494.7,1244.8,508.6,1239.1,524.9z"/>
						<path class="st42" d="M1340.4,558.8c0,0-26-12.2-11.3-46.3l13.9,1.8c10.8,0.3,18.1,11.2,14.4,21.3l3,10.1L1340.4,558.8z"/>
						<g>
							
								<ellipse transform="matrix(0.7333 -0.6799 0.6799 0.7333 -20.2561 1072.546)" class="st52" cx="1357" cy="562.1" rx="16.6" ry="16.6"/>
							<path class="st55" d="M1361.7,555.7c0,0-10.6-1-11,12.2"/>
						</g>
						<path class="st42" d="M1362.5,508.7c0,0-17.5-32.4-68.1-43.9c-46.3-10.5-33.4,17.5-33.4,17.5s-38.7-11.7-52.1,12
							s31.3,37.4,62.5,34c31.2-3.4,40.1-8.8,40.1-8.8s14.1,15.9,45.1,6.8L1362.5,508.7z"/>
						<g>
							<g>
								<g>
									<defs>
										<path id="XMLID_7_" d="M1287.5,575c0,0-5-23.1,13.2-25.9c16.2-2.6,16,17.6,15.6,22.9C1316.3,572,1306.2,578.2,1287.5,575z
											"/>
									</defs>
									<use xlink:href="#XMLID_7_"  style="overflow:visible;fill:#FFFFFF;"/>
									<clipPath id="XMLID_16_">
										<use xlink:href="#XMLID_7_"  style="overflow:visible;"/>
									</clipPath>
									<path class="st56" d="M1310.1,565.8c-0.2,6.3-5.5,11.2-11.9,11s-11.4-5.5-11.2-11.8c0.2-6.3,5.5-11.2,11.9-11
										S1310.3,559.5,1310.1,565.8z"/>
									<path class="st57" d="M1309.9,558c-0.1,2.8-2.4,4.9-5.2,4.8c-2.8-0.1-5-2.4-4.9-5.2c0.1-2.8,2.4-4.9,5.2-4.8
										C1307.8,552.9,1310,555.2,1309.9,558z"/>
								</g>
								<path class="st58" d="M1292.4,552.9c0,0,7.6-6.7,16.5-2.3c10.7,5.3,7.4,21.5,7.4,21.5"/>
							</g>
							<g>
								<g>
									<defs>
										<path id="XMLID_6_" d="M1265.9,574.4c0,0,5.5-21.2-9.8-24.9c-13.7-3.3-14.7,15.5-14.7,20.5
											C1241.4,570,1249.6,576.3,1265.9,574.4z"/>
									</defs>
									<use xlink:href="#XMLID_6_"  style="overflow:visible;fill:#FFFFFF;"/>
									<clipPath id="XMLID_17_">
										<use xlink:href="#XMLID_6_"  style="overflow:visible;"/>
									</clipPath>
									<path class="st59" d="M1244.3,564.5c-0.2,5.9,4.1,10.8,9.6,11c5.5,0.2,10.1-4.5,10.3-10.3c0.2-5.9-4.1-10.8-9.6-11
										C1249.1,553.9,1244.5,558.6,1244.3,564.5z"/>
									<path class="st60" d="M1257.5,558c-0.1,2.6,1.8,4.7,4.2,4.8c2.4,0.1,4.4-2,4.5-4.5c0.1-2.6-1.8-4.7-4.2-4.8
										C1259.5,553.4,1257.5,555.4,1257.5,558z"/>
								</g>
								<path class="st61" d="M1262.9,553.4c0,0-6.2-6.7-14-3.1c-9.4,4.3-7.5,19.6-7.5,19.6"/>
							</g>
							<path class="st62" d="M1271.9,576l-0.8,3.8c-0.3,1.3,0.5,2.7,1.7,3.2l1.6,0.6"/>
							<path class="st42" d="M1291.4,534.3c0,0-2.3,4,11.8,4.8c14.1,0.8,17.6-0.6,17.1-3.5c-0.4-2.3-7.6-3.2-15.7-3.8
								C1296.6,531.2,1292.7,531.3,1291.4,534.3z"/>
							<path class="st42" d="M1263.7,534.8c0,0,1.8,4.1-10.6,4.3c-12.4,0.2-11.4-3.3-11-4.2c0.4-0.9,3.1-2.9,10.3-3.2
								C1259.4,531.6,1262.8,531.9,1263.7,534.8z"/>
							<g>
								<defs>
									<path id="XMLID_3_" d="M1269.4,588.7l21.8,0.7c0,0,0.6,8.4-11.2,8C1269.4,597,1269.4,588.7,1269.4,588.7z"/>
								</defs>
								<use xlink:href="#XMLID_3_"  style="overflow:visible;fill:#3C1318;"/>
								<clipPath id="XMLID_18_">
									<use xlink:href="#XMLID_3_"  style="overflow:visible;"/>
								</clipPath>
								<path class="st63" d="M1270.9,597.7c0,0,7.6-8.8,20.3-2l0,0C1291.2,595.7,1288.4,602.2,1270.9,597.7z"/>
							</g>
							<g>
								<path class="st64" d="M1269.6,566.6c-0.5,15-13,26.8-28.1,26.4c-15-0.5-26.8-13-26.3-28.1c0.5-15,13-26.8,28.1-26.3
									C1258.3,539,1270.1,551.6,1269.6,566.6z"/>
								<path class="st64" d="M1335.5,567.4c-0.5,15.7-13.6,28-29.3,27.5c-15.7-0.5-28-13.6-27.5-29.3c0.5-15.7,13.6-28,29.3-27.5
									C1323.6,538.6,1335.9,551.7,1335.5,567.4z"/>
								<path class="st64" d="M1269.6,566.6c0,0,5.2-2.7,9,0.3"/>
							</g>
						</g>
					</g>
				</g>
				<g>
					<path class="st8" d="M1339.1,675.2c-15.9,7.9-29.1,8.7-42.2,6.8c-2.8-1-9.8-4.2-14.8-11.8c-15.9-24-35.8-13.5-35.8-13.5
						l4.3,13.8l-16.1,10.7l17,17.8l27.7,8.8l54.7-2l18.3-16L1339.1,675.2z"/>
					<path class="st65" d="M1239.1,652.9c0,0,29.3-4.6,43.6,18.1c16.2,25.8,61.1,2.9,61.1,2.9"/>
				</g>
			</g>
		</g>
	</g>
	<text transform="matrix(1 0 0 1 728.8369 1001.707)" class="st0 st4 st5">25 DE ABRIL</text>
</g>
</svg>
