<?xml version="1.0" encoding="utf-8"?>
<!-- Generator: Adobe Illustrator 23.0.5, SVG Export Plug-In . SVG Version: 6.00 Build 0)  -->
<svg version="1.1" xmlns="http://www.w3.org/2000/svg" xmlns:xlink="http://www.w3.org/1999/xlink" x="0px" y="0px"
	 viewBox="0 0 1920 1080" style="enable-background:new 0 0 1920 1080;" xml:space="preserve">
<style type="text/css">
	.st0{fill:#FFFFFF;stroke:url(#SVGID_1_);stroke-miterlimit:10;}
	.st1{fill:#E0F0FD;stroke:url(#SVGID_2_);stroke-miterlimit:10;}
	.st2{fill:url(#SVGID_3_);}
	.st3{fill:#EAF9FF;}
	.st4{fill:#D6F3FC;}
	.st5{fill:#FFD14E;}
	.st6{fill:#FFFFFF;}
	.st7{fill:#006D78;}
	.st8{fill:#FEFEFE;}
	.st9{fill:url(#SVGID_4_);}
	.st10{fill:#AEC3DE;}
	.st11{fill:#F0FBFE;}
	.st12{fill:#D8E8F2;}
	.st13{opacity:0.72;fill:#D8E8F2;}
	.st14{fill:#F7FBFF;}
	.st15{fill:#CDDBEF;}
	.st16{opacity:0.38;fill:#CDDBEF;}
	.st17{opacity:0.55;fill:#CDDBEF;}
	.st18{fill:#FFC3C1;}
	.st19{fill:#6FBDB4;}
	.st20{fill:#1EAD9D;}
	.st21{fill:#343469;}
	.st22{opacity:0.42;fill:none;stroke:#343469;stroke-miterlimit:10;}
	.st23{fill:none;stroke:#FFDE89;stroke-width:9;stroke-miterlimit:10;}
	.st24{fill:#FFC1C0;}
	.st25{fill:#91CBC7;}
	.st26{fill:#A7E5DF;}
	.st27{fill:#00A290;}
	.st28{fill:#FFCDC8;}
	.st29{fill:#3C3A74;}
	.st30{fill:none;stroke:#FFB7BB;stroke-miterlimit:10;}
	.st31{fill:#FFCB5D;}
	.st32{fill:#FF920B;}
	.st33{fill:#007F69;}
	.st34{fill:#FCFDFF;stroke:#000000;stroke-width:0.25;stroke-miterlimit:10;}
	.st35{fill:#009483;}
	.st36{opacity:0.68;fill:#A8CAE2;}
	.st37{fill:#A8CAE2;}
	.st38{opacity:0.45;fill:#91BAD4;}
	.st39{fill:#95BBD8;}
	.st40{fill:#6697B7;}
	.st41{fill:url(#SVGID_5_);}
	.st42{fill:#A8C6DA;}
	.st43{fill:#F1F9FE;}
	.st44{fill:#160F49;}
	.st45{fill:#1D1862;}
	.st46{fill:#006A74;}
	.st47{fill:#2A2A79;}
	.st48{fill:#100641;}
	.st49{fill:#FEFFFF;}
	.st50{fill:#FFA29B;}
	.st51{fill:#FF7474;}
	.st52{fill:#FFC2C0;}
	.st53{fill:#FFA5A5;}
	.st54{opacity:0.17;fill:#FF3944;}
	.st55{fill:#FFB3AE;}
	.st56{fill:#1E195C;}
	.st57{fill:#FFFFFE;}
	.st58{fill:#201A60;}
	.st59{fill:#474495;}
	.st60{fill:#FF6267;stroke:#000000;stroke-width:0.25;stroke-miterlimit:10;}
	.st61{fill:#FF6267;}
	.st62{opacity:0.76;fill:#FF5F63;}
	.st63{fill:#487633;}
	.st64{opacity:0.65;fill:#FFBCC2;}
	.st65{opacity:0.58;fill:#E0F0FD;}
	.st66{fill:#61CFFE;}
	.st67{font-family:'MyriadPro-Regular';}
	.st68{font-size:33.0418px;}
	.st69{fill:#FCFCFC;}
</style>
<g id="Capa_1">
	<linearGradient id="SVGID_1_" gradientUnits="userSpaceOnUse" x1="428.5827" y1="307.8716" x2="644.6625" y2="307.8716">
		<stop  offset="0" style="stop-color:#FFFFFF"/>
		<stop  offset="1" style="stop-color:#D6EDFF"/>
	</linearGradient>
	<rect x="429.1" y="293.7" class="st0" width="215.1" height="28.3"/>
	
		<linearGradient id="SVGID_2_" gradientUnits="userSpaceOnUse" x1="2124.0002" y1="510.5154" x2="4042.3035" y2="510.5154" gradientTransform="matrix(-1 0 0 1 4044.5 0)">
		<stop  offset="0" style="stop-color:#FFFFFF"/>
		<stop  offset="1" style="stop-color:#D6EDFF"/>
	</linearGradient>
	
		<rect x="2.7" y="0" transform="matrix(-1 -5.063251e-11 5.063251e-11 -1 1922.6964 1021.0307)" class="st1" width="1917.3" height="1021"/>
	
		<linearGradient id="SVGID_3_" gradientUnits="userSpaceOnUse" x1="2124.5002" y1="538.7578" x2="4041.8035" y2="538.7578" gradientTransform="matrix(-1 0 0 1 4044.5 0)">
		<stop  offset="0" style="stop-color:#FFFFFF"/>
		<stop  offset="4.796509e-02" style="stop-color:#F0FAFF;stop-opacity:0.9904"/>
		<stop  offset="0.2042" style="stop-color:#C5EDFF;stop-opacity:0.9592"/>
		<stop  offset="0.3626" style="stop-color:#A1E2FE;stop-opacity:0.9275"/>
		<stop  offset="0.5212" style="stop-color:#85DAFE;stop-opacity:0.8958"/>
		<stop  offset="0.68" style="stop-color:#71D4FE;stop-opacity:0.864"/>
		<stop  offset="0.8393" style="stop-color:#65D0FE;stop-opacity:0.8321"/>
		<stop  offset="1" style="stop-color:#61CFFE;stop-opacity:0.8"/>
	</linearGradient>
	<path class="st2" d="M1454.9-2.5c0,0,35.6,246-299.4,246S734.4,572.3,734.4,572.3s-78.6,572.6-484.7,424.9
		c-80.5-31.3-183.4-100.6-247-60.4V1080l1917.3-1.1V-1.4L1454.9-2.5z"/>
	<path class="st3" d="M637-2.5c0,0-50.6,128.3-322.2,98.1S0,220.1,0,220.1L1.9-0.6L637-2.5z"/>
	<g>
		<ellipse class="st4" cx="1426" cy="755.5" rx="265" ry="271.5"/>
		<path class="st5" d="M1008.2,1053.9c0,0-63.5-70.5-63.5-80.8s15.9-4.1,15.9-4.1l41.7,24.9L1008.2,1053.9z"/>
		<polygon class="st6" points="954.6,975.1 1002.2,1024.9 1002.2,1014.5 		"/>
		<path class="st7" d="M984.4,933.7c0,0-49.6-51.8-53.6-56s-7.9-24.9,21.8-18.7c29.8,6.2,109.2,93.3,117.1,120.2l-7.9,12.4
			L984.4,933.7z"/>
		<path class="st8" d="M942.7,871.5c0,0,81.4,53.9,93.3,95.3C1036,966.9,1006.2,896.4,942.7,871.5z"/>
		<linearGradient id="SVGID_4_" gradientUnits="userSpaceOnUse" x1="983.5869" y1="998.3142" x2="1123.3091" y2="998.3142">
			<stop  offset="0" style="stop-color:#94DCC0"/>
			<stop  offset="0.2945" style="stop-color:#91DCC0"/>
			<stop  offset="0.4881" style="stop-color:#88DBC2"/>
			<stop  offset="0.6528" style="stop-color:#7AD9C4"/>
			<stop  offset="0.8012" style="stop-color:#64D6C7"/>
			<stop  offset="0.9374" style="stop-color:#49D3CC"/>
			<stop  offset="1" style="stop-color:#3AD1CE"/>
		</linearGradient>
		<path class="st9" d="M1010.2,1064.3c0,0-9.9-64.2-19.8-95.3s-6-35.2-6-35.2s9.9-6.2,21.8,8.3c11.9,14.5,49.6,39.4,69.5,43.5
			c19.8,4.1,41.7,43.5,43.7,45.6c2,2.1,4,33.2,4,33.2H1010.2z"/>
		<path class="st6" d="M996.3,952.3c0,0,51.6,93.3,65.5,107.8s0,2.1,0,2.1l9.9-2.1C1071.7,1060.1,1004.2,966.9,996.3,952.3z"/>
		<path class="st10" d="M1028,786.6l-27.8,37.3l75.4,151.3c0,0,21.8,45.6,43.7,53.9c0,0-2-47.7,11.9-47.7
			C1131.2,981.4,1071.7,894.3,1028,786.6z"/>
		<path class="st11" d="M1123.3,1060.1l-4-51.8c0,0-2-24.9,41.7-39.4c43.7-14.5,81.4-37.3,103.2-51.8c21.8-14.5,65.5-10.4,65.5-10.4
			s35.7-18.7,37.7-33.2c0,0-6,91.2-7.9,105.7c-2,14.5,2,80.8,2,80.8H1123.3z"/>
		<path class="st12" d="M1180.9,1060.1c0,0-2-45.6,0-47.7c2-2.1,75.4-26.9,89.3-37.3c0,0-81.4,37.3-83.4,39.4c-2,2.1-2,45.6-2,45.6
			H1180.9z"/>
		<path class="st12" d="M1250.3,1060.1v-10.4c0,0,29.8-14.5,33.7-18.7l-39.7,18.7v10.4H1250.3z"/>
		<path class="st12" d="M1288,1051.8c0,0,63.5-31.1,65.5-39.4C1353.5,1012.4,1331.7,1047.7,1288,1051.8z"/>
		<path class="st12" d="M1333.7,1060.1c0,0,11.9-12.4,11.9-14.5S1353.5,1051.8,1333.7,1060.1z"/>
		<path class="st13" d="M1202.7,985.5c0,0,65.5-31.1,81.4-45.6s43.7-22.8,53.6-22.8c0,0-37.7-8.3-67.5,16.6
			C1240.4,958.6,1224.5,981.4,1202.7,985.5z"/>
		<path class="st14" d="M1030,786.6c0,0,29.8-12.4,63.5-14.5s131-39.4,152.8-37.3s35.7-4.1,35.7-6.2s75.4,43.5,81.4,149.2
			c0,0-9.9,12.4-15.9,18.7s-51.6,6.2-63.5,10.4s-17.9,8.3-31.8,16.6c-13.9,8.3-77.4,49.7-111.2,49.7c0,0-11.9,4.1-11.9,6.2
			S1036,807.3,1030,786.6z"/>
		<path class="st15" d="M1051.9,796.9h11.9c0,0-1.7,8.9,4,26.9c14.1,44.6,50.4,127.1,101.2,138.8l-25.8,12.4
			C1143.2,975.1,1051.9,832.1,1051.9,796.9z"/>
		<path class="st16" d="M1172.9,958.6c0,0-61.5-132.6-87.3-155.4C1085.6,803.1,1065.7,915,1172.9,958.6z"/>
		<path class="st15" d="M1169,939.9c0,0,13.9-26.9,13.9-35.2s25.8,41.4,25.8,41.4l-35.7,16.6C1172.9,962.7,1165,948.2,1169,939.9z"
			/>
		<path class="st17" d="M1321.8,861.2c0,0,39.7,2.1,43.7,8.3c0,0-6,18.7-19.8,20.7l-2,2.1C1343.6,892.2,1323.8,861.2,1321.8,861.2z"
			/>
		<path class="st18" d="M1188.8,794.8c0,0,2,22.8,23.8,24.9c0,0,9.9,24.9,7.9,33.2s-19.8,18.7-21.8,20.7s-17.9,12.4-17.9,26.9
			c6,14.5,45.7,76.7,45.7,76.7s7.9,14.5,27.8,10.4s61.5-12.4,65.5-12.4c0,0,0-18.7,2-18.7c2,0-71.5-4.1-71.5-4.1s-9.9-18.7-9.9-20.7
			s35.7-37.3,85.3-24.9c0,0,15.9,14.5,15.9,26.9s0,14.5-2,14.5s-15.9,6.2-15.9,6.2s-6,22.8-2,22.8c4,0,11.9,4.1,17.9,2.1
			s9.9-6.2,9.9-6.2s0-31.1,2-33.2c2-2.1,4-22.8,4-22.8v-10.4h-6c0,0-35.7-53.9-37.7-53.9s-6-4.1-15.9-2.1c0,0-23.8-6.2-29.8-6.2
			c0,0-13.9,0-19.8-20.7c4,0,19.8-6.2,19.8-20.7c-2-14.5-6-22.8-6-22.8l-6-10.4l-2-8.3l-7.9-6.2l-9.9-10.4l-6,2.1l-2,2.1
			c0,0-17.9,0-19.8,0s-6,8.3-4,14.5c2,14.5,4,33.2,4,33.2S1188.8,788.6,1188.8,794.8z"/>
		<path class="st19" d="M1220.6,854.9c0,0,19.8,26.9,51.6,16.6c6-2.1,17.9-8.3,0-24.9h-4c0,0,0-2.1,4-2.1c4,0,17.9,0,17.9,0
			s39.7,29,35.7,60.1l0,0c0,0-31.8-6.2-51.6,6.2c-19.8,12.4-29.8,20.7-29.8,20.7s-9.9-10.4-13.9-18.7c0,0,2-24.9-27.8-41.4
			c0,0,0,0-2,0C1198.7,871.5,1208.7,861.2,1220.6,854.9z"/>
		<path class="st20" d="M1232.5,906.8c0,0,33.7,4.1,39.7,0v-8.3c0,0,19.8,0,23.8-6.2l4-4.1c0,0-9.9,8.3-7.9,10.4s13.9,4.1,17.9-2.1
			c4-6.2,11.9-16.6,11.9-16.6s4,12.4,4,22.8s0,2.1,0,2.1s-45.7-12.4-81.4,24.9l-2,2.1c0,0-7.9-16.6-9.9-16.6V906.8z"/>
		<path class="st21" d="M1220.6,842.5c0,0-29.8,20.7-43.7-22.8c-2-6.2-6-16.6,0-16.6c0,0,4-2.1-2-10.4c-6-8.3-4-41.4,11.9-47.7
			c6-2.1,37.7-14.5,49.6-2.1c0,0,0,8.3-23.8,6.2c-6,2.1-9.9,6.2-7.9,12.4c2,2.1,4,2.1,4,2.1s-2,26.9,0,33.2c0,0-19.8-6.2-17.9,2.1
			s7.9,16.6,15.9,20.7c4,0,6,0,6,0S1218.6,840.4,1220.6,842.5z"/>
		<path class="st21" d="M1236.4,770v2.1h-13.9l-6,4.1c0,0-2,0,0-2.1c2-2.1,6-4.1,6-4.1H1236.4z"/>
		<path class="st21" d="M1246.4,770l6-8.3h2c0,0,2-2.1,0-2.1s-4,0-4,0l-6,10.4C1244.4,770,1242.4,772,1246.4,770z"/>
		<path class="st22" d="M1246.4,774.1c4,8.3,9.9,12.4,9.9,14.5s-4,4.1-7.9,6.2"/>
		<path class="st23" d="M1059.3,774.1c-1.6-6.6-2.5-13.5-2.5-20.7c0-46.4,36-83.9,80.4-83.9c11.1,0,21.7,2.3,31.3,6.6"/>
		<path class="st24" d="M1303.9,743c0,0,27.8-14.5,29.8-16.6c0,0,13.9,24.9,17.9,24.9l-27.8,12.4h-2
			C1321.8,763.8,1309.9,745.1,1303.9,743z"/>
		<path class="st25" d="M1333.7,724.4c0,0,17.9,29,21.8,29c0,0,19.8-14.5,23.8-14.5l2,2.1v47.7c0,0,91.3-126.4,93.3-126.4
			c0,0-11.9-8.3-13.9-8.3c0,0-13.9,39.4-55.6,12.4l-11.9,6.2C1393.2,672.6,1341.6,722.3,1333.7,724.4z"/>
		<path class="st26" d="M1405.2,664.3c0,0,31.4,28.7,55.2-7.7c0.1-0.2,0.3-0.4,0.4-0.6c23.8-37.3,0,0,0,0s2-10.4-7.9,0
			c-9.9,10.4-11.9,10.4-23.8,10.4c-11.9,0-17.9-4.1-17.9-4.1S1405.2,660.1,1405.2,664.3z"/>
		<path class="st27" d="M1341.6,738.9c0,0,11.9,16.6,15.9,14.5c4-2.1,21.8-16.6,21.8-16.6l-2-35.2c0,0-2,14.5-2,20.7
			c0,0-19.8,4.1-23.8-4.1l-7.9,2.1c0,0-4,4.1,6,4.1c9.9,0,23.8,10.4,21.8,12.4C1369.4,738.9,1341.6,738.9,1341.6,738.9z"/>
		<path class="st27" d="M1405.2,668.4c0,0,4,26.9,2,29c-2,2.1,39.7-22.8,43.7-24.9C1450.8,672.6,1413.1,674.6,1405.2,668.4z"/>
		<path class="st28" d="M1452.8,649.8c0,0-21.8-33.2-21.8-37.3s2-12.4,0-18.7c-2-6.2-2-6.2-2-6.2s-7.9-10.4-11.9,2.1
			c-4,0-15.9-2.1-21.8-12.4s-21.8-14.5-27.8-10.4s-11.9,8.3-13.9,10.4s0,10.4,0,10.4s4,6.2,4,8.3s9.9,6.2,9.9,6.2l2,10.4
			c0,0,0,6.2,2,8.3c2,2.1,2,10.4,4,10.4s4,6.2,7.9,6.2c0,0,2,2.1,4,4.1c2,2.1,21.8,8.3,21.8,8.3l4,12.4
			C1413.1,662.2,1444.9,680.9,1452.8,649.8z"/>
		<path class="st29" d="M1434.9,616.6c0,0,9.9-35.2,4-51.8s-27.8-33.2-29.8-33.2c-2,0-49.6-10.4-57.6,45.6c0,0,4-2.1,11.9-8.3
			s17.9-6.2,21.8,0c4,6.2,15.9,16.6,17.9,18.7s9.9,2.1,9.9,2.1s6,22.8,4,24.9s-9.9,14.5-11.9,14.5s-19.8-6.2-25.8,4.1
			c0,0-2,4.1,0,4.1c2,0,2-4.1,6-4.1c4,0,9.9,0,9.9,0s4,10.4,2,10.4s-9.9,0-9.9,0s-4,8.3,4,8.3s19.8-2.1,23.8-8.3
			c4-6.2,9.9-14.5,9.9-20.7c0-6.2-2-10.4-4-10.4c0,0-4-18.7-2-24.9s9.9-8.3,11.9,2.1c2,10.4,2,20.7,2,20.7h-4l2,2.1c0,0-2,0,0,0
			c2,0,2,2.1,2,2.1L1434.9,616.6z"/>
		<path class="st29" d="M1373.4,595.9c0,0,9.9-6.2,11.9-6.2c2,0,9.9,0,9.9,0l-2,2.1h-7.9l-9.9,6.2L1373.4,595.9z"/>
		<path class="st30" d="M1373.4,606.3c0,0,2,16.6,0,18.7c-2,2.1,7.9,0,11.9-4.1"/>
		<polygon class="st29" points="1366.5,601.1 1358.5,601.1 1358.5,603.2 1356.5,601.1 1356.5,596.9 1366.5,599 		"/>
		<path class="st31" d="M1766.4,1062.2c0,0,138.9-89.1,119.1-250.8c0,0-148.9,26.9-178.6,74.6L1689,995.9l4,66.3H1766.4z"/>
		<path class="st32" d="M1693,1035.2c0,0,25.8-10.4,37.7-8.3c0,0-25.8,8.3-33.7,0s-11.9-8.3-4-16.6s39.7-43.5,85.3-35.2
			c0,0-27.8-12.4-67.5,10.4c0,0,7.9-29,43.7-41.4s69.5-14.5,69.5-14.5s21.8-18.7-71.5,10.4c-93.3,29-2,2.1-2,2.1l41.7-45.6
			c0,0,47.6-12.4,59.5-12.4c0,0-41.7,0-53.6,4.1l53.6-49.7l-131,105.7l-31.8,49.7L1693,1035.2z"/>
		<path class="st32" d="M1693,1060.1v-37c0,0,133,10.1,178.6-91.5s2,0,2,0s-31.8,74.6-63.5,97.4c-31.8,22.8-39.7,31.1-39.7,31.1
			H1693z"/>
		<path class="st33" d="M1567.9,672.6c0,0,6,56,4,64.2C1571.9,736.8,1577.8,689.2,1567.9,672.6z"/>
		<path class="st33" d="M1577.8,751.3c0,0-51.6-124.3-49.6-130.6l-2-16.6c0,0-6,0-6,10.4c0,10.4,57.6,169.9,57.6,169.9V751.3z"/>
		<path class="st34" d="M1355.5,1060.1c0,0-6-118.1,0-134.7c6-16.6,27.8-120.2,27.8-134.7s11.9-85,27.8-95.3s65.5-35.2,67.5-41.4
			c2-6.2,29.8-24.9,29.8-29s9.9-18.7,11.9-18.7c0,0-1,9.6,1.5,15.2c2.5,5.6,56.1,161.3,56.1,161.3l9.9-122.6h2c0,0,6-43.5-7.9-47.7
			c0,0,2-4.1,6,0c4,4.1,11.9,16.6,11.9,18.7s49.6,37.3,55.6,41.4c6,4.1,41.7,20.7,41.7,20.7s29.8,62.2,29.8,64.2
			s53.6,118.1,53.6,118.1s6,24.9-4,26.9c-9.9,2.1-67.5,56-67.5,56s-17.9,0-15.9,0c2,0-4,0-4,0l2,103.6h-244.1c0,0,31.8-80.8,31.8-87
			s-6-16.6-6-29s6-14.5,7.9-22.8c2-8.3-31.8-89.1-31.8-89.1l-15.9,49.7c0,0-13.9,62.2-7.9,82.9c0,29,4,82.9,6,95.3L1355.5,1060.1z"
			/>
		<path class="st35" d="M1528.2,604.2c0,0-7.9,24.9,27.8,35.2h4v18.7c0,0,6,18.7,9.9,0v-18.7c0,0,13.9-2.1,11.9-26.9
			c0,0,9.9,6.2,9.9,18.7c0,12.4-2,29-2,29l-4,18.7c0,0-4,91.2-7.9,107.8c0,0-45.7-126.4-49.6-147.1
			C1528.2,639.4,1510.4,608.3,1528.2,604.2z"/>
		<path class="st36" d="M1415.1,1066.3c0,0-45.7-62.2-17.9-70.5c7.9,0,23.8,6.2,23.8,6.2v-22.8c0,0-51.6-26.9-69.5-10.4l4,97.4
			H1415.1z"/>
		<path class="st37" d="M1431,888.1c0,0-7.9-70.5-9.9-82.9c-2-12.4,4,26.9,13.9,29c9.9,2.1,11.9,2.1,11.9,2.1S1429,881.9,1431,888.1
			z"/>
		<path class="st38" d="M1458.7,784.5c0,0,29.8,45.6,31.8,47.7s2,33.2,2,45.6s33.7,47.7,39.7,49.7c0,0-2,2.1,0,12.4s6,14.5,9.9,18.7
			c4,4.1,23.8,18.7,25.8,20.7s0,0,6-2.1s11.9-8.3,9.9,2.1c-2,10.4,7.9,14.5,11.9,12.4s15.9-2.1,15.9-2.1l7.9-2.1v76.7h-172.7
			c0,0,31.8-80.8,31.8-91.2s-7.9-35.2-4-41.4c4-6.2,15.9-8.3-4-47.7c-19.8-39.4-23.8-49.7-23.8-49.7L1458.7,784.5z"/>
		<path class="st39" d="M1468.7,1062.2c0,0,29.8-53.9,31.8-58c2-4.1,35.7,49.7,85.3,47.7c0,0-69.5-33.2-109.2-99.5
			c-39.7-66.3,0,2.1,0,2.1s2,49.7-15.9,76.7l-13.9,31.1H1468.7z"/>
		<path class="st40" d="M1621.5,1010.4c0,0-37.7,22.8-79.4-4.1c0,0,61.5,49.7,79.4,43.5V1010.4z"/>
		<path class="st40" d="M1498.4,933.7c0,0,23.8,37.3,25.8,41.4s35.7,8.3,49.6,14.5c0,0-41.7-16.6-43.7-16.6
			C1528.2,973.1,1498.4,933.7,1498.4,933.7z"/>
		<path class="st40" d="M1603.6,1043.5c0,0,4-29-4-41.4l-7.9-140.9l11.9,132.6C1603.6,993.8,1613.6,1029,1603.6,1043.5z"/>
		<ellipse class="st40" cx="1578.8" cy="869.5" rx="6.9" ry="8.3"/>
		<linearGradient id="SVGID_5_" gradientUnits="userSpaceOnUse" x1="1490.5024" y1="870.1191" x2="1559.9714" y2="870.1191">
			<stop  offset="6.926126e-08" style="stop-color:#C4E0EF"/>
			<stop  offset="0.4093" style="stop-color:#C7E2F0"/>
			<stop  offset="0.6784" style="stop-color:#CFE8F3"/>
			<stop  offset="0.9065" style="stop-color:#DEF1F8"/>
			<stop  offset="1" style="stop-color:#E7F7FB"/>
		</linearGradient>
		<path class="st41" d="M1490.5,828h69.5v61.1c0,4.6-2.2,8.8-5.9,11.3l-10.7,7.2c-7.1,4.8-15.9,6-23.9,3.3l-14-4.6
			c-6.7-2.2-11.3-8.5-11.7-15.7L1490.5,828z"/>
		<path class="st42" d="M1472.6,900.5c0,0,41.7-39.4,31.8-122.3c0,0,2-18.7,6,0c4,18.7,6,78.8-9.9,99.5c-15.9,20.7-27.8,29-27.8,29
			S1468.7,904.7,1472.6,900.5z"/>
		<path class="st42" d="M1450.8,784.5c0,0,27.8,120.2,69.5,122.3c0,0,7.9-4.1,0-10.4s-47.6-26.9-59.5-114
			C1460.7,782.4,1452.8,776.2,1450.8,784.5z"/>
		<ellipse class="st43" cx="1468.7" cy="904.7" rx="9.9" ry="8.3"/>
		<ellipse class="st43" cx="1534.2" cy="902.6" rx="9.9" ry="8.3"/>
		<path class="st44" d="M1498.4,774.1c0,0-4-74.6-25.8-60.1c-4,2.1-21.8,0-7.9,66.3c0,0-13.9,16.6-13.9-2.1
			c-2-33.2-6-70.5,19.8-78.8c25.8-8.3,39.7,16.6,41.7,70.5C1512.3,770,1510.4,780.3,1498.4,774.1z"/>
		<path class="st45" d="M1506.4,627c0,0-23.8,10.4-29.8,41.4s-2,31.1-2,31.1s4,4.1,7.9-18.7s15.9-39.4,23.8-43.5V627"/>
		<polygon class="st46" points="1619.5,823.9 1653.3,792.8 1657.2,790.7 1657.2,819.7 1702.9,778.3 1700.9,753.4 1691,753.4 
			1714.8,730.6 1722.7,730.6 1722.7,848.7 1627.5,919.2 1621.5,917.1 		"/>
		<path class="st47" d="M1627.5,919.2v-88c0-2,0.8-3.9,2.1-5.4l24.5-25.6c1.2-1.2,3.1-0.4,3.1,1.4v9.9l43.7-37.3v-20.7l21.8-22.8
			l4,126.4l-55.6,37.3l-27.8,20.7L1627.5,919.2z"/>
		<polygon class="st46" points="1621.5,981.4 1621.5,1056 1629.4,1053.9 1631.4,1051.8 1631.4,983.4 		"/>
		<path class="st47" d="M1726.7,960.6l-95.3,92.3v-69.6l61.5-24.9c0,0,15.9,4.1,19.8-2.1c4-6.2,13.9-12.4,13.9-12.4V960.6z"/>
		<path class="st48" d="M1601.7,641.5c0,0,25.8,4.1,39.7,64.2c0,0,7.9,4.1,7.9-4.1s-23.8-76.7-51.6-70.5
			C1597.7,631.1,1599.7,639.4,1601.7,641.5z"/>
		<ellipse class="st49" cx="1652.3" cy="723.3" rx="22.8" ry="23.8"/>
		<path class="st50" d="M1675.1,902.6c0,0,33.7-4.1,33.7,20.7c0,24.9-11.9,29-11.9,29l-7.9,8.3l-25.8,24.9c0,0-27.8,2.1-29.8,0
			c-2-2.1-17.9-6.2-13.9-14.5c0,0-6-10.4,0-14.5c0,0-9.9-14.5,0-16.6c0,0-11.2-19.4,0.7-20.7c0.4,0,0.8-0.1,1.2-0.1
			c13.9,0,23.8-4.1,25.8-6.2c0,0-7.9-4.1-13.9-4.1c-6,0-2-8.3,6-10.4s13.9-6.2,15.9-6.2c2,0,2,0,2,0S1665.2,888.1,1675.1,902.6z"/>
		<path class="st51" d="M1621.5,973.1h17.9c0,0,4-2.1,0-2.1c-4,0-17.9-2.1-19.8-6.2l-2-6.2C1617.5,958.6,1613.6,966.9,1621.5,973.1z
			"/>
		<path class="st51" d="M1619.5,956.5h23.8c0,0,4-4.1,0-4.1c-4,0-23.8,0-23.8,0v-6.2C1619.5,946.1,1613.6,950.3,1619.5,956.5z"/>
		<path class="st51" d="M1619.5,935.8h25.8v-2.1h-23.8c0,0-2-6.2,0-8.3C1623.5,923.3,1615.5,925.4,1619.5,935.8z"/>
		<path class="st51" d="M1633.4,906.8c0,0,25.8,2.1,29.8,0c4-2.1-17.9,6.2-17.9,6.2S1635.4,906.8,1633.4,906.8"/>
		<path class="st52" d="M1655.2,925.4c0,0,2,20.7,2,33.2s0,16.6,0,16.6s-2-31.1-4-33.2s-6-4.1-2-8.3
			C1655.2,929.6,1655.2,925.4,1655.2,925.4z"/>
		<path class="st53" d="M1520.3,566.9c0,0,7.9,31.1,6,39.4c0,0,4,24.9,29.8,35.2l4,20.7c0,0,9.9,12.4,9.9,0s0-22.8,0-22.8
			s11.9,2.1,11.9-4.1s0-18.7,0-18.7s4-37.3,7.9-43.5C1589.7,573.1,1538.1,618.7,1520.3,566.9z"/>
		<path class="st54" d="M1540.1,591.8c0,0,7.9,31.1,9.9,35.2c2,4.1-17.9-4.1-17.9-4.1s-9.9-51.8-11.9-56
			C1518.3,562.7,1532.2,591.8,1540.1,591.8z"/>
		<path class="st55" d="M1629.4,525.4h9.9c0,0,17.9-22.8,19.8-33.2s4-33.2-7.9-24.9s-13.9,29-13.9,29h-4v-29c0,0-9.9-22.8-15.9-26.9
			c0,0,11.9-16.6,0-20.7c0,0-31.8-31.1-29.8-39.4c0,0-4-6.2-9.9,6.2c-6,12.4-33.7,41.4-35.7,41.4c0,0,19.8-24.9,21.8-33.2
			c0,0-7.9,2.1-11.9,6.2c-4,4.1-41.7,29-47.6,29c0,0,9.9-4.1,11.9-8.3c0,0-21.8-6.2-23.8,8.3c-2,14.5,0,2.1,0,2.1v6.2
			c0,0-11.9,12.4-11.9,14.5s0,35.2,0,35.2l-4-2.1c0,0,2-20.7-7.9-16.6s-13.9,16.6-9.9,22.8c4,6.2,17.9,31.1,17.9,31.1l9.9,2.1
			c0,0,25.8,35.2,29.8,39.4c4,4.1,15.9,22.8,21.8,24.9s29.8,10.4,51.6-16.6s37.7-47.7,37.7-47.7H1629.4z"/>
		<path class="st55" d="M1492.5,426"/>
		<path class="st56" d="M1583.8,382.4c0,0,21.8,43.5,37.7,45.6c0,0-2,14.5-7.9,18.7c0,0,19.8,10.4,19.8,35.2v18.7h2
			c0,0,4-22.8,13.9-31.1c9.9-8.3,15.9-16.6,7.9-53.9s-35.7-56-41.7-53.9c-6,2.1-21.8-53.9-65.5-45.6c-43.7,8.3-103.2,58-101.2,111.9
			c0,0,2,18.7,9.9,22.8c0,0-43.7,26.9-29.8,66.3c0,0-4-49.7,23.8-49.7c0,0-27.8,20.7-2,51.8c0,0-17.9,31.1,0,51.8
			c17.9,20.7,29.8,22.8,29.8,22.8s-17.9-8.3-19.8-18.7c0,0,25.8,16.6,41.7-16.6c0,0-6,24.9-11.9,29c0,0,11.3-11.8,13.7-25.9
			c0.1-0.3,6.1-2.8,6.1-3.1c0.1-1.1-1.7-3.4-2-4.1c-2-6.2-4-4.1-4-4.1s-11.9-20.7-17.9-24.9c-6-4.1-21.8-14.5-23.8-26.9
			c-2-12.4,2-26.9,7.9-22.8c6,4.1,7.9,20.7,7.9,20.7h2V457c0,0,11.9-6.2,11.9-12.4s0-12.4,0-12.4s25.8-14.5,23.8-6.2s0,2.1,0,2.1
			s-15.9,8.3-17.9,8.3c-2,0,15.9,2.1,37.7-18.7c21.8-20.7,23.8-18.7,21.8-12.4c-2,6.2-23.8,33.2-25.8,33.2s17.9-6.2,25.8-18.7
			S1581.8,382.4,1583.8,382.4z"/>
		<path class="st54" d="M1472.6,479.8c0,0-17.9,14.5,7.9,37.3l4,4.1l-2-14.5L1472.6,479.8z"/>
		<path class="st54" d="M1480.6,494.4c0,0,4-24.9,17.9-31.1l6-31.1l-11.9,6.2l-11.9,12.4C1480.6,450.8,1474.6,477.8,1480.6,494.4z"
			/>
		<path class="st54" d="M1637.4,513c0,0,7.9-6.2,7.9-12.4s0-16.6,4-16.6c4,0,0-12.4-2-8.3c-2,4.1-6,4.1-6,10.4s0,10.4,0,14.5
			S1637.4,513,1637.4,513z"/>
		<path class="st54" d="M1567.9,510.9c0,0-4-18.7-2-22.8s15.9-20.7,23.8-20.7s-21.8-6.2-25.8,14.5
			C1560,502.6,1567.9,510.9,1567.9,510.9z"/>
		<path class="st57" d="M1538.1,484c0,0-27.8,18.7-41.7-6.2l-1.2-2.5l5.2-3.7l11.9-2.1l13.9,2.1l11.3,8
			C1537.6,479.5,1540.1,481.9,1538.1,484z"/>
		<path class="st58" d="M1490.5,461.2c0,0,43.7,2.1,49.6,6.2C1540.1,467.4,1522.3,442.5,1490.5,461.2z"/>
		<path class="st58" d="M1571.9,469.5c0,0,27.8-10.4,45.7-10.4C1617.5,459.1,1577.8,448.8,1571.9,469.5z"/>
		<path class="st58" d="M1538.1,479.8c0,0-25.8-14.5-43.7-4.1C1494.5,475.7,1512.3,455,1538.1,479.8z"/>
		<path class="st57" d="M1574.6,486.1c0,0,27.8,18.7,41.7-6.2l1.2-2.5l-5.2-3.7l-11.9-2.1l-13.9,2.1l-11.3,8
			C1575.2,481.6,1572.6,484,1574.6,486.1z"/>
		<path class="st58" d="M1574.6,481.9c0,0,25.8-14.5,43.7-4.1C1618.3,477.8,1600.4,457,1574.6,481.9z"/>
		<ellipse class="st59" cx="1518.3" cy="481.9" rx="9.9" ry="10.4"/>
		<ellipse class="st59" cx="1594.5" cy="484" rx="9.9" ry="10.4"/>
		<path class="st60" d="M1530.2,550.3c0,0,43.7-2.1,51.6,0C1581.8,550.3,1560,564.8,1530.2,550.3z"/>
		<path class="st60" d="M1579.8,550.3h-49.6c0,0,15.9-4.1,23.8-2.1C1554,548.2,1573.9,546.2,1579.8,550.3z"/>
		<path class="st61" d="M1542.1,562.7c0,0,11.9,10.4,25.8,2.1C1567.9,564.8,1548.1,564.8,1542.1,562.7z"/>
		<path class="st62" d="M1542.1,521.3c0,0-7.9,10.4,2,10.4c9.9,0,6-4.1,9.9,0c4,4.1,6,0,7.9,0c2,0,2,2.1,6,0c4-2.1,6-4.1,6-6.2
			S1544.1,529.6,1542.1,521.3z"/>
		<g>
			<rect x="1611.7" y="768.9" class="st63" width="73.2" height="1"/>
			<path class="st63" d="M1650.5,758.6h-4.4v-3.2h-3.2v-3.3h-4.7l-1,2.7v2.9h-0.9v-2.3h-3.2v-1h3.3l1.2-3.3h7.2
				c0.3,0,0.5-0.1,0.6-0.1c0,0-0.1-0.1-0.1-0.1c-2.9-1-5.3-2.7-7-4.9c-1.6-2.1-2.4-4.5-2.5-7.1c-0.1-2.6,0.6-5.1,2-7.3
				c1.5-2.3,3.7-4.1,6.4-5.3c0.3-0.2,0.4-0.4,0.3-0.5c-0.1-0.2-0.4-0.2-0.9,0l0,0l-6.1,2.1l-4.5,4.5l-4.9,25.4l-0.9-0.2l5-25.7
				l4.8-4.9l6.3-2.2c1.1-0.4,1.8,0,2.1,0.5c0.2,0.5,0.1,1.3-0.7,1.8l-0.1,0c-2.5,1.1-4.6,2.8-6,4.9c-1.3,2-2,4.4-1.9,6.7
				c0.1,2.4,0.9,4.6,2.3,6.5c1.6,2.1,3.8,3.6,6.6,4.6l0,0l0,0c0.5,0.3,0.8,0.8,0.7,1.3c-0.1,0.5-0.7,0.8-1.6,0.8h-0.9v2.3h3.2v3.2
				h2.5v-3.3h3v-2.2h-1.5c-0.8,0-1.4-0.3-1.6-0.8c-0.1-0.5,0.1-0.9,0.7-1.3l0,0l0,0c2.8-0.9,5.1-2.5,6.7-4.6
				c1.4-1.9,2.2-4.1,2.3-6.5c0.1-2.4-0.6-4.7-1.9-6.7c-1.4-2.2-3.5-3.9-6.1-4.9l-0.1,0c-0.8-0.5-1-1.3-0.7-1.8c0.3-0.6,1-1,2.1-0.5
				l6.4,2.2l4.9,4.9l5,25.7l-0.9,0.2l-5-25.4l-4.5-4.5l-6.2-2.1c-0.5-0.2-0.8-0.1-0.9,0c-0.1,0.1,0,0.3,0.3,0.5c2.7,1.1,5,3,6.5,5.3
				c1.4,2.2,2.1,4.7,2.1,7.3c-0.1,2.6-1,5-2.5,7.1c-1.7,2.2-4.1,3.9-7.1,4.9c-0.1,0-0.1,0.1-0.1,0.1c0.1,0,0.3,0.1,0.6,0.1h7.3
				l1.2,3.3h3.3v1h-3.2v2.3h-0.9v-2.9l-1-2.7h-4.1v3.2h-3V758.6z"/>
			<path class="st63" d="M1647.8,727.7c-5.7,0-10.3,4.8-10.3,10.8c0,5.9,4.6,10.8,10.3,10.8c5.7,0,10.3-4.8,10.3-10.8
				C1658.2,732.5,1653.5,727.7,1647.8,727.7z M1647.8,748.3c-5.2,0-9.4-4.4-9.4-9.8s4.2-9.8,9.4-9.8c5.2,0,9.4,4.4,9.4,9.8
				S1653,748.3,1647.8,748.3z"/>
			<g>
				<path class="st63" d="M1683.9,772.7l-0.4-0.9l-0.4,0.9H1683.9z M1683.9,772.8h-0.9l-0.2,0.3c0,0.1-0.1,0.1-0.1,0.2
					c0,0,0,0.1,0,0.1c0,0,0.1,0,0.2,0.1v0.1h-0.7v-0.1c0.1,0,0.2,0,0.2-0.1c0.1-0.1,0.1-0.2,0.2-0.3l0.8-1.8h0.1l0.8,1.8
					c0.1,0.1,0.1,0.2,0.2,0.3c0.1,0,0.1,0.1,0.2,0.1v0.1h-0.9v-0.1c0.1,0,0.1,0,0.2,0c0,0,0-0.1,0-0.1c0,0,0-0.1-0.1-0.2
					L1683.9,772.8z M1682.3,773.5L1682.3,773.5l-1,0.1v-0.1h0.1c0.1,0,0.2,0,0.2-0.1c0,0,0-0.1,0-0.3v-1.4c0-0.1,0-0.2,0-0.2
					c0,0,0-0.1-0.1-0.1c0,0-0.1,0-0.2,0h-0.1v-0.1h1v0.1h-0.1c-0.1,0-0.2,0-0.2,0.1c0,0,0,0.1,0,0.2v1.4c0,0.1,0,0.2,0,0.2
					c0,0,0,0.1,0.1,0.1C1682.1,773.5,1682.2,773.5,1682.3,773.5L1682.3,773.5z M1681.1,773L1681.1,773l-0.1,0.6h-1.7v-0.1h0.1
					c0.1,0,0.2,0,0.2-0.1c0,0,0-0.1,0-0.2v-1.4c0-0.1,0-0.2,0-0.3c0,0-0.1-0.1-0.2-0.1h-0.1v-0.1h1v0.1c-0.1,0-0.2,0-0.3,0
					c0,0-0.1,0.1-0.1,0.1c0,0,0,0.1,0,0.2v1.4c0,0.1,0,0.2,0,0.2c0,0,0,0,0.1,0.1c0,0,0.1,0,0.3,0h0.2c0.2,0,0.3,0,0.4,0
					c0.1,0,0.1-0.1,0.2-0.1C1681,773.2,1681.1,773.1,1681.1,773z M1679.1,773.5L1679.1,773.5l-1,0.1v-0.1h0.1c0.1,0,0.2,0,0.2-0.1
					c0,0,0-0.1,0-0.3v-1.4c0-0.1,0-0.2,0-0.2c0,0,0-0.1-0.1-0.1c0,0-0.1,0-0.2,0h-0.1v-0.1h1v0.1h-0.1c-0.1,0-0.2,0-0.2,0.1
					c0,0,0,0.1,0,0.2v1.4c0,0.1,0,0.2,0,0.2c0,0,0,0.1,0.1,0.1C1678.9,773.5,1679,773.5,1679.1,773.5L1679.1,773.5z M1676.4,773.6
					l-0.9-1.9v1.5c0,0.1,0,0.2,0,0.3c0,0,0.1,0.1,0.2,0.1h0.1v0.1h-0.8v-0.1h0.1c0.1,0,0.2,0,0.2-0.1c0,0,0-0.1,0-0.2v-1.4
					c0-0.1,0-0.2,0-0.2c0,0,0-0.1-0.1-0.1c0,0-0.1,0-0.2,0v-0.1h0.6l0.8,1.7l0.8-1.7h0.6v0.1h-0.1c-0.1,0-0.2,0-0.2,0.1
					c0,0,0,0.1,0,0.2v1.4c0,0.1,0,0.2,0,0.3c0,0,0.1,0.1,0.2,0.1h0.1v0.1h-1v-0.1h0.1c0.1,0,0.2,0,0.2-0.1c0,0,0-0.1,0-0.2v-1.5
					L1676.4,773.6L1676.4,773.6z M1674.1,772.7l-0.4-0.9l-0.4,0.9H1674.1z M1674.1,772.8h-0.9l-0.2,0.3c0,0.1-0.1,0.1-0.1,0.2
					c0,0,0,0.1,0,0.1c0,0,0.1,0,0.2,0.1v0.1h-0.7v-0.1c0.1,0,0.2,0,0.2-0.1c0.1-0.1,0.1-0.2,0.2-0.3l0.8-1.8h0.1l0.8,1.8
					c0.1,0.1,0.1,0.2,0.2,0.3c0.1,0,0.1,0.1,0.2,0.1v0.1h-0.9v-0.1c0.1,0,0.1,0,0.2,0c0,0,0-0.1,0-0.1c0,0,0-0.1-0.1-0.2
					L1674.1,772.8z M1671.7,771.5v0.9h0.4c0.1,0,0.2,0,0.2-0.1c0,0,0.1-0.1,0.1-0.2h0.1v0.7h-0.1c0-0.1,0-0.1,0-0.2
					c0,0-0.1-0.1-0.1-0.1c0,0-0.1,0-0.2,0h-0.4v0.7c0,0.1,0,0.2,0,0.2c0,0,0,0.1,0.1,0.1c0,0,0.1,0,0.2,0h0.1v0.1h-1v-0.1h0.1
					c0.1,0,0.2,0,0.2-0.1c0,0,0-0.1,0-0.3v-1.4c0-0.1,0-0.2,0-0.2c0,0,0-0.1-0.1-0.1c0,0-0.1,0-0.2,0h-0.1v-0.1h1.7l0,0.5h-0.1
					c0-0.1-0.1-0.2-0.1-0.2c0,0-0.1-0.1-0.1-0.1c-0.1,0-0.1,0-0.3,0H1671.7z M1669.4,772.7l-0.4-0.9l-0.4,0.9H1669.4z M1669.4,772.8
					h-0.9l-0.2,0.3c0,0.1-0.1,0.1-0.1,0.2c0,0,0,0.1,0,0.1c0,0,0.1,0,0.2,0.1v0.1h-0.7v-0.1c0.1,0,0.2,0,0.2-0.1
					c0.1-0.1,0.1-0.2,0.2-0.3l0.8-1.8h0.1l0.8,1.8c0.1,0.1,0.1,0.2,0.2,0.3c0.1,0,0.1,0.1,0.2,0.1v0.1h-0.9v-0.1c0.1,0,0.1,0,0.2,0
					c0,0,0-0.1,0-0.1c0,0,0-0.1-0.1-0.2L1669.4,772.8z M1667.7,773L1667.7,773l-0.1,0.6h-1.7v-0.1h0.1c0.1,0,0.2,0,0.2-0.1
					c0,0,0-0.1,0-0.2v-1.4c0-0.1,0-0.2,0-0.3c0,0-0.1-0.1-0.2-0.1h-0.1v-0.1h1v0.1c-0.1,0-0.2,0-0.3,0c0,0-0.1,0.1-0.1,0.1
					c0,0,0,0.1,0,0.2v1.4c0,0.1,0,0.2,0,0.2c0,0,0,0,0.1,0.1c0,0,0.1,0,0.3,0h0.2c0.2,0,0.3,0,0.4,0c0.1,0,0.1-0.1,0.2-0.1
					C1667.6,773.2,1667.7,773.1,1667.7,773z M1664.2,772.7l-0.4-0.9l-0.4,0.9H1664.2z M1664.2,772.8h-0.9l-0.2,0.3
					c0,0.1-0.1,0.1-0.1,0.2c0,0,0,0.1,0,0.1c0,0,0.1,0,0.2,0.1v0.1h-0.7v-0.1c0.1,0,0.2,0,0.2-0.1c0.1-0.1,0.1-0.2,0.2-0.3l0.8-1.8
					h0.1l0.8,1.8c0.1,0.1,0.1,0.2,0.2,0.3c0.1,0,0.1,0.1,0.2,0.1v0.1h-0.9v-0.1c0.1,0,0.1,0,0.2,0c0,0,0-0.1,0-0.1
					c0,0,0-0.1-0.1-0.2L1664.2,772.8z M1661.1,772.4C1661.2,772.4,1661.2,772.4,1661.1,772.4
					C1661.2,772.4,1661.2,772.4,1661.1,772.4c0.3,0,0.5,0,0.6-0.1c0.1-0.1,0.2-0.2,0.2-0.3c0-0.1,0-0.2-0.1-0.3
					c-0.1-0.1-0.2-0.1-0.3-0.1c-0.1,0-0.2,0-0.3,0V772.4z M1662.7,773.6h-0.6l-0.8-1c-0.1,0-0.1,0-0.1,0c0,0,0,0,0,0c0,0,0,0-0.1,0
					v0.6c0,0.1,0,0.2,0,0.3c0,0,0.1,0.1,0.2,0.1h0.1v0.1h-1v-0.1h0.1c0.1,0,0.2,0,0.2-0.1c0,0,0-0.1,0-0.2v-1.4c0-0.1,0-0.2,0-0.3
					c0,0-0.1-0.1-0.2-0.1h-0.1v-0.1h0.8c0.2,0,0.4,0,0.5,0.1c0.1,0,0.2,0.1,0.3,0.2c0.1,0.1,0.1,0.2,0.1,0.3c0,0.1,0,0.3-0.1,0.4
					c-0.1,0.1-0.2,0.2-0.4,0.2l0.5,0.6c0.1,0.1,0.2,0.2,0.3,0.3C1662.5,773.5,1662.6,773.5,1662.7,773.6L1662.7,773.6z
					 M1659.5,772.7l-0.4-0.9l-0.4,0.9H1659.5z M1659.5,772.8h-0.9l-0.2,0.3c0,0.1-0.1,0.1-0.1,0.2c0,0,0,0.1,0,0.1
					c0,0,0.1,0,0.2,0.1v0.1h-0.7v-0.1c0.1,0,0.2,0,0.2-0.1c0.1-0.1,0.1-0.2,0.2-0.3l0.8-1.8h0.1l0.8,1.8c0.1,0.1,0.1,0.2,0.2,0.3
					c0.1,0,0.1,0.1,0.2,0.1v0.1h-0.9v-0.1c0.1,0,0.1,0,0.2,0c0,0,0-0.1,0-0.1c0,0,0-0.1-0.1-0.2L1659.5,772.8z M1657.1,772.5
					c0.1,0,0.1,0,0.2,0c0,0,0.1,0,0.1,0c0.1,0,0.2,0,0.3-0.1c0.1-0.1,0.1-0.2,0.1-0.3c0-0.1,0-0.2-0.1-0.3c0-0.1-0.1-0.1-0.2-0.2
					c-0.1,0-0.2-0.1-0.2-0.1c-0.1,0-0.1,0-0.2,0V772.5z M1657.1,772.5v0.6c0,0.1,0,0.2,0,0.3c0,0,0.1,0.1,0.2,0.1h0.1v0.1h-1v-0.1
					h0.1c0.1,0,0.2,0,0.2-0.1c0,0,0-0.1,0-0.2v-1.4c0-0.1,0-0.2,0-0.3c0,0-0.1-0.1-0.2-0.1h-0.1v-0.1h0.8c0.2,0,0.4,0,0.5,0.1
					c0.1,0,0.2,0.1,0.3,0.2c0.1,0.1,0.1,0.2,0.1,0.3c0,0.2-0.1,0.3-0.2,0.4c-0.1,0.1-0.3,0.2-0.5,0.2c-0.1,0-0.1,0-0.2,0
					C1657.3,772.6,1657.2,772.6,1657.1,772.5z M1654.8,772.7l-0.4-0.9l-0.4,0.9H1654.8z M1654.9,772.8h-0.9l-0.2,0.3
					c0,0.1-0.1,0.1-0.1,0.2c0,0,0,0.1,0,0.1c0,0,0.1,0,0.2,0.1v0.1h-0.7v-0.1c0.1,0,0.2,0,0.2-0.1c0.1-0.1,0.1-0.2,0.2-0.3l0.8-1.8
					h0.1l0.8,1.8c0.1,0.1,0.1,0.2,0.2,0.3c0.1,0,0.1,0.1,0.2,0.1v0.1h-0.9v-0.1c0.1,0,0.1,0,0.2,0c0,0,0-0.1,0-0.1
					c0,0,0-0.1-0.1-0.2L1654.9,772.8z M1650.8,771.4h0.6l1.4,1.7v-1.3c0-0.1,0-0.2,0-0.3c0,0-0.1-0.1-0.2-0.1h-0.1v-0.1h0.8v0.1
					h-0.1c-0.1,0-0.2,0-0.2,0.1c0,0,0,0.1,0,0.2v1.9h-0.1l-1.5-1.8v1.4c0,0.1,0,0.2,0,0.3c0,0,0.1,0.1,0.2,0.1h0.1v0.1h-0.8v-0.1
					h0.1c0.1,0,0.2,0,0.2-0.1c0,0,0-0.1,0-0.2v-1.5c-0.1-0.1-0.1-0.1-0.1-0.1c0,0-0.1,0-0.1-0.1
					C1650.9,771.4,1650.9,771.4,1650.8,771.4L1650.8,771.4z M1650.8,773.5L1650.8,773.5l-1,0.1v-0.1h0.1c0.1,0,0.2,0,0.2-0.1
					c0,0,0-0.1,0-0.3v-1.4c0-0.1,0-0.2,0-0.2c0,0,0-0.1-0.1-0.1c0,0-0.1,0-0.2,0h-0.1v-0.1h1v0.1h-0.1c-0.1,0-0.2,0-0.2,0.1
					c0,0,0,0.1,0,0.2v1.4c0,0.1,0,0.2,0,0.2c0,0,0,0.1,0.1,0.1C1650.6,773.5,1650.7,773.5,1650.8,773.5L1650.8,773.5z M1649.5,771.3
					l0.1,0.7h-0.1c-0.1-0.2-0.2-0.4-0.3-0.5c-0.1-0.1-0.3-0.1-0.5-0.1c-0.1,0-0.3,0-0.4,0.1c-0.1,0.1-0.2,0.2-0.3,0.4
					c-0.1,0.2-0.1,0.4-0.1,0.6c0,0.2,0,0.4,0.1,0.5c0.1,0.1,0.2,0.3,0.3,0.3c0.1,0.1,0.3,0.1,0.4,0.1c0.1,0,0.3,0,0.4-0.1
					c0.1-0.1,0.2-0.2,0.4-0.4l0.1,0c-0.1,0.2-0.2,0.3-0.4,0.4c-0.2,0.1-0.3,0.1-0.5,0.1c-0.4,0-0.7-0.1-0.9-0.4
					c-0.2-0.2-0.2-0.4-0.2-0.7c0-0.2,0.1-0.4,0.1-0.6c0.1-0.2,0.2-0.3,0.4-0.4c0.2-0.1,0.4-0.2,0.6-0.2c0.2,0,0.3,0,0.5,0.1
					c0,0,0.1,0,0.1,0c0,0,0.1,0,0.1,0C1649.4,771.4,1649.5,771.4,1649.5,771.3L1649.5,771.3z M1647.4,773.5L1647.4,773.5l-1,0.1
					v-0.1h0.1c0.1,0,0.2,0,0.2-0.1c0,0,0-0.1,0-0.3v-1.4c0-0.1,0-0.2,0-0.2c0,0,0-0.1-0.1-0.1c0,0-0.1,0-0.2,0h-0.1v-0.1h1v0.1h-0.1
					c-0.1,0-0.2,0-0.2,0.1c0,0,0,0.1,0,0.2v1.4c0,0.1,0,0.2,0,0.2c0,0,0,0.1,0.1,0.1C1647.2,773.5,1647.3,773.5,1647.4,773.5
					L1647.4,773.5z M1644.6,773.4c0.1,0,0.3,0,0.4,0c0.3,0,0.5-0.1,0.6-0.3c0.2-0.2,0.3-0.4,0.3-0.7c0-0.3-0.1-0.5-0.3-0.7
					c-0.2-0.2-0.4-0.3-0.6-0.3c-0.1,0-0.2,0-0.3,0V773.4z M1644,773.6L1644,773.6L1644,773.6c0.2-0.1,0.2-0.1,0.3-0.1
					c0,0,0-0.1,0-0.2v-1.4c0-0.1,0-0.2,0-0.3c0,0-0.1-0.1-0.2-0.1h-0.1v-0.1h0.9c0.3,0,0.6,0,0.8,0.1c0.2,0.1,0.3,0.2,0.4,0.4
					c0.1,0.2,0.2,0.4,0.2,0.6c0,0.3-0.1,0.6-0.3,0.8c-0.2,0.2-0.5,0.3-1,0.3H1644z M1642.6,771.5v0.9h0.5c0.1,0,0.2,0,0.3-0.1
					c0.1,0,0.1-0.1,0.1-0.3h0.1v0.8h-0.1c0-0.1,0-0.2,0-0.2c0,0-0.1-0.1-0.1-0.1c0,0-0.1,0-0.2,0h-0.5v0.7c0,0.1,0,0.2,0,0.2
					c0,0,0,0,0,0.1c0,0,0.1,0,0.1,0h0.4c0.1,0,0.2,0,0.3,0c0.1,0,0.1-0.1,0.2-0.1c0.1-0.1,0.1-0.2,0.2-0.3h0.1l-0.2,0.6h-1.7v-0.1
					h0.1c0.1,0,0.1,0,0.2,0c0,0,0.1,0,0.1-0.1c0,0,0-0.1,0-0.2v-1.4c0-0.1,0-0.2,0-0.3c0,0-0.1-0.1-0.2-0.1h-0.1v-0.1h1.7l0,0.5
					h-0.1c0-0.1,0-0.2-0.1-0.2c0,0-0.1-0.1-0.1-0.1c0,0-0.1,0-0.2,0H1642.6z M1640.2,773.6l-0.9-1.9v1.5c0,0.1,0,0.2,0,0.3
					c0,0,0.1,0.1,0.2,0.1h0.1v0.1h-0.8v-0.1h0.1c0.1,0,0.2,0,0.2-0.1c0,0,0-0.1,0-0.2v-1.4c0-0.1,0-0.2,0-0.2c0,0,0-0.1-0.1-0.1
					c0,0-0.1,0-0.2,0v-0.1h0.6l0.8,1.7l0.8-1.7h0.6v0.1h-0.1c-0.1,0-0.2,0-0.2,0.1c0,0,0,0.1,0,0.2v1.4c0,0.1,0,0.2,0,0.3
					c0,0,0.1,0.1,0.2,0.1h0.1v0.1h-1v-0.1h0.1c0.1,0,0.2,0,0.2-0.1c0,0,0-0.1,0-0.2v-1.5L1640.2,773.6L1640.2,773.6z M1635.5,771.4
					h0.6l1.4,1.7v-1.3c0-0.1,0-0.2,0-0.3c0,0-0.1-0.1-0.2-0.1h-0.1v-0.1h0.8v0.1h-0.1c-0.1,0-0.2,0-0.2,0.1c0,0,0,0.1,0,0.2v1.9
					h-0.1l-1.5-1.8v1.4c0,0.1,0,0.2,0,0.3c0,0,0.1,0.1,0.2,0.1h0.1v0.1h-0.8v-0.1h0.1c0.1,0,0.2,0,0.2-0.1c0,0,0-0.1,0-0.2v-1.5
					c-0.1-0.1-0.1-0.1-0.1-0.1c0,0-0.1,0-0.1-0.1C1635.6,771.4,1635.6,771.4,1635.5,771.4L1635.5,771.4z M1634.2,771.5v0.9h0.5
					c0.1,0,0.2,0,0.3-0.1c0.1,0,0.1-0.1,0.1-0.3h0.1v0.8h-0.1c0-0.1,0-0.2,0-0.2c0,0-0.1-0.1-0.1-0.1c0,0-0.1,0-0.2,0h-0.5v0.7
					c0,0.1,0,0.2,0,0.2c0,0,0,0,0,0.1c0,0,0.1,0,0.1,0h0.4c0.1,0,0.2,0,0.3,0c0.1,0,0.1-0.1,0.2-0.1c0.1-0.1,0.1-0.2,0.2-0.3h0.1
					l-0.2,0.6h-1.7v-0.1h0.1c0.1,0,0.1,0,0.2,0c0,0,0.1,0,0.1-0.1c0,0,0-0.1,0-0.2v-1.4c0-0.1,0-0.2,0-0.3c0,0-0.1-0.1-0.2-0.1h-0.1
					v-0.1h1.7l0,0.5h-0.1c0-0.1,0-0.2-0.1-0.2c0,0-0.1-0.1-0.1-0.1c0,0-0.1,0-0.2,0H1634.2z M1631.9,772.7l-0.4-0.9l-0.4,0.9H1631.9
					z M1631.9,772.8h-0.9l-0.2,0.3c0,0.1-0.1,0.1-0.1,0.2c0,0,0,0.1,0,0.1c0,0,0.1,0,0.2,0.1v0.1h-0.7v-0.1c0.1,0,0.2,0,0.2-0.1
					c0.1-0.1,0.1-0.2,0.2-0.3l0.8-1.8h0.1l0.8,1.8c0.1,0.1,0.1,0.2,0.2,0.3c0.1,0,0.1,0.1,0.2,0.1v0.1h-0.9v-0.1c0.1,0,0.1,0,0.2,0
					c0,0,0-0.1,0-0.1c0,0,0-0.1-0.1-0.2L1631.9,772.8z M1630.3,773.5L1630.3,773.5l-1,0.1v-0.1h0.1c0.1,0,0.2,0,0.2-0.1
					c0,0,0-0.1,0-0.3v-1.4c0-0.1,0-0.2,0-0.2c0,0,0-0.1-0.1-0.1c0,0-0.1,0-0.2,0h-0.1v-0.1h1v0.1h-0.1c-0.1,0-0.2,0-0.2,0.1
					c0,0,0,0.1,0,0.2v1.4c0,0.1,0,0.2,0,0.2c0,0,0,0.1,0.1,0.1C1630.1,773.5,1630.2,773.5,1630.3,773.5L1630.3,773.5z M1629,771.3
					l0.1,0.7h-0.1c-0.1-0.2-0.2-0.4-0.3-0.5c-0.1-0.1-0.3-0.1-0.5-0.1c-0.1,0-0.3,0-0.4,0.1c-0.1,0.1-0.2,0.2-0.3,0.4
					c-0.1,0.2-0.1,0.4-0.1,0.6c0,0.2,0,0.4,0.1,0.5c0.1,0.1,0.2,0.3,0.3,0.3c0.1,0.1,0.3,0.1,0.4,0.1c0.1,0,0.3,0,0.4-0.1
					c0.1-0.1,0.2-0.2,0.4-0.4l0.1,0c-0.1,0.2-0.2,0.3-0.4,0.4c-0.2,0.1-0.3,0.1-0.5,0.1c-0.4,0-0.7-0.1-0.9-0.4
					c-0.2-0.2-0.2-0.4-0.2-0.7c0-0.2,0.1-0.4,0.1-0.6c0.1-0.2,0.2-0.3,0.4-0.4c0.2-0.1,0.4-0.2,0.6-0.2c0.2,0,0.3,0,0.5,0.1
					c0,0,0.1,0,0.1,0c0,0,0.1,0,0.1,0C1628.9,771.4,1629,771.4,1629,771.3L1629,771.3z M1624.5,771.4h0.6l1.4,1.7v-1.3
					c0-0.1,0-0.2,0-0.3c0,0-0.1-0.1-0.2-0.1h-0.1v-0.1h0.8v0.1h-0.1c-0.1,0-0.2,0-0.2,0.1c0,0,0,0.1,0,0.2v1.9h-0.1l-1.5-1.8v1.4
					c0,0.1,0,0.2,0,0.3c0,0,0.1,0.1,0.2,0.1h0.1v0.1h-0.8v-0.1h0.1c0.1,0,0.2,0,0.2-0.1c0,0,0-0.1,0-0.2v-1.5
					c-0.1-0.1-0.1-0.1-0.1-0.1c0,0-0.1,0-0.1-0.1C1624.6,771.4,1624.6,771.4,1624.5,771.4L1624.5,771.4z M1623.2,771.5v0.9h0.5
					c0.1,0,0.2,0,0.3-0.1c0.1,0,0.1-0.1,0.1-0.3h0.1v0.8h-0.1c0-0.1,0-0.2,0-0.2c0,0-0.1-0.1-0.1-0.1c0,0-0.1,0-0.2,0h-0.5v0.7
					c0,0.1,0,0.2,0,0.2c0,0,0,0,0,0.1c0,0,0.1,0,0.1,0h0.4c0.1,0,0.2,0,0.3,0c0.1,0,0.1-0.1,0.2-0.1c0.1-0.1,0.1-0.2,0.2-0.3h0.1
					l-0.2,0.6h-1.7v-0.1h0.1c0.1,0,0.1,0,0.2,0c0,0,0.1,0,0.1-0.1c0,0,0-0.1,0-0.2v-1.4c0-0.1,0-0.2,0-0.3c0,0-0.1-0.1-0.2-0.1h-0.1
					v-0.1h1.7l0,0.5h-0.1c0-0.1,0-0.2-0.1-0.2c0,0-0.1-0.1-0.1-0.1c0,0-0.1,0-0.2,0H1623.2z M1622.3,773L1622.3,773l-0.1,0.6h-1.7
					v-0.1h0.1c0.1,0,0.2,0,0.2-0.1c0,0,0-0.1,0-0.2v-1.4c0-0.1,0-0.2,0-0.3c0,0-0.1-0.1-0.2-0.1h-0.1v-0.1h1v0.1c-0.1,0-0.2,0-0.3,0
					c0,0-0.1,0.1-0.1,0.1c0,0,0,0.1,0,0.2v1.4c0,0.1,0,0.2,0,0.2c0,0,0,0,0.1,0.1c0,0,0.1,0,0.3,0h0.2c0.2,0,0.3,0,0.4,0
					s0.1-0.1,0.2-0.1C1622.2,773.2,1622.3,773.1,1622.3,773z M1619,771.5v0.9h0.5c0.1,0,0.2,0,0.3-0.1c0.1,0,0.1-0.1,0.1-0.3h0.1
					v0.8h-0.1c0-0.1,0-0.2,0-0.2c0,0-0.1-0.1-0.1-0.1c0,0-0.1,0-0.2,0h-0.5v0.7c0,0.1,0,0.2,0,0.2c0,0,0,0,0,0.1c0,0,0.1,0,0.1,0
					h0.4c0.1,0,0.2,0,0.3,0c0.1,0,0.1-0.1,0.2-0.1c0.1-0.1,0.1-0.2,0.2-0.3h0.1l-0.2,0.6h-1.7v-0.1h0.1c0.1,0,0.1,0,0.1,0
					c0,0,0.1,0,0.1-0.1c0,0,0-0.1,0-0.2v-1.4c0-0.1,0-0.2,0-0.3c0,0-0.1-0.1-0.2-0.1h-0.1v-0.1h1.7l0,0.5h-0.1c0-0.1,0-0.2-0.1-0.2
					c0,0-0.1-0.1-0.1-0.1c0,0-0.1,0-0.2,0H1619z M1618.1,771.3l0.1,0.7h-0.1c-0.1-0.2-0.2-0.4-0.3-0.5c-0.1-0.1-0.3-0.1-0.5-0.1
					c-0.1,0-0.3,0-0.4,0.1c-0.1,0.1-0.2,0.2-0.3,0.4c-0.1,0.2-0.1,0.4-0.1,0.6c0,0.2,0,0.4,0.1,0.5c0.1,0.1,0.2,0.3,0.3,0.3
					c0.1,0.1,0.3,0.1,0.4,0.1c0.1,0,0.3,0,0.4-0.1c0.1-0.1,0.2-0.2,0.4-0.4l0.1,0c-0.1,0.2-0.2,0.3-0.4,0.4
					c-0.1,0.1-0.3,0.1-0.5,0.1c-0.4,0-0.7-0.1-0.9-0.4c-0.2-0.2-0.2-0.4-0.2-0.7c0-0.2,0.1-0.4,0.1-0.6c0.1-0.2,0.2-0.3,0.4-0.4
					c0.2-0.1,0.4-0.2,0.6-0.2c0.2,0,0.3,0,0.5,0.1c0,0,0.1,0,0.1,0c0,0,0.1,0,0.1,0C1618,771.4,1618.1,771.4,1618.1,771.3
					L1618.1,771.3z M1615,772.4l0.5,0.7c0.1,0.2,0.2,0.3,0.3,0.4c0.1,0.1,0.1,0.1,0.2,0.1v0.1h-1v-0.1c0.1,0,0.1,0,0.1,0
					c0,0,0,0,0.1,0c0,0,0,0,0-0.1c0,0,0-0.1,0-0.1c0,0,0-0.1-0.1-0.1l-0.4-0.6l-0.5,0.6c0,0.1-0.1,0.1-0.1,0.1c0,0,0,0,0,0.1
					c0,0,0,0.1,0,0.1c0,0,0.1,0,0.2,0v0.1h-0.8v-0.1c0.1,0,0.1,0,0.1,0c0.1,0,0.1-0.1,0.2-0.1c0.1,0,0.1-0.1,0.2-0.2l0.5-0.7
					l-0.4-0.6c-0.1-0.2-0.2-0.3-0.3-0.3c-0.1-0.1-0.2-0.1-0.3-0.1v-0.1h1v0.1c-0.1,0-0.1,0-0.2,0c0,0,0,0.1,0,0.1c0,0,0,0.1,0.1,0.2
					l0.3,0.5l0.4-0.5c0-0.1,0.1-0.1,0.1-0.1c0,0,0,0,0-0.1c0,0,0,0,0-0.1c0,0,0,0-0.1,0c0,0-0.1,0-0.2,0v-0.1h0.8v0.1
					c-0.1,0-0.1,0-0.2,0c-0.1,0-0.1,0.1-0.2,0.1c0,0-0.1,0.1-0.2,0.2L1615,772.4z M1612.3,771.5v0.9h0.5c0.1,0,0.2,0,0.3-0.1
					c0.1,0,0.1-0.1,0.1-0.3h0.1v0.8h-0.1c0-0.1,0-0.2,0-0.2c0,0-0.1-0.1-0.1-0.1c0,0-0.1,0-0.2,0h-0.5v0.7c0,0.1,0,0.2,0,0.2
					c0,0,0,0,0,0.1c0,0,0.1,0,0.1,0h0.4c0.1,0,0.2,0,0.3,0c0.1,0,0.1-0.1,0.2-0.1c0.1-0.1,0.1-0.2,0.2-0.3h0.1l-0.2,0.6h-1.7v-0.1
					h0.1c0.1,0,0.1,0,0.2,0c0,0,0.1,0,0.1-0.1c0,0,0-0.1,0-0.2v-1.4c0-0.1,0-0.2,0-0.3c0,0-0.1-0.1-0.2-0.1h-0.1v-0.1h1.7l0,0.5
					h-0.1c0-0.1,0-0.2-0.1-0.2c0,0-0.1-0.1-0.1-0.1c0,0-0.1,0-0.2,0H1612.3z"/>
			</g>
			<g>
				<g>
					<path class="st63" d="M1684.4,767.1c-0.2-0.1-0.3-0.3-0.6-0.6l-0.9-1.3c0.4-0.1,0.7-0.2,0.9-0.4c0.2-0.2,0.3-0.4,0.3-0.7
						c0-0.3-0.1-0.5-0.2-0.7c-0.2-0.2-0.4-0.3-0.6-0.4c-0.2-0.1-0.6-0.1-1.1-0.1h-1.7v0.1h0.2c0.2,0,0.3,0,0.4,0.1
						c0.1,0.1,0.1,0.2,0.1,0.5v2.8c0,0.3,0,0.4-0.1,0.5c-0.1,0.1-0.2,0.2-0.4,0.2h-0.2v0.1h2v-0.1h-0.2c-0.2,0-0.3,0-0.4-0.1
						c-0.1-0.1-0.1-0.2-0.1-0.5v-1.3c0,0,0.1,0,0.1,0c0,0,0.1,0,0.1,0c0.1,0,0.2,0,0.3,0l1.5,2.1h1.2v-0.1
						C1684.8,767.3,1684.6,767.2,1684.4,767.1z M1682,765.2C1681.9,765.2,1681.9,765.2,1682,765.2c-0.1,0-0.1,0-0.2,0v-1.8
						c0.2,0,0.4-0.1,0.5-0.1c0.3,0,0.5,0.1,0.7,0.3c0.2,0.2,0.3,0.4,0.3,0.7c0,0.3-0.1,0.5-0.3,0.7
						C1682.7,765.1,1682.4,765.2,1682,765.2z"/>
					<path class="st63" d="M1677.6,763.3v1.7h1c0.3,0,0.4,0,0.5-0.1c0.1-0.1,0.2-0.3,0.2-0.5h0.1v1.5h-0.1c0-0.2-0.1-0.4-0.1-0.4
						c0-0.1-0.1-0.1-0.2-0.2c-0.1,0-0.2-0.1-0.4-0.1h-1v1.5c0,0.2,0,0.3,0,0.4c0,0,0.1,0.1,0.1,0.1c0,0,0.1,0,0.3,0h0.8
						c0.3,0,0.4,0,0.6-0.1c0.1,0,0.2-0.1,0.3-0.2c0.1-0.1,0.3-0.3,0.4-0.6h0.1l-0.4,1.1h-3.5v-0.1h0.2c0.1,0,0.2,0,0.3-0.1
						c0.1,0,0.1-0.1,0.1-0.2c0-0.1,0-0.2,0-0.4v-2.9c0-0.3,0-0.5-0.1-0.5c-0.1-0.1-0.2-0.1-0.4-0.1h-0.2V763h3.5l0.1,1h-0.1
						c0-0.2-0.1-0.4-0.2-0.5c-0.1-0.1-0.1-0.2-0.3-0.2c-0.1,0-0.2,0-0.5,0H1677.6z"/>
					<path class="st63" d="M1674.1,763.1V763h2v0.1h-0.2c-0.2,0-0.3,0.1-0.4,0.2c-0.1,0.1-0.1,0.2-0.1,0.5v2.2c0,0.3,0,0.6-0.1,0.8
						c-0.1,0.2-0.2,0.4-0.4,0.5c-0.2,0.2-0.4,0.2-0.7,0.2c-0.2,0-0.4-0.1-0.5-0.2c-0.1-0.1-0.2-0.2-0.2-0.3c0-0.1,0-0.2,0.1-0.2
						c0.1-0.1,0.2-0.1,0.3-0.1c0.1,0,0.1,0,0.2,0.1c0.1,0,0.1,0.2,0.2,0.4c0.1,0.1,0.1,0.2,0.2,0.2c0.1,0,0.1,0,0.2-0.1
						c0.1-0.1,0.1-0.2,0.1-0.4v-3c0-0.2,0-0.4,0-0.4c0-0.1-0.1-0.1-0.1-0.1c-0.1-0.1-0.2-0.1-0.3-0.1H1674.1z"/>
					<path class="st63" d="M1671.7,763.1V763h1.6v0.1h-0.2c-0.2,0-0.3,0.1-0.4,0.2c0,0.1-0.1,0.2-0.1,0.5v1.8c0,0.4,0,0.8-0.1,1
						c-0.1,0.2-0.3,0.5-0.5,0.6c-0.3,0.2-0.6,0.3-1.1,0.3c-0.5,0-0.9-0.1-1.1-0.3c-0.3-0.2-0.4-0.4-0.6-0.7
						c-0.1-0.2-0.1-0.6-0.1-1.1v-1.7c0-0.3,0-0.4-0.1-0.5c-0.1-0.1-0.2-0.1-0.4-0.1h-0.2V763h2v0.1h-0.2c-0.2,0-0.3,0.1-0.4,0.2
						c-0.1,0.1-0.1,0.2-0.1,0.5v1.9c0,0.2,0,0.4,0,0.6c0,0.2,0.1,0.4,0.2,0.5c0.1,0.1,0.2,0.2,0.4,0.3c0.2,0.1,0.4,0.1,0.6,0.1
						c0.3,0,0.6-0.1,0.8-0.2c0.2-0.1,0.4-0.3,0.5-0.5c0.1-0.2,0.1-0.5,0.1-1v-1.8c0-0.3,0-0.4-0.1-0.5c-0.1-0.1-0.2-0.1-0.4-0.1
						H1671.7z"/>
					<path class="st63" d="M1665.1,767.4l-1.8-3.7v2.9c0,0.3,0,0.4,0.1,0.5c0.1,0.1,0.2,0.1,0.4,0.1h0.2v0.1h-1.6v-0.1h0.2
						c0.2,0,0.3-0.1,0.4-0.2c0-0.1,0.1-0.2,0.1-0.5v-2.9c0-0.2,0-0.3-0.1-0.4c0-0.1-0.1-0.1-0.2-0.2c-0.1,0-0.2-0.1-0.4-0.1V763h1.3
						l1.7,3.5l1.6-3.5h1.3v0.1h-0.2c-0.2,0-0.3,0.1-0.4,0.2c0,0.1-0.1,0.2-0.1,0.5v2.9c0,0.3,0,0.4,0.1,0.5c0.1,0.1,0.2,0.1,0.4,0.1
						h0.2v0.1h-1.9v-0.1h0.2c0.2,0,0.3-0.1,0.4-0.2c0-0.1,0.1-0.2,0.1-0.5v-2.9l-1.8,3.7H1665.1z"/>
					<path class="st63" d="M1660.4,767.2c-0.1-0.1-0.2-0.3-0.3-0.6l-1.6-3.7h-0.1l-1.6,3.6c-0.1,0.3-0.3,0.5-0.4,0.6
						c-0.1,0.1-0.2,0.1-0.4,0.1v0.1h1.4v-0.1c-0.2,0-0.4,0-0.4-0.1c-0.1-0.1-0.1-0.1-0.1-0.2c0-0.1,0-0.2,0.1-0.4l0.3-0.7h1.8
						l0.3,0.6c0.1,0.2,0.1,0.4,0.1,0.5c0,0.1,0,0.1-0.1,0.2c-0.1,0.1-0.2,0.1-0.4,0.1v0.1h1.8v-0.1
						C1660.7,767.3,1660.5,767.3,1660.4,767.2z M1657.5,765.7l0.8-1.8l0.8,1.8H1657.5z"/>
					<path class="st63" d="M1655.7,766.2l0.1,0l-0.4,1.2h-3.5v-0.1h0.2c0.2,0,0.3-0.1,0.4-0.2c0-0.1,0.1-0.2,0.1-0.5v-2.8
						c0-0.3,0-0.4-0.1-0.5c-0.1-0.1-0.2-0.1-0.4-0.1h-0.2V763h2.1v0.1c-0.2,0-0.4,0-0.5,0.1c-0.1,0-0.2,0.1-0.2,0.2
						c0,0.1-0.1,0.2-0.1,0.5v2.8c0,0.2,0,0.3,0.1,0.4c0,0,0.1,0.1,0.1,0.1c0.1,0,0.2,0,0.5,0h0.3c0.4,0,0.6,0,0.7-0.1
						c0.1,0,0.3-0.1,0.4-0.3C1655.5,766.7,1655.6,766.5,1655.7,766.2z"/>
					<path class="st63" d="M1647.2,763.3v1.7h1c0.3,0,0.4,0,0.5-0.1c0.1-0.1,0.2-0.3,0.2-0.5h0.1v1.5h-0.1c0-0.2-0.1-0.4-0.1-0.4
						c0-0.1-0.1-0.1-0.2-0.2c-0.1,0-0.2-0.1-0.4-0.1h-1v1.5c0,0.2,0,0.3,0,0.4c0,0,0,0.1,0.1,0.1c0,0,0.1,0,0.3,0h0.8
						c0.3,0,0.4,0,0.6-0.1c0.1,0,0.2-0.1,0.3-0.2c0.1-0.1,0.3-0.3,0.4-0.6h0.1l-0.4,1.1h-3.5v-0.1h0.2c0.1,0,0.2,0,0.3-0.1
						c0.1,0,0.1-0.1,0.1-0.2c0-0.1,0-0.2,0-0.4v-2.9c0-0.3,0-0.5-0.1-0.5c-0.1-0.1-0.2-0.1-0.4-0.1h-0.2V763h3.5l0.1,1h-0.1
						c0-0.2-0.1-0.4-0.2-0.5c-0.1-0.1-0.1-0.2-0.3-0.2c-0.1,0-0.2,0-0.5,0H1647.2z"/>
					<path class="st63" d="M1645.2,764c-0.2-0.3-0.5-0.6-0.9-0.7c-0.4-0.1-0.9-0.2-1.6-0.2h-1.9v0.1h0.2c0.2,0,0.3,0,0.4,0.1
						c0.1,0.1,0.1,0.2,0.1,0.5v2.8c0,0.2,0,0.4-0.1,0.5c-0.1,0.1-0.2,0.2-0.4,0.2h-0.2v0.1h2c0.9,0,1.6-0.2,2-0.7
						c0.4-0.4,0.6-0.9,0.6-1.5C1645.5,764.7,1645.4,764.3,1645.2,764z M1644.2,766.7c-0.3,0.4-0.8,0.5-1.3,0.5c-0.2,0-0.4,0-0.7-0.1
						v-3.8c0.3-0.1,0.5-0.1,0.7-0.1c0.5,0,1,0.2,1.3,0.5c0.3,0.4,0.5,0.8,0.5,1.4C1644.8,765.8,1644.6,766.3,1644.2,766.7z"/>
					<path class="st63" d="M1638.9,767.2c-0.1-0.1-0.2-0.3-0.3-0.6l-1.6-3.7h-0.1l-1.6,3.6c-0.1,0.3-0.3,0.5-0.4,0.6
						c-0.1,0.1-0.2,0.1-0.4,0.1v0.1h1.4v-0.1c-0.2,0-0.4,0-0.4-0.1c-0.1-0.1-0.1-0.1-0.1-0.2c0-0.1,0-0.2,0.1-0.4l0.3-0.7h1.8
						l0.3,0.6c0.1,0.2,0.1,0.4,0.1,0.5c0,0.1,0,0.1-0.1,0.2c-0.1,0.1-0.2,0.1-0.4,0.1v0.1h1.8v-0.1
						C1639.2,767.3,1639,767.3,1638.9,767.2z M1636,765.7l0.8-1.8l0.8,1.8H1636z"/>
					<path class="st63" d="M1634,762.9l0.1,1.5h-0.1c-0.1-0.4-0.3-0.8-0.6-1c-0.3-0.2-0.6-0.3-0.9-0.3c-0.3,0-0.6,0.1-0.8,0.2
						c-0.2,0.1-0.4,0.4-0.6,0.7c-0.1,0.3-0.2,0.7-0.2,1.2c0,0.4,0.1,0.7,0.2,1c0.1,0.3,0.3,0.5,0.6,0.7c0.3,0.2,0.6,0.2,0.9,0.2
						c0.3,0,0.6-0.1,0.8-0.2c0.2-0.1,0.5-0.4,0.7-0.7l0.1,0.1c-0.2,0.4-0.5,0.7-0.8,0.9c-0.3,0.2-0.7,0.3-1.1,0.3
						c-0.8,0-1.3-0.3-1.8-0.8c-0.3-0.4-0.5-0.9-0.5-1.4c0-0.4,0.1-0.8,0.3-1.2c0.2-0.4,0.5-0.7,0.8-0.9c0.4-0.2,0.8-0.3,1.2-0.3
						c0.3,0,0.7,0.1,1,0.2c0.1,0,0.2,0.1,0.2,0.1c0.1,0,0.1,0,0.2-0.1c0.1-0.1,0.1-0.1,0.1-0.2H1634z"/>
					<path class="st63" d="M1629.7,767.3v0.1h-2v-0.1h0.2c0.2,0,0.3-0.1,0.4-0.2c0.1-0.1,0.1-0.2,0.1-0.5v-2.8c0-0.2,0-0.4,0-0.4
						c0-0.1-0.1-0.1-0.1-0.1c-0.1-0.1-0.2-0.1-0.3-0.1h-0.2V763h2v0.1h-0.2c-0.2,0-0.3,0.1-0.4,0.2c-0.1,0.1-0.1,0.2-0.1,0.5v2.8
						c0,0.2,0,0.4,0,0.4c0,0.1,0.1,0.1,0.1,0.1c0.1,0.1,0.2,0.1,0.3,0.1H1629.7z"/>
					<path class="st63" d="M1622.5,763h1.2l2.8,3.3v-2.5c0-0.3,0-0.4-0.1-0.5c-0.1-0.1-0.2-0.1-0.4-0.1h-0.2V763h1.6v0.1h-0.2
						c-0.2,0-0.3,0.1-0.4,0.2c0,0.1-0.1,0.2-0.1,0.5v3.7h-0.1l-3-3.6v2.7c0,0.3,0,0.4,0.1,0.5c0.1,0.1,0.2,0.1,0.4,0.1h0.2v0.1h-1.6
						v-0.1h0.2c0.2,0,0.3-0.1,0.4-0.2c0.1-0.1,0.1-0.2,0.1-0.5v-3.1c-0.1-0.1-0.2-0.2-0.3-0.3c-0.1,0-0.2-0.1-0.3-0.1
						c-0.1,0-0.2,0-0.3,0V763z"/>
					<path class="st63" d="M1622.2,767.3v0.1h-2v-0.1h0.2c0.2,0,0.3-0.1,0.4-0.2c0.1-0.1,0.1-0.2,0.1-0.5v-2.8c0-0.2,0-0.4,0-0.4
						c0-0.1-0.1-0.1-0.1-0.1c-0.1-0.1-0.2-0.1-0.3-0.1h-0.2V763h2v0.1h-0.2c-0.2,0-0.3,0.1-0.4,0.2c-0.1,0.1-0.1,0.2-0.1,0.5v2.8
						c0,0.2,0,0.4,0,0.4c0,0.1,0.1,0.1,0.1,0.1c0.1,0.1,0.2,0.1,0.3,0.1H1622.2z"/>
					<path class="st63" d="M1620,766.2l0.1,0l-0.4,1.2h-3.5v-0.1h0.2c0.2,0,0.3-0.1,0.4-0.2c0-0.1,0.1-0.2,0.1-0.5v-2.8
						c0-0.3,0-0.4-0.1-0.5c-0.1-0.1-0.2-0.1-0.4-0.1h-0.2V763h2.1v0.1c-0.2,0-0.4,0-0.5,0.1c-0.1,0-0.2,0.1-0.2,0.2
						c0,0.1-0.1,0.2-0.1,0.5v2.8c0,0.2,0,0.3,0.1,0.4c0,0,0.1,0.1,0.1,0.1c0.1,0,0.2,0,0.5,0h0.3c0.4,0,0.6,0,0.7-0.1
						c0.1,0,0.3-0.1,0.4-0.3C1619.8,766.7,1619.9,766.5,1620,766.2z"/>
					<path class="st63" d="M1615.6,762.9l0.1,1.5h-0.1c-0.1-0.4-0.3-0.8-0.6-1c-0.3-0.2-0.6-0.3-0.9-0.3c-0.3,0-0.6,0.1-0.8,0.2
						c-0.2,0.1-0.4,0.4-0.6,0.7c-0.1,0.3-0.2,0.7-0.2,1.2c0,0.4,0.1,0.7,0.2,1c0.1,0.3,0.3,0.5,0.6,0.7c0.3,0.2,0.6,0.2,0.9,0.2
						c0.3,0,0.6-0.1,0.8-0.2c0.2-0.1,0.5-0.4,0.7-0.7l0.1,0.1c-0.2,0.4-0.5,0.7-0.8,0.9c-0.3,0.2-0.7,0.3-1.1,0.3
						c-0.8,0-1.3-0.3-1.8-0.8c-0.3-0.4-0.5-0.9-0.5-1.4c0-0.4,0.1-0.8,0.3-1.2c0.2-0.4,0.5-0.7,0.8-0.9c0.4-0.2,0.8-0.3,1.2-0.3
						c0.3,0,0.7,0.1,1,0.2c0.1,0,0.2,0.1,0.2,0.1c0.1,0,0.1,0,0.2-0.1c0.1-0.1,0.1-0.1,0.1-0.2H1615.6z"/>
				</g>
				<g>
					<path class="st63" d="M1621.9,762.1c0,0-0.1,0.1-0.2,0.1l-0.5,0.4h-0.3l0.4-0.7c0,0,0.1-0.1,0.1-0.1c0.1,0,0.1-0.1,0.2-0.1
						c0.1,0,0.1,0,0.2,0.1c0,0,0.1,0.1,0.1,0.2C1622,762.1,1622,762.1,1621.9,762.1z"/>
				</g>
			</g>
		</g>
		<path class="st64" d="M1571.9,523.4c0,0-23.8,6.2-27.8,0c0,0,0-24.9,7.9-26.9S1567.9,504.7,1571.9,523.4z"/>
	</g>
	<g id="Capa_3">
		<path class="st65" d="M984.3,674.8H337.6c-15.3,0-27.7-12.4-27.7-27.7V455.4c0-15.3,12.4-27.7,27.7-27.7h646.7
			c15.3,0,27.7,12.4,27.7,27.7v191.7C1012.1,662.4,999.6,674.8,984.3,674.8z"/>
	</g>
	<g>
		<g>
			<path d="M352.7,462.8c5.8-0.9,13.4-1.4,21.3-1.4c13.2,0,21.9,2.2,28.6,6.8c7.3,4.9,11.8,12.7,11.8,23.9
				c0,12.2-4.8,20.6-11.5,25.7c-7.3,5.6-18.6,8.2-32.2,8.2c-8.2,0-14.1-0.4-17.9-0.9V462.8z M368.5,514.7c1.4,0.2,3.6,0.2,5.5,0.2
				c14.3,0.1,23.7-7.1,23.7-22.3c0-13.2-8.5-20.1-22-20.1c-3.5,0-5.8,0.3-7.2,0.5V514.7z"/>
			<path d="M440.6,462v63.6h-15.8V462H440.6z M450.3,446.9l-12.7,11.6H425l8.7-11.6H450.3z"/>
			<path d="M470.5,509.2l-4.9,16.3h-16.3l21.3-63.6h20.7l21.7,63.6h-17l-5.4-16.3H470.5z M488.2,498.5l-4.3-13.5
				c-1.2-3.8-2.4-8.5-3.5-12.2h-0.2c-1,3.7-2.1,8.6-3.2,12.3l-4.2,13.5H488.2z"/>
			<path d="M602.2,501.2c-0.3-7.7-0.6-16.9-0.6-26.2h-0.3c-2.2,8.1-5.2,17.2-7.8,24.7l-8.6,24.8h-12.3l-7.5-24.6
				c-2.3-7.5-4.6-16.5-6.3-24.9h-0.2c-0.3,8.6-0.7,18.5-1.2,26.4l-1.3,24.1h-14.6l4.5-63.6h21l6.8,21.2c2.2,7.3,4.4,15.3,5.9,22.7
				h0.3c1.9-7.4,4.3-15.7,6.6-22.8l7.4-21.1h20.7l3.7,63.6h-15.3L602.2,501.2z"/>
			<path d="M646.6,462v36.6c0,11,4.6,16.6,12.7,16.6c8.3,0,12.9-5.3,12.9-16.6V462h15.8v35.7c0,19.6-10.9,28.9-29.2,28.9
				c-17.6,0-27.9-8.9-27.9-29.1V462H646.6z"/>
			<path d="M701.5,525.5V462h18.4l14.5,23.3c4.2,6.7,8.3,14.6,11.4,21.8l0.3,0c-1-8.4-1.3-16.9-1.3-26.6V462h14.5v63.6h-16.5
				l-15-24.5c-4.2-6.9-8.7-15-12.1-22.5l-0.3,0c0.5,8.4,0.7,17.4,0.7,27.8v19.1H701.5z"/>
			<path d="M773,462.8c5.8-0.9,13.4-1.4,21.3-1.4c13.2,0,21.9,2.2,28.6,6.8c7.3,4.9,11.8,12.7,11.8,23.9c0,12.2-4.8,20.6-11.5,25.7
				c-7.3,5.6-18.6,8.2-32.2,8.2c-8.2,0-14.1-0.4-17.9-0.9V462.8z M788.8,514.7c1.4,0.2,3.6,0.2,5.5,0.2c14.3,0.1,23.7-7.1,23.7-22.3
				c0-13.2-8.5-20.1-22-20.1c-3.5,0-5.8,0.3-7.2,0.5V514.7z"/>
			<path d="M860.9,462v63.6h-15.8V462H860.9z"/>
			<path d="M890.8,509.2l-4.9,16.3h-16.3l21.3-63.6h20.7l21.7,63.6h-17l-5.4-16.3H890.8z M908.6,498.5l-4.3-13.5
				c-1.2-3.8-2.4-8.5-3.5-12.2h-0.2c-1,3.7-2.1,8.6-3.2,12.3l-4.2,13.5H908.6z"/>
			<path d="M942.6,462h15.8v51.5h27.8v12h-43.6V462z"/>
			<path d="M352.7,576c5.8-0.9,13.4-1.4,21.3-1.4c13.2,0,21.9,2.2,28.6,6.8c7.3,4.9,11.8,12.7,11.8,23.9c0,12.2-4.8,20.6-11.5,25.7
				c-7.3,5.6-18.6,8.2-32.2,8.2c-8.2,0-14.1-0.4-17.9-0.9V576z M368.5,627.9c1.4,0.2,3.6,0.2,5.5,0.2c14.3,0.1,23.7-7.1,23.7-22.3
				c0-13.2-8.5-20.1-22-20.1c-3.5,0-5.8,0.3-7.2,0.5V627.9z"/>
			<path d="M466.3,611.8h-25.7v15.1h28.7v11.8h-44.5v-63.6h43v11.8h-27.2v13.2h25.7V611.8z"/>
			<path d="M501.1,575.1h15.8v51.5h27.8v12h-43.6V575.1z"/>
			<path d="M570.2,622.4l-4.9,16.3h-16.3l21.3-63.6h20.7l21.7,63.6h-17l-5.4-16.3H570.2z M587.9,611.6l-4.3-13.5
				c-1.2-3.8-2.4-8.5-3.5-12.2h-0.2c-1,3.7-2.1,8.6-3.2,12.3l-4.2,13.5H587.9z"/>
			<path d="M643.4,623.8c4.2,2,10.8,4,17.5,4c7.3,0,11.1-2.7,11.1-6.9c0-3.9-3.3-6.2-11.7-8.9c-11.6-3.8-19.3-9.5-19.3-18.8
				c0-10.8,10-19.1,26.4-19.1c8,0,13.7,1.4,17.8,3.2l-3.5,11.5c-2.8-1.2-7.8-3-14.6-3c-6.9,0-10.2,2.9-10.2,6.1
				c0,4,3.9,5.8,12.9,8.9c12.4,4.2,18.1,10,18.1,19c0,10.6-8.9,19.7-28.2,19.7c-7.9,0-15.8-2-19.7-4L643.4,623.8z"/>
			<path d="M715,622.4l-4.9,16.3h-16.3l21.3-63.6h20.7l21.7,63.6h-17l-5.4-16.3H715z M732.8,611.6l-4.3-13.5
				c-1.2-3.8-2.4-8.5-3.5-12.2h-0.2c-1,3.7-2.1,8.6-3.2,12.3l-4.2,13.5H732.8z"/>
			<path d="M766.8,575.1h15.8v51.5h27.8v12h-43.6V575.1z"/>
			<path d="M835.4,575.1v36.6c0,11,4.6,16.6,12.7,16.6c8.3,0,12.9-5.3,12.9-16.6v-36.6h15.8v35.7c0,19.6-10.9,28.9-29.2,28.9
				c-17.6,0-27.9-8.9-27.9-29.1v-35.5H835.4z"/>
			<path d="M890.4,576c5.8-0.9,13.4-1.4,21.3-1.4c13.2,0,21.9,2.2,28.6,6.8c7.3,4.9,11.8,12.7,11.8,23.9c0,12.2-4.8,20.6-11.5,25.7
				c-7.3,5.6-18.6,8.2-32.2,8.2c-8.2,0-14.1-0.4-17.9-0.9V576z M906.2,627.9c1.4,0.2,3.6,0.2,5.5,0.2c14.3,0.1,23.7-7.1,23.7-22.3
				c0-13.2-8.5-20.1-22-20.1c-3.5,0-5.8,0.3-7.2,0.5V627.9z"/>
		</g>
	</g>
	<path class="st66" d="M770.2,414.3H554.6c-8.4,0-15.2-6.8-15.2-15.2v-113c0-8.4,6.8-15.2,15.2-15.2h215.6c8.4,0,15.2,6.8,15.2,15.2
		v113C785.5,407.5,778.6,414.3,770.2,414.3z"/>
	<text transform="matrix(1.0986 0 0 1 628.2466 309.7505)" class="st67 st68">ABRIL</text>
	<g>
		<g>
			<path class="st69" d="M692.5,325.5l0,9l-27.6,52.3l-16.7,0l27.6-49.3l0-0.2l-30.9,0.1l0-11.8L692.5,325.5z"/>
		</g>
	</g>
	<g>
		<g>
			<rect x="91.3" y="270.9" class="st63" width="328.9" height="4.8"/>
			<path class="st63" d="M265.3,221.6h-19.6v-15.4h-14.2v-15.9h-21.1l-4.5,13.1v14.1h-4.3v-11.2h-14.4v-4.8H202l5.5-16h32.3
				c1.5,0,2.3-0.3,2.7-0.5c-0.1-0.1-0.3-0.3-0.6-0.6c-13.1-4.8-24-12.8-31.5-23.4c-7-9.9-10.9-21.6-11.2-33.9
				c-0.4-12.4,2.8-24.6,9.1-35.1c6.7-11.1,16.7-19.9,28.9-25.3c1.2-0.8,1.6-1.9,1.4-2.5c-0.3-0.7-1.8-1.1-3.9-0.1l-0.1,0l-27.4,10.2
				L187,96l-22.1,121.8l-4.2-0.9l22.4-123.2l21.8-23.3l28.2-10.5c4.8-2,8.1-0.2,9.2,2.6c1.1,2.6,0.3,6.5-3.3,8.7l-0.2,0.1
				c-11.5,5.1-20.8,13.3-27.1,23.6c-5.9,9.7-8.8,20.9-8.4,32.3c0.3,11.3,3.9,22.1,10.3,31.1c7,9.9,17.2,17.4,29.6,21.9l0.2,0.1
				l0.2,0.1c2.4,1.5,3.5,3.8,3,6c-0.6,2.6-3.2,4.1-7,4h-3.9v11.1H250v15.4h11.1v-15.6h13.3v-10.5h-6.9c-3.8,0.1-6.4-1.4-7-4
				c-0.5-2.2,0.6-4.5,3-6l0.2-0.1l0.2-0.1c12.6-4.5,23-12,30-21.9c6.5-9.1,10.1-19.8,10.4-31.2c0.3-11.4-2.6-22.6-8.5-32.3
				c-6.3-10.4-15.8-18.5-27.4-23.6l-0.2-0.1c-3.6-2.2-4.4-6.1-3.3-8.7c1.2-2.8,4.5-4.7,9.3-2.6l28.6,10.5l22,23.3l22.6,123.2l-4.2,1
				L320.9,96.4l-20.3-21.6l-27.8-10.2c-2.1-0.9-3.6-0.6-4,0.2c-0.3,0.6,0.2,1.7,1.4,2.5c12.3,5.5,22.4,14.2,29.2,25.3
				c6.4,10.6,9.6,22.7,9.3,35.1c-0.4,12.3-4.3,24.1-11.3,34c-7.5,10.5-18.5,18.6-31.8,23.4c-0.3,0.2-0.5,0.4-0.6,0.5
				c0.4,0.2,1.2,0.5,2.7,0.5h32.7l5.5,16h14.9v4.8h-14.6V218h-4.3v-14.1l-4.5-13.2h-18.6V206h-13.3V221.6z"/>
			<path class="st63" d="M253.5,73.2c-25.6,0-46.4,23.2-46.4,51.8c0,28.5,20.8,51.8,46.4,51.8c25.6,0,46.4-23.2,46.4-51.8
				C299.8,96.4,279,73.2,253.5,73.2z M253.5,172c-23.2,0-42.1-21.1-42.1-47c0-25.9,18.9-47,42.1-47c23.2,0,42.1,21.1,42.1,47
				C295.6,150.9,276.7,172,253.5,172z"/>
			<g>
				<path class="st63" d="M415.3,289.4l-1.7-4.3l-1.8,4.3H415.3z M415.6,290h-3.9l-0.7,1.7c-0.2,0.4-0.3,0.7-0.3,0.9
					c0,0.2,0.1,0.3,0.2,0.4c0.1,0.1,0.5,0.2,0.9,0.2v0.3h-3.2v-0.3c0.4-0.1,0.7-0.2,0.8-0.3c0.3-0.2,0.5-0.8,0.8-1.5l3.5-8.7h0.3
					l3.5,8.8c0.3,0.7,0.5,1.2,0.8,1.4c0.2,0.2,0.6,0.3,1,0.4v0.3h-4v-0.3c0.4,0,0.7-0.1,0.8-0.2c0.1-0.1,0.2-0.3,0.2-0.4
					c0-0.2-0.1-0.6-0.3-1.1L415.6,290z M408.2,293.2v0.3h-4.3v-0.3h0.4c0.4,0,0.7-0.1,0.9-0.4c0.1-0.2,0.2-0.6,0.2-1.2v-6.8
					c0-0.5,0-0.9-0.1-1.1c-0.1-0.1-0.2-0.2-0.3-0.3c-0.2-0.1-0.4-0.2-0.7-0.2h-0.4v-0.3h4.3v0.3h-0.4c-0.4,0-0.7,0.1-0.9,0.4
					c-0.1,0.2-0.2,0.6-0.2,1.2v6.8c0,0.5,0,0.9,0.1,1.1c0.1,0.1,0.2,0.2,0.3,0.3c0.2,0.1,0.4,0.2,0.7,0.2H408.2z M403,290.6l0.2,0.1
					l-0.9,2.9h-7.8v-0.3h0.4c0.4,0,0.7-0.1,0.9-0.4c0.1-0.2,0.2-0.6,0.2-1.2v-6.8c0-0.7-0.1-1.1-0.2-1.2c-0.2-0.2-0.5-0.3-0.9-0.3
					h-0.4v-0.3h4.6v0.3c-0.5,0-0.9,0-1.1,0.2c-0.2,0.1-0.4,0.2-0.4,0.4c-0.1,0.2-0.1,0.6-0.1,1.2v6.6c0,0.4,0,0.7,0.1,0.9
					c0.1,0.1,0.1,0.2,0.3,0.2c0.1,0.1,0.5,0.1,1.2,0.1h0.7c0.8,0,1.3-0.1,1.6-0.2c0.3-0.1,0.6-0.3,0.9-0.6
					C402.4,291.7,402.7,291.2,403,290.6z M393.9,293.2v0.3h-4.3v-0.3h0.4c0.4,0,0.7-0.1,0.9-0.4c0.1-0.2,0.2-0.6,0.2-1.2v-6.8
					c0-0.5,0-0.9-0.1-1.1c0-0.1-0.2-0.2-0.3-0.3c-0.2-0.1-0.4-0.2-0.7-0.2h-0.4v-0.3h4.3v0.3h-0.4c-0.4,0-0.7,0.1-0.9,0.4
					c-0.1,0.2-0.2,0.6-0.2,1.2v6.8c0,0.5,0,0.9,0.1,1.1c0,0.1,0.2,0.2,0.3,0.3c0.2,0.1,0.4,0.2,0.7,0.2H393.9z M381.9,293.5
					l-3.9-8.9v7.1c0,0.7,0.1,1.1,0.2,1.2c0.2,0.2,0.5,0.3,0.9,0.3h0.4v0.3h-3.5v-0.3h0.4c0.4,0,0.7-0.1,0.9-0.4
					c0.1-0.2,0.2-0.5,0.2-1.1v-6.9c0-0.5,0-0.8-0.1-1c-0.1-0.2-0.2-0.3-0.4-0.4c-0.2-0.1-0.5-0.2-0.9-0.2v-0.3h2.9l3.7,8.3l3.6-8.3
					h2.9v0.3h-0.4c-0.4,0-0.7,0.1-0.9,0.4c-0.1,0.2-0.2,0.5-0.2,1.1v6.9c0,0.7,0.1,1.1,0.2,1.2c0.2,0.2,0.5,0.3,0.9,0.3h0.4v0.3
					h-4.3v-0.3h0.4c0.4,0,0.7-0.1,0.9-0.4c0.1-0.2,0.2-0.5,0.2-1.1v-7.1l-3.9,8.9H381.9z M371.4,289.4l-1.7-4.3l-1.8,4.3H371.4z
					 M371.6,290h-3.9l-0.7,1.7c-0.2,0.4-0.3,0.7-0.3,0.9c0,0.2,0.1,0.3,0.2,0.4c0.1,0.1,0.5,0.2,0.9,0.2v0.3h-3.2v-0.3
					c0.4-0.1,0.7-0.2,0.8-0.3c0.3-0.2,0.5-0.8,0.8-1.5l3.5-8.7h0.3l3.5,8.8c0.3,0.7,0.5,1.2,0.8,1.4c0.2,0.2,0.6,0.3,1,0.4v0.3h-4
					v-0.3c0.4,0,0.7-0.1,0.8-0.2c0.1-0.1,0.2-0.3,0.2-0.4c0-0.2-0.1-0.6-0.3-1.1L371.6,290z M360.5,283.5v4.2h1.8
					c0.4,0,0.7-0.1,0.9-0.3c0.2-0.2,0.3-0.6,0.4-1.2h0.3v3.6h-0.3c0-0.4-0.1-0.7-0.2-0.9c-0.1-0.2-0.2-0.3-0.4-0.4
					c-0.2-0.1-0.4-0.1-0.8-0.1h-1.8v3.3c0,0.5,0,0.9,0.1,1.1c0,0.1,0.2,0.2,0.3,0.3c0.2,0.1,0.4,0.2,0.7,0.2h0.4v0.3h-4.3v-0.3h0.4
					c0.4,0,0.7-0.1,0.9-0.4c0.1-0.2,0.2-0.6,0.2-1.2v-6.8c0-0.5,0-0.9-0.1-1.1c-0.1-0.1-0.2-0.2-0.3-0.3c-0.2-0.1-0.4-0.2-0.7-0.2
					h-0.4v-0.3h7.5l0.1,2.3h-0.3c-0.1-0.5-0.3-0.9-0.4-1.1c-0.2-0.2-0.4-0.4-0.6-0.5c-0.3-0.1-0.6-0.2-1.2-0.2H360.5z M350.2,289.4
					l-1.7-4.3l-1.8,4.3H350.2z M350.4,290h-3.9l-0.7,1.7c-0.2,0.4-0.3,0.7-0.3,0.9c0,0.2,0.1,0.3,0.2,0.4c0.1,0.1,0.5,0.2,0.9,0.2
					v0.3h-3.2v-0.3c0.4-0.1,0.7-0.2,0.8-0.3c0.3-0.2,0.5-0.8,0.8-1.5l3.5-8.7h0.3l3.5,8.8c0.3,0.7,0.5,1.2,0.8,1.4
					c0.2,0.2,0.6,0.3,1,0.4v0.3h-4v-0.3c0.4,0,0.7-0.1,0.8-0.2c0.1-0.1,0.2-0.3,0.2-0.4c0-0.2-0.1-0.6-0.3-1.1L350.4,290z
					 M342.8,290.6l0.2,0.1l-0.9,2.9h-7.8v-0.3h0.4c0.4,0,0.7-0.1,0.9-0.4c0.1-0.2,0.2-0.6,0.2-1.2v-6.8c0-0.7-0.1-1.1-0.2-1.2
					c-0.2-0.2-0.5-0.3-0.9-0.3h-0.4v-0.3h4.6v0.3c-0.5,0-0.9,0-1.1,0.2c-0.2,0.1-0.4,0.2-0.4,0.4c-0.1,0.2-0.1,0.6-0.1,1.2v6.6
					c0,0.4,0,0.7,0.1,0.9c0.1,0.1,0.2,0.2,0.3,0.2c0.1,0.1,0.5,0.1,1.2,0.1h0.7c0.8,0,1.3-0.1,1.6-0.2c0.3-0.1,0.6-0.3,0.9-0.6
					C342.3,291.7,342.6,291.2,342.8,290.6z M326.9,289.4l-1.7-4.3l-1.8,4.3H326.9z M327.1,290h-3.9l-0.7,1.7
					c-0.2,0.4-0.3,0.7-0.3,0.9c0,0.2,0.1,0.3,0.2,0.4c0.1,0.1,0.5,0.2,0.9,0.2v0.3h-3.2v-0.3c0.4-0.1,0.7-0.2,0.8-0.3
					c0.3-0.2,0.5-0.8,0.8-1.5l3.5-8.7h0.3l3.5,8.8c0.3,0.7,0.5,1.2,0.8,1.4c0.2,0.2,0.6,0.3,1,0.4v0.3h-4v-0.3
					c0.4,0,0.7-0.1,0.8-0.2c0.1-0.1,0.2-0.3,0.2-0.4c0-0.2-0.1-0.6-0.3-1.1L327.1,290z M313.2,288.1c0.1,0,0.2,0,0.2,0
					c0.1,0,0.1,0,0.2,0c1,0,1.7-0.2,2.2-0.7c0.5-0.4,0.7-1,0.7-1.7c0-0.7-0.2-1.2-0.6-1.6c-0.4-0.4-0.9-0.6-1.6-0.6
					c-0.3,0-0.7,0.1-1.2,0.1V288.1z M320.3,293.5h-2.7l-3.4-4.9c-0.3,0-0.5,0-0.6,0c-0.1,0-0.1,0-0.2,0c-0.1,0-0.2,0-0.2,0v3.1
					c0,0.7,0.1,1.1,0.2,1.2c0.2,0.2,0.5,0.3,0.8,0.3h0.4v0.3h-4.3v-0.3h0.4c0.4,0,0.7-0.1,0.9-0.4c0.1-0.2,0.2-0.5,0.2-1.1v-6.8
					c0-0.7-0.1-1.1-0.2-1.2c-0.2-0.2-0.5-0.3-0.9-0.3h-0.4v-0.3h3.7c1.1,0,1.9,0.1,2.4,0.2c0.5,0.2,0.9,0.5,1.3,0.9
					c0.4,0.4,0.5,1,0.5,1.6c0,0.7-0.2,1.2-0.6,1.7c-0.4,0.5-1,0.8-1.9,1l2.1,3c0.5,0.7,0.9,1.2,1.2,1.4c0.3,0.2,0.8,0.4,1.3,0.4
					V293.5z M305.8,289.4l-1.7-4.3l-1.8,4.3H305.8z M306,290h-3.9l-0.7,1.7c-0.2,0.4-0.3,0.7-0.3,0.9c0,0.2,0.1,0.3,0.2,0.4
					c0.1,0.1,0.5,0.2,0.9,0.2v0.3h-3.2v-0.3c0.4-0.1,0.7-0.2,0.8-0.3c0.3-0.2,0.5-0.8,0.8-1.5l3.5-8.7h0.3l3.5,8.8
					c0.3,0.7,0.5,1.2,0.8,1.4c0.2,0.2,0.6,0.3,1,0.4v0.3h-4v-0.3c0.4,0,0.7-0.1,0.8-0.2c0.1-0.1,0.2-0.3,0.2-0.4
					c0-0.2-0.1-0.6-0.3-1.1L306,290z M295.1,288.1c0.3,0,0.5,0.1,0.7,0.1c0.2,0,0.4,0,0.5,0c0.5,0,1-0.2,1.3-0.6
					c0.4-0.4,0.6-1,0.6-1.6c0-0.5-0.1-0.9-0.3-1.3c-0.2-0.4-0.4-0.7-0.8-0.9c-0.3-0.2-0.7-0.3-1.1-0.3c-0.3,0-0.6,0-1,0.1V288.1z
					 M295.1,288.5v3.1c0,0.7,0.1,1.1,0.2,1.2c0.2,0.2,0.5,0.3,0.9,0.3h0.4v0.3h-4.3v-0.3h0.4c0.4,0,0.7-0.1,0.9-0.4
					c0.1-0.2,0.2-0.5,0.2-1.1v-6.8c0-0.7-0.1-1.1-0.2-1.2c-0.2-0.2-0.5-0.3-0.9-0.3h-0.4v-0.3h3.7c0.9,0,1.6,0.1,2.1,0.3
					c0.5,0.2,1,0.5,1.3,1c0.4,0.5,0.5,1,0.5,1.6c0,0.9-0.3,1.6-0.8,2.1c-0.5,0.5-1.3,0.8-2.3,0.8c-0.2,0-0.5,0-0.8-0.1
					C295.7,288.7,295.4,288.6,295.1,288.5z M284.8,289.4l-1.7-4.3l-1.8,4.3H284.8z M285,290h-3.9l-0.7,1.7c-0.2,0.4-0.3,0.7-0.3,0.9
					c0,0.2,0.1,0.3,0.2,0.4c0.1,0.1,0.5,0.2,0.9,0.2v0.3h-3.2v-0.3c0.4-0.1,0.7-0.2,0.8-0.3c0.3-0.2,0.5-0.8,0.8-1.5l3.5-8.7h0.3
					l3.5,8.8c0.3,0.7,0.5,1.2,0.8,1.4c0.2,0.2,0.6,0.3,1,0.4v0.3h-4v-0.3c0.4,0,0.7-0.1,0.8-0.2c0.1-0.1,0.2-0.3,0.2-0.4
					c0-0.2-0.1-0.6-0.3-1.1L285,290z M266.9,282.9h2.7l6.2,7.9v-6.1c0-0.7-0.1-1.1-0.2-1.2c-0.2-0.2-0.5-0.3-0.9-0.3h-0.4v-0.3h3.5
					v0.3h-0.4c-0.4,0-0.7,0.1-0.9,0.4c-0.1,0.2-0.2,0.5-0.2,1.1v8.9h-0.3l-6.6-8.5v6.5c0,0.7,0.1,1.1,0.2,1.2
					c0.2,0.2,0.5,0.3,0.9,0.3h0.4v0.3h-3.5v-0.3h0.3c0.4,0,0.7-0.1,0.9-0.4c0.1-0.2,0.2-0.5,0.2-1.1v-7.4c-0.3-0.4-0.5-0.6-0.7-0.7
					c-0.2-0.1-0.4-0.2-0.7-0.3c-0.1,0-0.4-0.1-0.7-0.1V282.9z M266.7,293.2v0.3h-4.3v-0.3h0.4c0.4,0,0.7-0.1,0.9-0.4
					c0.1-0.2,0.2-0.6,0.2-1.2v-6.8c0-0.5,0-0.9-0.1-1.1c-0.1-0.1-0.2-0.2-0.3-0.3c-0.2-0.1-0.4-0.2-0.7-0.2h-0.4v-0.3h4.3v0.3h-0.4
					c-0.4,0-0.7,0.1-0.9,0.4c-0.1,0.2-0.2,0.6-0.2,1.2v6.8c0,0.5,0,0.9,0.1,1.1c0.1,0.1,0.2,0.2,0.3,0.3c0.2,0.1,0.4,0.2,0.7,0.2
					H266.7z M261,282.7l0.2,3.6H261c-0.3-1.1-0.7-1.8-1.3-2.3c-0.6-0.5-1.3-0.7-2.1-0.7c-0.7,0-1.3,0.2-1.8,0.5
					c-0.5,0.4-1,0.9-1.3,1.7c-0.3,0.8-0.5,1.8-0.5,2.9c0,1,0.1,1.8,0.4,2.5c0.3,0.7,0.7,1.2,1.3,1.6c0.6,0.4,1.3,0.6,2,0.6
					c0.7,0,1.2-0.1,1.7-0.4c0.5-0.3,1-0.9,1.6-1.7l0.2,0.2c-0.5,0.9-1.1,1.6-1.8,2.1c-0.7,0.4-1.5,0.7-2.4,0.7c-1.7,0-3-0.6-3.9-2
					c-0.7-1-1-2.1-1-3.4c0-1.1,0.2-2,0.7-2.9c0.5-0.9,1.1-1.6,1.9-2.1c0.8-0.5,1.7-0.7,2.6-0.7c0.7,0,1.4,0.2,2.2,0.6
					c0.2,0.1,0.4,0.2,0.4,0.2c0.1,0,0.2-0.1,0.3-0.1c0.1-0.1,0.2-0.3,0.3-0.6H261z M251.5,293.2v0.3h-4.3v-0.3h0.4
					c0.4,0,0.7-0.1,0.9-0.4c0.1-0.2,0.2-0.6,0.2-1.2v-6.8c0-0.5,0-0.9-0.1-1.1c-0.1-0.1-0.2-0.2-0.3-0.3c-0.2-0.1-0.4-0.2-0.7-0.2
					h-0.4v-0.3h4.3v0.3h-0.4c-0.4,0-0.7,0.1-0.9,0.4c-0.1,0.2-0.2,0.6-0.2,1.2v6.8c0,0.5,0,0.9,0.1,1.1c0.1,0.1,0.2,0.2,0.3,0.3
					c0.2,0.1,0.4,0.2,0.7,0.2H251.5z M239,292.7c0.6,0.1,1.2,0.2,1.6,0.2c1.1,0,2.1-0.4,2.9-1.3c0.8-0.8,1.1-2,1.1-3.4
					c0-1.5-0.4-2.6-1.1-3.5c-0.8-0.8-1.7-1.3-2.9-1.3c-0.4,0-1,0.1-1.5,0.2V292.7z M236.1,293.5v-0.3h0.4c0.4,0,0.7-0.1,0.9-0.4
					c0.1-0.2,0.2-0.6,0.2-1.2v-6.8c0-0.7-0.1-1.1-0.2-1.2c-0.2-0.2-0.5-0.3-0.9-0.3h-0.4v-0.3h4.1c1.5,0,2.6,0.2,3.4,0.5
					c0.8,0.4,1.4,1,1.9,1.8c0.5,0.8,0.7,1.8,0.7,2.9c0,1.5-0.4,2.7-1.3,3.7c-1,1.1-2.4,1.7-4.4,1.7H236.1z M229.7,283.5v4.2h2.2
					c0.6,0,1-0.1,1.2-0.3c0.3-0.2,0.4-0.7,0.4-1.3h0.3v3.7h-0.3c-0.1-0.5-0.1-0.8-0.2-1c-0.1-0.2-0.2-0.3-0.4-0.4
					c-0.2-0.1-0.5-0.2-0.9-0.2h-2.2v3.5c0,0.5,0,0.8,0.1,0.9c0,0.1,0.1,0.2,0.2,0.2c0.1,0.1,0.3,0.1,0.6,0.1h1.7c0.6,0,1,0,1.2-0.1
					c0.3-0.1,0.5-0.2,0.7-0.5c0.3-0.3,0.6-0.8,0.9-1.5h0.3l-0.9,2.7h-7.8v-0.3h0.4c0.2,0,0.5-0.1,0.7-0.2c0.2-0.1,0.3-0.2,0.3-0.4
					c0.1-0.2,0.1-0.5,0.1-1v-6.9c0-0.7-0.1-1.1-0.2-1.2c-0.2-0.2-0.5-0.3-0.9-0.3h-0.4v-0.3h7.8l0.1,2.3h-0.3
					c-0.1-0.6-0.2-0.9-0.3-1.1c-0.1-0.2-0.3-0.4-0.6-0.5c-0.2-0.1-0.5-0.1-1-0.1H229.7z M219.2,293.5l-3.9-8.9v7.1
					c0,0.7,0.1,1.1,0.2,1.2c0.2,0.2,0.5,0.3,0.9,0.3h0.4v0.3h-3.5v-0.3h0.4c0.4,0,0.7-0.1,0.9-0.4c0.1-0.2,0.2-0.5,0.2-1.1v-6.9
					c0-0.5,0-0.8-0.1-1c-0.1-0.2-0.2-0.3-0.4-0.4c-0.2-0.1-0.5-0.2-0.9-0.2v-0.3h2.9l3.7,8.3l3.6-8.3h2.9v0.3h-0.3
					c-0.4,0-0.7,0.1-0.9,0.4c-0.1,0.2-0.2,0.5-0.2,1.1v6.9c0,0.7,0.1,1.1,0.2,1.2c0.2,0.2,0.5,0.3,0.9,0.3h0.3v0.3h-4.3v-0.3h0.4
					c0.4,0,0.7-0.1,0.9-0.4c0.1-0.2,0.2-0.5,0.2-1.1v-7.1l-3.9,8.9H219.2z M198,282.9h2.7l6.2,7.9v-6.1c0-0.7-0.1-1.1-0.2-1.2
					c-0.2-0.2-0.5-0.3-0.9-0.3h-0.3v-0.3h3.5v0.3h-0.4c-0.4,0-0.7,0.1-0.9,0.4c-0.1,0.2-0.2,0.5-0.2,1.1v8.9h-0.3l-6.6-8.5v6.5
					c0,0.7,0.1,1.1,0.2,1.2c0.2,0.2,0.5,0.3,0.9,0.3h0.4v0.3h-3.5v-0.3h0.3c0.4,0,0.7-0.1,0.9-0.4c0.1-0.2,0.2-0.5,0.2-1.1v-7.4
					c-0.3-0.4-0.5-0.6-0.7-0.7c-0.2-0.1-0.4-0.2-0.7-0.3c-0.1,0-0.4-0.1-0.7-0.1V282.9z M192.1,283.5v4.2h2.2c0.6,0,1-0.1,1.2-0.3
					c0.3-0.2,0.4-0.7,0.4-1.3h0.3v3.7h-0.3c-0.1-0.5-0.1-0.8-0.2-1c-0.1-0.2-0.2-0.3-0.4-0.4c-0.2-0.1-0.5-0.2-0.9-0.2h-2.2v3.5
					c0,0.5,0,0.8,0.1,0.9c0,0.1,0.1,0.2,0.2,0.2c0.1,0.1,0.3,0.1,0.6,0.1h1.7c0.6,0,1,0,1.2-0.1c0.3-0.1,0.5-0.2,0.7-0.5
					c0.3-0.3,0.6-0.8,0.9-1.5h0.3l-0.9,2.7h-7.8v-0.3h0.4c0.2,0,0.5-0.1,0.7-0.2c0.2-0.1,0.3-0.2,0.3-0.4c0.1-0.2,0.1-0.5,0.1-1
					v-6.9c0-0.7-0.1-1.1-0.2-1.2c-0.2-0.2-0.5-0.3-0.9-0.3h-0.4v-0.3h7.8l0.1,2.3h-0.3c-0.1-0.6-0.2-0.9-0.3-1.1
					c-0.1-0.2-0.3-0.4-0.6-0.5c-0.2-0.1-0.5-0.1-1-0.1H192.1z M181.8,289.4l-1.7-4.3l-1.8,4.3H181.8z M182,290h-3.9l-0.7,1.7
					c-0.2,0.4-0.3,0.7-0.3,0.9c0,0.2,0.1,0.3,0.2,0.4c0.1,0.1,0.5,0.2,0.9,0.2v0.3h-3.2v-0.3c0.4-0.1,0.7-0.2,0.8-0.3
					c0.3-0.2,0.5-0.8,0.8-1.5l3.5-8.7h0.3l3.5,8.8c0.3,0.7,0.5,1.2,0.8,1.4c0.2,0.2,0.6,0.3,1,0.4v0.3h-4v-0.3
					c0.4,0,0.7-0.1,0.8-0.2c0.1-0.1,0.2-0.3,0.2-0.4c0-0.2-0.1-0.6-0.3-1.1L182,290z M174.6,293.2v0.3h-4.3v-0.3h0.4
					c0.4,0,0.7-0.1,0.9-0.4c0.1-0.2,0.2-0.6,0.2-1.2v-6.8c0-0.5,0-0.9-0.1-1.1c0-0.1-0.2-0.2-0.3-0.3c-0.2-0.1-0.4-0.2-0.7-0.2h-0.4
					v-0.3h4.3v0.3h-0.4c-0.4,0-0.7,0.1-0.9,0.4c-0.1,0.2-0.2,0.6-0.2,1.2v6.8c0,0.5,0,0.9,0.1,1.1c0.1,0.1,0.2,0.2,0.3,0.3
					c0.2,0.1,0.4,0.2,0.7,0.2H174.6z M169,282.7l0.2,3.6H169c-0.3-1.1-0.7-1.8-1.3-2.3c-0.6-0.5-1.3-0.7-2-0.7
					c-0.7,0-1.3,0.2-1.8,0.5c-0.5,0.4-1,0.9-1.3,1.7c-0.3,0.8-0.5,1.8-0.5,2.9c0,1,0.1,1.8,0.4,2.5c0.3,0.7,0.7,1.2,1.3,1.6
					c0.6,0.4,1.3,0.6,2,0.6c0.7,0,1.2-0.1,1.7-0.4c0.5-0.3,1-0.9,1.6-1.7l0.2,0.2c-0.5,0.9-1.1,1.6-1.8,2.1
					c-0.7,0.4-1.5,0.7-2.4,0.7c-1.7,0-3-0.6-3.9-2c-0.7-1-1-2.1-1-3.4c0-1.1,0.2-2,0.7-2.9c0.5-0.9,1.1-1.6,1.9-2.1
					c0.8-0.5,1.7-0.7,2.6-0.7c0.7,0,1.4,0.2,2.2,0.6c0.2,0.1,0.4,0.2,0.4,0.2c0.1,0,0.2-0.1,0.3-0.1c0.1-0.1,0.2-0.3,0.3-0.6H169z
					 M148.6,282.9h2.7l6.2,7.9v-6.1c0-0.7-0.1-1.1-0.2-1.2c-0.2-0.2-0.5-0.3-0.9-0.3h-0.4v-0.3h3.5v0.3h-0.4c-0.4,0-0.7,0.1-0.9,0.4
					c-0.1,0.2-0.2,0.5-0.2,1.1v8.9h-0.3l-6.6-8.5v6.5c0,0.7,0.1,1.1,0.2,1.2c0.2,0.2,0.5,0.3,0.9,0.3h0.4v0.3h-3.5v-0.3h0.3
					c0.4,0,0.7-0.1,0.9-0.4c0.1-0.2,0.2-0.5,0.2-1.1v-7.4c-0.3-0.4-0.5-0.6-0.7-0.7c-0.2-0.1-0.4-0.2-0.7-0.3
					c-0.1,0-0.4-0.1-0.7-0.1V282.9z M142.7,283.5v4.2h2.2c0.6,0,1-0.1,1.2-0.3c0.3-0.2,0.4-0.7,0.4-1.3h0.3v3.7h-0.3
					c-0.1-0.5-0.1-0.8-0.2-1c-0.1-0.2-0.2-0.3-0.4-0.4c-0.2-0.1-0.5-0.2-0.9-0.2h-2.2v3.5c0,0.5,0,0.8,0.1,0.9
					c0,0.1,0.1,0.2,0.2,0.2c0.1,0.1,0.3,0.1,0.6,0.1h1.7c0.6,0,1,0,1.2-0.1c0.3-0.1,0.5-0.2,0.7-0.5c0.3-0.3,0.6-0.8,0.9-1.5h0.3
					l-0.9,2.7h-7.8v-0.3h0.4c0.2,0,0.5-0.1,0.7-0.2c0.2-0.1,0.3-0.2,0.3-0.4c0.1-0.2,0.1-0.5,0.1-1v-6.9c0-0.7-0.1-1.1-0.2-1.2
					c-0.2-0.2-0.5-0.3-0.9-0.3h-0.4v-0.3h7.8l0.1,2.3h-0.3c-0.1-0.6-0.2-0.9-0.3-1.1c-0.1-0.2-0.3-0.4-0.6-0.5
					c-0.2-0.1-0.5-0.1-1-0.1H142.7z M139,290.6l0.2,0.1l-0.9,2.9h-7.8v-0.3h0.4c0.4,0,0.7-0.1,0.9-0.4c0.1-0.2,0.2-0.6,0.2-1.2v-6.8
					c0-0.7-0.1-1.1-0.2-1.2c-0.2-0.2-0.5-0.3-0.9-0.3h-0.4v-0.3h4.6v0.3c-0.5,0-0.9,0-1.1,0.2c-0.2,0.1-0.4,0.2-0.4,0.4
					c-0.1,0.2-0.1,0.6-0.1,1.2v6.6c0,0.4,0,0.7,0.1,0.9c0.1,0.1,0.1,0.2,0.3,0.2c0.1,0.1,0.5,0.1,1.2,0.1h0.7c0.8,0,1.3-0.1,1.6-0.2
					c0.3-0.1,0.6-0.3,0.9-0.6C138.4,291.7,138.7,291.2,139,290.6z M124.1,283.5v4.2h2.2c0.6,0,1-0.1,1.2-0.3
					c0.3-0.2,0.4-0.7,0.4-1.3h0.3v3.7h-0.3c-0.1-0.5-0.1-0.8-0.2-1c-0.1-0.2-0.2-0.3-0.4-0.4c-0.2-0.1-0.5-0.2-0.9-0.2h-2.2v3.5
					c0,0.5,0,0.8,0.1,0.9c0,0.1,0.1,0.2,0.2,0.2c0.1,0.1,0.3,0.1,0.6,0.1h1.7c0.6,0,1,0,1.2-0.1c0.3-0.1,0.5-0.2,0.7-0.5
					c0.3-0.3,0.6-0.8,0.9-1.5h0.3l-0.9,2.7h-7.8v-0.3h0.4c0.2,0,0.5-0.1,0.7-0.2c0.2-0.1,0.3-0.2,0.3-0.4c0.1-0.2,0.1-0.5,0.1-1
					v-6.9c0-0.7-0.1-1.1-0.2-1.2c-0.2-0.2-0.5-0.3-0.9-0.3h-0.4v-0.3h7.8l0.1,2.3h-0.3c-0.1-0.6-0.2-0.9-0.3-1.1
					c-0.1-0.2-0.3-0.4-0.6-0.5c-0.2-0.1-0.5-0.1-1-0.1H124.1z M120,282.7l0.2,3.6H120c-0.3-1.1-0.7-1.8-1.3-2.3
					c-0.6-0.5-1.3-0.7-2-0.7c-0.7,0-1.3,0.2-1.8,0.5c-0.5,0.4-1,0.9-1.3,1.7c-0.3,0.8-0.5,1.8-0.5,2.9c0,1,0.1,1.8,0.4,2.5
					c0.3,0.7,0.7,1.2,1.3,1.6c0.6,0.4,1.3,0.6,2,0.6c0.7,0,1.2-0.1,1.7-0.4c0.5-0.3,1-0.9,1.6-1.7l0.2,0.2c-0.5,0.9-1.1,1.6-1.8,2.1
					c-0.7,0.4-1.5,0.7-2.4,0.7c-1.7,0-3-0.6-3.9-2c-0.7-1-1-2.1-1-3.4c0-1.1,0.2-2,0.7-2.9c0.5-0.9,1.1-1.6,1.9-2.1
					c0.8-0.5,1.7-0.7,2.6-0.7c0.7,0,1.4,0.2,2.2,0.6c0.2,0.1,0.4,0.2,0.4,0.2c0.1,0,0.2-0.1,0.3-0.1c0.1-0.1,0.2-0.3,0.3-0.6H120z
					 M106,287.6l2.2,3.4c0.6,0.9,1,1.5,1.3,1.8c0.3,0.2,0.7,0.4,1.1,0.4v0.3h-4.3v-0.3c0.3,0,0.5,0,0.6-0.1c0.1,0,0.2-0.1,0.3-0.2
					c0.1-0.1,0.1-0.2,0.1-0.3c0-0.1,0-0.2-0.1-0.4c0-0.1-0.2-0.3-0.4-0.7l-1.7-2.7l-2.1,2.8c-0.2,0.3-0.4,0.5-0.4,0.6
					c0,0.1-0.1,0.2-0.1,0.3c0,0.2,0.1,0.3,0.2,0.4c0.1,0.1,0.4,0.2,0.8,0.2v0.3h-3.6v-0.3c0.3,0,0.5-0.1,0.7-0.2
					c0.3-0.1,0.6-0.3,0.9-0.5c0.3-0.2,0.6-0.6,1-1.1l2.4-3.2l-2-3c-0.5-0.8-1-1.4-1.4-1.6c-0.4-0.3-0.8-0.4-1.3-0.4v-0.3h4.7v0.3
					c-0.4,0-0.7,0.1-0.8,0.2c-0.1,0.1-0.2,0.3-0.2,0.4c0,0.2,0.1,0.5,0.4,0.8l1.5,2.4l1.8-2.4c0.2-0.3,0.3-0.5,0.4-0.6
					c0-0.1,0.1-0.2,0.1-0.3c0-0.1,0-0.2-0.1-0.3c-0.1-0.1-0.2-0.2-0.3-0.2c-0.1,0-0.4-0.1-0.7-0.1v-0.3h3.6v0.3
					c-0.3,0-0.5,0.1-0.7,0.1c-0.3,0.1-0.5,0.3-0.7,0.5c-0.2,0.2-0.5,0.6-0.9,1.1L106,287.6z M93.7,283.5v4.2h2.2
					c0.6,0,1-0.1,1.2-0.3c0.3-0.2,0.4-0.7,0.4-1.3h0.3v3.7h-0.3c-0.1-0.5-0.1-0.8-0.2-1c-0.1-0.2-0.2-0.3-0.4-0.4
					c-0.2-0.1-0.5-0.2-0.9-0.2h-2.2v3.5c0,0.5,0,0.8,0.1,0.9c0,0.1,0.1,0.2,0.2,0.2c0.1,0.1,0.3,0.1,0.6,0.1h1.7c0.6,0,1,0,1.2-0.1
					c0.3-0.1,0.5-0.2,0.7-0.5c0.3-0.3,0.6-0.8,0.9-1.5h0.3l-0.9,2.7h-7.8v-0.3h0.4c0.2,0,0.5-0.1,0.7-0.2c0.2-0.1,0.3-0.2,0.3-0.4
					c0.1-0.2,0.1-0.5,0.1-1v-6.9c0-0.7-0.1-1.1-0.2-1.2c-0.2-0.2-0.5-0.3-0.9-0.3h-0.4v-0.3h7.8l0.1,2.3h-0.3
					c-0.1-0.6-0.2-0.9-0.3-1.1c-0.1-0.2-0.3-0.4-0.6-0.5c-0.2-0.1-0.5-0.1-1-0.1H93.7z"/>
			</g>
		</g>
	</g>
	<g>
		<path class="st63" d="M115.2,242.1c2.3,0,3.8,1.3,4.4,1.3c0.5,0,0.7-0.2,1.1-0.2c1,0,2.2,1.6,2.2,4.5c0,1.5-0.8,2.7-2.2,2.7
			c-2.4,0-1.8-4.6-6-4.6c-1.8,0-2.5,1.9-2.5,3.3c0,3.9,1.8,7.1,5.1,7.1c3,0,3.4-1.8,4.1-1.8c0.7,0,1,0.9,1,1.5
			c0,1.1-1.1,3.5-2.2,3.5c-0.8,0-2.4,1.5-5.2,1.5c-4.9,0-8.9-4.3-8.9-9.6C106.1,246.2,110.6,242.1,115.2,242.1z"/>
		<path class="st63" d="M125.7,260.7c-0.7,0-1.9,0.1-1.9-1.1c0-1.6,1.8-0.3,1.9-3.3c0-1.9,0-3.6,0-5.1c0-1.6-0.1-3-0.2-4.5
			c0-2.2-2.1-1-2.1-2.5c0-1.9,3.7-2,4.8-2c4.7,0,4.9,0.9,4.9,1.8c0,1.5-1.8,0.4-1.8,2.8v8.3c0,1.9,0.3,2.8,1.9,2.8
			c4,0,2.6-3.6,4.1-3.6c1.1,0,1.4,1.3,1.4,2.2c0,2-1.3,4.6-2.4,4.6c-0.4,0-0.7-0.1-1.2-0.2c-0.4-0.1-1-0.2-1.8-0.2H125.7z"/>
		<path class="st63" d="M141,250.3c0-3.3-0.2-4.1-0.5-4.4c-0.5-0.8-1.4-0.8-1.4-1.8c0-1.9,4.8-1.9,5.2-1.9c1.4,0,4.3,0.1,4.3,1.8
			c0,0.9-0.9,0.9-1.4,1.6c-0.4,0.6-0.5,2.9-0.5,4.7v2.6c0,4.6,0.3,4.5,0.7,4.8c0.6,0.4,1.1,0.5,1.1,1.3c0,0.8-0.2,2-5.3,2
			c-1,0-3.9,0-3.9-1.7c0-0.8,0.8-1,1.2-1.5c0.3-0.4,0.5-1.3,0.5-5V250.3z M140.6,240.3c0-1.1,1.6-1.5,1.6-2.2c0-0.2-0.2-0.3-0.2-0.6
			c0-0.7,1.6-0.8,2-0.8c0.7,0,2.8,0.3,2.8,1.5c0,0.7-1.8,3.1-5,3.1C141.3,241.3,140.6,241.2,140.6,240.3z"/>
		<path class="st63" d="M161.7,248.7c0.3,0.3,1,1,1.4,1c0.6,0,0.6-1.1,0.6-1.5c0-0.7,0-1.8-0.2-2.4c-0.3-1.1-1.6-0.7-1.6-2.1
			c0-1.7,2.4-1.6,3.4-1.6c1,0,3.6-0.1,3.6,1.7c0,1.5-1.2,0.9-1.6,2.1c-0.3,0.9-0.3,2.6-0.3,3.5v6.8c0,1.2,0.1,4.7-1.4,4.7
			c-0.5,0-0.9-0.3-1.2-0.7l-7.2-7.2c-0.3-0.3-0.9-1-1.4-1c-0.7,0-0.7,1.7-0.7,2.2c0,0.7,0,1.7,0.2,2.4c0.4,1.7,1.6,1,1.6,2.3
			c0,1.7-2.4,1.9-3.5,1.9c-1.1,0-3.5-0.2-3.5-1.9c0-1.4,1.4-0.8,1.6-2.5c0.2-1.1,0.2-2.8,0.2-3.9c0-1.9,0-3.8-0.3-5.7
			c-0.4-2.6-2.1-1.6-2.1-3.2c0-1.9,3.2-1.7,4.2-1.7c1.4,0,1.7,0.1,2.8,1.1L161.7,248.7z"/>
		<path class="st63" d="M171.5,250.3c0-3.3-0.2-4.1-0.5-4.4c-0.5-0.8-1.4-0.8-1.4-1.8c0-1.9,4.8-1.9,5.2-1.9c1.4,0,4.3,0.1,4.3,1.8
			c0,0.9-0.9,0.9-1.4,1.6c-0.4,0.6-0.5,2.9-0.5,4.7v2.6c0,4.6,0.3,4.5,0.7,4.8c0.6,0.4,1.1,0.5,1.1,1.3c0,0.8-0.2,2-5.3,2
			c-1,0-3.9,0-3.9-1.7c0-0.8,0.8-1,1.2-1.5c0.3-0.4,0.5-1.3,0.5-5V250.3z"/>
		<path class="st63" d="M189.1,242.1c2.3,0,3.8,1.3,4.4,1.3c0.5,0,0.7-0.2,1.1-0.2c1,0,2.2,1.6,2.2,4.5c0,1.5-0.8,2.7-2.2,2.7
			c-2.4,0-1.8-4.6-6-4.6c-1.8,0-2.5,1.9-2.5,3.3c0,3.9,1.8,7.1,5.1,7.1c3,0,3.4-1.8,4.1-1.8c0.7,0,1,0.9,1,1.5
			c0,1.1-1.1,3.5-2.2,3.5c-0.8,0-2.4,1.5-5.2,1.5c-4.9,0-8.9-4.3-8.9-9.6C180,246.2,184.5,242.1,189.1,242.1z"/>
		<path class="st63" d="M201.8,251.3c0.7-1.8,1.7-4.1,1.7-6.2c0-1.8,0.7-3.2,2.8-3.2c2,0,3.3,2.3,4.2,4c0.4,0.8,3.9,8.7,4.8,10.9
			c0.8,2,2,0.8,2,2.3c0,1.9-3.3,1.8-4.5,1.8c-3.3,0-5.3,0-5.3-1.6c0-1.3,1.4-0.8,1.4-1.7c0-1.2-0.6-1.3-4.3-1.3
			c-1.2,0-1.9,0.1-1.9,1.3c0,1,1.5,0.3,1.5,1.7c0,1.6-2.5,1.6-3.5,1.6c-3.3,0-3.6-0.7-3.6-1.5c0-1.2,1.3-0.9,1.9-1.8
			c0.5-0.7,1-2,1.4-2.8L201.8,251.3z M206.7,253.2c0.2,0,0.9,0.1,0.9-0.3c0-0.4-0.7-1.7-0.9-2.1c-0.2-0.4-0.6-1.4-1.1-1.4
			c-0.6,0-1,1.6-1.1,1.9c-0.1,0.3-0.5,1.3-0.5,1.6c0,0.4,0.6,0.4,0.8,0.4H206.7z"/>
		<path class="st63" d="M227.1,246.7c0-2.7-1.7-1.4-1.7-3.1c0-1.2,1.4-1.4,2.2-1.4h7.6c6.5,0,8.6,4.5,8.6,9.2c0,4.8-2.5,9.4-8.5,9.4
			c-1,0-1.8,0-2.6-0.1c-0.7,0-1.4-0.1-2-0.1s-1.3,0-2,0.1c-0.7,0.1-1.3,0.1-2,0.1c-0.8,0-1.8-0.4-1.8-1.5c0-1.9,1.8,0.2,1.9-3.6
			L227.1,246.7z M232.7,256.2c0,1.3,0.2,1.9,1.4,1.9c2.9,0,3.5-3.4,3.5-6c0-6.1-2.1-7.1-3.9-7.1c-1,0-1.1,0.4-1.1,1.4V256.2z"/>
		<path class="st63" d="M254.4,242.4c3.1,0,3.6-0.5,3.9-0.5c1.3,0,1.9,2.6,1.9,3.7c0,0.9-0.3,1.9-1.2,1.9c-1.8,0-0.3-2.5-4.8-2.5
			c-2.6,0-2.3,0.5-2.3,3.5c0,1.5,0.1,1.6,1.5,1.6c1.8,0,0.4-2.9,2.1-2.9c1.4,0,1.4,2.9,1.4,4c0,1.1-0.2,4.2-1.6,4.2
			c-1.4,0,0-2.7-2.4-2.7c-1,0-1,1-1,1.8c0,3.8,0.2,3.6,2.7,3.6c4.8,0,3.4-3.7,5.3-3.7c0.7,0,1.1,0.9,1.1,1.7c0,1.8-1.3,5-2.2,5
			c-0.2,0-0.5-0.1-1-0.2c-0.5-0.1-1.2-0.1-2-0.1h-9.6c-1.5,0-1.6-0.8-1.6-1.1c0-1.4,1.6-0.3,1.8-3.1c0.3-4.7,0.3-4.3,0.1-9
			c-0.2-4-1.9-1.9-1.9-3.8c0-1.6,2-1.3,2.9-1.3H254.4z"/>
		<path class="st63" d="M271.3,260.7c-0.7,0-1.9,0.1-1.9-1.1c0-1.6,1.8-0.3,1.9-3.3c0-1.9,0-3.6,0-5.1c0-1.6-0.1-3-0.2-4.5
			c0-2.2-2.1-1-2.1-2.5c0-1.9,3.7-2,4.8-2c4.7,0,4.9,0.9,4.9,1.8c0,1.5-1.8,0.4-1.8,2.8v8.3c0,1.9,0.3,2.8,1.9,2.8
			c4,0,2.6-3.6,4.1-3.6c1.1,0,1.4,1.3,1.4,2.2c0,2-1.3,4.6-2.4,4.6c-0.4,0-0.7-0.1-1.2-0.2c-0.4-0.1-1-0.2-1.8-0.2H271.3z"/>
		<path class="st63" d="M289,251.3c0.7-1.8,1.7-4.1,1.7-6.2c0-1.8,0.7-3.2,2.8-3.2c2,0,3.3,2.3,4.2,4c0.4,0.8,3.9,8.7,4.8,10.9
			c0.8,2,2,0.8,2,2.3c0,1.9-3.3,1.8-4.5,1.8c-3.3,0-5.3,0-5.3-1.6c0-1.3,1.4-0.8,1.4-1.7c0-1.2-0.6-1.3-4.3-1.3
			c-1.2,0-1.9,0.1-1.9,1.3c0,1,1.5,0.3,1.5,1.7c0,1.6-2.5,1.6-3.5,1.6c-3.3,0-3.6-0.7-3.6-1.5c0-1.2,1.3-0.9,1.9-1.8
			c0.5-0.7,1-2,1.4-2.8L289,251.3z M293.9,253.2c0.2,0,0.9,0.1,0.9-0.3c0-0.4-0.7-1.7-0.9-2.1c-0.2-0.4-0.6-1.4-1.1-1.4
			c-0.6,0-1,1.6-1.1,1.9c-0.1,0.3-0.5,1.3-0.5,1.6c0,0.4,0.6,0.4,0.8,0.4H293.9z"/>
		<path class="st63" d="M318.4,253.4c-0.1-0.3-0.4-1.1-0.8-1.1c-0.7,0-0.5,3.4-0.5,4.3c0,2.8,1.5,1.5,1.5,2.9c0,1.5-2.5,1.5-3.4,1.5
			c-0.8,0-2.9-0.1-2.9-1.4c0-1.5,1.4-0.3,1.6-2.4c0.2-2.2,0.4-4.6,0.4-8.4c0-1.6-0.1-2.4-0.4-3c-0.2-0.5-1.6-0.7-1.6-1.8
			c0-1.5,2.2-1.9,4-1.9c2.7,0,2.7,0.5,3.4,1.9c0.8,1.5,2.3,5.8,3.3,6.1c0.7,0.2,1.7-3,2.5-4.7c1.2-2.4,1.2-3.2,4.3-3.2
			c1,0,3.4,0.1,3.4,1.7c0,1-1.1,1.3-1.3,2.1c-0.2,0.7-0.3,3.8-0.3,5c0,0.4,0.1,3.3,0.2,5.7c0.1,1.9,1.5,1.5,1.5,2.7
			c0,1.7-3.2,1.7-4.2,1.7c-1,0-4.2,0.1-4.2-1.6c0-0.9,1.1-1.1,1.2-1.9c0.1-0.4,0.6-4.9-0.3-4.9c-0.7,0-1.5,2.3-2,3.6
			c-0.5,1.2-1.4,4.2-2.1,4.1c-0.4-0.1-0.6,0-2-3.5L318.4,253.4z"/>
		<path class="st63" d="M348.3,246.9c0-2.8-2-1.7-2-3.2c0-1.6,2.7-1.6,3.7-1.6c0.9,0,3.5,0,3.5,1.5c0,1.5-1.8,0.6-1.8,2.9v7
			c0,1.2,0,7.4-8.1,7.4c-9.2,0-8.2-7.9-8.2-8.2v-6c0.1-1.6-1.5-1.6-1.5-2.8c0-0.4-0.3-1.8,4.6-1.8c3.8,0,4.6,0.8,4.6,1.8
			c0,1.9-1.7,0.1-1.8,3.3v4.8c0,3.1,1.1,5.1,3.5,5.1c3.7,0,3.5-3.4,3.5-3.7V246.9z"/>
		<path class="st63" d="M366.9,255c-0.1,5.5-5.3,6-6.6,6c-2.7,0-6.7-1.3-6.7-5c0-1.7,1.1-3.1,2.6-3.1c1.4,0,2.7,0.9,2.7,2.6
			c0,0.4-0.2,0.9-0.2,1.2c0,0.7,0.5,1,1,1c2.8-0.3,1.4-5.6,1.6-10.3c0.1-2.9-2.1-1.4-2.1-3.1c0-0.5,0.2-2.2,4.7-2.2
			c4.4,0,4.9,1.2,4.9,1.9c0,1.4-1.8,0.7-1.9,2.9L366.9,255z"/>
		<path class="st63" d="M379.1,242.4c3.1,0,3.6-0.5,3.9-0.5c1.3,0,1.9,2.6,1.9,3.7c0,0.9-0.3,1.9-1.2,1.9c-1.8,0-0.4-2.5-4.8-2.5
			c-2.6,0-2.3,0.5-2.3,3.5c0,1.5,0.1,1.6,1.5,1.6c1.8,0,0.4-2.9,2.1-2.9c1.4,0,1.4,2.9,1.4,4c0,1.1-0.2,4.2-1.6,4.2
			c-1.4,0,0-2.7-2.4-2.7c-1,0-1,1-1,1.8c0,3.8,0.2,3.6,2.7,3.6c4.8,0,3.4-3.7,5.3-3.7c0.7,0,1.1,0.9,1.1,1.7c0,1.8-1.3,5-2.2,5
			c-0.2,0-0.5-0.1-1-0.2c-0.5-0.1-1.2-0.1-2-0.1h-9.6c-1.5,0-1.6-0.8-1.6-1.1c0-1.4,1.6-0.3,1.8-3.1c0.3-4.7,0.3-4.3,0.1-9
			c-0.2-4-1.9-1.9-1.9-3.8c0-1.6,2-1.3,2.9-1.3H379.1z"/>
		<path class="st63" d="M388.2,247.9c0-4-1.8-2.4-1.8-4c0-1.4,1.8-1.6,2.8-1.6c0.5,0,1,0.1,1.4,0.1c0.5,0.1,1,0.1,1.4,0.1
			c0.7,0,1.5-0.1,2.3-0.1c0.7,0,1.5-0.1,2.3-0.1c2.6,0,5.7,1.3,5.7,4.8c0,1.6-0.7,3.1-2,3.8c-0.2,0.1-0.4,0.2-0.4,0.5
			c0,0.4,0.3,0.5,0.6,0.6c1.6,0.7,2.4,1.9,2.7,4.7c0.3,2.4,1.8,1,1.8,2.6c0,1-1.1,2-3.7,2c-3.7,0-4.2-2.4-4.9-5.8
			c-0.3-1.2-0.7-2.4-1.9-2.4c-0.5,0-0.7,0.1-0.7,1.7c0,0.8,0,1.8,0.2,2.5c0.2,1.2,1.4,0.8,1.4,2.1c0,0.9-0.6,1.6-4.4,1.6
			c-1.1,0-4.4,0-4.4-1.9c0-1.4,1.8-0.4,1.8-3.8V247.9z M393.6,249c0,0.7-0.2,1.3,0.6,1.3c1.5,0,2-0.9,2-2.6c0-1.3-0.3-2.6-1.6-2.6
			c-0.9,0-0.8,0.6-0.9,1.4L393.6,249z"/>
	</g>
</g>
<g id="Capa_2">
</g>
</svg>
