<?xml version="1.0" encoding="utf-8"?>
<!-- Generator: Adobe Illustrator 23.0.5, SVG Export Plug-In . SVG Version: 6.00 Build 0)  -->
<svg version="1.1" xmlns="http://www.w3.org/2000/svg" xmlns:xlink="http://www.w3.org/1999/xlink" x="0px" y="0px"
	 viewBox="0 0 1920 1080" style="enable-background:new 0 0 1920 1080;" xml:space="preserve">
<style type="text/css">
	.st0{display:none;fill:#26DBBC;}
	.st1{fill:#22BAAB;}
	.st2{opacity:0.53;fill:#FFFFFF;}
	.st3{opacity:0.32;}
	.st4{fill:#D8D9DC;}
	.st5{fill:#22732C;}
	.st6{opacity:0.31;fill:#002D09;}
	.st7{opacity:0.31;fill:none;}
	.st8{fill:#289890;stroke:#289890;stroke-miterlimit:10;}
	.st9{opacity:6.000000e-02;fill:#22732C;}
	.st10{fill:#FBFFFF;}
	.st11{opacity:0.93;}
	.st12{fill:#1C100B;}
	.st13{font-family:'MyriadPro-Regular';}
	.st14{font-size:64.6448px;}
	.st15{fill:#FFFFFF;}
	.st16{font-size:61.9512px;}
	.st17{opacity:7.000000e-02;}
	.st18{opacity:0.26;}
	.st19{stroke:#875F3C;stroke-width:0.75;stroke-miterlimit:10;}
	.st20{stroke:#875F3C;stroke-miterlimit:10;}
	.st21{opacity:0.49;}
	.st22{opacity:0.29;stroke:#755232;stroke-width:0.75;stroke-miterlimit:10;}
	.st23{opacity:0.36;}
	.st24{opacity:0.46;}
	.st25{fill:#005071;}
	.st26{fill:#AD7446;}
	.st27{fill:#F4D8BD;}
	.st28{fill:#AE7243;}
	.st29{fill:#F3DAC0;}
	.st30{fill:#F4DBBE;}
	.st31{fill:#512B0E;}
	.st32{opacity:0.26;fill:#C0798F;}
	.st33{fill:#E49EB5;}
	.st34{fill:#E5B2C1;}
	.st35{fill:#EDBA96;}
	.st36{fill:#F4D9BC;}
	.st37{fill:#AFD0DD;}
	.st38{fill:#668B97;}
	.st39{fill:#F2CBAE;}
	.st40{fill:#F4D9BD;}
	.st41{fill:#DDBBA3;}
	.st42{fill:#875F3C;}
	.st43{fill:none;stroke:#875F3C;stroke-width:0.75;stroke-miterlimit:10;}
	.st44{fill:#B7304B;}
	.st45{fill:#D87081;}
	.st46{fill:none;stroke:#875F3C;stroke-miterlimit:10;}
	.st47{fill:#FAF8FA;}
	.st48{fill:#723D2B;}
	.st49{fill:#4C1E0F;}
	.st50{opacity:0.49;fill:#D9CBB8;}
	.st51{opacity:0.29;fill:none;stroke:#755232;stroke-width:0.75;stroke-miterlimit:10;}
	.st52{fill:#BF364D;}
	.st53{opacity:0.36;fill:#EBBD8B;}
	.st54{fill:#F3D8BC;}
	.st55{opacity:0.46;fill:#003344;}
</style>
<g id="Capa_1">
	<g id="Capa_3">
	</g>
	<rect x="0" y="4.5" class="st0" width="1917.2" height="1075.5"/>
	<rect x="0" y="4.5" class="st1" width="1920" height="1075.5"/>
	<path class="st2" d="M1735.5,938.9H234.9c-39.4,0-71.3-31.9-71.3-71.3V324.8c0-39.4,31.9-71.3,71.3-71.3h1500.5
		c39.4,0,71.3,31.9,71.3,71.3v542.8C1806.8,906.9,1774.8,938.9,1735.5,938.9z"/>
	<path class="st2" d="M1733.1,950.9h-1538c-40.4,0-73.1-32.7-73.1-73.1V321.5c0-40.4,32.7-73.1,73.1-73.1h1538
		c40.4,0,73.1,32.7,73.1,73.1v556.3C1806.2,918.2,1773.5,950.9,1733.1,950.9z"/>
	<g class="st3">
		<path class="st4" d="M1133.3,1059.2l0.9,3.8l19.2-3.8l-0.4-1.6C1146.5,1058.1,1139.9,1058.6,1133.3,1059.2z"/>
		<path class="st4" d="M1774.2,766.1c-2.1-4.7-3.3-9.9-3.6-15.2c0-1,0-2,0-2.9l-48.8,19.5l-49.9-45.8l-138,55.2
			c-6.1,2.6-10.2,3-12.2,2.9c0.3-0.7,0.8-1.7,1.8-3c48.2-38.8,81.2-85.3,95.5-134.3c13.4-45.9,10.5-93-8.5-136.2
			c-19-43.4-52.7-79.8-97.4-105.4c-47-26.9-104.2-40-165.2-38c-6.5-0.7-10-3.6-9.9-6.1c0.1-3.2,5.9-6.8,16.5-7.2l134.3-11.7
			l121.6,40l156.7,201.9c0.1-1.5,0.3-2.9,0.5-4.3c-0.3-1.7-0.5-3.4-0.6-5.1c-0.3-5.9,1.1-11.7,3.7-16.9l-147.9-190.5l-131.6-43.3
			l-138,12.1c-23.8,1.1-34.7,13.2-34.9,24.7c-0.3,10.9,9.4,22.8,28.4,24.4l1.2,0c57.4-2,110.9,10.2,154.7,35.2
			c41.2,23.5,72.1,57,89.6,96.8c17.3,39.6,20,82.8,7.7,125c-13.4,45.9-44.6,89.5-90.3,126.2l-0.8,0.6l-0.6,0.7
			c-7.7,9.4-8.8,19-2.7,25.8c6.9,7.9,20.6,8.6,36.3,2l29.1-11.6l17.5,36.3l-56.3,22.5l25.9,53.8l-46.9,18.8l-25.6-53.2l-60.1,24
			l-18.4-38.3l16.7-6.7c16-6.1,24.5-15.6,22.9-25.6c-1.4-8.7-9.8-14.6-22.6-15.8l-1-0.1l-1,0.1c-59.9,5.6-115.7-3.1-161.5-25.3
			c-42.1-20.4-75-51.5-95.3-89.9c-20.4-38.7-26.7-82.1-18.1-125.6c9.2-46.3,35.1-90.3,75-127.2l0.8-0.9c11.5-13.8,8.4-28.3-0.7-35.5
			c-9.5-7.5-26.5-8.4-43.2,6.7l-101.9,83.8l-53.2,117.2l33.8,142l42.6,179c6.7,0,13.4,0,20.1,0l-42.8-179.5l-33.3-139.9l49.1-108.3
			l98.7-81.2l0.4-0.3c7.3-6.7,14-8.1,16.6-6c2.1,1.7,2.2,6-1.7,10.8c-42.4,39.4-70,86.4-79.8,136.1c-9.3,47.2-2.5,94.4,19.7,136.5
			c22.1,41.9,58,75.7,103.8,97.9c49,23.7,108.3,33.2,171.6,27.4c1.7,0.2,2.9,0.6,3.6,0.9c-1.2,1.4-4.3,3.8-10.6,6.2l-136.4,54.5
			l2.6,46.9c6.6,0.1,13.1,0.1,19.7,0.2l-1.9-35.7l89.2-35.7l26.3,54.6l60.1-24l25.6,53.2l82.9-33.2l-25.9-53.8l56.3-22.5l-25.4-52.6
			l78.4-31.3l41,37.6l23.4,48.5l18-7.2l-18.6-38.7L1774.2,766.1z"/>
		<path class="st4" d="M1287.3,411.8c-108,43.2-157.3,158.3-109.9,256.7c47.4,98.4,173.8,143.3,281.8,100.1
			c108-43.2,157.3-158.4,109.9-256.7C1521.7,413.5,1395.3,368.6,1287.3,411.8z M1451.3,752.2c-98.1,39.2-212.9-1.6-255.9-90.9
			c-43-89.4,1.7-194,99.8-233.2c98.1-39.2,212.9,1.6,255.9,90.9C1594.2,608.4,1549.4,713,1451.3,752.2z"/>
	</g>
	<rect x="37.6" y="982.3" class="st5" width="1845.1" height="93.6"/>
	<ellipse class="st6" cx="1527.8" cy="997.1" rx="121.7" ry="19.7"/>
	<rect x="0" y="4.9" class="st7" width="1920" height="1071"/>
	<g>
		<g>
			<path class="st8" d="M255.8,405c0,0-1.5-0.3-4.4-0.9c-3-0.6-5.7-1.5-8.3-2.7c-2.6-1.2-4.9-2.6-7-4.2l5.7-9.8
				c2.5,2,5.4,3.5,8.6,4.6c3.3,1.1,6.6,1.6,10.1,1.6c4,0,7.1-0.7,9.3-2c2.2-1.3,3.3-3.2,3.3-5.6v0c0-1.7-0.5-3-1.5-4
				c-1-1-2.3-1.7-3.8-2.2c-1.6-0.5-3.6-0.9-6.1-1.3c-0.1,0-0.2,0-0.2,0c-0.1,0-0.2,0-0.2,0l-1-0.1c-4.3-0.7-7.9-1.5-10.8-2.5
				c-2.9-1-5.3-2.7-7.3-5.3c-2-2.5-3-6.1-3-10.7v0c0-4.1,0.9-7.6,2.8-10.5c1.9-2.9,4.6-5.1,8.2-6.6s7.9-2.3,12.9-2.3
				c2.3,0,4.7,0.3,7.1,0.8c2.4,0.5,4.8,1.3,7.1,2.3c2.3,1,4.5,2.2,6.6,3.6l-5.2,10.1c-2.5-1.7-5.1-3-7.8-3.9
				c-2.7-0.9-5.3-1.4-7.8-1.4c-3.7,0-6.6,0.6-8.7,1.8c-2,1.2-3.1,2.9-3.1,5.1v0c0,1.8,0.5,3.3,1.6,4.3c1.1,1.1,2.4,1.8,4,2.3
				c1.6,0.5,3.8,1,6.6,1.6c0.1,0,0.2,0.1,0.4,0.1c0.1,0,0.2,0,0.4,0.1c0.2,0,0.3,0.1,0.5,0.1c0.2,0,0.3,0.1,0.5,0.1
				c4.1,0.8,7.5,1.7,10.3,2.8c2.7,1.1,5,2.9,6.9,5.4c1.8,2.5,2.8,5.9,2.8,10.1v0.1c0,4-1,7.5-2.9,10.3c-1.9,2.9-4.7,5-8.4,6.6
				c-3.7,1.5-8.1,2.3-13.3,2.3C257.4,405,255.8,405,255.8,405z"/>
			<path class="st8" d="M296.3,341.2h12.2v63.1h-12.2V341.2z M300.7,341.2h39v11.5h-39V341.2z M300.7,367.2h34.1v11.5h-34.1V367.2z
				 M300.7,392.9h39v11.5h-39V392.9z"/>
			<path class="st8" d="M350.8,341.2H363v63.1h-12.2V341.2z M355.7,367.5h22.5c1.2,0,2.3-0.3,3.3-0.9c1-0.6,1.7-1.5,2.2-2.6
				c0.5-1.1,0.8-2.4,0.8-3.9c0-1.5-0.3-2.8-0.8-3.9c-0.5-1.1-1.3-2-2.2-2.6c-1-0.6-2.1-0.9-3.3-0.9h-22.5v-11.5h23.5
				c3.6,0,6.7,0.8,9.4,2.3c2.7,1.6,4.8,3.8,6.3,6.6c1.5,2.9,2.2,6.2,2.2,9.9c0,3.8-0.7,7.1-2.2,9.9c-1.5,2.9-3.6,5.1-6.3,6.6
				c-2.7,1.6-5.8,2.3-9.4,2.3h-23.5V367.5z M369.3,377l13.1-2l17.5,29.3H385L369.3,377z"/>
			<path class="st8" d="M403.6,341.2h12.6l13.8,42.1l13.8-42.1h12.6l-21.6,63.1h-9.5L403.6,341.2z"/>
			<path class="st8" d="M475.6,404.3H463v-63.1h12.7V404.3z"/>
			<path class="st8" d="M503.7,405c0,0-1.8-0.9-5.3-2.8c-3.5-1.8-6.2-4.5-8-8c-1.8-3.5-2.8-7.8-2.8-12.7v-17.3c0-5,0.9-9.2,2.8-12.7
				c1.8-3.5,4.5-6.2,8-8.1c3.5-1.9,7.7-2.8,12.7-2.8c4.1,0,7.7,0.9,10.9,2.6c3.2,1.7,5.9,4.2,8,7.4c2.1,3.3,3.5,7.2,4.3,11.8h-12.7
				c-0.5-2.1-1.2-3.9-2.2-5.3c-1-1.5-2.2-2.6-3.6-3.4c-1.4-0.8-3-1.2-4.7-1.2c-2.3,0-4.2,0.5-5.8,1.4c-1.6,0.9-2.8,2.2-3.7,4
				c-0.8,1.8-1.3,3.9-1.3,6.3v17.3c0,2.5,0.4,4.6,1.3,6.3c0.8,1.7,2.1,3.1,3.7,4c1.6,0.9,3.5,1.4,5.8,1.4c1.8,0,3.4-0.4,4.8-1.1
				c1.4-0.8,2.6-1.9,3.6-3.4c1-1.5,1.7-3.3,2.1-5.4h12.7c-0.8,4.6-2.3,8.5-4.4,11.8c-2.1,3.3-4.7,5.7-7.9,7.4
				c-3.2,1.7-6.8,2.6-10.9,2.6C506.2,405,503.7,405,503.7,405z"/>
			<path class="st8" d="M557.2,404.3h-12.7v-63.1h12.7V404.3z"/>
			<path class="st8" d="M580.5,402.1c-3.6-1.9-6.3-4.6-8.3-8.2c-2-3.5-2.9-7.6-2.9-12.2v-17.9c0-4.6,1-8.7,2.9-12.2s4.7-6.2,8.3-8.2
				s7.7-2.9,12.4-2.9c4.7,0,8.8,1,12.4,2.9c3.6,1.9,6.3,4.6,8.3,8.2s2.9,7.6,2.9,12.2v17.9c0,4.6-1,8.7-2.9,12.2
				c-2,3.5-4.7,6.2-8.3,8.2c-3.6,1.9-7.7,2.9-12.4,2.9C588.2,405,584.1,404,580.5,402.1z M598.7,391.7c1.7-0.9,2.9-2.2,3.9-3.9
				c0.9-1.7,1.4-3.6,1.4-5.8v-18.5c0-2.2-0.5-4.1-1.4-5.8c-0.9-1.7-2.2-3-3.9-3.9c-1.7-0.9-3.6-1.4-5.8-1.4c-2.2,0-4.1,0.5-5.8,1.4
				c-1.7,0.9-2.9,2.2-3.9,3.9c-0.9,1.7-1.4,3.6-1.4,5.8V382c0,2.2,0.5,4.1,1.4,5.8c0.9,1.7,2.2,3,3.9,3.9c1.7,0.9,3.6,1.4,5.8,1.4
				C595.1,393.1,597,392.6,598.7,391.7z"/>
			<path class="st8" d="M654,341.2h12.2v63.1H654V341.2z M660.1,392.9h15.5c4,0,7.1-0.9,9.3-2.8c2.2-1.9,3.3-4.5,3.3-8v-18.6
				c0-3.4-1.1-6.1-3.3-8c-2.2-1.9-5.3-2.8-9.3-2.8h-15.5v-11.5h15.3c5.4,0,10,0.9,13.8,2.6c3.8,1.8,6.7,4.3,8.7,7.7
				c2,3.4,3,7.5,3,12.2v17.9c0,4.5-1,8.5-2.9,11.9s-4.8,6-8.6,7.9c-3.8,1.9-8.5,2.8-14.1,2.8h-15.2V392.9z"/>
			<path class="st8" d="M713.9,341.2h12.2v63.1h-12.2V341.2z M718.3,341.2h39v11.5h-39V341.2z M718.3,367.2h34.1v11.5h-34.1V367.2z
				 M718.3,392.9h39v11.5h-39V392.9z"/>
			<path class="st8" d="M786.2,341.2h12.6l13.8,42.1l13.8-42.1h12.6l-21.6,63.1h-9.5L786.2,341.2z"/>
			<path class="st8" d="M865,341.2h7.8l24.8,63.1h-13.1l-15.5-43.1l-15.5,43.1h-13.1L865,341.2z M852.1,382.7h34.1v11.5h-34.1V382.7
				z"/>
			<path class="st8" d="M920.3,405c0,0-1.8-0.9-5.3-2.8c-3.5-1.8-6.2-4.5-8-8c-1.8-3.5-2.8-7.8-2.8-12.7v-17.3c0-5,0.9-9.2,2.8-12.7
				c1.8-3.5,4.5-6.2,8-8.1c3.5-1.9,7.7-2.8,12.7-2.8c4.1,0,7.7,0.9,10.9,2.6c3.2,1.7,5.9,4.2,8,7.4c2.1,3.3,3.5,7.2,4.3,11.8h-12.7
				c-0.5-2.1-1.2-3.9-2.2-5.3c-1-1.5-2.2-2.6-3.6-3.4c-1.4-0.8-3-1.2-4.7-1.2c-2.3,0-4.2,0.5-5.8,1.4c-1.6,0.9-2.8,2.2-3.7,4
				c-0.8,1.8-1.3,3.9-1.3,6.3v17.3c0,2.5,0.4,4.6,1.3,6.3c0.8,1.7,2.1,3.1,3.7,4c1.6,0.9,3.5,1.4,5.8,1.4c1.8,0,3.4-0.4,4.8-1.1
				c1.4-0.8,2.6-1.9,3.6-3.4s1.7-3.3,2.1-5.4h12.7c-0.8,4.6-2.3,8.5-4.4,11.8c-2.1,3.3-4.7,5.7-7.9,7.4c-3.2,1.7-6.8,2.6-10.9,2.6
				C922.7,405,920.3,405,920.3,405z"/>
			<path class="st8" d="M971.9,402.2c-3.5-1.8-6.2-4.5-8.1-8s-2.8-7.7-2.8-12.7v-40.3h12.2v40.6c0,3.6,1,6.4,3,8.4c2,2,4.8,3,8.4,3
				c3.7,0,6.5-1,8.5-3s3-4.8,3-8.4v-40.6h12.2v40.3c0,4.9-0.9,9.2-2.8,12.7s-4.6,6.2-8.1,8c-3.5,1.8-7.8,2.8-12.8,2.8
				S975.5,404,971.9,402.2z"/>
			<path class="st8" d="M1021.8,341.2h14.9l24.1,48.3l-1.1,1.1v-49.5h11.7v63.1h-15l-24-47.6l1.1-1.1v48.7h-11.7V341.2z"/>
			<path class="st8" d="M1104.2,341.2h7.8l24.8,63.1h-13.1l-15.5-43.1l-15.5,43.1h-13.1L1104.2,341.2z M1091.4,382.7h34.1v11.5
				h-34.1V382.7z"/>
			<path class="st8" d="M1159.5,405c0,0-1.8-0.9-5.3-2.8c-3.5-1.8-6.2-4.5-8-8s-2.8-7.8-2.8-12.7v-17.3c0-5,0.9-9.2,2.8-12.7
				s4.5-6.2,8-8.1c3.5-1.9,7.7-2.8,12.7-2.8c4.1,0,7.7,0.9,10.9,2.6c3.2,1.7,5.9,4.2,8,7.4c2.1,3.3,3.5,7.2,4.3,11.8h-12.7
				c-0.5-2.1-1.2-3.9-2.2-5.3s-2.2-2.6-3.6-3.4c-1.4-0.8-3-1.2-4.7-1.2c-2.3,0-4.2,0.5-5.8,1.4c-1.6,0.9-2.8,2.2-3.7,4
				c-0.8,1.8-1.3,3.9-1.3,6.3v17.3c0,2.5,0.4,4.6,1.3,6.3c0.8,1.7,2.1,3.1,3.7,4c1.6,0.9,3.5,1.4,5.8,1.4c1.8,0,3.4-0.4,4.8-1.1
				c1.4-0.8,2.6-1.9,3.6-3.4c1-1.5,1.7-3.3,2.1-5.4h12.7c-0.8,4.6-2.3,8.5-4.4,11.8c-2.1,3.3-4.7,5.7-7.9,7.4
				c-3.2,1.7-6.8,2.6-10.9,2.6C1161.9,405,1159.5,405,1159.5,405z"/>
			<path class="st8" d="M1213,404.3h-12.7v-63.1h12.7V404.3z"/>
			<path class="st8" d="M1236.3,402.1c-3.6-1.9-6.3-4.6-8.3-8.2c-2-3.5-2.9-7.6-2.9-12.2v-17.9c0-4.6,1-8.7,2.9-12.2
				c2-3.5,4.7-6.2,8.3-8.2c3.6-1.9,7.7-2.9,12.4-2.9s8.8,1,12.4,2.9c3.6,1.9,6.3,4.6,8.3,8.2c2,3.5,2.9,7.6,2.9,12.2v17.9
				c0,4.6-1,8.7-2.9,12.2c-2,3.5-4.7,6.2-8.3,8.2c-3.6,1.9-7.7,2.9-12.4,2.9S1239.8,404,1236.3,402.1z M1254.5,391.7
				c1.7-0.9,2.9-2.2,3.9-3.9c0.9-1.7,1.4-3.6,1.4-5.8v-18.5c0-2.2-0.5-4.1-1.4-5.8c-0.9-1.7-2.2-3-3.9-3.9c-1.7-0.9-3.6-1.4-5.8-1.4
				s-4.1,0.5-5.8,1.4c-1.7,0.9-2.9,2.2-3.9,3.9c-0.9,1.7-1.4,3.6-1.4,5.8V382c0,2.2,0.5,4.1,1.4,5.8c0.9,1.7,2.2,3,3.9,3.9
				c1.7,0.9,3.6,1.4,5.8,1.4S1252.8,392.6,1254.5,391.7z M1243.2,330l12.3-10.6l8.1,8.1l-13.1,9.8L1243.2,330z"/>
			<path class="st8" d="M1285.3,341.2h14.9l24.1,48.3l-1.1,1.1v-49.5h11.7v63.1h-15l-24-47.6l1.1-1.1v48.7h-11.7V341.2z"/>
		</g>
	</g>
	<g>
		<g>
			<path class="st8" d="M238.5,633.4h9.4v48.8h-9.4V633.4z M242.9,653.6H272v8.9h-29.2V653.6z M265.9,633.4h9.4v48.8h-9.4V633.4z"/>
			<path class="st8" d="M294,680.5c-2.8-1.5-4.9-3.6-6.4-6.3c-1.5-2.7-2.3-5.9-2.3-9.4v-13.8c0-3.6,0.8-6.7,2.3-9.4
				c1.5-2.7,3.7-4.8,6.4-6.3c2.8-1.5,6-2.2,9.6-2.2c3.6,0,6.8,0.7,9.6,2.2c2.8,1.5,4.9,3.6,6.4,6.3c1.5,2.7,2.3,5.9,2.3,9.4v13.8
				c0,3.6-0.8,6.7-2.3,9.4c-1.5,2.7-3.7,4.8-6.4,6.3c-2.8,1.5-6,2.2-9.6,2.2C300,682.7,296.8,682,294,680.5z M308.1,672.5
				c1.3-0.7,2.3-1.7,3-3s1.1-2.8,1.1-4.5v-14.3c0-1.7-0.4-3.2-1.1-4.5c-0.7-1.3-1.7-2.3-3-3c-1.3-0.7-2.8-1.1-4.5-1.1
				c-1.7,0-3.2,0.4-4.5,1.1c-1.3,0.7-2.3,1.7-3,3c-0.7,1.3-1.1,2.8-1.1,4.5V665c0,1.7,0.3,3.2,1.1,4.5c0.7,1.3,1.7,2.3,3,3
				c1.3,0.7,2.8,1.1,4.5,1.1C305.3,673.5,306.8,673.2,308.1,672.5z"/>
			<path class="st8" d="M331.9,633.4h9.4v48.8h-9.4V633.4z M335.6,653.7H353c1,0,1.8-0.2,2.5-0.7c0.7-0.5,1.3-1.1,1.7-2
				c0.4-0.9,0.6-1.9,0.6-3c0-1.1-0.2-2.1-0.6-3c-0.4-0.9-1-1.5-1.7-2c-0.7-0.5-1.6-0.7-2.6-0.7h-17.4v-8.9h18.2
				c2.8,0,5.2,0.6,7.3,1.8c2.1,1.2,3.7,2.9,4.9,5.1c1.1,2.2,1.7,4.8,1.7,7.7s-0.6,5.5-1.7,7.7c-1.1,2.2-2.8,3.9-4.9,5.1
				s-4.5,1.8-7.2,1.8h-18.2V653.7z M346.1,661.1l10.1-1.5l13.5,22.7h-11.4L346.1,661.1z"/>
			<path class="st8" d="M392.1,633.4h6l19.1,48.8h-10.2l-12-33.3l-12,33.3H373L392.1,633.4z M382.2,665.5h26.3v8.9h-26.3V665.5z"/>
			<path class="st8" d="M423.5,633.4h9.4v48.8h-9.4V633.4z M427.2,653.7h17.4c1,0,1.8-0.2,2.5-0.7c0.7-0.5,1.3-1.1,1.7-2
				c0.4-0.9,0.6-1.9,0.6-3c0-1.1-0.2-2.1-0.6-3c-0.4-0.9-1-1.5-1.7-2c-0.7-0.5-1.6-0.7-2.6-0.7h-17.4v-8.9h18.2
				c2.8,0,5.2,0.6,7.3,1.8c2.1,1.2,3.7,2.9,4.9,5.1c1.1,2.2,1.7,4.8,1.7,7.7s-0.6,5.5-1.7,7.7c-1.1,2.2-2.8,3.9-4.9,5.1
				s-4.5,1.8-7.2,1.8h-18.2V653.7z M437.8,661.1l10.1-1.5l13.5,22.7h-11.4L437.8,661.1z"/>
			<path class="st8" d="M478.5,682.2h-9.8v-48.8h9.8V682.2z"/>
			<path class="st8" d="M496.5,680.5c-2.8-1.5-4.9-3.6-6.4-6.3c-1.5-2.7-2.3-5.9-2.3-9.4v-13.8c0-3.6,0.8-6.7,2.3-9.4
				c1.5-2.7,3.7-4.8,6.4-6.3c2.8-1.5,6-2.2,9.6-2.2c3.6,0,6.8,0.7,9.6,2.2c2.8,1.5,4.9,3.6,6.4,6.3c1.5,2.7,2.3,5.9,2.3,9.4v13.8
				c0,3.6-0.8,6.7-2.3,9.4c-1.5,2.7-3.7,4.8-6.4,6.3c-2.8,1.5-6,2.2-9.6,2.2C502.5,682.7,499.3,682,496.5,680.5z M510.6,672.5
				c1.3-0.7,2.3-1.7,3-3s1.1-2.8,1.1-4.5v-14.3c0-1.7-0.4-3.2-1.1-4.5c-0.7-1.3-1.7-2.3-3-3c-1.3-0.7-2.8-1.1-4.5-1.1
				c-1.7,0-3.2,0.4-4.5,1.1c-1.3,0.7-2.3,1.7-3,3c-0.7,1.3-1.1,2.8-1.1,4.5V665c0,1.7,0.3,3.2,1.1,4.5c0.7,1.3,1.7,2.3,3,3
				c1.3,0.7,2.8,1.1,4.5,1.1C507.8,673.5,509.3,673.2,510.6,672.5z"/>
			<path class="st8" d="M546.5,682.7c0,0-1.1-0.2-3.4-0.7c-2.3-0.5-4.4-1.2-6.4-2.1c-2-0.9-3.8-2-5.4-3.3l4.4-7.6
				c1.9,1.5,4.2,2.7,6.7,3.6c2.5,0.8,5.1,1.3,7.8,1.3c3.1,0,5.5-0.5,7.2-1.5s2.5-2.5,2.5-4.3v0c0-1.3-0.4-2.3-1.1-3.1
				c-0.8-0.8-1.7-1.3-3-1.7s-2.8-0.7-4.7-1c-0.1,0-0.1,0-0.2,0c-0.1,0-0.1,0-0.2,0l-0.8-0.1c-3.4-0.5-6.1-1.2-8.3-1.9
				c-2.2-0.8-4.1-2.1-5.6-4.1c-1.5-1.9-2.3-4.7-2.3-8.2v0c0-3.2,0.7-5.8,2.2-8.1c1.4-2.2,3.5-3.9,6.3-5.1s6.1-1.8,10-1.8
				c1.8,0,3.6,0.2,5.5,0.6c1.9,0.4,3.7,1,5.5,1.7s3.5,1.7,5.1,2.8l-4,7.8c-1.9-1.3-3.9-2.3-6-3c-2.1-0.7-4.1-1.1-6-1.1
				c-2.9,0-5.1,0.5-6.7,1.4c-1.6,0.9-2.4,2.2-2.4,3.9v0c0,1.4,0.4,2.5,1.2,3.3c0.8,0.8,1.8,1.4,3.1,1.8c1.2,0.4,2.9,0.8,5.1,1.2
				c0.1,0,0.2,0,0.3,0c0.1,0,0.2,0,0.3,0.1c0.1,0,0.3,0,0.4,0.1c0.1,0,0.3,0.1,0.4,0.1c3.2,0.6,5.8,1.3,7.9,2.2
				c2.1,0.9,3.9,2.2,5.3,4.2c1.4,1.9,2.1,4.5,2.1,7.8v0.1c0,3.1-0.7,5.8-2.2,8c-1.5,2.2-3.7,3.9-6.5,5.1c-2.9,1.2-6.3,1.7-10.3,1.7
				C547.7,682.7,546.5,682.7,546.5,682.7z"/>
			<path class="st8" d="M596.7,633.4h9.4v48.8h-9.4V633.4z M601.5,673.3h12c3.1,0,5.5-0.7,7.2-2.2c1.7-1.5,2.5-3.5,2.5-6.2v-14.4
				c0-2.7-0.8-4.7-2.5-6.2s-4.1-2.2-7.2-2.2h-12v-8.9h11.8c4.2,0,7.7,0.7,10.7,2c2.9,1.4,5.2,3.4,6.7,6c1.5,2.6,2.3,5.8,2.3,9.5
				v13.8c0,3.5-0.7,6.6-2.2,9.2c-1.5,2.6-3.7,4.7-6.7,6.1s-6.6,2.2-10.9,2.2h-11.8V673.3z"/>
			<path class="st8" d="M643,633.4h9.4v48.8H643V633.4z M646.4,633.4h30.1v8.9h-30.1V633.4z M646.4,653.6h26.3v8.9h-26.3V653.6z
				 M646.4,673.3h30.1v8.9h-30.1V673.3z"/>
			<path class="st8" d="M718.4,633.4h6l19.1,48.8h-10.2l-12-33.3l-12,33.3h-10.2L718.4,633.4z M708.5,665.5h26.3v8.9h-26.3V665.5z"
				/>
			<path class="st8" d="M742.8,633.4h36.7v8.9h-36.7V633.4z M756.5,637.4h9.4v44.8h-9.4V637.4z"/>
			<path class="st8" d="M783.7,633.4h9.4v48.8h-9.4V633.4z M787.1,633.4h30.1v8.9h-30.1V633.4z M787.1,653.6h26.3v8.9h-26.3V653.6z
				 M787.1,673.3h30.1v8.9h-30.1V673.3z"/>
			<path class="st8" d="M825.8,633.4h11.5l18.6,37.4l-0.8,0.9v-38.2h9v48.7h-11.6L834,645.4l0.8-0.9v37.7h-9V633.4z"/>
			<path class="st8" d="M886.6,682.7c0,0-1.4-0.7-4.1-2.1c-2.7-1.4-4.8-3.5-6.2-6.2c-1.4-2.7-2.1-6-2.1-9.8v-13.4
				c0-3.8,0.7-7.1,2.1-9.8c1.4-2.7,3.5-4.8,6.2-6.2c2.7-1.4,6-2.1,9.8-2.1c3.1,0,6,0.7,8.4,2c2.5,1.3,4.5,3.2,6.1,5.8
				c1.6,2.5,2.7,5.5,3.4,9.1h-9.8c-0.4-1.6-0.9-3-1.7-4.1c-0.8-1.1-1.7-2-2.8-2.6s-2.3-0.9-3.7-0.9c-1.8,0-3.3,0.4-4.5,1.1
				c-1.2,0.7-2.2,1.7-2.8,3.1c-0.7,1.4-1,3-1,4.9v13.4c0,1.9,0.3,3.5,1,4.9c0.7,1.3,1.6,2.4,2.8,3.1c1.2,0.7,2.7,1.1,4.5,1.1
				c1.4,0,2.6-0.3,3.7-0.9c1.1-0.6,2-1.5,2.8-2.6c0.8-1.1,1.3-2.5,1.7-4.2h9.8c-0.6,3.6-1.8,6.6-3.4,9.1s-3.7,4.4-6.1,5.8
				c-2.5,1.3-5.3,2-8.4,2C888.5,682.7,886.6,682.7,886.6,682.7z"/>
			<path class="st8" d="M927.9,682.2h-9.8v-48.8h9.8V682.2z"/>
			<path class="st8" d="M945.9,680.5c-2.8-1.5-4.9-3.6-6.4-6.3s-2.3-5.9-2.3-9.4v-13.8c0-3.6,0.8-6.7,2.3-9.4s3.7-4.8,6.4-6.3
				c2.8-1.5,6-2.2,9.6-2.2s6.8,0.7,9.6,2.2c2.8,1.5,4.9,3.6,6.4,6.3c1.5,2.7,2.3,5.9,2.3,9.4v13.8c0,3.6-0.8,6.7-2.3,9.4
				c-1.5,2.7-3.7,4.8-6.4,6.3c-2.8,1.5-6,2.2-9.6,2.2S948.7,682,945.9,680.5z M960,672.5c1.3-0.7,2.3-1.7,3-3s1-2.8,1-4.5v-14.3
				c0-1.7-0.3-3.2-1-4.5c-0.7-1.3-1.7-2.3-3-3c-1.3-0.7-2.8-1.1-4.5-1.1s-3.2,0.4-4.5,1.1c-1.3,0.7-2.3,1.7-3,3
				c-0.7,1.3-1,2.8-1,4.5V665c0,1.7,0.3,3.2,1,4.5s1.7,2.3,3,3c1.3,0.7,2.8,1.1,4.5,1.1S958.7,673.2,960,672.5z M951.2,624.8
				l9.5-8.2l6.3,6.3l-10.2,7.6L951.2,624.8z"/>
			<path class="st8" d="M983.8,633.4h11.5l18.6,37.4l-0.8,0.9v-38.2h9v48.7h-11.6l-18.6-36.8l0.8-0.9v37.7h-9V633.4z"/>
		</g>
	</g>
	<ellipse class="st5" cx="1092.1" cy="120.5" rx="103.8" ry="101.5"/>
	<ellipse class="st9" cx="1092.1" cy="133.8" rx="103.8" ry="101.5"/>
	
		<rect x="455.9" y="-412" transform="matrix(1.528279e-13 -1 1 1.528279e-13 436.9405 677.8898)" class="st5" width="203" height="1064.9"/>
	
		<rect x="455.9" y="-398.6" transform="matrix(1.528279e-13 -1 1 1.528279e-13 423.5731 691.2571)" class="st9" width="203" height="1064.9"/>
	<g>
		<g>
			<path class="st10" d="M187.2,186.9h-20.1v-13.8h-14.6v-14.2h-21.6l-4.6,11.7v12.6h-4.4v-10.1h-14.8V169h15.1l5.6-14.3h33.1
				c1.5,0,2.4-0.2,2.8-0.4c-0.1-0.1-0.3-0.3-0.7-0.5c-13.4-4.3-24.6-11.5-32.2-20.9c-7.1-8.8-11.1-19.3-11.5-30.3
				c-0.4-11.1,2.8-21.9,9.4-31.4c6.9-9.9,17.1-17.8,29.6-22.6c1.3-0.7,1.7-1.7,1.4-2.2c-0.3-0.7-1.8-0.9-4-0.1l-0.1,0l-28,9.1
				L107,74.6L84.4,183.4l-4.3-0.8L103,72.5l22.3-20.8l28.9-9.4c4.9-1.8,8.2-0.2,9.4,2.3c1.1,2.4,0.4,5.8-3.3,7.8l-0.2,0.1
				c-11.7,4.6-21.3,11.9-27.7,21.1c-6,8.7-9,18.7-8.6,28.9c0.4,10.1,4,19.7,10.6,27.8c7.1,8.8,17.6,15.6,30.4,19.5l0.2,0.1l0.2,0.1
				c2.5,1.4,3.6,3.4,3,5.4c-0.6,2.3-3.3,3.6-7.2,3.6h-4v9.9h14.6v13.8h11.4v-14h13.7v-9.4h-7.1c-3.9,0.1-6.6-1.3-7.2-3.6
				c-0.6-2,0.6-4,3.1-5.4l0.2-0.1l0.2-0.1c12.9-4,23.5-10.8,30.7-19.6c6.6-8.1,10.3-17.7,10.7-27.8c0.4-10.2-2.7-20.2-8.7-28.8
				c-6.5-9.3-16.2-16.6-28-21.1l-0.3-0.1c-3.7-2-4.5-5.4-3.4-7.8c1.2-2.5,4.6-4.2,9.5-2.3l29.2,9.4L248,72.8l23.1,110.1l-4.3,0.9
				L244,75l-20.8-19.3l-28.5-9.1c-2.2-0.8-3.7-0.5-4.1,0.1c-0.3,0.5,0.2,1.5,1.4,2.2c12.6,4.9,22.9,12.7,29.9,22.6
				c6.6,9.4,9.9,20.3,9.5,31.4c-0.4,11-4.4,21.5-11.6,30.3c-7.7,9.4-19,16.6-32.6,20.9c-0.3,0.2-0.5,0.4-0.7,0.5
				c0.4,0.2,1.3,0.5,2.8,0.4h33.5l5.7,14.3h15.3v4.2h-14.9v10h-4.4V171l-4.7-11.7h-19v13.6h-13.7V186.9z"/>
			<path class="st10" d="M175,54.3c-26.2,0-47.5,20.8-47.5,46.3s21.3,46.3,47.5,46.3c26.2,0,47.5-20.8,47.5-46.3
				S201.2,54.3,175,54.3z M175,142.5c-23.8,0-43.1-18.8-43.1-42s19.3-42,43.1-42c23.8,0,43.1,18.8,43.1,42S198.8,142.5,175,142.5z"
				/>
		</g>
		<g>
			<rect x="291.8" y="124.8" class="st10" width="715.1" height="9"/>
			<g>
				<path class="st10" d="M996.4,160l-3.7-8.1l-3.8,8.1H996.4z M996.9,161.1h-8.5l-1.5,3.2c-0.4,0.8-0.6,1.4-0.6,1.7
					c0,0.3,0.2,0.6,0.5,0.8c0.3,0.2,1,0.4,2.1,0.5v0.5H982v-0.5c0.9-0.2,1.5-0.3,1.8-0.6c0.6-0.5,1.2-1.4,1.8-2.9l7.7-16.5h0.6
					l7.6,16.7c0.6,1.3,1.2,2.2,1.7,2.6c0.5,0.4,1.2,0.6,2.1,0.7v0.5h-8.6v-0.5c0.9,0,1.5-0.2,1.8-0.4c0.3-0.2,0.5-0.5,0.5-0.8
					c0-0.4-0.2-1.1-0.6-2.1L996.9,161.1z M980.9,167.2v0.5h-9.4v-0.5h0.8c0.9,0,1.6-0.2,2-0.7c0.3-0.3,0.4-1.1,0.4-2.3v-13
					c0-1-0.1-1.7-0.2-2c-0.1-0.2-0.3-0.5-0.7-0.6c-0.5-0.2-1-0.4-1.5-0.4h-0.8v-0.5h9.4v0.5h-0.8c-0.9,0-1.5,0.2-1.9,0.7
					c-0.3,0.3-0.4,1.1-0.4,2.3v13c0,1,0.1,1.7,0.2,2c0.1,0.2,0.3,0.5,0.7,0.6c0.5,0.2,1,0.4,1.5,0.4H980.9z M969.5,162.2l0.5,0.1
					l-1.9,5.4h-17v-0.5h0.8c0.9,0,1.6-0.3,2-0.8c0.2-0.3,0.3-1,0.3-2.2v-13c0-1.3-0.1-2-0.4-2.3c-0.4-0.4-1-0.7-1.9-0.7h-0.8v-0.5
					h9.9v0.5c-1.2,0-2,0.1-2.4,0.3c-0.5,0.2-0.8,0.5-1,0.8c-0.2,0.3-0.3,1.1-0.3,2.3v12.6c0,0.8,0.1,1.4,0.3,1.7
					c0.1,0.2,0.3,0.4,0.6,0.5c0.3,0.1,1.1,0.1,2.5,0.1h1.6c1.7,0,2.9-0.1,3.5-0.3c0.7-0.2,1.3-0.6,1.9-1.2
					C968.4,164.4,968.9,163.5,969.5,162.2z M949.7,167.2v0.5h-9.4v-0.5h0.8c0.9,0,1.6-0.2,2-0.7c0.3-0.3,0.4-1.1,0.4-2.3v-13
					c0-1-0.1-1.7-0.2-2c-0.1-0.2-0.3-0.5-0.7-0.6c-0.5-0.2-1-0.4-1.5-0.4h-0.8v-0.5h9.4v0.5h-0.8c-0.9,0-1.5,0.2-1.9,0.7
					c-0.3,0.3-0.4,1.1-0.4,2.3v13c0,1,0.1,1.7,0.2,2c0.1,0.2,0.3,0.5,0.7,0.6c0.5,0.2,1,0.4,1.5,0.4H949.7z M923.7,167.8l-8.5-16.9
					v13.4c0,1.2,0.1,2,0.4,2.3c0.4,0.4,1,0.6,1.9,0.6h0.8v0.5h-7.6v-0.5h0.8c0.9,0,1.6-0.3,2-0.8c0.2-0.3,0.4-1,0.4-2.2v-13.1
					c0-0.9-0.1-1.5-0.3-1.9c-0.2-0.3-0.4-0.5-0.8-0.7c-0.4-0.2-1.1-0.3-1.9-0.3v-0.5h6.2l7.9,15.7l7.8-15.7h6.2v0.5h-0.8
					c-0.9,0-1.6,0.3-2,0.8c-0.2,0.3-0.4,1-0.4,2.2v13.1c0,1.2,0.2,2,0.5,2.3c0.4,0.4,1,0.6,1.9,0.6h0.8v0.5h-9.3v-0.5h0.8
					c0.9,0,1.6-0.3,2-0.8c0.2-0.3,0.4-1,0.4-2.2v-13.4l-8.4,16.9H923.7z M900.9,160l-3.7-8.1l-3.8,8.1H900.9z M901.4,161.1h-8.5
					l-1.5,3.2c-0.4,0.8-0.6,1.4-0.6,1.7c0,0.3,0.2,0.6,0.5,0.8c0.3,0.2,1,0.4,2.1,0.5v0.5h-6.9v-0.5c0.9-0.2,1.5-0.3,1.8-0.6
					c0.6-0.5,1.2-1.4,1.8-2.9l7.7-16.5h0.6l7.6,16.7c0.6,1.3,1.2,2.2,1.7,2.6c0.5,0.4,1.2,0.6,2.1,0.7v0.5h-8.6v-0.5
					c0.9,0,1.5-0.2,1.8-0.4c0.3-0.2,0.5-0.5,0.5-0.8c0-0.4-0.2-1.1-0.7-2.1L901.4,161.1z M877.1,148.8v7.9h4c0.9,0,1.6-0.2,2-0.6
					c0.4-0.4,0.7-1.1,0.8-2.2h0.6v6.8h-0.6c0-0.8-0.1-1.3-0.3-1.7c-0.2-0.4-0.5-0.6-0.9-0.8c-0.4-0.2-0.9-0.3-1.7-0.3h-4v6.3
					c0,1,0.1,1.7,0.2,2c0.1,0.2,0.3,0.5,0.7,0.6c0.5,0.2,1,0.4,1.5,0.4h0.8v0.5h-9.4v-0.5h0.8c0.9,0,1.6-0.2,2-0.7
					c0.3-0.3,0.4-1.1,0.4-2.3v-13c0-1-0.1-1.7-0.2-2c-0.1-0.2-0.3-0.5-0.7-0.6c-0.5-0.2-1-0.4-1.5-0.4h-0.8v-0.5h16.3l0.2,4.4h-0.6
					c-0.3-0.9-0.6-1.6-1-2.1c-0.4-0.4-0.8-0.8-1.4-1c-0.5-0.2-1.4-0.3-2.5-0.3H877.1z M854.7,160l-3.7-8.1l-3.8,8.1H854.7z
					 M855.1,161.1h-8.5l-1.5,3.2c-0.4,0.8-0.6,1.4-0.6,1.7c0,0.3,0.2,0.6,0.5,0.8c0.3,0.2,1,0.4,2.1,0.5v0.5h-6.9v-0.5
					c0.9-0.2,1.5-0.3,1.8-0.6c0.6-0.5,1.2-1.4,1.8-2.9l7.7-16.5h0.6l7.6,16.7c0.6,1.3,1.2,2.2,1.7,2.6c0.5,0.4,1.2,0.6,2.1,0.7v0.5
					h-8.6v-0.5c0.9,0,1.5-0.2,1.8-0.4c0.3-0.2,0.5-0.5,0.5-0.8c0-0.4-0.2-1.1-0.7-2.1L855.1,161.1z M838.8,162.2l0.5,0.1l-1.9,5.4
					h-16.9v-0.5h0.8c0.9,0,1.6-0.3,2-0.8c0.2-0.3,0.3-1,0.3-2.2v-13c0-1.3-0.1-2-0.5-2.3c-0.4-0.4-1-0.7-1.9-0.7h-0.8v-0.5h9.9v0.5
					c-1.2,0-2,0.1-2.4,0.3c-0.5,0.2-0.8,0.5-1,0.8c-0.2,0.3-0.3,1.1-0.3,2.3v12.6c0,0.8,0.1,1.4,0.3,1.7c0.1,0.2,0.3,0.4,0.6,0.5
					c0.3,0.1,1.1,0.1,2.5,0.1h1.6c1.7,0,2.9-0.1,3.5-0.3c0.7-0.2,1.3-0.6,1.9-1.2C837.6,164.4,838.2,163.5,838.8,162.2z M804.2,160
					l-3.7-8.1l-3.8,8.1H804.2z M804.6,161.1h-8.5l-1.5,3.2c-0.4,0.8-0.6,1.4-0.6,1.7c0,0.3,0.2,0.6,0.5,0.8c0.3,0.2,1,0.4,2.1,0.5
					v0.5h-6.9v-0.5c0.9-0.2,1.5-0.3,1.8-0.6c0.5-0.5,1.2-1.4,1.8-2.9l7.7-16.5h0.6l7.6,16.7c0.6,1.3,1.2,2.2,1.7,2.6
					c0.5,0.4,1.2,0.6,2.1,0.7v0.5h-8.6v-0.5c0.9,0,1.5-0.2,1.8-0.4c0.3-0.2,0.5-0.5,0.5-0.8c0-0.4-0.2-1.1-0.7-2.1L804.6,161.1z
					 M774.2,157.5c0.2,0,0.4,0,0.5,0c0.1,0,0.3,0,0.4,0c2.1,0,3.7-0.4,4.7-1.2c1.1-0.8,1.6-1.9,1.6-3.2c0-1.3-0.4-2.3-1.3-3.1
					c-0.9-0.8-2-1.2-3.4-1.2c-0.6,0-1.5,0.1-2.5,0.3V157.5z M789.8,167.8h-5.8l-7.4-9.4c-0.5,0-1,0-1.3,0c-0.1,0-0.3,0-0.5,0
					c-0.2,0-0.3,0-0.5,0v5.8c0,1.3,0.2,2,0.5,2.4c0.4,0.4,1,0.7,1.8,0.7h0.9v0.5H768v-0.5h0.8c0.9,0,1.6-0.3,2-0.8
					c0.2-0.3,0.3-1,0.3-2.2v-13c0-1.3-0.2-2-0.5-2.3c-0.4-0.4-1-0.7-1.9-0.7H768v-0.5h8c2.3,0,4,0.2,5.1,0.5c1.1,0.3,2,0.9,2.8,1.7
					c0.8,0.8,1.2,1.8,1.2,3c0,1.2-0.4,2.3-1.3,3.2c-0.9,0.9-2.2,1.5-4.1,1.9l4.5,5.8c1,1.3,1.9,2.2,2.7,2.6c0.7,0.4,1.7,0.7,2.9,0.8
					V167.8z M758.2,160l-3.7-8.1l-3.8,8.1H758.2z M758.7,161.1h-8.5l-1.5,3.2c-0.4,0.8-0.6,1.4-0.6,1.7c0,0.3,0.2,0.6,0.5,0.8
					c0.3,0.2,1,0.4,2.1,0.5v0.5h-6.9v-0.5c0.9-0.2,1.5-0.3,1.8-0.6c0.6-0.5,1.2-1.4,1.8-2.9l7.7-16.5h0.6l7.6,16.7
					c0.6,1.3,1.2,2.2,1.7,2.6c0.5,0.4,1.2,0.6,2.1,0.7v0.5h-8.6v-0.5c0.9,0,1.5-0.2,1.8-0.4c0.3-0.2,0.5-0.5,0.5-0.8
					c0-0.4-0.2-1.1-0.6-2.1L758.7,161.1z M735,157.5c0.6,0.1,1.1,0.2,1.5,0.2c0.4,0,0.8,0.1,1.1,0.1c1.1,0,2.1-0.4,2.9-1.2
					c0.8-0.8,1.2-1.8,1.2-3.1c0-0.9-0.2-1.7-0.6-2.4c-0.4-0.7-0.9-1.3-1.6-1.7c-0.7-0.4-1.5-0.6-2.4-0.6c-0.5,0-1.3,0.1-2.1,0.3
					V157.5z M735,158.4v5.8c0,1.3,0.2,2,0.5,2.4c0.4,0.4,1,0.7,1.9,0.7h0.8v0.5h-9.4v-0.5h0.8c0.9,0,1.6-0.3,2-0.8
					c0.2-0.3,0.3-1,0.3-2.2v-13c0-1.3-0.1-2-0.4-2.3c-0.4-0.4-1-0.7-1.9-0.7h-0.8v-0.5h8c2,0,3.5,0.2,4.6,0.6c1.1,0.4,2.1,1,2.9,1.9
					c0.8,0.9,1.2,1.9,1.2,3.1c0,1.6-0.6,3-1.8,4c-1.2,1-2.8,1.5-5,1.5c-0.5,0-1.1,0-1.7-0.1C736.3,158.6,735.7,158.5,735,158.4z
					 M712.6,160l-3.7-8.1L705,160H712.6z M713,161.1h-8.5l-1.5,3.2c-0.4,0.8-0.5,1.4-0.5,1.7c0,0.3,0.2,0.6,0.5,0.8
					c0.3,0.2,1,0.4,2.1,0.5v0.5h-6.9v-0.5c0.9-0.2,1.5-0.3,1.8-0.6c0.6-0.5,1.2-1.4,1.8-2.9l7.7-16.5h0.6l7.6,16.7
					c0.6,1.3,1.2,2.2,1.7,2.6c0.5,0.4,1.2,0.6,2.1,0.7v0.5h-8.6v-0.5c0.9,0,1.5-0.2,1.8-0.4c0.3-0.2,0.5-0.5,0.5-0.8
					c0-0.4-0.2-1.1-0.6-2.1L713,161.1z M673.6,147.7h5.9l13.4,15.1v-11.6c0-1.2-0.2-2-0.5-2.3c-0.4-0.4-1-0.6-1.9-0.6h-0.8v-0.5h7.6
					v0.5h-0.8c-0.9,0-1.6,0.3-2,0.8c-0.2,0.3-0.4,1-0.4,2.2v16.9h-0.6l-14.4-16.2v12.4c0,1.2,0.1,2,0.4,2.3c0.4,0.4,1,0.6,1.9,0.6
					h0.8v0.5h-7.6v-0.5h0.8c0.9,0,1.6-0.3,2-0.8c0.2-0.3,0.4-1,0.4-2.2v-14c-0.6-0.7-1.1-1.1-1.4-1.3c-0.3-0.2-0.8-0.4-1.4-0.6
					c-0.3-0.1-0.8-0.1-1.4-0.1V147.7z M673.2,167.2v0.5h-9.4v-0.5h0.8c0.9,0,1.6-0.2,2-0.7c0.3-0.3,0.4-1.1,0.4-2.3v-13
					c0-1-0.1-1.7-0.2-2c-0.1-0.2-0.3-0.5-0.7-0.6c-0.5-0.2-1-0.4-1.5-0.4h-0.8v-0.5h9.4v0.5h-0.8c-0.9,0-1.5,0.2-2,0.7
					c-0.3,0.3-0.4,1.1-0.4,2.3v13c0,1,0.1,1.7,0.2,2c0.1,0.2,0.3,0.5,0.7,0.6c0.5,0.2,1,0.4,1.5,0.4H673.2z M660.8,147.3l0.5,6.8
					h-0.5c-0.7-2-1.6-3.5-2.9-4.4c-1.2-0.9-2.7-1.3-4.5-1.3c-1.5,0-2.8,0.3-3.9,1c-1.2,0.7-2.1,1.8-2.8,3.2c-0.7,1.5-1,3.3-1,5.5
					c0,1.8,0.3,3.4,1,4.7c0.6,1.3,1.6,2.4,2.9,3.1c1.3,0.7,2.7,1.1,4.4,1.1c1.4,0,2.7-0.3,3.8-0.8c1.1-0.6,2.3-1.7,3.6-3.3l0.5,0.3
					c-1.1,1.8-2.4,3.1-3.8,3.9c-1.5,0.8-3.2,1.2-5.2,1.2c-3.6,0-6.4-1.2-8.4-3.7c-1.5-1.8-2.2-4-2.2-6.5c0-2,0.5-3.8,1.5-5.5
					c1-1.7,2.3-3,4-3.9c1.7-0.9,3.6-1.4,5.6-1.4c1.6,0,3.1,0.4,4.7,1.1c0.5,0.2,0.8,0.3,1,0.3c0.3,0,0.5-0.1,0.8-0.3
					c0.3-0.3,0.5-0.6,0.6-1.1H660.8z M640.1,167.2v0.5h-9.4v-0.5h0.8c0.9,0,1.6-0.2,2-0.7c0.3-0.3,0.4-1.1,0.4-2.3v-13
					c0-1-0.1-1.7-0.2-2c-0.1-0.2-0.3-0.5-0.7-0.6c-0.5-0.2-1-0.4-1.5-0.4h-0.8v-0.5h9.4v0.5h-0.8c-0.9,0-1.5,0.2-2,0.7
					c-0.3,0.3-0.4,1.1-0.4,2.3v13c0,1,0.1,1.7,0.2,2c0.1,0.2,0.3,0.5,0.7,0.6c0.5,0.2,1,0.4,1.5,0.4H640.1z M612.9,166.3
					c1.4,0.3,2.5,0.4,3.4,0.4c2.5,0,4.6-0.8,6.2-2.4c1.6-1.6,2.5-3.8,2.5-6.5c0-2.8-0.8-5-2.5-6.6c-1.6-1.6-3.8-2.4-6.3-2.4
					c-1,0-2.1,0.1-3.3,0.4V166.3z M606.6,167.8v-0.5h0.8c0.9,0,1.6-0.3,2-0.8c0.2-0.3,0.4-1.1,0.4-2.2v-13c0-1.3-0.2-2-0.5-2.3
					c-0.4-0.4-1-0.7-1.9-0.7h-0.8v-0.5h8.9c3.3,0,5.8,0.3,7.5,1c1.7,0.7,3.1,1.8,4.1,3.4c1,1.6,1.6,3.4,1.6,5.5c0,2.8-0.9,5.1-2.8,7
					c-2.1,2.1-5.2,3.1-9.5,3.1H606.6z M592.8,148.8v7.9h4.8c1.3,0,2.1-0.2,2.5-0.5c0.6-0.5,0.9-1.2,0.9-2.4h0.6v7H601
					c-0.1-1-0.3-1.6-0.5-1.9c-0.2-0.3-0.5-0.6-1-0.8c-0.4-0.2-1.1-0.3-2-0.3h-4.8v6.6c0,0.9,0,1.4,0.1,1.6c0.1,0.2,0.2,0.3,0.5,0.5
					c0.2,0.1,0.6,0.2,1.2,0.2h3.7c1.2,0,2.1-0.1,2.7-0.2c0.6-0.2,1.1-0.5,1.6-0.9c0.7-0.6,1.3-1.5,2.1-2.8h0.6l-1.9,5h-16.9v-0.5
					h0.8c0.5,0,1-0.1,1.5-0.3c0.3-0.2,0.6-0.4,0.7-0.7c0.1-0.3,0.2-1,0.2-1.9v-13c0-1.3-0.1-2.1-0.4-2.4c-0.4-0.4-1-0.6-1.9-0.6
					h-0.8v-0.5h16.9l0.2,4.4H603c-0.2-1.1-0.5-1.8-0.7-2.2c-0.3-0.4-0.7-0.7-1.2-0.9c-0.4-0.1-1.2-0.2-2.3-0.2H592.8z M570,167.8
					l-8.5-16.9v13.4c0,1.2,0.1,2,0.4,2.3c0.4,0.4,1,0.6,1.9,0.6h0.8v0.5H557v-0.5h0.8c0.9,0,1.6-0.3,2-0.8c0.2-0.3,0.4-1,0.4-2.2
					v-13.1c0-0.9-0.1-1.5-0.3-1.9c-0.2-0.3-0.4-0.5-0.8-0.7c-0.4-0.2-1.1-0.3-1.9-0.3v-0.5h6.2l7.9,15.7l7.8-15.7h6.2v0.5h-0.8
					c-0.9,0-1.6,0.3-2,0.8c-0.2,0.3-0.4,1-0.4,2.2v13.1c0,1.2,0.2,2,0.5,2.3c0.4,0.4,1,0.6,1.9,0.6h0.8v0.5h-9.3v-0.5h0.8
					c0.9,0,1.6-0.3,2-0.8c0.2-0.3,0.4-1,0.4-2.2v-13.4l-8.4,16.9H570z M523.9,147.7h5.9l13.4,15.1v-11.6c0-1.2-0.2-2-0.5-2.3
					c-0.4-0.4-1-0.6-1.9-0.6h-0.8v-0.5h7.6v0.5h-0.8c-0.9,0-1.6,0.3-2,0.8c-0.2,0.3-0.4,1-0.4,2.2v16.9H544l-14.4-16.2v12.4
					c0,1.2,0.1,2,0.4,2.3c0.4,0.4,1,0.6,1.9,0.6h0.8v0.5h-7.6v-0.5h0.8c0.9,0,1.6-0.3,2-0.8c0.2-0.3,0.4-1,0.4-2.2v-14
					c-0.6-0.7-1.1-1.1-1.4-1.3c-0.3-0.2-0.8-0.4-1.4-0.6c-0.3-0.1-0.8-0.1-1.4-0.1V147.7z M511,148.8v7.9h4.8c1.3,0,2.1-0.2,2.5-0.5
					c0.6-0.5,0.9-1.2,0.9-2.4h0.6v7h-0.6c-0.1-1-0.3-1.6-0.5-1.9c-0.2-0.3-0.5-0.6-1-0.8c-0.4-0.2-1.1-0.3-2-0.3H511v6.6
					c0,0.9,0,1.4,0.1,1.6c0.1,0.2,0.2,0.3,0.5,0.5c0.2,0.1,0.6,0.2,1.2,0.2h3.7c1.2,0,2.1-0.1,2.7-0.2c0.6-0.2,1.1-0.5,1.6-0.9
					c0.7-0.6,1.4-1.5,2.1-2.8h0.6l-1.9,5h-16.9v-0.5h0.8c0.5,0,1-0.1,1.5-0.3c0.3-0.2,0.6-0.4,0.7-0.7c0.1-0.3,0.2-1,0.2-1.9v-13
					c0-1.3-0.1-2.1-0.4-2.4c-0.4-0.4-1-0.6-1.9-0.6h-0.8v-0.5h16.9l0.2,4.4h-0.6c-0.2-1.1-0.5-1.8-0.7-2.2c-0.3-0.4-0.7-0.7-1.2-0.9
					c-0.4-0.1-1.2-0.2-2.3-0.2H511z M488.5,160l-3.7-8.1l-3.8,8.1H488.5z M488.9,161.1h-8.5l-1.5,3.2c-0.4,0.8-0.6,1.4-0.6,1.7
					c0,0.3,0.2,0.6,0.5,0.8c0.3,0.2,1,0.4,2.1,0.5v0.5h-6.9v-0.5c0.9-0.2,1.5-0.3,1.8-0.6c0.6-0.5,1.2-1.4,1.8-2.9l7.7-16.5h0.6
					l7.6,16.7c0.6,1.3,1.2,2.2,1.7,2.6c0.5,0.4,1.2,0.6,2.1,0.7v0.5h-8.6v-0.5c0.9,0,1.5-0.2,1.8-0.4c0.3-0.2,0.5-0.5,0.5-0.8
					c0-0.4-0.2-1.1-0.6-2.1L488.9,161.1z M473,167.2v0.5h-9.4v-0.5h0.8c0.9,0,1.6-0.2,2-0.7c0.3-0.3,0.4-1.1,0.4-2.3v-13
					c0-1-0.1-1.7-0.2-2c-0.1-0.2-0.3-0.5-0.7-0.6c-0.5-0.2-1-0.4-1.5-0.4h-0.8v-0.5h9.4v0.5h-0.8c-0.9,0-1.5,0.2-2,0.7
					c-0.3,0.3-0.4,1.1-0.4,2.3v13c0,1,0.1,1.7,0.2,2c0.1,0.2,0.3,0.5,0.7,0.6c0.5,0.2,1,0.4,1.5,0.4H473z M460.6,147.3l0.5,6.8h-0.5
					c-0.7-2-1.6-3.5-2.9-4.4c-1.2-0.9-2.7-1.3-4.5-1.3c-1.5,0-2.8,0.3-3.9,1c-1.2,0.7-2.1,1.8-2.8,3.2c-0.7,1.5-1,3.3-1,5.5
					c0,1.8,0.3,3.4,1,4.7c0.6,1.3,1.6,2.4,2.9,3.1c1.3,0.7,2.7,1.1,4.4,1.1c1.4,0,2.7-0.3,3.8-0.8c1.1-0.6,2.3-1.7,3.6-3.3l0.5,0.3
					c-1.1,1.8-2.4,3.1-3.8,3.9c-1.5,0.8-3.2,1.2-5.2,1.2c-3.6,0-6.4-1.2-8.4-3.7c-1.5-1.8-2.2-4-2.2-6.5c0-2,0.5-3.8,1.5-5.5
					c1-1.7,2.3-3,4-3.9c1.7-0.9,3.6-1.4,5.6-1.4c1.6,0,3.1,0.4,4.7,1.1c0.5,0.2,0.8,0.3,1,0.3c0.3,0,0.5-0.1,0.8-0.3
					c0.3-0.3,0.5-0.6,0.6-1.1H460.6z M416.4,147.7h5.9l13.4,15.1v-11.6c0-1.2-0.2-2-0.5-2.3c-0.4-0.4-1-0.6-1.9-0.6h-0.8v-0.5h7.6
					v0.5h-0.8c-0.9,0-1.6,0.3-2,0.8c-0.2,0.3-0.4,1-0.4,2.2v16.9h-0.6l-14.4-16.2v12.4c0,1.2,0.1,2,0.4,2.3c0.4,0.4,1,0.6,1.9,0.6
					h0.8v0.5h-7.6v-0.5h0.8c0.9,0,1.6-0.3,2-0.8c0.2-0.3,0.3-1,0.3-2.2v-14c-0.6-0.7-1.1-1.1-1.4-1.3c-0.3-0.2-0.8-0.4-1.4-0.6
					c-0.3-0.1-0.8-0.1-1.4-0.1V147.7z M403.6,148.8v7.9h4.8c1.3,0,2.1-0.2,2.5-0.5c0.6-0.5,0.9-1.2,0.9-2.4h0.6v7h-0.6
					c-0.1-1-0.3-1.6-0.5-1.9c-0.2-0.3-0.5-0.6-1-0.8c-0.4-0.2-1.1-0.3-2-0.3h-4.8v6.6c0,0.9,0,1.4,0.1,1.6c0.1,0.2,0.2,0.3,0.5,0.5
					c0.2,0.1,0.6,0.2,1.2,0.2h3.7c1.2,0,2.1-0.1,2.7-0.2c0.6-0.2,1.1-0.5,1.6-0.9c0.7-0.6,1.4-1.5,2-2.8h0.6l-1.9,5h-16.9v-0.5h0.8
					c0.5,0,1-0.1,1.5-0.3c0.3-0.2,0.6-0.4,0.7-0.7c0.1-0.3,0.2-1,0.2-1.9v-13c0-1.3-0.1-2.1-0.4-2.4c-0.4-0.4-1-0.6-1.9-0.6h-0.8
					v-0.5h16.9l0.2,4.4h-0.6c-0.2-1.1-0.5-1.8-0.7-2.2c-0.3-0.4-0.7-0.7-1.2-0.9c-0.4-0.1-1.2-0.2-2.3-0.2H403.6z M395.4,162.2
					l0.5,0.1l-1.9,5.4h-17v-0.5h0.8c0.9,0,1.6-0.3,2-0.8c0.2-0.3,0.3-1,0.3-2.2v-13c0-1.3-0.1-2-0.5-2.3c-0.4-0.4-1-0.7-1.9-0.7
					h-0.8v-0.5h9.9v0.5c-1.2,0-2,0.1-2.4,0.3c-0.5,0.2-0.8,0.5-1,0.8c-0.2,0.3-0.3,1.1-0.3,2.3v12.6c0,0.8,0.1,1.4,0.3,1.7
					c0.1,0.2,0.3,0.4,0.6,0.5c0.3,0.1,1.1,0.1,2.5,0.1h1.6c1.7,0,2.9-0.1,3.5-0.3c0.7-0.2,1.3-0.6,1.9-1.2
					C394.3,164.4,394.9,163.5,395.4,162.2z M363.2,148.8v7.9h4.8c1.3,0,2.1-0.2,2.5-0.5c0.6-0.5,0.9-1.2,0.9-2.4h0.6v7h-0.6
					c-0.1-1-0.3-1.6-0.5-1.9c-0.2-0.3-0.5-0.6-1-0.8c-0.4-0.2-1.1-0.3-2-0.3h-4.8v6.6c0,0.9,0,1.4,0.1,1.6c0.1,0.2,0.2,0.3,0.5,0.5
					c0.2,0.1,0.6,0.2,1.2,0.2h3.7c1.2,0,2.1-0.1,2.7-0.2c0.6-0.2,1.1-0.5,1.6-0.9c0.7-0.6,1.3-1.5,2-2.8h0.6l-1.9,5h-16.9v-0.5h0.8
					c0.5,0,1-0.1,1.5-0.3c0.3-0.2,0.6-0.4,0.7-0.7c0.1-0.3,0.2-1,0.2-1.9v-13c0-1.3-0.1-2.1-0.4-2.4c-0.4-0.4-1-0.6-1.9-0.6h-0.8
					v-0.5h16.9l0.2,4.4h-0.6c-0.2-1.1-0.5-1.8-0.8-2.2c-0.3-0.4-0.7-0.7-1.2-0.9c-0.4-0.1-1.2-0.2-2.3-0.2H363.2z M354.1,147.3
					l0.5,6.8h-0.5c-0.7-2-1.6-3.5-2.9-4.4c-1.2-0.9-2.7-1.3-4.5-1.3c-1.5,0-2.8,0.3-3.9,1c-1.2,0.7-2.1,1.8-2.8,3.2
					c-0.7,1.5-1,3.3-1,5.5c0,1.8,0.3,3.4,1,4.7c0.6,1.3,1.6,2.4,2.9,3.1c1.3,0.7,2.7,1.1,4.4,1.1c1.4,0,2.7-0.3,3.8-0.8
					c1.1-0.6,2.3-1.7,3.6-3.3l0.5,0.3c-1.1,1.8-2.4,3.1-3.8,3.9c-1.5,0.8-3.2,1.2-5.2,1.2c-3.6,0-6.4-1.2-8.4-3.7
					c-1.5-1.8-2.2-4-2.2-6.5c0-2,0.5-3.8,1.5-5.5c1-1.7,2.3-3,4-3.9c1.7-0.9,3.6-1.4,5.6-1.4c1.6,0,3.1,0.4,4.7,1.1
					c0.5,0.2,0.8,0.3,1,0.3c0.3,0,0.5-0.1,0.8-0.3c0.3-0.3,0.5-0.6,0.6-1.1H354.1z M323.8,156.7l4.7,6.4c1.3,1.8,2.3,2.9,2.9,3.4
					c0.6,0.5,1.4,0.7,2.4,0.8v0.5h-9.4v-0.5c0.6,0,1.1-0.1,1.4-0.2c0.2-0.1,0.4-0.2,0.6-0.4c0.1-0.2,0.2-0.4,0.2-0.6
					c0-0.2,0-0.5-0.1-0.7c-0.1-0.2-0.4-0.6-0.9-1.3l-3.7-5.1l-4.6,5.4c-0.5,0.6-0.8,1-0.9,1.1c-0.1,0.2-0.2,0.4-0.2,0.6
					c0,0.3,0.2,0.6,0.4,0.8c0.3,0.2,0.8,0.3,1.7,0.4v0.5h-7.8v-0.5c0.6-0.1,1-0.2,1.4-0.3c0.7-0.3,1.3-0.6,1.9-1
					c0.6-0.4,1.3-1.1,2.1-2l5.2-6l-4.3-5.8c-1.2-1.6-2.2-2.6-3-3.1c-0.8-0.5-1.8-0.7-2.8-0.8v-0.5h10.1v0.5c-0.9,0-1.4,0.2-1.8,0.4
					c-0.3,0.2-0.5,0.5-0.5,0.8c0,0.4,0.3,0.9,0.8,1.6l3.4,4.6l3.9-4.5c0.5-0.5,0.7-0.9,0.8-1.1c0.1-0.2,0.2-0.4,0.2-0.6
					c0-0.2-0.1-0.4-0.2-0.5c-0.2-0.2-0.4-0.4-0.6-0.4c-0.2-0.1-0.8-0.1-1.5-0.1v-0.5h7.8v0.5c-0.6,0-1.1,0.1-1.5,0.3
					c-0.6,0.2-1.1,0.5-1.6,0.9c-0.5,0.4-1.2,1.1-2,2.1L323.8,156.7z M297,148.8v7.9h4.8c1.2,0,2.1-0.2,2.5-0.5
					c0.6-0.5,0.9-1.2,0.9-2.4h0.6v7h-0.6c-0.1-1-0.3-1.6-0.5-1.9c-0.2-0.3-0.5-0.6-1-0.8c-0.4-0.2-1.1-0.3-2-0.3H297v6.6
					c0,0.9,0,1.4,0.1,1.6c0.1,0.2,0.2,0.3,0.5,0.5c0.2,0.1,0.6,0.2,1.2,0.2h3.7c1.2,0,2.1-0.1,2.7-0.2c0.6-0.2,1.1-0.5,1.6-0.9
					c0.7-0.6,1.4-1.5,2-2.8h0.6l-1.9,5h-16.9v-0.5h0.8c0.5,0,1-0.1,1.5-0.3c0.3-0.2,0.6-0.4,0.7-0.7c0.1-0.3,0.2-1,0.2-1.9v-13
					c0-1.3-0.1-2.1-0.4-2.4c-0.4-0.4-1-0.6-1.9-0.6h-0.8v-0.5h16.9l0.2,4.4h-0.6c-0.2-1.1-0.5-1.8-0.7-2.2c-0.3-0.4-0.7-0.7-1.2-0.9
					c-0.4-0.1-1.2-0.2-2.3-0.2H297z"/>
			</g>
			<g>
				<g>
					<path class="st10" d="M1001.6,109c-1.5-0.9-3.3-2.6-5.4-5.3L987,92.2c3.8-0.8,6.5-2,8.3-3.8c1.8-1.8,2.7-4,2.7-6.4
						c0-2.3-0.8-4.3-2.4-6c-1.6-1.7-3.5-2.8-5.7-3.4c-2.3-0.6-5.8-0.9-10.5-0.9h-16.3v1.1h1.7c1.7,0,3,0.4,3.8,1.3
						c0.6,0.6,0.9,2.2,0.9,4.7v26c0,2.3-0.2,3.7-0.7,4.4c-0.8,1.1-2.2,1.7-4.1,1.7h-1.7v1.1h19.2v-1.1h-1.8c-1.7,0-2.9-0.4-3.8-1.3
						c-0.6-0.6-0.9-2.2-0.9-4.7V93c0.4,0,0.7,0,1,0c0.3,0,0.6,0,0.9,0c0.7,0,1.6,0,2.7,0l15.1,18.8h11.9v-1.1
						C1005.1,110.4,1003.1,109.9,1001.6,109z M977.6,91.1c-0.2,0-0.5,0-0.7,0c-0.3,0-0.7,0-1.1,0V74.4c2.2-0.4,3.9-0.6,5.2-0.6
						c2.9,0,5.2,0.8,6.9,2.4c1.7,1.6,2.6,3.6,2.6,6.1c0,2.6-1.1,4.7-3.3,6.3C985.1,90.3,981.9,91.1,977.6,91.1z"/>
					<path class="st10" d="M934.8,73.8v15.9h9.8c2.6,0,4.3-0.3,5.1-1c1.1-0.9,1.8-2.5,1.9-4.8h1.2v14h-1.2c-0.3-1.9-0.6-3.2-0.9-3.8
						c-0.4-0.7-1-1.2-1.9-1.6c-0.9-0.4-2.3-0.6-4.2-0.6h-9.8v13.3c0,1.8,0.1,2.9,0.3,3.3c0.2,0.4,0.5,0.7,0.9,0.9
						c0.4,0.2,1.3,0.3,2.5,0.3h7.6c2.5,0,4.4-0.2,5.5-0.5c1.1-0.3,2.2-0.9,3.3-1.9c1.4-1.2,2.8-3.1,4.2-5.5h1.3l-3.8,10.1h-34.5
						v-1.1h1.6c1,0,2-0.2,3-0.7c0.7-0.3,1.2-0.8,1.4-1.4c0.2-0.6,0.4-1.9,0.4-3.9V78.6c0-2.6-0.3-4.1-0.9-4.7
						c-0.8-0.8-2.1-1.2-3.9-1.2h-1.6v-1.1h34.5l0.5,8.8h-1.3c-0.5-2.1-1-3.6-1.5-4.3c-0.6-0.8-1.4-1.4-2.5-1.8
						c-0.9-0.3-2.4-0.4-4.6-0.4H934.8z"/>
					<path class="st10" d="M901.1,72.7v-1.1h19.1v1.1h-1.6c-1.8,0-3.1,0.5-4,1.5c-0.5,0.6-0.8,2.2-0.8,4.6v19.7c0,3-0.4,5.5-1.1,7.4
						c-0.7,1.9-2,3.5-3.8,4.9c-1.8,1.4-4,2.1-6.5,2.1c-2.1,0-3.7-0.5-4.9-1.4c-1.2-0.9-1.8-2-1.8-3.2c0-1,0.3-1.7,0.8-2.2
						c0.7-0.6,1.6-0.9,2.5-0.9c0.7,0,1.3,0.2,1.9,0.6c0.6,0.4,1.3,1.5,2.1,3.3c0.5,1.1,1.2,1.6,2,1.6c0.6,0,1.1-0.3,1.7-1
						c0.5-0.6,0.8-1.8,0.8-3.5V78.7c0-2-0.2-3.4-0.4-4c-0.2-0.5-0.7-0.9-1.4-1.3c-0.9-0.5-1.9-0.7-3-0.7H901.1z"/>
					<path class="st10" d="M877.9,72.7v-1.1h15.8v1.1H892c-1.8,0-3.1,0.7-4.1,2c-0.5,0.6-0.7,2-0.7,4.3v16.3c0,4-0.4,7.2-1.3,9.4
						c-0.9,2.2-2.6,4.1-5.2,5.7c-2.6,1.6-6.2,2.4-10.6,2.4c-4.9,0-8.6-0.8-11.1-2.3c-2.5-1.5-4.3-3.6-5.4-6.1
						c-0.7-1.8-1.1-5.1-1.1-9.9V78.7c0-2.5-0.4-4.1-1.1-4.9c-0.8-0.8-2-1.2-3.7-1.2H846v-1.1h19.3v1.1h-1.7c-1.8,0-3.2,0.5-4,1.6
						c-0.5,0.7-0.8,2.2-0.8,4.4v17.5c0,1.6,0.2,3.3,0.5,5.4c0.3,2,0.9,3.6,1.7,4.7c0.8,1.1,2,2.1,3.6,2.8c1.6,0.7,3.5,1.1,5.8,1.1
						c2.9,0,5.5-0.6,7.8-1.7c2.3-1.1,3.9-2.6,4.7-4.4c0.8-1.8,1.3-4.8,1.3-9.1V78.7c0-2.5-0.3-4.1-0.9-4.7c-0.9-0.9-2.1-1.3-3.8-1.3
						H877.9z"/>
					<path class="st10" d="M813.3,111.8L796,77.9v26.9c0,2.5,0.3,4,0.9,4.6c0.8,0.8,2.1,1.2,3.9,1.2h1.6v1.1h-15.6v-1.1h1.6
						c1.9,0,3.2-0.5,4-1.5c0.5-0.6,0.7-2.1,0.7-4.3V78.5c0-1.8-0.2-3.1-0.6-3.9c-0.3-0.6-0.9-1-1.7-1.4c-0.8-0.4-2.2-0.6-4-0.6v-1.1
						h12.7l16.2,31.5l16-31.5h12.7v1.1h-1.5c-1.9,0-3.3,0.5-4.1,1.5c-0.5,0.6-0.7,2.1-0.7,4.3v26.3c0,2.5,0.3,4,0.9,4.6
						c0.8,0.8,2.1,1.2,3.8,1.2h1.5v1.1h-19v-1.1h1.6c1.9,0,3.3-0.5,4-1.5c0.5-0.6,0.7-2.1,0.7-4.3V77.9l-17.2,33.8H813.3z"/>
					<path class="st10" d="M767.4,109.3c-1-0.8-2.2-2.5-3.4-5.2l-15.6-33.4h-1.2l-15.7,33.1c-1.4,2.9-2.6,4.8-3.7,5.8
						c-0.6,0.5-1.8,0.9-3.6,1.2v1.1h14.1v-1.1c-2.2-0.1-3.6-0.4-4.2-0.9c-0.6-0.5-1-1-1-1.6c0-0.8,0.4-1.9,1.1-3.5l3-6.3h17.3
						l2.7,5.8c0.9,1.9,1.3,3.3,1.3,4.1c0,0.7-0.3,1.2-0.9,1.7c-0.6,0.5-1.8,0.7-3.6,0.8v1.1h17.6v-1.1
						C769.9,110.6,768.5,110.1,767.4,109.3z M738.3,96.1l7.8-16.2l7.6,16.2H738.3z"/>
					<path class="st10" d="M721.2,100.6l1.1,0.2l-3.8,10.9h-34.6v-1.1h1.7c1.9,0,3.2-0.6,4.1-1.7c0.5-0.6,0.7-2.1,0.7-4.4V78.7
						c0-2.5-0.3-4.1-0.9-4.7c-0.9-0.9-2.1-1.3-3.8-1.3h-1.7v-1.1h20.2v1.1c-2.4,0-4,0.2-5,0.6c-1,0.4-1.6,0.9-2,1.6
						c-0.3,0.6-0.5,2.2-0.5,4.5v25.3c0,1.6,0.2,2.8,0.5,3.4c0.3,0.4,0.7,0.7,1.2,0.9c0.6,0.2,2.3,0.3,5.1,0.3h3.3
						c3.4,0,5.8-0.2,7.2-0.7c1.4-0.5,2.6-1.3,3.8-2.4C718.9,105,720,103.1,721.2,100.6z"/>
					<path class="st10" d="M638.5,73.8v15.9h9.8c2.6,0,4.3-0.3,5.1-1c1.2-0.9,1.8-2.5,1.9-4.8h1.2v14h-1.2c-0.3-1.9-0.6-3.2-0.9-3.8
						c-0.4-0.7-1-1.2-1.9-1.6c-0.9-0.4-2.3-0.6-4.2-0.6h-9.8v13.3c0,1.8,0.1,2.9,0.3,3.3c0.2,0.4,0.5,0.7,0.9,0.9
						c0.4,0.2,1.3,0.3,2.5,0.3h7.6c2.5,0,4.4-0.2,5.5-0.5c1.2-0.3,2.2-0.9,3.3-1.9c1.4-1.2,2.8-3.1,4.2-5.5h1.3l-3.8,10.1h-34.5
						v-1.1h1.6c1,0,2.1-0.2,3-0.7c0.7-0.3,1.2-0.8,1.4-1.4c0.2-0.6,0.4-1.9,0.4-3.9V78.6c0-2.6-0.3-4.1-0.9-4.7
						c-0.8-0.8-2.1-1.2-4-1.2h-1.6v-1.1h34.5l0.5,8.8h-1.3c-0.5-2.1-1-3.6-1.5-4.3c-0.6-0.8-1.4-1.4-2.5-1.8
						c-0.9-0.3-2.4-0.4-4.7-0.4H638.5z"/>
					<path class="st10" d="M618.6,80.4c-2.1-3.2-4.9-5.5-8.4-6.8c-3.5-1.4-8.6-2-15.2-2h-18.2v1.1h1.7c1.7,0,3,0.4,3.8,1.3
						c0.6,0.6,0.9,2.2,0.9,4.7v26c0,2.3-0.2,3.7-0.7,4.4c-0.8,1.1-2.1,1.6-4,1.6h-1.7v1.1h20c8.7,0,15.2-2.1,19.4-6.3
						c3.8-3.8,5.7-8.4,5.7-14C621.8,87.3,620.7,83.6,618.6,80.4z M609.2,104.9c-3.4,3.2-7.6,4.8-12.7,4.8c-1.9,0-4.2-0.3-7-0.8V74.7
						c2.5-0.6,4.8-0.9,6.8-0.9c5.3,0,9.6,1.6,13,4.8c3.4,3.2,5,7.6,5,13.1C614.3,97.3,612.6,101.6,609.2,104.9z"/>
					<path class="st10" d="M557.4,109.3c-1-0.8-2.2-2.5-3.4-5.2l-15.6-33.4h-1.1l-15.7,33.1c-1.4,2.9-2.6,4.8-3.7,5.8
						c-0.6,0.5-1.8,0.9-3.6,1.2v1.1h14.1v-1.1c-2.2-0.1-3.6-0.4-4.2-0.9c-0.6-0.5-1-1-1-1.6c0-0.8,0.4-1.9,1.1-3.5l3-6.3h17.3
						l2.7,5.8c0.9,1.9,1.3,3.3,1.3,4.1c0,0.7-0.3,1.2-0.9,1.7c-0.6,0.5-1.8,0.7-3.6,0.8v1.1h17.6v-1.1
						C559.9,110.6,558.4,110.1,557.4,109.3z M528.3,96.1l7.8-16.2l7.6,16.2H528.3z"/>
					<path class="st10" d="M509.3,70.7l1,13.7h-1c-1.4-4.1-3.3-7-5.8-8.8c-2.5-1.8-5.6-2.7-9.1-2.7c-3,0-5.6,0.7-8,2
						c-2.4,1.4-4.3,3.5-5.7,6.5c-1.4,3-2.1,6.7-2.1,11.1c0,3.6,0.6,6.8,1.9,9.5c1.3,2.7,3.2,4.7,5.9,6.1c2.6,1.4,5.6,2.1,8.9,2.1
						c2.9,0,5.5-0.6,7.7-1.7c2.2-1.1,4.7-3.3,7.3-6.6l1,0.6c-2.2,3.6-4.9,6.2-7.8,7.9c-3,1.7-6.5,2.5-10.7,2.5
						c-7.4,0-13.1-2.5-17.2-7.4c-3-3.7-4.6-8-4.6-13c0-4,1-7.7,3-11.1c2-3.4,4.8-6,8.3-7.8c3.5-1.8,7.3-2.8,11.5-2.8
						c3.2,0,6.4,0.7,9.6,2.1c0.9,0.4,1.6,0.7,2,0.7c0.6,0,1.1-0.2,1.5-0.6c0.6-0.5,1-1.3,1.2-2.2H509.3z"/>
					<path class="st10" d="M467,110.7v1.1h-19.2v-1.1h1.6c1.8,0,3.2-0.5,4-1.5c0.5-0.6,0.8-2.2,0.8-4.6v-26c0-2-0.1-3.4-0.4-4
						c-0.2-0.5-0.7-0.9-1.3-1.3c-1-0.5-2-0.7-3-0.7h-1.6v-1.1H467v1.1h-1.6c-1.8,0-3.2,0.5-4,1.5c-0.6,0.6-0.8,2.2-0.8,4.6v26
						c0,2,0.1,3.4,0.4,4c0.2,0.5,0.7,0.9,1.4,1.3c1,0.5,2,0.7,3,0.7H467z"/>
					<path class="st10" d="M396.5,71.6h12.1l27.3,30.1V78.5c0-2.5-0.3-4-0.9-4.6c-0.8-0.8-2.1-1.3-3.9-1.3h-1.6v-1.1h15.6v1.1h-1.6
						c-1.9,0-3.2,0.5-4,1.5c-0.5,0.6-0.7,2.1-0.7,4.3v33.9h-1.2l-29.5-32.4v24.8c0,2.5,0.3,4,0.9,4.6c0.8,0.8,2.1,1.2,3.9,1.2h1.6
						v1.1H399v-1.1h1.5c1.9,0,3.3-0.5,4.1-1.5c0.5-0.6,0.7-2.1,0.7-4.3v-28c-1.3-1.4-2.3-2.3-3-2.7c-0.7-0.4-1.6-0.8-2.9-1.2
						c-0.6-0.2-1.6-0.3-2.9-0.3V71.6z"/>
					<path class="st10" d="M393.6,110.7v1.1h-19.2v-1.1h1.6c1.8,0,3.2-0.5,4-1.5c0.5-0.6,0.8-2.2,0.8-4.6v-26c0-2-0.1-3.4-0.4-4
						c-0.2-0.5-0.7-0.9-1.3-1.3c-1-0.5-2-0.7-3-0.7h-1.6v-1.1h19.2v1.1H392c-1.8,0-3.1,0.5-4,1.5c-0.6,0.6-0.8,2.2-0.8,4.6v26
						c0,2,0.1,3.4,0.4,4c0.2,0.5,0.7,0.9,1.4,1.3c0.9,0.5,1.9,0.7,3,0.7H393.6z"/>
					<path class="st10" d="M372.4,100.6l1.1,0.2l-3.8,10.9H335v-1.1h1.7c1.9,0,3.2-0.6,4-1.7c0.5-0.6,0.7-2.1,0.7-4.4V78.7
						c0-2.5-0.3-4.1-0.9-4.7c-0.9-0.9-2.1-1.3-3.8-1.3H335v-1.1h20.2v1.1c-2.4,0-4,0.2-5,0.6c-1,0.4-1.6,0.9-2,1.6
						c-0.4,0.6-0.5,2.2-0.5,4.5v25.3c0,1.6,0.2,2.8,0.5,3.4c0.3,0.4,0.7,0.7,1.2,0.9c0.6,0.2,2.3,0.3,5.1,0.3h3.3
						c3.4,0,5.8-0.2,7.2-0.7c1.4-0.5,2.6-1.3,3.8-2.4C370.1,105,371.3,103.1,372.4,100.6z"/>
					<path class="st10" d="M329.3,70.7l1,13.7h-1c-1.4-4.1-3.3-7-5.8-8.8c-2.5-1.8-5.6-2.7-9.1-2.7c-3,0-5.6,0.7-8,2
						c-2.4,1.4-4.3,3.5-5.6,6.5c-1.4,3-2.1,6.7-2.1,11.1c0,3.6,0.6,6.8,2,9.5c1.3,2.7,3.2,4.7,5.8,6.1c2.6,1.4,5.6,2.1,8.9,2.1
						c2.9,0,5.5-0.6,7.7-1.7c2.2-1.1,4.7-3.3,7.3-6.6l1,0.6c-2.2,3.6-4.9,6.2-7.8,7.9c-3,1.7-6.5,2.5-10.7,2.5
						c-7.4,0-13.1-2.5-17.2-7.4c-3-3.7-4.5-8-4.5-13c0-4,1-7.7,3-11.1c2-3.4,4.8-6,8.3-7.8c3.5-1.8,7.3-2.8,11.5-2.8
						c3.2,0,6.4,0.7,9.6,2.1c0.9,0.4,1.6,0.7,2,0.7c0.6,0,1.1-0.2,1.5-0.6c0.6-0.5,1-1.3,1.2-2.2H329.3z"/>
				</g>
				<g>
					<path class="st10" d="M391.3,63.6c-0.3,0.4-0.8,0.8-1.5,1.2l-4.7,3.4h-2.6l4.3-6.5c0.3-0.3,0.7-0.7,1.3-1
						c0.5-0.3,1-0.5,1.6-0.5c0.5,0,1,0.2,1.5,0.6c0.4,0.4,0.7,0.9,0.7,1.5C391.8,62.8,391.7,63.2,391.3,63.6z"/>
				</g>
			</g>
		</g>
	</g>
	<text transform="matrix(1.0266 0 0 1 232.6992 490.6968)" class="st11"><tspan x="0" y="0" class="st12 st13 st14">Vacúnate en la Clínica de la Mujer</tspan><tspan x="0" y="77.6" class="st12 st13 st14">en tiempos de cuarentena</tspan></text>
	<g class="st11">
		<text transform="matrix(1.0266 0 0 1 232.6992 769.6553)"><tspan x="0" y="0" class="st12 st13 st14">Lunes a viernes 7am a 1pm</tspan><tspan x="0" y="77.6" class="st12 st13 st14">Teléfono: 6161799 Ext 175</tspan></text>
	</g>
	<text transform="matrix(1.0266 0 0 1 213.0078 1052.6016)" class="st15 st13 st16">Se recomienda que el niño vaya solo con un acompañante</text>
	<g class="st17">
		<path d="M1669.6,611.8c0,0-65.5,32.5-156.2,2.4c0,0,12.6,136.2,16.2,165c5.1,18.7,12.6,148.4,12.6,148.4s15.5,15.6,49.4,5.2
			c0,0-9.3-143.3-8.1-156.2s0.6-141.1,0.6-141.1s6.3,28,10.2,74c3.9,46,8.7,93.6,8.7,93.6s6.6,56.1,5.7,123.4
			c0,0,19.7,21.4,50.3,3.5c0,0-5.8-114.1-5.8-120.2C1653,803.7,1667.3,636.2,1669.6,611.8z"/>
		<path d="M1653.6,978.3v13.9c0,0-15.3,31.8-40.1,28.1c-24.8-3.8-7.2-39.1-7.2-39.1l1.5-5.5l45-5.6L1653.6,978.3z"/>
		<path d="M1650.7,934.7c0,0,3.9,31.9,2.9,39c0,0-5.7,11.9-8.7,12.5c-3,0.6-5.4,2.3-8.7-2.3s-15-6.6-21.5-2.4
			c-4.9,3.1-6.5,3.4-6.8-0.3c-0.1-1.3-0.1-3.1,0-5.5c2.1-7.6,7.5-26.5,7.2-45.2C1615,930.5,1632.6,942.6,1650.7,934.7z"/>
		<path d="M1499.7,1008.4c14.9,0.8,59.2,0.8,82.8-23.4c0,0,0.4-9.3,0-13.4s-33.9-3.8-33.9-3.8l-15.6-1.7l-2.6,1.7
			c0,0-32.5,14.9-35.6,34.6C1494.2,1005.4,1496.5,1008.2,1499.7,1008.4z"/>
		<path d="M1580.1,935.2c0,0,2,27.4,2.3,38.7c0.3,11.4,0,1.5,0,1.5s-21.5,19.7-37.7,11.6c-1.8-3.4-9.6-18.9-14.4-19.2
			c0,0,17.4-10.8,17.4-14c0-3.2,1.2-21.1,1.2-21.1S1563.1,938.7,1580.1,935.2z"/>
		<path d="M1643.2,331.7c0,0-9,8.1-22.7,11.4c-9.9,2.5-22,1.9-36.4-3.2c-3.7-1.9-6-3.1-6-3.1l-2.3-8.4c0,0,17.4-0.9,18.2-2.6
			c0.8-1.7,0-5.2,0-5.2s24.4,0.3,29.3-1.7v5C1623.5,323.8,1633.6,326.1,1643.2,331.7z"/>
		<path d="M1645.3,153.2c0,0,7.2,37.2,44.4,62.5v17.9c0,0-17.5,70.4-24.2,71.7c0,0,66,14.4,86.6-24c0,0-16.6-3.5-18.4-39.8
			c0,0,20.2-66.9,6.7-96.6S1697,97.3,1697,97.3s-44.9-42.8-108.2-31.5c-63.3,11.4-113.5,77.4-102.3,134.2l24.2,4.4l0.9-9.6
			C1511.6,194.8,1603.6,195.7,1645.3,153.2z"/>
		<path d="M1508,197v50.6c0,6.4,1.3,12.7,4,18.6c8.5,18.7,31.9,56.3,82.2,55.3c64.8-1.3,84.9-24.3,98.4-46.8
			c0.8-1.3,2.1-2.1,3.6-2.2c6.3-0.3,23.3-2.7,25.7-21c2.9-22.5-14.1-35.8-29.4-16.6l-0.4-13.3c0,0,0-7.4-10.3-11.4
			c-10.3-3.9-33.2-40.9-35.2-56.8v0c-0.3-1.9-2.5-2.7-4.1-1.6c-13,9.3-62.4,41-130.3,41.2C1509.9,193.1,1508,194.8,1508,197z"/>
		<path class="st18" d="M1606.6,443.7c0,0-40.9-12.6-57-21.9c0,0-7-0.8-3.9,5.1c0,0,8.7,6,10.4,14.6c1.7,8.6,2.9,18.1,0.7,25.7
			l33.1-8.3l12.1-3.9L1606.6,443.7z"/>
		<path d="M1673.2,609.6c0,0,6-51-15-86.3c-20.9-35.3-23.9-46.6-24.1-49c-0.2-2.4,58.3-80.2,41.7-112.1c-9.9-17-31.9-31-31.9-31
			s-32.3,28.4-69.6,2.2c-37.2-26.2-40.1,177.5-40.1,177.5s-18.1,7.3-23.3,102.4C1511,613.3,1582.5,657.3,1673.2,609.6z"/>
		<path d="M1589.4,488.7c0,0-4.2-21.6-4.5-28.3l17.1-5.5c0,0,41.6-101.4,49.4-102.3c7.8-0.9,26.6-5.5,27.5,18.9
			c0.8,20.5-22.3,70.2-39.9,96.1c-6.8,10-17.4,16.8-29.4,19C1604.4,487.6,1598,488.3,1589.4,488.7z"/>
		<path d="M1589.4,492.5c0,0-4.8-32.1-4.5-33.5s-14.1-1.5-19.1,5.8v25.4C1565.8,490.2,1580.1,496.3,1589.4,492.5z"/>
		<path d="M1565.7,465.8c0,0-29.8,3.7-36.1,2c-6.3-1.7-15.8-6.8-18.5-6.8c-2.8,0-14.2-14-14.2-14l-2.2-2.6c0,0-6.6-2.9-3.6,3.4
			c0,0,8.5,8.2,7.2,11.7c-1.3,3.5-6.6,1.2-6.6,1.2s-10.9-1.9-13.8-5.8c-2.8-3.9-6-4-3.6,3.5c0,0,0.6,0.4,1.7,1.1
			c3,2,9.3,6.1,11.1,6.2l-3.1-0.8l-7.7-4.7c0,0-2.2,2.6,1.7,6.5c3.9,3.9,7,4.2,7,4.2s-3.7-0.5-7-3.7c0,0-0.7,6,1.3,7
			c2,1.1,2,3.5,1.7,4.2c-0.3,0.7-2,5.6,1.2,7c3.3,1.4,6.6,5.2,7.6,5.6c1,0.3,23.7,3.2,38-1.6c7.7-0.3,38,0.4,38,0.4L1565.7,465.8z"
			/>
		<path d="M1553.1,489.3c0,0-2.4,6.1-7.7,7c-0.9,1.6-1.2,7.4,4,9.8c5.2,2.3,5.9,12.8-1.9,14.9c-7.8,2-26.6-3.9-29.5-13.8
			c0,0,1.2-11.8,6.2-16.8c0,0,1.2-0.9,3.6-1C1535,488.8,1542.5,489.2,1553.1,489.3z"/>
		<path d="M1556.8,467.1c0,0,6.6-28-10.8-39.9c-1.4-1.4-2.8-6.1,3.6-5.4c3.7-1.6,20.1-8.2,21.5-10.8c1.3-2.6,5.4-18.1-7-23.8
			c-2.2,1.5-3.4,8-21.1,5.4c-0.3,0-0.6-0.1-0.9-0.1c-3.2-0.5,0.6,0.1,0.3,0c-0.3,0-17-6.5-34.7-3.3c-1.5,0.3-26.3,26.5-30.2,38
			c-3.9,11.4-4.1,23.8-4.1,23.8l0.3,1.5c0,0,0.6-1.1,2.8,0.7l1.8,2.1c0,0,5.6,4.3,10.9,5l2.3,0.3c0,0,2.6,1.1,4.3,0.7
			c1.6-0.3,3.3-1.4,2.2-4.4c-1.3-2.5-1.4-3.3-5.6-7.8l-1.3-1.4c0,0-2.3-4.3,1-4l2.6,0.7c0,0,7.3,8.7,9.9,11.3c2.6,2.6,4.9,5,6.6,5.3
			s4,1.1,4,1.1s11.2,4.9,14.6,5.7c0,0,4.9,0.8,6.4,0.5L1556.8,467.1z"/>
		<path d="M1518,507.1c0,0-8-4.2-12-15.1c0,0,11.8-0.1,18.2-1.8C1524.2,490.2,1519.5,494.7,1518,507.1z"/>
		<path d="M1571.5,409.9c0,0,5.8-16.5-7.4-22.7c0,0,1.5-0.9,0.7-3.1c-0.7-2.2,2.7-7.6,7.9,0c0,0,5.2,1,5.5-2.5
			c0.3-3.5,0.4-6.3,3-6.7c1.9-0.3,2.8,0.1,3.5,3.8c0.3,1.7,0.3,3.4,0.1,5.1l0,0.1c0,0,5.8,0.9,5.7-3.8c0,0,5.4-3.2,4.3,5.8
			c-1,9-2.7,9-2.7,9s0.9,1.9-0.1,3.4c-1.3,2,0.1,1.5-2.6,6c-0.6,1-3.1,0.1-4,0.6S1580.6,405.2,1571.5,409.9z"/>
		<path d="M1542.1,392.4c0,0-23.3-7.4-34.4-3.2l-3.5,3.2c0,0-16.2-5.2-24.6-2.2c0,0-13.2,1.5-15.3-13.9c0-4.4,3-5.2,3-5.2
			s-1.5-11.4-5.1-16.9c-3.6-5.5-0.6-63.2,41.3-67.3c41.1-4,59.1,7.4,71.7,30.6c0.3,0.5,0.5,0.9,0.8,1.4c1.5,6.4,3.3,13.4,5.4,17.2
			c2.1,3.8-0.3,27.5-5.4,34.4C1568.5,380.3,1562.8,384.9,1542.1,392.4z"/>
		<path d="M1577.8,318.7c0,0-6.9-34.8-54.7-33.3c0,0,38-0.2,52.9,33.4l0.3,1.4C1576.3,320.2,1577.9,321,1577.8,318.7z"/>
		<path d="M1525.7,283.5c0,0,5.7,12.2-14.7,7c-3,0-8.7,12.8,5.7,9.9C1531.1,297.5,1531.4,290.5,1525.7,283.5z"/>
		<path class="st19" d="M1569.9,321.6c0,0-3.6-6.3-11.1-5.7"/>
		<path class="st19" d="M1505.9,334.2c0,0-7.8,4.9-9,10.3"/>
		<ellipse cx="1564.1" cy="335.7" rx="4.6" ry="4.5"/>
		<ellipse cx="1509.6" cy="353.5" rx="4.6" ry="4.5"/>
		<path d="M1554.5,348.9c0,0-7.4,13.5-26.7,10.2c0,0,0.4,9.6,6.7,13.9c2.4,1.6,5.7,2.5,10.2,1.7
			C1560.7,372,1554.5,348.9,1554.5,348.9z"/>
		<path d="M1555.2,364.2c0,0-1.3,10.1-12.1,10.8c-9.8,0.7-12.1-5.4-12.1-5.4s9.5-3.3,11.3-2.3
			C1542.3,367.2,1549.6,363.2,1555.2,364.2z"/>
		<path class="st20" d="M1627.8,210.1c0,0,22.4-9.6,31.9,8.7"/>
		<path class="st20" d="M1550.2,213.2c0,0-12.1-7.4-27.1,13.5"/>
		<ellipse cx="1641.2" cy="241.2" rx="12" ry="16.1"/>
		<ellipse cx="1642.7" cy="241.2" rx="7.9" ry="10.4"/>
		<ellipse cx="1641.2" cy="242" rx="4.4" ry="4.3"/>
		<ellipse class="st21" cx="1640.2" cy="237.7" rx="3.6" ry="3.5"/>
		<polyline class="st22" points="1634.8,226.7 1631.2,226.7 1631.2,221.9 		"/>
		
			<ellipse transform="matrix(0.9955 -9.482917e-02 9.482917e-02 0.9955 -16.8831 147.7272)" cx="1545.9" cy="251.5" rx="12" ry="16.1"/>
		
			<ellipse transform="matrix(0.9955 -9.515570e-02 9.515570e-02 0.9955 -16.8982 148.3813)" cx="1547.4" cy="251.4" rx="7.9" ry="10.4"/>
		<ellipse cx="1545.9" cy="252.3" rx="4.4" ry="4.3"/>
		<ellipse class="st21" cx="1544.6" cy="248.1" rx="3.6" ry="3.5"/>
		<polyline class="st22" points="1538.2,237.6 1534.7,237.9 1534.2,233.1 		"/>
		<path d="M1623.8,266.6c0,0-23.6,12.2-52.4,8.2c0,0,8.1,26.8,28.1,26.1S1623.2,287,1623.8,266.6z"/>
		<path d="M1582.1,292.2c0,0,11-6,17.9-2.8c0,0,17.7-5,20.3-1c0,0-4,13.6-21.6,12.4C1592.6,300.9,1583.7,296.5,1582.1,292.2z"/>
		<path class="st23" d="M1714.7,237.9c0,0-8.8,0.1-8.8,6.7c0,0-5.6-1-4.9,13.8C1701,258.4,1690,231.8,1714.7,237.9z"/>
		<path d="M1531,407.5c0,0-27.4-11.1-32.3-16.6c-4.9-5.5-23.9-4.6-25.4,9.6c-1.5,14.2,7.7,19.7,7.7,19.7l23.8,27.3
			c0,0,6,3.5,11.6,2.8c2.1-0.8-0.4-1.9-0.4-1.9s-7.2-2.3-8.8-4.7c-1.6-2.4-2.4-5-2.4-5l12.9,6.8c0,0,7.4,3.3,11.1,3.9
			c1,0.2,2.8-0.6,2.8-0.8c0-0.9-3.2-3.7-5.9-4.8c-3.2-1.3-15.1-6-16.9-8.4c0,0,14.1,4.2,14.9,4.4c0.6,0.2,8,1.6,11.2,0.9
			c0.7-0.1,1.4-0.8,1.6-1.1c1.2-1.7-9.2-3.6-10.5-4.3c-1.3-0.7-8.4-1.9-10.3-3.8c-1.5-1.5,5-1.3,9.8,0.2c4.4,1.4,14.5,3.8,14.5,3.8
			s5.8-1.5-6.8-6.8s-15.5-14.4-15.5-14.4s0.3-3.5,11.3-1.9C1540.2,413.9,1531,407.5,1531,407.5z"/>
		<path class="st24" d="M1601.3,787.8c0,0,29.3,20.3,35.3,2.8l-7.6,107.2c0,0-16.2-1.2-20.5,13.4L1601.3,787.8z"/>
		<path class="st24" d="M1583.4,787.8l6.5,119.9c0,0-11.3-12.2-16.1-8.1l-8.4-111.8C1565.5,787.8,1583.6,795.5,1583.4,787.8z"/>
	</g>
	<g>
		<path class="st25" d="M1634.5,609.9c0,0-65.5,32.5-156.2,2.4c0,0,12.6,136.2,16.2,165c5.1,18.7,12.6,148.4,12.6,148.4
			s15.5,15.6,49.4,5.2c0,0-9.3-143.3-8.1-156.2s0.6-141.1,0.6-141.1s6.3,28,10.2,74c3.9,46,8.7,93.6,8.7,93.6s6.6,56.1,5.7,123.4
			c0,0,19.7,21.4,50.3,3.5c0,0-5.8-114.1-5.8-120.2C1617.9,801.8,1632.2,634.3,1634.5,609.9z"/>
		<path class="st26" d="M1618.5,976.4v13.9c0,0-15.3,31.8-40.1,28.1s-7.2-39.1-7.2-39.1l1.5-5.5l45-5.6L1618.5,976.4z"/>
		<path class="st27" d="M1615.6,932.8c0,0,3.9,31.9,2.9,39c0,0-5.7,11.9-8.7,12.5c-3,0.6-5.4,2.3-8.7-2.3s-15-6.6-21.5-2.4
			c-4.9,3.1-6.5,3.4-6.8-0.3c-0.1-1.3-0.1-3.1,0-5.5c2.1-7.6,7.5-26.5,7.2-45.2C1579.9,928.6,1597.5,940.7,1615.6,932.8z"/>
		<path class="st28" d="M1464.6,1006.5c14.9,0.8,59.2,0.8,82.8-23.4c0,0,0.4-9.3,0-13.4s-33.9-3.8-33.9-3.8l-15.6-1.7l-2.6,1.7
			c0,0-32.5,14.9-35.6,34.6C1459.1,1003.5,1461.5,1006.3,1464.6,1006.5z"/>
		<path class="st29" d="M1545,933.3c0,0,2,27.4,2.3,38.7c0.3,11.4,0,1.5,0,1.5s-21.5,19.7-37.7,11.6c-1.8-3.4-9.6-18.9-14.4-19.2
			c0,0,17.4-10.8,17.4-14c0-3.2,1.2-21.1,1.2-21.1S1528,936.8,1545,933.3z"/>
		<path class="st30" d="M1608.2,329.8c0,0-9,8.1-22.7,11.4c-9.9,2.5-22,1.9-36.4-3.2c-3.7-1.9-6-3.1-6-3.1l-2.3-8.4
			c0,0,17.4-0.9,18.2-2.6c0.8-1.7,0-5.2,0-5.2s24.4,0.3,29.3-1.7v5C1588.4,321.9,1598.5,324.2,1608.2,329.8z"/>
		<path class="st31" d="M1610.3,151.3c0,0,7.2,37.2,44.4,62.5v17.9c0,0-17.5,70.4-24.2,71.7c0,0,66,14.4,86.6-24
			c0,0-16.6-3.5-18.4-39.8c0,0,20.2-66.9,6.7-96.6s-43.5-47.7-43.5-47.7s-44.9-42.8-108.2-31.5c-63.3,11.4-113.5,77.4-102.3,134.2
			l24.2,4.4l0.9-9.6C1476.5,192.9,1568.5,193.8,1610.3,151.3z"/>
		<path class="st27" d="M1472.9,195.1v50.6c0,6.4,1.3,12.7,4,18.6c8.5,18.7,31.9,56.3,82.2,55.3c64.8-1.3,84.9-24.3,98.4-46.8
			c0.8-1.3,2.1-2.1,3.6-2.2c6.3-0.3,23.3-2.7,25.7-21c2.9-22.5-14.1-35.8-29.4-16.6l-0.4-13.3c0,0,0-7.4-10.3-11.4
			c-10.3-3.9-33.2-40.9-35.2-56.8v0c-0.3-1.9-2.5-2.7-4.1-1.6c-13,9.3-62.4,41-130.3,41.2C1474.8,191.2,1472.9,192.9,1472.9,195.1z"
			/>
		<path class="st32" d="M1571.5,441.8c0,0-40.9-12.6-57-21.9c0,0-7-0.8-3.9,5.1c0,0,8.7,6,10.4,14.6c1.7,8.6,2.9,18.1,0.7,25.7
			l33.1-8.3l12.1-3.9L1571.5,441.8z"/>
		<path class="st33" d="M1638.1,607.7c0,0,6-51-15-86.3c-20.9-35.3-23.9-46.6-24.1-49c-0.2-2.4,58.3-80.2,41.7-112.1
			c-9.9-17-31.9-31-31.9-31s-32.3,28.4-69.6,2.2s-40.1,177.5-40.1,177.5s-18.1,7.3-23.3,102.4
			C1475.9,611.4,1547.4,655.4,1638.1,607.7z"/>
		<path class="st34" d="M1554.3,486.8c0,0-4.2-21.6-4.5-28.3l17.1-5.5c0,0,41.6-101.4,49.4-102.3c7.8-0.9,26.6-5.5,27.5,18.9
			c0.8,20.5-22.3,70.2-39.9,96.1c-6.8,10-17.4,16.8-29.4,19C1569.3,485.7,1562.9,486.4,1554.3,486.8z"/>
		<path class="st35" d="M1554.3,490.6c0,0-4.8-32.1-4.5-33.5s-14.1-1.5-19.1,5.8v25.4C1530.7,488.3,1545,494.4,1554.3,490.6z"/>
		<path class="st36" d="M1530.6,463.9c0,0-29.8,3.7-36.1,2c-6.3-1.7-15.8-6.8-18.5-6.8s-14.2-14-14.2-14l-2.2-2.6
			c0,0-6.6-2.9-3.6,3.4c0,0,8.5,8.2,7.2,11.7c-1.3,3.5-6.6,1.2-6.6,1.2s-10.9-1.9-13.8-5.8c-2.8-3.9-6-4-3.6,3.5
			c0,0,0.6,0.4,1.7,1.1c3,2,9.3,6.1,11.1,6.2l-3.1-0.8l-7.7-4.7c0,0-2.2,2.6,1.7,6.5c3.9,3.9,7,4.2,7,4.2s-3.7-0.5-7-3.7
			c0,0-0.7,6,1.3,7c2,1.1,2,3.5,1.7,4.2c-0.3,0.7-2,5.6,1.2,7c3.3,1.4,6.6,5.2,7.6,5.6c1,0.3,23.7,3.2,38-1.6c7.7-0.3,38,0.4,38,0.4
			L1530.6,463.9z"/>
		<path class="st37" d="M1518,487.4c0,0-2.4,6.1-7.7,7c-0.9,1.6-1.2,7.4,4,9.8c5.2,2.3,5.9,12.8-1.9,14.9c-7.8,2-26.6-3.9-29.5-13.8
			c0,0,1.2-11.8,6.2-16.8c0,0,1.2-0.9,3.6-1C1499.9,486.9,1507.4,487.3,1518,487.4z"/>
		<path class="st37" d="M1521.7,465.2c0,0,6.6-28-10.8-39.9c-1.4-1.4-2.8-6.1,3.6-5.4c3.7-1.6,20.1-8.2,21.5-10.8
			c1.3-2.6,5.4-18.1-7-23.8c-2.2,1.5-3.4,8-21.1,5.4c-0.3,0-0.6-0.1-0.9-0.1c-3.2-0.5,0.6,0.1,0.3,0c-0.3,0-17-6.5-34.7-3.3
			c-1.5,0.3-26.3,26.5-30.2,38c-3.9,11.4-4.1,23.8-4.1,23.8l0.3,1.5c0,0,0.6-1.1,2.8,0.7l1.8,2.1c0,0,5.6,4.3,10.9,5l2.3,0.3
			c0,0,2.6,1.1,4.3,0.7c1.6-0.3,3.3-1.4,2.2-4.4c-1.3-2.5-1.4-3.3-5.6-7.8l-1.3-1.4c0,0-2.3-4.3,1-4l2.6,0.7c0,0,7.3,8.7,9.9,11.3
			c2.6,2.6,4.9,5,6.6,5.3s4,1.1,4,1.1s11.2,4.9,14.6,5.7c0,0,4.9,0.8,6.4,0.5L1521.7,465.2z"/>
		<path class="st38" d="M1482.9,505.2c0,0-8-4.2-12-15.1c0,0,11.8-0.1,18.2-1.8C1489.1,488.3,1484.4,492.8,1482.9,505.2z"/>
		<path class="st39" d="M1536.4,408c0,0,5.8-16.5-7.4-22.7c0,0,1.5-0.9,0.7-3.1c-0.7-2.2,2.7-7.6,7.9,0c0,0,5.2,1,5.5-2.5
			c0.3-3.5,0.4-6.3,3-6.7c1.9-0.3,2.8,0.1,3.5,3.8c0.3,1.7,0.3,3.4,0.1,5.1l0,0.1c0,0,5.8,0.9,5.7-3.8c0,0,5.4-3.2,4.3,5.8
			c-1,9-2.7,9-2.7,9s0.9,1.9-0.1,3.4c-1.3,2,0.1,1.5-2.6,6c-0.6,1-3.1,0.1-4,0.6S1545.6,403.3,1536.4,408z"/>
		<path class="st40" d="M1507,390.5c0,0-23.3-7.4-34.4-3.2l-3.5,3.2c0,0-16.2-5.2-24.6-2.2c0,0-13.2,1.5-15.3-13.9
			c0-4.4,3-5.2,3-5.2s-1.5-11.4-5.1-16.9c-3.6-5.5-0.6-63.2,41.3-67.3c41.1-4,59.1,7.4,71.7,30.6c0.3,0.5,0.5,0.9,0.8,1.4
			c1.5,6.4,3.3,13.4,5.4,17.2c2.1,3.8-0.3,27.5-5.4,34.4C1533.5,378.4,1527.7,383,1507,390.5z"/>
		<path class="st41" d="M1542.7,316.8c0,0-6.9-34.8-54.7-33.3c0,0,38-0.2,52.9,33.4l0.3,1.4C1541.2,318.3,1542.8,319.1,1542.7,316.8
			z"/>
		<path class="st42" d="M1490.6,281.6c0,0,5.7,12.2-14.7,7c-3,0-8.7,12.8,5.7,9.9C1496,295.6,1496.3,288.6,1490.6,281.6z"/>
		<path class="st43" d="M1534.9,319.7c0,0-3.6-6.3-11.1-5.7"/>
		<path class="st43" d="M1470.8,332.3c0,0-7.8,4.9-9,10.3"/>
		<ellipse class="st42" cx="1529" cy="333.8" rx="4.6" ry="4.5"/>
		<ellipse class="st42" cx="1474.5" cy="351.6" rx="4.6" ry="4.5"/>
		<path class="st44" d="M1519.4,347c0,0-7.4,13.5-26.7,10.2c0,0,0.4,9.6,6.7,13.9c2.4,1.6,5.7,2.5,10.2,1.7
			C1525.7,370.1,1519.4,347,1519.4,347z"/>
		<path class="st45" d="M1520.1,362.3c0,0-1.3,10.1-12.1,10.8c-9.8,0.7-12.1-5.4-12.1-5.4s9.5-3.3,11.3-2.3
			C1507.2,365.3,1514.5,361.3,1520.1,362.3z"/>
		<path class="st46" d="M1592.8,208.2c0,0,22.4-9.6,31.9,8.7"/>
		<path class="st46" d="M1515.1,211.3c0,0-12.1-7.4-27.1,13.5"/>
		<ellipse class="st47" cx="1606.1" cy="239.3" rx="12" ry="16.1"/>
		<ellipse class="st48" cx="1607.6" cy="239.3" rx="7.9" ry="10.4"/>
		<ellipse class="st49" cx="1606.1" cy="240.1" rx="4.4" ry="4.3"/>
		<ellipse class="st50" cx="1605.1" cy="235.8" rx="3.6" ry="3.5"/>
		<polyline class="st51" points="1599.7,224.8 1596.1,224.8 1596.1,220 		"/>
		
			<ellipse transform="matrix(0.9955 -9.482917e-02 9.482917e-02 0.9955 -16.8609 144.3911)" class="st47" cx="1510.8" cy="249.6" rx="12" ry="16.1"/>
		
			<ellipse transform="matrix(0.9955 -9.515570e-02 9.515570e-02 0.9955 -16.8765 145.0338)" class="st48" cx="1512.3" cy="249.5" rx="7.9" ry="10.4"/>
		<ellipse class="st49" cx="1510.9" cy="250.4" rx="4.4" ry="4.3"/>
		<ellipse class="st50" cx="1509.5" cy="246.2" rx="3.6" ry="3.5"/>
		<polyline class="st51" points="1503.2,235.7 1499.6,236 1499.2,231.2 		"/>
		<path class="st52" d="M1588.7,264.7c0,0-23.6,12.2-52.4,8.2c0,0,8.1,26.8,28.1,26.1C1584.5,298.2,1588.1,285.1,1588.7,264.7z"/>
		<path class="st45" d="M1547,290.3c0,0,11-6,17.9-2.8c0,0,17.7-5,20.3-1c0,0-4,13.6-21.6,12.4C1557.5,299,1548.6,294.6,1547,290.3z
			"/>
		<path class="st53" d="M1679.6,236c0,0-8.8,0.1-8.8,6.7c0,0-5.6-1-4.9,13.8C1665.9,256.5,1654.9,229.9,1679.6,236z"/>
		<path class="st54" d="M1495.9,405.6c0,0-27.4-11.1-32.3-16.6c-4.9-5.5-23.9-4.6-25.4,9.6c-1.5,14.2,7.7,19.7,7.7,19.7l23.8,27.3
			c0,0,6,3.5,11.6,2.8c2.1-0.8-0.4-1.9-0.4-1.9s-7.2-2.3-8.8-4.7c-1.6-2.4-2.4-5-2.4-5l12.9,6.8c0,0,7.4,3.3,11.1,3.9
			c1,0.2,2.8-0.6,2.8-0.8c0-0.9-3.2-3.7-5.9-4.8c-3.2-1.3-15.1-6-16.9-8.4c0,0,14.1,4.2,14.9,4.4c0.6,0.2,8,1.6,11.2,0.9
			c0.7-0.1,1.4-0.8,1.6-1.1c1.2-1.7-9.2-3.6-10.5-4.3s-8.4-1.9-10.3-3.8c-1.5-1.5,5-1.3,9.8,0.2c4.4,1.4,14.5,3.8,14.5,3.8
			s5.8-1.5-6.8-6.8s-15.5-14.4-15.5-14.4s0.3-3.5,11.3-1.9C1505.1,412,1495.9,405.6,1495.9,405.6z"/>
		<path class="st55" d="M1566.3,785.9c0,0,29.3,20.3,35.3,2.8L1594,896c0,0-16.2-1.2-20.5,13.4L1566.3,785.9z"/>
		<path class="st55" d="M1548.3,785.9l6.5,119.9c0,0-11.3-12.2-16.1-8.1l-8.4-111.8C1530.4,785.9,1548.5,793.6,1548.3,785.9z"/>
	</g>
	<g>
		<ellipse class="st4" cx="195.4" cy="1033.5" rx="9.5" ry="9.2"/>
		<ellipse class="st5" cx="195.4" cy="1033.5" rx="3.2" ry="3.2"/>
	</g>
	<g>
		<ellipse class="st4" cx="1766.2" cy="1033.5" rx="9.5" ry="9.2"/>
		<ellipse class="st5" cx="1766.2" cy="1033.5" rx="3.2" ry="3.2"/>
	</g>
</g>
<g id="Capa_2">
</g>
</svg>
